<svg xmlns="http://www.w3.org/2000/svg" fill="none" viewBox="0 0 100 100"><g clip-path="url(#a)"><path fill="#F02E65" d="M76.563 0H23.438C10.493 0 0 10.492 0 23.436v53.125c0 12.944 10.493 23.437 23.438 23.437h53.125C89.507 100 100 89.506 100 76.562V23.437C100 10.492 89.507-.001 76.563-.001"/><path fill="#fff" fill-rule="evenodd" d="M62.479 75.312a25.03 25.03 0 0 1-12.606-3.382 25.15 25.15 0 0 1-27.748-1.692 25.153 25.153 0 0 1 21.463-44.43 25.2 25.2 0 0 1 6.287 2.583 25.04 25.04 0 0 1 12.604-3.381c13.89 0 25.151 11.26 25.151 25.15 0 13.892-11.26 25.152-25.151 25.152M45.663 31.457l.008-.007a20.508 20.508 0 1 0 9.586 8.852 20.6 20.6 0 0 0-9.594-8.845" clip-rule="evenodd"/><path fill="#fff" d="M37.949 41.459c-.03.074-.415 1.585-.83 3.376-.429 1.791-1.11 4.62-1.494 6.292-.741 3.065-1.185 5.079-1.185 5.346 0 .073.459.133 1.02.133h1.023l.458-2.044c.267-1.11.86-3.657 1.334-5.655.473-2 1.05-4.427 1.273-5.405.222-.977.444-1.865.488-1.969.045-.133-.207-.177-.977-.177-.578 0-1.081.044-1.11.103m-7.952 6.41-1.362 1.482.4.473c.222.267.83.933 1.348 1.481l.947 1.007h2.695l-1.273-1.378c-.696-.74-1.274-1.45-1.274-1.539 0-.103.533-.77 1.185-1.48.651-.725 1.184-1.348 1.184-1.422 0-.06-.562-.104-1.243-.104h-1.229zm10.365-1.39c0 .044.252.325.562.636 1.156 1.155 1.97 2.133 1.925 2.324-.03.104-.592.8-1.273 1.525l-1.228 1.348h1.376l1.377-.015 1.258-1.377c.697-.77 1.259-1.451 1.259-1.54 0-.073-.592-.77-1.333-1.554l-1.332-1.437h-1.289c-.725 0-1.302.045-1.302.09"/></g><defs><clipPath id="a"><path fill="#fff" d="M0 0h100v100H0z"/></clipPath></defs></svg>