<svg xmlns="http://www.w3.org/2000/svg" fill="none" viewBox="0 0 100 100"><g clip-path="url(#a)"><path fill="#fff" d="M48.294 7.004a14.45 14.45 0 0 1 12.625 8.238L70.2 34.767l.15-.378q.552-1.461.904-2.984l.13-.605c1.564-7.82 9.165-12.881 17-11.334a14.45 14.45 0 0 1 11.335 17.002c-2.085 10.411-7.46 20.073-15.168 27.728l-.244.237 3.254 6.841c3.776 7.942-.136 17.54-8.36 20.234l-.37.117-.284.085a14.3 14.3 0 0 1-3.866.536 14.46 14.46 0 0 1-13.054-8.243l-2.512-5.28-.634.157a49 49 0 0 1-10.284 1.315l-.94.01c-3.315 0-6.685-.386-10.053-1.133l-.664-.155-2.413 5.073a14.44 14.44 0 0 1-8.09 7.364l-.43.15a14.44 14.44 0 0 1-11.313-.97C7.434 86.886 4.82 78.35 8.166 71.3l2.996-6.3-.262-.255c-4.107-4.051-7.363-8.657-9.523-13.608l-.288-.677-.042-.11c-2.973-7.392.598-15.806 7.985-18.797 5.794-2.346 12.218-.662 16.168 3.741l.074.085 9.55-20.086a14.4 14.4 0 0 1 12.65-8.291L47.88 7z"/><path fill="#1A007F" d="m34.03 73.423 8.554-17.995C36.05 54.04 29.478 49.999 25.76 45.083l-8.944 18.803c4.97 4.216 10.938 7.53 17.215 9.537"/><path fill="#4E000A" d="M69.725 44.544c-4.297 5.267-10.264 9.173-16.649 10.695l8.526 17.941c6.223-2.101 12.042-5.495 17.067-9.846z"/><path fill="#1A007F" d="m16.816 63.886-4.471 9.402c-2.277 4.782-.567 10.668 4.121 13.16 4.97 2.64 11.086.58 13.483-4.445l4.081-8.58a51 51 0 0 1-17.214-9.537"/><path fill="#FF9396" d="M87.477 24.017a9.82 9.82 0 0 0-11.556 7.704c-.943 4.715-3.152 9.106-6.196 12.837l8.93 18.803c8.243-7.152 14.331-16.89 16.514-27.788 1.064-5.334-2.385-10.506-7.692-11.556"/><path fill="#002DC8" d="M53.076 55.239a25 25 0 0 1-5.819.7 22.5 22.5 0 0 1-4.673-.511C36.05 54.04 29.478 49.999 25.76 45.083c-.93-1.226-1.683-2.505-2.209-3.812-2.034-5.024-7.758-7.449-12.783-5.428C5.744 37.877 3.32 43.6 5.34 48.625c2.303 5.711 6.371 10.951 11.476 15.261a51 51 0 0 0 17.2 9.537c4.325 1.387 8.81 2.155 13.228 2.155 4.903 0 9.738-.849 14.345-2.398z"/><path fill="#FF536A" d="m83.37 73.248-4.715-9.914-8.93-18.79-.014.014s0-.014.014-.014L56.74 17.228a9.82 9.82 0 0 0-8.863-5.604 9.82 9.82 0 0 0-8.863 5.604l-13.24 27.855C29.49 50 36.063 54.04 42.596 55.428l4.283-8.998c.404-.849 1.616-.849 2.02 0l4.19 8.809h.027-.027l8.526 17.941 4.19 8.81a9.81 9.81 0 0 0 8.875 5.603 9.6 9.6 0 0 0 2.614-.364c5.913-1.63 8.714-8.432 6.074-13.981"/></g><defs><clipPath id="a"><path fill="#fff" d="M0 7h100v85.546H0z"/></clipPath></defs></svg>