<svg xmlns="http://www.w3.org/2000/svg" fill="none" viewBox="0 0 100 100"><path fill="#FF5D01" d="M35.696 85.174c-4.502-4.13-5.816-12.807-3.94-19.093 3.252 3.963 7.758 5.219 12.426 5.927 7.206 1.094 14.283.685 20.977-2.62.766-.378 1.473-.881 2.31-1.39.629 1.827.792 3.674.573 5.552-.534 4.576-2.803 8.111-6.413 10.79-1.443 1.072-2.97 2.03-4.461 3.04-4.58 3.107-5.818 6.749-4.098 12.046.041.13.078.258.17.573-2.338-1.05-4.046-2.578-5.347-4.589-1.375-2.121-2.029-4.468-2.063-7.008-.017-1.236-.017-2.483-.183-3.7-.404-2.97-1.794-4.3-4.412-4.378-2.687-.078-4.812 1.588-5.375 4.213-.043.201-.106.4-.168.634z"/><path fill="#000014" d="M10 65.034s13.332-6.517 26.7-6.517l10.08-31.302c.377-1.514 1.48-2.543 2.723-2.543 1.244 0 2.346 1.029 2.723 2.543l10.08 31.302c15.834 0 26.7 6.517 26.7 6.517L66.318 3.008c-.65-1.83-1.746-3.009-3.226-3.009H35.918c-1.48 0-2.532 1.179-3.227 3.009C32.642 3.13 10 65.034 10 65.034"/></svg>