<svg xmlns="http://www.w3.org/2000/svg" fill="none" viewBox="0 0 100 100"><g clip-path="url(#a)"><path fill="#60B57D" d="M50 100.001c27.615 0 50.002-22.386 50.002-50.001S77.615 0 50.001 0C22.386 0 0 22.384 0 50s22.386 50 50 50"/><path fill="#fff" d="M46.024 23.102a1.408 1.408 0 0 1-1.764 2.195c-3.67-2.948-6.728-3.922-8.614-2.959-2.194 1.12-3.046 4.72-2.603 9.745l.067.678q.056.516.129 1.048l.105.718q.194 1.261.482 2.606a73 73 0 0 1 8.476-.79 77 77 0 0 1 3.937-4.675l.663-.715a57 57 0 0 1 4.96-4.706l.653-.535c5.975-4.8 11.536-6.698 15.132-4.363 3.133 2.033 3.973 6.636 2.809 12.806a1.41 1.41 0 1 1-2.767-.522c.974-5.167.333-8.684-1.574-9.922-2.48-1.61-7.087.244-12.282 4.571l-.58.491a50 50 0 0 0-.877.774l-.59.54a59 59 0 0 0-1.785 1.737l-.6.616-.3.315-.602.643-.601.66-.602.679q-.302.343-.602.695l-.601.712-.117.142q2.102.01 4.27.122l.56.032 1.115.07a90 90 0 0 1 2.74.235l1.078.115.535.062 1.058.133q1.318.175 2.592.385l1.013.173.998.185.982.196c3.25.67 6.239 1.518 8.871 2.513l.78.303c6.916 2.763 11.177 6.567 10.959 10.772-.182 3.475-3.297 6.345-8.52 8.4a1.409 1.409 0 1 1-1.031-2.62c4.306-1.695 6.63-3.834 6.738-5.927.14-2.679-3.066-5.45-8.401-7.684l-.664-.271a43 43 0 0 0-1.39-.525l-.725-.253a52 52 0 0 0-.743-.247l-.764-.24-.78-.234-.398-.114-.808-.223-.41-.108-.833-.212a68 68 0 0 0-2.596-.585l-.896-.178-.453-.086-.917-.164-.93-.155-.47-.074-.95-.141q-.48-.068-.963-.13l-.974-.121-.986-.11q-.75-.08-1.499-.145l-1.012-.083q-.509-.04-1.022-.071l-1.03-.06-1.032-.048-1.023-.035a85 85 0 0 0-3.513-.026l-.805.014-.316.42q-.297.397-.588.799l-.584.813a86 86 0 0 0-2.565 3.829l-.542.868a85 85 0 0 0-1.654 2.804l.147.355.383.903q.097.228.197.454l.404.911.42.915.434.917.45.92.463.923.474.917.482.904.488.891.246.44.497.87q.25.43.502.855l.507.84q.255.417.512.826l.515.81.52.795q.64.969 1.31 1.916l.529.737q.52.717 1.061 1.422l.532.683.533.666q.132.165.266.326l.532.638.531.618q.773.886 1.586 1.737l.524.537.521.518q.383.372.776.736l.512.463q.375.333.76.653l.5.407c3.399 2.706 6.411 3.798 8.411 2.778 1.878-.957 2.774-3.753 2.708-7.718l-.017-.603a29 29 0 0 0-.032-.62l-.046-.637a34 34 0 0 0-.06-.653l-.075-.67-.042-.34-.096-.69-.111-.705-.125-.719a50 50 0 0 0-.375-1.854l-.175-.764-.189-.774-.1-.392-.21-.79-.225-.802-.118-.404-.246-.816-.26-.825a71 71 0 0 0-.417-1.253l-.296-.845-.31-.852a77 77 0 0 0-.661-1.725l-.353-.87-.366-.877-.188-.44-.387-.883-.402-.887-.206-.445-.421-.893-.217-.447a1.408 1.408 0 1 1 2.531-1.234l.467.973q.23.485.452.97l.436.966q.634 1.425 1.216 2.873l.374.948.181.472.35.938.17.467.325.928q.315.913.604 1.834l.277.904c3.32 11.097 2.895 20.123-2.086 22.663-4.028 2.055-9.74-.8-15.49-6.819l-.595-.634q-.605-.657-1.189-1.334l-.593-.699a70 70 0 0 1-4.663-6.307l-.566-.872a88 88 0 0 1-4.062-7.048l-.257-.5q-.255-.498-.503-1l-.487-1q-.57-1.186-1.104-2.388l-.227.45-.209.421-.405.84-.39.832-.374.826-.18.41-.35.816-.17.404-.326.803-.157.398-.303.789-.144.391-.278.775-.262.764q-.19.569-.362 1.125l-.22.736-.204.723-.096.356-.179.703a36 36 0 0 0-.373 1.697l-.12.653c-.797 4.62-.278 8.029 1.697 9.31 1.99 1.29 5.677.309 10.228-2.976a1.407 1.407 0 1 1 1.648 2.283c-5.393 3.894-10.161 5.162-13.409 3.055-3.924-2.546-4.2-9.28-1.588-17.657l.271-.843q.28-.848.599-1.716l.327-.873a67 67 0 0 1 1.494-3.571l.419-.91.436-.917a81 81 0 0 1 1.79-3.475q-.127-.324-.25-.646l-.365-.967a74 74 0 0 1-1.288-3.794l-.278-.927q-.255-.869-.485-1.745-.261.052-.516.107l-.766.168-.747.177-.367.091-.718.189-.698.197q-.345.1-.678.204l-.658.212q-.323.108-.636.219l-.614.226c-4.22 1.607-6.79 3.715-6.91 6.011-.109 2.093 1.98 4.462 6.087 6.595a1.408 1.408 0 1 1-1.297 2.5c-4.982-2.587-7.783-5.765-7.602-9.241.252-4.846 6.37-8.545 15.468-10.413-1.841-8.798-.904-15.644 3.328-17.803 3.129-1.597 7.216-.296 11.657 3.272m7.715 26.192a4.006 4.006 0 1 1-7.83 1.691 4.006 4.006 0 0 1 7.83-1.691M40.108 39.29l-.254.018q-.29.02-.58.044l-.915.079-.902.089-.446.048-.881.105-.435.056-.859.118-.34.052.12.45q.289 1.049.612 2.087l.272.851.14.43.295.864q.12.35.247.703.675-1.124 1.383-2.229l.304-.472a92 92 0 0 1 2.24-3.293"/></g><defs><clipPath id="a"><path fill="#fff" d="M0 0h100v100H0z"/></clipPath></defs></svg>