<svg xmlns="http://www.w3.org/2000/svg" fill="none" viewBox="0 0 100 100"><path fill="#4B4B77" d="M22.73 24.14c1.216.756 2.072 1.686 2.58 2.765.757 1.736 1.6 3.62 2.517 5.667.918 2.046 1.848 4.117 2.766 6.213s1.81 4.142 2.653 6.126a375 375 0 0 1 2.282 5.456q1.005 2.474 1.6 4.204c.397 1.153.595 1.922.595 2.282a7 7 0 0 1-.248 1.81 3.96 3.96 0 0 1-.893 1.625c-.434.484-1.041.88-1.81 1.166-.781.285-1.786.434-3.014.434-1.302 0-2.356-.174-3.174-.521s-1.488-.781-2.034-1.327a9 9 0 0 1-1.352-1.712 29 29 0 0 0-1.116-1.71 5.5 5.5 0 0 0-1.302-1.328c-.483-.347-1.153-.52-1.984-.52h-3.472c-1.017 0-1.81.173-2.418.52a4.6 4.6 0 0 0-1.463 1.327 17 17 0 0 0-1.055 1.712 8.4 8.4 0 0 1-1.252 1.71c-.508.547-1.166.98-1.984 1.328-.819.347-1.91.52-3.286.52-2.022 0-3.51-.446-4.452-1.351Q0 59.178 0 57.336c0-.47.186-1.29.57-2.467.385-1.178.893-2.58 1.55-4.204.683-1.637 1.427-3.435 2.257-5.432a283 283 0 0 1 2.654-6.15c.943-2.121 1.885-4.23 2.815-6.35q1.414-3.18 2.716-6.1c.508-1.117 1.352-2.01 2.517-2.655 1.178-.645 2.48-.98 3.931-.98 1.265 0 2.505.385 3.72 1.142m43.862.186c.943.855 1.414 1.947 1.414 3.286 0 .756-.186 1.748-.57 2.988a74 74 0 0 1-1.464 4.18c-.595 1.55-1.29 3.236-2.058 5.047a680 680 0 0 0-2.357 5.53c-1.078 2.567-2.02 4.874-2.79 6.92q-1.171 3.069-2.38 5.208c-.819 1.426-1.7 2.53-2.654 3.311-.955.782-2.146 1.166-3.547 1.166-1.45 0-2.654-.31-3.609-.955-.954-.632-1.822-1.587-2.604-2.877-.781-1.277-1.538-2.902-2.282-4.849s-1.612-4.265-2.629-6.944a205 205 0 0 0-2.33-5.94c-.794-1.935-1.514-3.72-2.171-5.345a80 80 0 0 1-1.6-4.365c-.409-1.277-.62-2.282-.62-3.013 0-1.662.558-2.852 1.687-3.584 1.116-.72 2.517-1.079 4.179-1.079 1.513 0 2.703.186 3.547.57.843.385 1.587.881 2.194 1.489q.65.65 1.303 1.897c.434.83.843 1.748 1.215 2.74.384.992.756 1.997 1.14 3.014.385 1.017.732 1.947 1.055 2.79.322.856.645 1.538.955 2.059.31.52.582.78.843.78q.428 0 .893-.78c.31-.521.62-1.203.955-2.034a88 88 0 0 0 1.004-2.74c.347-.993.707-1.985 1.079-2.952s.781-1.873 1.19-2.679c.41-.818.844-1.438 1.278-1.872a9 9 0 0 1 1.165-1.005 6 6 0 0 1 1.253-.682c.446-.186.967-.31 1.55-.409a14.5 14.5 0 0 1 2.12-.136c1.476 0 2.704.421 3.646 1.265m18.415-.186c1.216.756 2.071 1.686 2.58 2.765.756 1.736 1.6 3.62 2.517 5.667.918 2.046 1.848 4.117 2.766 6.213s1.81 4.142 2.653 6.126a375 375 0 0 1 2.282 5.456q1.005 2.474 1.6 4.204c.397 1.153.595 1.922.595 2.282a7 7 0 0 1-.248 1.81 3.96 3.96 0 0 1-.893 1.625c-.434.484-1.041.88-1.81 1.166-.782.285-1.786.434-3.014.434-1.302 0-2.356-.174-3.174-.521s-1.489-.781-2.034-1.327a9 9 0 0 1-1.352-1.712 29 29 0 0 0-1.116-1.71 5.5 5.5 0 0 0-1.302-1.328c-.484-.347-1.153-.52-1.984-.52H79.6c-1.017 0-1.81.173-2.418.52a4.6 4.6 0 0 0-1.464 1.327 17 17 0 0 0-1.054 1.712 8.4 8.4 0 0 1-1.252 1.71c-.509.547-1.166.98-1.984 1.328-.819.347-1.91.52-3.287.52-2.021 0-3.51-.446-4.451-1.351q-1.414-1.358-1.414-3.2c0-.47.186-1.29.57-2.467.385-1.178.893-2.58 1.55-4.204a318 318 0 0 1 2.22-5.42 280 280 0 0 1 2.654-6.15c.942-2.12 1.885-4.229 2.815-6.35q1.413-3.18 2.716-6.1c.508-1.117 1.351-2.01 2.517-2.654 1.178-.645 2.48-.98 3.931-.98 1.302-.012 2.542.372 3.757 1.129"/><path fill="#E0C7C1" d="M18.886 77.55a.8.8 0 0 0 .72-.434c0-.013 1.178-2.183 2.343-4.75.583-1.29 1.178-2.666 1.625-3.943.223-.645.41-1.253.545-1.81.137-.571.224-1.092.224-1.563 0-1.848-.682-3.497-1.823-4.638-.955-.955-2.245-1.538-3.646-1.538s-2.691.583-3.646 1.538c-1.128 1.128-1.823 2.778-1.823 4.638 0 .484.087 1.004.223 1.562.236.992.645 2.12 1.104 3.287 1.401 3.484 3.41 7.204 3.41 7.23a.9.9 0 0 0 .744.42m62.277 0a.8.8 0 0 0 .72-.434c0-.013 1.178-2.183 2.343-4.75.583-1.29 1.178-2.666 1.625-3.943.223-.645.409-1.253.545-1.81.137-.571.224-1.092.224-1.563 0-1.848-.683-3.497-1.823-4.638-.955-.955-2.245-1.538-3.646-1.538s-2.691.583-3.646 1.538c-1.129 1.128-1.823 2.778-1.823 4.638 0 .484.087 1.004.223 1.562.236.992.645 2.12 1.104 3.287 1.401 3.484 3.41 7.204 3.41 7.23a.9.9 0 0 0 .744.42"/></svg>