<svg xmlns="http://www.w3.org/2000/svg" fill="none" viewBox="0 0 100 100"><path fill="#252F3E" d="M28.181 41.718c0 1.23.133 2.228.366 2.96.266.732.599 1.53 1.064 2.395.167.266.233.532.233.765 0 .332-.2.665-.632.998l-2.095 1.396c-.3.2-.599.3-.865.3-.332 0-.665-.166-.997-.466a10.3 10.3 0 0 1-1.198-1.563 26 26 0 0 1-1.03-1.962q-3.893 4.59-9.779 4.59c-2.794 0-5.022-.799-6.652-2.395S4.135 45.01 4.135 42.35c0-2.827.998-5.122 3.027-6.851s4.722-2.595 8.148-2.595c1.13 0 2.295.1 3.525.267 1.231.166 2.495.432 3.825.731v-2.428c0-2.527-.532-4.29-1.563-5.321-1.064-1.031-2.86-1.53-5.421-1.53-1.164 0-2.361.133-3.592.432-1.23.3-2.428.666-3.592 1.131a10 10 0 0 1-1.164.433c-.233.066-.4.1-.532.1-.466 0-.699-.333-.699-1.032v-1.63c0-.531.067-.93.233-1.163s.466-.466.931-.699q1.746-.898 4.191-1.497c1.63-.432 3.36-.631 5.188-.631 3.958 0 6.852.898 8.714 2.694 1.83 1.796 2.76 4.523 2.76 8.181v10.776zm-13.503 5.055c1.098 0 2.229-.2 3.426-.598 1.197-.4 2.261-1.131 3.16-2.129.532-.632.93-1.33 1.13-2.128s.333-1.763.333-2.894v-1.397a28 28 0 0 0-3.06-.565 25 25 0 0 0-3.126-.2c-2.229 0-3.858.433-4.956 1.33-1.098.899-1.63 2.163-1.63 3.825 0 1.564.4 2.728 1.23 3.526.8.831 1.963 1.23 3.493 1.23m26.707 3.592c-.599 0-.998-.1-1.264-.332-.266-.2-.499-.665-.698-1.297l-7.816-25.71c-.2-.665-.3-1.097-.3-1.33 0-.532.267-.831.799-.831h3.26c.631 0 1.063.1 1.296.332.266.2.466.666.666 1.297l5.587 22.018 5.188-22.018c.167-.665.366-1.097.632-1.297s.732-.332 1.33-.332h2.661c.632 0 1.065.1 1.33.332.267.2.5.666.633 1.297l5.255 22.284 5.753-22.284c.2-.665.433-1.097.665-1.297.267-.2.699-.332 1.298-.332h3.093c.532 0 .831.266.831.831 0 .166-.033.333-.066.532-.034.2-.1.466-.233.832L63.27 48.769q-.3.998-.699 1.297c-.266.2-.698.333-1.264.333h-2.86c-.632 0-1.064-.1-1.33-.333-.267-.233-.5-.665-.632-1.33L51.33 27.284l-5.122 21.419c-.167.665-.366 1.097-.632 1.33s-.732.332-1.33.332zm42.738.898c-1.73 0-3.46-.2-5.122-.598-1.663-.4-2.96-.832-3.825-1.33-.532-.3-.898-.633-1.03-.932-.134-.3-.2-.632-.2-.931v-1.696c0-.699.266-1.031.765-1.031q.3 0 .598.1c.2.066.5.199.832.332a18 18 0 0 0 3.658 1.164c1.33.266 2.628.4 3.958.4 2.095 0 3.725-.367 4.856-1.098s1.73-1.796 1.73-3.16c0-.931-.3-1.696-.899-2.328-.598-.632-1.73-1.197-3.359-1.73l-4.822-1.496c-2.428-.765-4.224-1.896-5.322-3.393-1.097-1.463-1.663-3.093-1.663-4.822q0-2.096.898-3.692a8.55 8.55 0 0 1 2.395-2.727c.998-.765 2.128-1.33 3.459-1.73S83.757 20 85.22 20c.732 0 1.497.033 2.229.133.765.1 1.463.233 2.162.366.665.166 1.297.332 1.895.532q.899.3 1.397.599c.466.266.798.532.998.831q.3.399.3 1.098v1.563c0 .698-.267 1.064-.766 1.064-.266 0-.698-.133-1.264-.399q-2.843-1.297-6.385-1.297c-1.896 0-3.393.3-4.424.931-1.03.632-1.563 1.597-1.563 2.96 0 .931.333 1.73.998 2.362s1.896 1.264 3.658 1.829l4.723 1.497c2.395.764 4.124 1.829 5.155 3.192s1.53 2.927 1.53 4.657c0 1.43-.3 2.727-.864 3.858-.6 1.13-1.397 2.128-2.428 2.926-1.031.832-2.262 1.43-3.692 1.863-1.497.466-3.06.698-4.756.698"/><path fill="#F90" fill-rule="evenodd" d="M90.409 67.427C79.466 75.51 63.569 79.8 49.899 79.8c-19.157 0-36.418-7.085-49.456-18.858-1.03-.932-.1-2.195 1.131-1.464 14.102 8.182 31.496 13.138 49.49 13.138 12.139 0 25.476-2.528 37.748-7.716 1.83-.832 3.393 1.197 1.597 2.527" clip-rule="evenodd"/><path fill="#F90" fill-rule="evenodd" d="M94.965 62.239c-1.397-1.796-9.246-.865-12.804-.433-1.065.134-1.231-.798-.267-1.496 6.253-4.39 16.53-3.127 17.727-1.663 1.198 1.497-.332 11.774-6.186 16.696-.898.765-1.762.366-1.363-.632 1.33-3.293 4.29-10.71 2.893-12.472" clip-rule="evenodd"/></svg>