<svg xmlns="http://www.w3.org/2000/svg" fill="none" viewBox="0 0 100 100"><g clip-path="url(#a)"><path fill="#000" d="M99.092 67.225 77.77 31.538c-.978-1.64-3.388-2.983-5.355-2.983H59.101c-3.094 0-4.362-2.108-2.819-4.685l7.3-12.186a3.02 3.02 0 0 0-.002-3.124C62.998 7.594 61.925 7 60.763 7h-18.57c-1.968 0-4.383 1.338-5.367 2.975L.739 69.974c-.985 1.636-.985 4.314-.002 5.951l9.286 15.454c1.547 2.575 4.084 2.578 5.638.006l7.255-12.005c1.554-2.571 4.091-2.569 5.639.006l6.577 10.948c.984 1.637 3.398 2.976 5.365 2.976h42.915c1.966 0 4.38-1.34 5.364-2.976l10.305-17.15c.984-1.637.989-4.318.011-5.959m-28.798-1.718c1.538 2.58.264 4.692-2.83 4.692h-33.38c-3.094 0-4.36-2.107-2.813-4.682l16.703-27.798c1.547-2.575 4.079-2.575 5.626 0z"/></g><defs><clipPath id="a"><path fill="#fff" d="M0 7h100v86.312H0z"/></clipPath></defs></svg>