<svg xmlns="http://www.w3.org/2000/svg" fill="none" viewBox="0 0 100 100"><path stroke="#000" stroke-width="1.25" d="m50 25 25.98 45m-51.96 0L50 25"/><path fill="red" stroke="#000" stroke-width="1.25" d="M24.02 80c5.522 0 10-4.478 10-10 0-5.524-4.478-10-10-10-5.524 0-10 4.476-10 10 0 5.522 4.476 10 10 10Z"/><path fill="#0F0" stroke="#000" stroke-width="1.25" d="M50 35c5.523 0 10-4.478 10-10 0-5.524-4.477-10-10-10s-10 4.476-10 10c0 5.522 4.477 10 10 10Z"/><path fill="#00F" stroke="#000" stroke-width="1.25" d="M75.98 80c5.523 0 10-4.478 10-10 0-5.524-4.477-10-10-10s-10 4.476-10 10c0 5.522 4.478 10 10 10Z"/></svg>