<svg xmlns="http://www.w3.org/2000/svg" fill="none" viewBox="0 0 100 100"><path fill="#272727" fill-rule="evenodd" d="M90.863 38c-4.086 0-6.394.789-7.719 2.637-1.384 1.931-1.663 4.978-1.663 9.27 0 8.427 1.304 11.949 9.382 11.949.97 0 4.286-.019 6.222-.255.753-.125 1.09-.702 1.09-1.218v-.93c0-.725-.546-1.271-1.273-1.271h-6.04c-4.557 0-5.379-1.075-5.496-7.182v-1.977c.04-6.25.86-7.349 5.497-7.349 4.274 0 5.094.975 5.236 6.478h-6.792v3.714h8.933c1.76 0 1.76-1.23 1.76-1.634v-1.186C99.872 40.478 97.823 38 90.863 38m-11.764.328-.097-.026C78.17 38.127 75.897 38 74.77 38c-3.989 0-6.097 1.67-6.097 4.83v17.593c0 .724.507 1.23 1.233 1.23h1.419c.726 0 1.233-.505 1.233-1.23v-17.27c0-.78.197-1.479 2.578-1.479l3.524-.003c.345.041.674-.054.928-.269.277-.233.429-.574.429-.958v-.89c0-.584-.334-1.031-.917-1.226m-17.036-.044h-1.419c-.726 0-1.233.505-1.233 1.23v18.668H53.51c-3.65 0-5.131-.232-5.131-6.05V39.514c0-.724-.508-1.23-1.233-1.23h-1.38c-.725 0-1.273.528-1.273 1.23v12.618c0 8.269 3 9.724 9.3 9.724 2.267 0 5.372 0 8.332-.417l.069-.014c.73-.183 1.102-.601 1.102-1.244V39.514c0-.724-.507-1.23-1.233-1.23" clip-rule="evenodd"/><path fill="#74BB11" fill-rule="evenodd" d="M40.117 38.862c-.182-.388-.573-.619-1.045-.619h-1.824c-.53 0-.926.213-1.134.598l-2.704 3.95 2.367 3.236 4.132-5.927c.453-.551.296-1.05.208-1.239" clip-rule="evenodd"/><path fill="#009CD9" fill-rule="evenodd" d="m25.865 38.795-.002-.003c-.412-.55-.96-.55-1.141-.55h-1.784c-.457 0-.831.21-1.027.576-.201.375-.158.825.12 1.242l6.609 9.162-7.6 10.6c-.265.398-.303.841-.102 1.215.197.366.571.576 1.027.576h1.824a1.22 1.22 0 0 0 1.088-.627l8.506-11.722z" clip-rule="evenodd"/><path fill="#EB2084" fill-rule="evenodd" d="m41.024 59.914-5.302-7.276-2.333 3.215 4.194 5.596.109.048a1.3 1.3 0 0 0 .529.115h1.783c.43 0 .797-.19 1.004-.525.212-.343.218-.77.016-1.173" clip-rule="evenodd"/><path fill="#272727" fill-rule="evenodd" d="M14.026 51.704v6.18c-1.806.277-4.558.338-5.497.338-4.15 0-4.604-1.133-4.604-3.541 0-2.254.843-2.977 3.47-2.977zM8.326 38c-1.281 0-3.03.033-5.206.295l-.098.022c-.634.18-.955.596-.955 1.237v.89c0 .758.473 1.23 1.233 1.23h5.027c4.048 0 5.699 1.096 5.699 3.785v2.612H7.394C2.212 48.071 0 50.048 0 54.681c0 5.163 2.29 7.175 8.165 7.175 2.38 0 6.76-.185 8.38-.68 1.365-.378 1.365-1.421 1.365-1.764V45.216c0-4.855-3.135-7.216-9.583-7.216" clip-rule="evenodd"/></svg>