<svg xmlns="http://www.w3.org/2000/svg" fill="none" viewBox="0 0 100 100"><path fill="url(#a)" d="M33.338 3.003h29.59L32.212 94.07a4.72 4.72 0 0 1-4.47 3.211H4.71a4.706 4.706 0 0 1-4.66-4.017 4.7 4.7 0 0 1 .196-2.204l28.62-84.85A4.72 4.72 0 0 1 33.337 3v.001z"/><path fill="#0078D4" d="M87.887 97.283h-26.57a4.72 4.72 0 0 1-3.235-1.274l-30.153-28.16a2.18 2.18 0 0 1-.54-2.386 2.17 2.17 0 0 1 2.023-1.376h46.923l11.55 33.197z"/><path fill="url(#b)" d="m63.035 3.003-20.714 61.09 33.845-.008 11.61 33.198H61.304a4.9 4.9 0 0 1-1.61-.292 4.8 4.8 0 0 1-1.42-.814L37.92 77.181l-5.698 16.804a5.06 5.06 0 0 1-3.875 3.298H4.725a4.708 4.708 0 0 1-4.44-6.298l28.573-84.71a4.69 4.69 0 0 1 3.02-3.045c.471-.153.965-.23 1.461-.228h29.697z"/><path fill="url(#c)" d="M99.752 91.06a4.73 4.73 0 0 1-.635 4.257 4.71 4.71 0 0 1-3.826 1.966H62.31a4.72 4.72 0 0 0 3.828-1.966 4.72 4.72 0 0 0 .638-4.256L38.156 6.209a4.71 4.71 0 0 0-4.463-3.206h32.979a4.72 4.72 0 0 1 2.748.883 4.74 4.74 0 0 1 1.717 2.323l28.62 84.852z"/><defs><linearGradient id="a" x1="44.138" x2="13.386" y1="9.99" y2="100.834" gradientUnits="userSpaceOnUse"><stop stop-color="#114A8B"/><stop offset="1" stop-color="#0669BC"/></linearGradient><linearGradient id="b" x1="53.726" x2="46.613" y1="52.318" y2="54.731" gradientUnits="userSpaceOnUse"><stop stop-opacity=".3"/><stop offset=".1" stop-opacity=".2"/><stop offset=".3" stop-opacity=".1"/><stop offset=".6" stop-opacity=".1"/><stop offset="1" stop-opacity="0"/></linearGradient><linearGradient id="c" x1="49.8" x2="83.553" y1="7.34" y2="97.259" gradientUnits="userSpaceOnUse"><stop stop-color="#3CCBF4"/><stop offset="1" stop-color="#2892DF"/></linearGradient></defs></svg>