<svg xmlns="http://www.w3.org/2000/svg" fill="none" viewBox="0 0 100 100"><path fill="#000" d="m68.582 34.456-.022-.214-.347.03.022.214zm2.334 5.613.007.118.244-.022c-.008-.073.022-.192.074-.34l-.022-.214q-.157.014-.303.458m-9.107 7.068c-.014-.2-.635-.974-1.86-2.34q-.034-.38 1.262-1.123l2.467-2.15q.831-1.05.975-3.42l-.03-.361c-.096-1.093-.886-1.972-2.385-2.644q-1.33-.898-4.786-.99c-1.905.163-4.394.842-7.46 2.046a31 31 0 0 1-2.88 1.817l.015.185a.7.7 0 0 0 .288-.126c.126-.015.2.044.207.163l.184-.097.09-.007.007.081c.007.096-.658.62-2.002 1.559l.103.192-.088.007-.222-.081c.008.066-.088.11-.273.125l.007.082.215.266c-.067.007-.17-.023-.31-.074-.311.03-.614.192-.916.502l.125-.547q.677-2.915.923-5.155l-.022-.096a3.8 3.8 0 0 1-.894-.834 3 3 0 0 0 0-.392l-.022-.081-.088.022q-1.46 2.194-5.635 7.49-3.18 3.765-3.28 4.187-1.297 1.34-1.233 1.617c-.229.148-.325.295-.288.458q-.1.025-.126-.074-.552.897-1.647 1.152l-.768.178c-.103.022-.155.096-.147.221l.022.096.288-.066.022.08-.65.252-1.152.266-.606.037c-.088.088.48-.008.259.044l-.754.177q-.686.158-.753-.118l-.088.022a.44.44 0 0 1 .007.192l-.044-.184-.606.14q-.068-.42-2.452-3.057c-.03-.34.532-.835 1.677-1.478l3.234-2.843c.724-.93 1.152-2.423 1.293-4.476l-.044-.48c-.126-1.447-1.175-2.614-3.147-3.515-1.167-.79-3.264-1.212-6.292-1.278-2.511.214-5.79 1.108-9.823 2.666a38 38 0 0 1-3.789 2.393l.022.251c.097-.007.222-.059.377-.147.162-.015.251.059.266.206l.251-.14.126-.008.007.119c.007.118-.871.805-2.651 2.06l.14.222-.126.007-.273-.096q.011.113-.377.148l.015.133.296.325q-.144.009-.4-.081-.862.075-1.69 1.248l.14.221c.48-.443.76-.664.842-.672l.03.362q-.123.014-.377.148l.302.458a10 10 0 0 1 1.928-1.618c.347.089.532.2.54.318l.265-.022c1.906-1.41 3.789-2.43 5.657-3.058l.023.251q-.522.776-.71.798a.8.8 0 0 0 .185.465c.03.318-.82 2.46-2.54 6.418C6.278 55.284 2.997 62.093.332 66.495q.012.133.155.354c.658-.155 1.071-.317 1.249-.472l.14-.015.022.251.244-.022.25-.14c.008.073.09.11.26.096l.022.25c.022.244-.119.614-.414 1.123q-.4.454-.857 1.906l.008.118.243-.022q1.594-1.786 2.423-3.494c3.102-.908 5.465-1.802 7.105-2.68 1.647-.141 2.902-.577 3.759-1.293l-.015-.133-.62.185-.14.015-.015-.133c1.21-.185 2.046-.451 2.51-.82 2.357-1.817 4.137-3.102 5.34-3.863 2.475-1.817 4.085-3.59 4.816-5.31q.207-.045.413-.096c.348-.015.54-.022.591-.037-.015-.066.015-.103.081-.118.554-.06.289.037.643-.045l.93-.214c-.058.015-.08.045-.066.104l.14-.089a.2.2 0 0 1-.073-.015l.155-.037-.074.045a.9.9 0 0 0 .34-.023l.066.274-4.232 6.728-.938 1.174-.458 1.536.089-.022.458-.192-.148.599.044.177.126.155q-.089.02-.067.118l.023.096.192-.044q.42-.366.354-.665c.303.052.502.074.606.044l.022.096c-.185.045-.28.192-.296.444l.023.096.103-.023c1.536-1.676 5.303-7.415 8.324-11.307q-.146-.628 4.726-1.758l.104-.022q.177.765-.754 3.7c-.398 1.182-.59 1.832-.56 1.935q-.777 2.358-.732 2.556L35.82 61.34a34.5 34.5 0 0 0-1.714 6.108.75.75 0 0 1 .318.03l.162-.141c.015.066.06.088.126.073l-.067-.273.503-.014q.221-.054.376-.562c-.022-.51.082-.783.31-.842.31-1.21.503-1.816.57-1.839q.43-1.805.642-2.06c.436-1.566.753-2.371.96-2.423l.044.193-.317.82q-.831 3.688-1.684 5.826l.162.71.104-.023c1.373-2.954 3.353-8.803 5.93-17.548q.113-1.154 1.1-1.787l-.147-.155-.022-.081q.443-.102.62-.347c-.015-.067-.273-.163-.775-.296l1.285-5.51c.28-.25.443-.384.495-.384l.022.281a.7.7 0 0 0-.288.126l.244.347q.661-.72 1.447-1.241c.266.074.399.162.414.251l.192-.015q2.191-1.606 4.305-2.304l.015.184q-.387.587-.532.599a.8.8 0 0 0 .119.354q.035.364-1.913 4.882c-2.97 6.98-5.458 12.142-7.482 15.495q.012.098.133.273c.495-.118.812-.243.938-.362l.089-.007.015.185.206-.015.185-.096q.01.077.2.066l.014.2q.024.266-.318.842c-.214.229-.435.709-.672 1.44l.008.096.192-.015q1.207-1.35 1.839-2.659c2.356-.694 4.15-1.366 5.391-2.03q1.893-.165 2.866-.983l-.008-.096-.48.14-.103.008-.007-.096c.915-.133 1.558-.34 1.905-.613 1.787-1.374 3.139-2.356 4.055-2.932 2.85-2.076 4.18-4.07 4.017-5.983m-.487.126.066.746c-.088.185-.184.28-.273.288l-.11-1.27c.206.073.31.147.317.236M5.399 41.25l-.126.007-.022-.229.51-.044.007.118a1 1 0 0 0-.37.148m-2.49 24.897q-.444-.198-.79-.163l-.029-.362c-.015-.14.067-.236.244-.273.162-.015.258.104.273.34q.643-.787.71-.798l.272.11c-.088.74-.317 1.116-.68 1.146m26.596-27.822c-.125.015-.377-.376-.738-1.152l-.023-.229c.237-.022.48.362.739 1.152zm-.354-2.754-.104.243-3.611-1.506c2.407.081 3.648.502 3.715 1.263M13.9 48.666l-.51.045-.022-.23.51-.044zm-.414-7.865.125-.008.03.362q-.177.014-.465.524l-.023-.25c.23-.274.348-.48.333-.628m-1.071 2.525.044.48-.125.008-.045-.48zm-.561.901.243-.022c-.022.4-.132.613-.332.628l-.125.007c.155-.265.228-.472.214-.613m-.421 1.256.14-.015.007.118-.229.385-.243.022-.008-.119c.244-.022.355-.147.333-.391m-.414 1.13-.074.606-.125.007-.052-.598zm-4.143 11.78q-.246 1.24-.524 1.263l-.008-.118q-.066-.611.532-1.145m-.76 1.647.007.118c.014.163-.06.259-.222.266l-.007-.118q-.022-.211.221-.266m-.222 3.42.384-.038.014.134c-.096.007-.221.059-.376.147l-.244.022c-.015-.125.066-.221.222-.266m10.93-3.376c-2.156 1.064-3.427 1.787-3.803 2.164-2.334.813-3.494 1.315-3.472 1.514-2.075.82-3.441 1.426-4.098 1.802-.156.015-.377-.044-.673-.177-.036-.421.156-.76.562-1.034a2.2 2.2 0 0 1 1.041.162q.578-.3 2.009-.657l-.022-.251-.768.067c.096-.133.834-.48 2.223-1.042l.384-.037.007.119c-.657.059-1.02.25-1.1.598.014.155.103.221.266.207q.741-.467.73-.547 1.408-.267 7.778-4.07l.022.23c.007.11-.355.42-1.086.952m-6.514 2.142a2.52 2.52 0 0 0 1.595-.739c.178-.014.274.052.281.207-.303.03-.886.28-1.735.768l-.126.008zm10.51-8.072-3.257 2.577q-3.633 2.38-3.907 2.4C9.8 61.251 7.4 62.351 6.47 62.433l-.14.014c.118-.435 1.83-3.943 5.155-10.546 1.462-.126 3.766-.805 6.905-2.046l.768-.066c1.588-.14 2.777.17 3.56.908l.044.48q-.887 2.547-1.942 2.977m-6.366-3.582.524-.045.007.118-.524.045zm7.363-1.249.384-.037q.531.253.554.451l.007.118q-.511.045-.945-.532m1.041-5.93q-.51.61-2.792 2.075c-.502.044-2.37.768-5.605 2.186a1 1 0 0 0-.517-.088l-.022-.23q-.057-.696.627-1.757c.252-1.33.525-2.09.828-2.275l2.695-6.063q-.045-.566 1.729-.864l.384-.037.03.347q1.74-.267 2.163-.303c2.142-.185 3.257.251 3.346 1.293l.244-.023-.052-.613.266-.022q.942.52 1.012 1.263.042.51-.547 1.263c-.162.015-.258-.103-.273-.34l-.266.023-.06.738q-1.63 2.438-2.363 2.504c-.443.613-.716.916-.827.923m1.654 4.247q-.331-.22-.531-.207l-.03-.362.244-.022.54.317q.032.253-.223.274m1.714 2.03c.236.097.377.2.406.296l-.118.03.008.007a.3.3 0 0 0-.075.015l-.177.14zm.163 1.02-.023-.096.31-.074.023.096zm.745.834c.318-.051.473-.073 1.064-.206l.022.096-1.123.258q.025-.08.037-.148m1.093.466c-.472.044-.369-.015-1.122.155l-.022-.096.938-.303.45-.103.044.177c-.199.044-.051.044-.288.17m.998-.237c-.111.03-.2-.022-.252-.147l.289-.067q.19-.043.236.148zm2.702-2.91-.022-.096.466-.11.044.177zm2.888 17.71a.7.7 0 0 0 .023-.295l.103-.022q.187-.044.229.133l.022.096zm2.024-16.949-.207-.037a6 6 0 0 1-.842.28l-.192.045c-.11.03-.2-.015-.243-.133l1.351-.31.443-.207.148.17c-.214.044-.37.11-.458.192m1.041-.332-.022-.096a.57.57 0 0 0 .251-.163l.96-.221.023.096c-.51.125-.916.25-1.212.384m.148-1.943c-.066.015-.155.074-.266.163q-.023-.099-.399-.007-.068-.276 2.135-.783l.207-.045.044.178c-1.034.302-1.61.472-1.72.494m2.585-2.791c-.103 1.174-.517 1.839-1.248 2.009l-.022-.096-.65.25-.288.067a.73.73 0 0 1-.4-.007l-.058-.259q-.035-.146 2.821-3.892l.222.037q.12.509-.377 1.89m4.572-3.915-.089.008-.015-.185.384-.037.008.096a1.2 1.2 0 0 0-.288.118M43.3 59.538q-.333-.156-.59-.133l-.023-.281q-.01-.144.178-.2.19-.022.214.267.476-.612.532-.614l.199.082q-.111.843-.51.879m20.192-21.123c-.096.008-.28-.288-.568-.886l-.015-.185c.184-.015.377.273.569.864zm-.266-2.112-.088.192-2.733-1.145c1.824.06 2.77.377 2.822.953M51.64 46.25l-.385.037-.014-.185.384-.03zm-.318-5.975.103-.007.022.28q-.144.011-.354.4l-.015-.185q.255-.322.244-.488m-.805 1.92.03.362-.104.008-.03-.362zm-.436.687.192-.014q-.033.465-.244.487l-.103.007c.11-.206.163-.369.155-.48m-.31.946.089-.008.007.096-.17.296-.192.014-.007-.096c.2-.014.288-.118.273-.302m-.31.856-.067.473-.088.007-.037-.465zm-3.154 8.959q-.187.93-.399.953l-.007-.082c-.022-.31.11-.605.406-.871m-.583 1.248.007.081q.023.201-.177.215l-.008-.096q-.01-.144.178-.2m-.163 2.6.296-.022.007.096a.9.9 0 0 0-.288.11l-.192.015q-.011-.155.177-.2m8.294-2.563c-1.625.805-2.592 1.352-2.895 1.632q-2.659.929-2.637 1.16c-1.573.628-2.607 1.078-3.094 1.366q-.177.013-.51-.14c-.03-.318.118-.576.429-.768q.422-.035.79.118c.295-.148.805-.31 1.529-.495l-.015-.185-.606.045q.113-.156 1.7-.798l.294-.022.008.081c-.502.045-.783.192-.842.458.007.118.081.177.207.163.369-.244.546-.384.546-.429.71-.125 2.674-1.16 5.901-3.094l.015.184c.007.081-.266.318-.82.724m-4.948 1.625q.718-.066 1.226-.554c.125-.015.2.044.207.163q-.331.031-1.315.56l-.103.008zm7.991-6.137-2.46 1.979q-2.757 1.805-2.99 1.824-4.386 2.415-5.458 2.504l-.104.007c.089-.332 1.396-2.998 3.922-8.006q1.648-.146 5.236-1.565l.599-.052q1.806-.153 2.695.701l.03.362q-.674 1.904-1.47 2.246m-4.83-2.718.384-.037.007.096-.384.037zm5.59-.953.296-.022q.41.201.421.347l.008.081c-.259.022-.503-.11-.724-.406m.776-4.498c-.258.31-.96.842-2.104 1.58-.385.038-1.803.584-4.255 1.648a1 1 0 0 0-.391-.052l-.015-.185q-.044-.53.465-1.336c.192-1.02.407-1.588.628-1.721l2.06-4.609q-.03-.41 1.3-.665l.296-.022.022.281q1.307-.21 1.64-.244 2.44-.212 2.54.983l.192-.015-.037-.444.193-.014q.708.386.753.938.031.4-.392.967c-.125.015-.199-.074-.214-.266l-.192.015-.059.554q-1.23 1.873-1.795 1.92c-.332.45-.539.68-.635.687m.864 3.073-.022-.281.192-.015.414.251q.01.177-.177.2c-.178-.111-.31-.163-.407-.155M24.918 63.26l-.191.044-.163.14c.03.119.104.163.23.133.125-.029.177-.103.147-.22zm-.73-1.455.022.096c.125-.03.177-.103.147-.222l-.022-.096c-.118.03-.17.104-.147.222m5.199-12.37.222-.052-.045-.192-.221.051zm67.016 5.627c-2.245.502-2.526.414-2.998.45l.014.185.207-.015.111-.007-.03-.022.244-.096c2.223-.244 2.482-.155 2.46-.406zm-12.09 1.603.015.184h.03l-.015-.184zm-1.388-4.867-.2-.067c-.162.436-.244.694-.236.768l.007.081c.155-.007.296-.273.429-.782m13.936 3.227.015.185.325.059-.015-.185zm-15.28 1.869-.503-.06-.088.193.007.096 2.991-.252-.015-.184zm-1.36-6.551-.007-.096-.103.007-.185.118.103.177c.14-.014.207-.08.193-.206m18.058 3.323.14-.015c.082-.007.119-.074.111-.192l-.081-.177c-.51.044-.746.067-1.16.296l-.007-.096-.613.059c-.015-.185-.066-.281-.147-.274l-.318.03c-.37.03-.547.015-.731.155q-.012-.097-.067-.096l-.354.03-.207.118c-.007-.067-.03-.096-.067-.096l-.125.11-.008-.096-.494-.036-.119.007.015.184.251.067.237-.015a.43.43 0 0 0 .273.06l.207-.104.007.081c-1.16.288-1.152.237-1.95.37q-.132-.092-.2-.082l-.014.015c-.089-.008-.14-.066-.148-.163l.414-.051c.03 0 .052.03.28.074.333-.163.348-.23.525-.244l-.015-.185c-1.137.222-.68.074-2.105.2l-.066.007-.015-.184c1.832-.222 1.219-.097 1.847-.274.007.067.03.096.066.096a.43.43 0 0 1 .251-.125l.126-.008c.642-.052.856.074 2.127-.28l.007.08.207-.103.192-.014c-.015-.185.266-.215.362-.222l-.015-.2c-2.23.451-2.814.326-3.434.503l-.008-.081c-.583.103-.605.059-.753.066a.4.4 0 0 0-.185.118q-.01-.098-.073-.096c-.023 0-.03.008-.037.008l-1.891.31c-.007-.052-.03-.081-.074-.074-.982.207-.716.244-2.03.362a.6.6 0 0 0-.245.103c-.007-.051-.037-.08-.103-.074l-.805.067-.54.133c-.007-.052-.036-.081-.103-.074a4.3 4.3 0 0 1-.782.148h-.015c-.133.014.066-.037-.037-.081l-.163.095c-.236.023-.11-.014-.923-.007-1.425.177-1.27.2-1.425.207l-.532-.037c.007.052-.022.089-.081.089q-.91-.123-.924-.288.123-.864.422-.887l.103-.007-.089.192.104-.008c.192-.103.28-.199.273-.288l-.015-.199-.192.015-.015-.185a.67.67 0 0 1 .06-.369l.435-.702.015.185.207-.015-.015-.184-.118-.17c.155-.133.273-.207.37-.214l-.008-.096-.28.022-.023-.28c.561-1.168.827-1.847.812-2.04l.2.082q.188-.013.177-.214l-.192.014-.007-.08a.7.7 0 0 1 .073-.392c.303-.318.444-.635.414-.968.06-.007.089.023.096.089.259-.148.458-.54.606-1.19.458-.826 1.107-2.48 1.957-4.955 1.625-4.372 1.558-4.837 1.787-5.871l-.192.014a.67.67 0 0 1-.074.377c-.133-.052-.236-.081-.31-.074l-.007-.081c-.03-.377.125-.827.48-1.359l.088-.007.163.635.192-.015q-.01-.064.148-.76c-.008-.097-.082-.156-.23-.163l-.184.118c-.015-.133-.007-.48.015-1.034l-.096.008c-.163-.163-.244-.296-.251-.407l-1.056.103a1 1 0 0 0-.119-.324q-.012-.144.717-.288l.214.08.2-.117q.009.1.117.088l.2-.118q.009.1.118.089l.096-.008-.015-.214c-.147.015-.539.015-1.16-.007l-.199.133-.007-.118c-4.956.406-7.77.635-8.442.701-.088.008-.435 0-1.048-.015q.009.121-.215.14l-.214-.095-.724.184c-.17.015-.457.008-.856-.036a.74.74 0 0 1-.406.155c-.09.007 1.056-.06 2.12-.133-.112.088-.281.14-.518.162a.7.7 0 0 1-.42-.074c-.163.074-.687.192-1.566.37l-.215-.082-3.456.532a.86.86 0 0 0-.465-.074q-.279.022-.924.2l-1.669.694.126.207a.9.9 0 0 0 .34-.133l.59.051-.074.554c-.546.244-.864.606-.952 1.064q-1.228.543-1.226.775l.007.096.126-.007.221-.118.259.31.037.428c.014.133-1.367 3.036-4.129 8.708-2.393 5.465-3.648 8.456-3.766 8.995-.82.23-1.293.562-1.433 1.005.015.14.258.236.73.273l.023.214-.214.355.037.428q.033.333 1.794.51-.01-.112.111-.126.034.399-.221 1.551l.125-.007q.73-.997.695-1.374l.103-.007c.118-.008.244.125.391.413-.147.06-.664 1.234-1.55 3.53l.125.207.126-.007c1.085-2.747 1.765-4.269 2.045-4.557q2.141-.189 7.393-.753l.222-.133q.011.112.133.103l.229-.022.221-.133q.012.112.133.104l2.652-.23c.701-.058 1.034-.273 1.004-.635q-.01-.145 1.24-.325c.082-.007.2.015.363.067-.008-.067.413-.133 1.255-.207.022-.443.163-.68.414-.701l-.022-.215a3.7 3.7 0 0 0-.813.185c-.553-.03-.908-.074-1.056-.126-.148.082-.258.126-.34.133l-1.846.06-.221.118q-.012-.1-.133-.089l-.104.007-.236.119c-.008-.067-.2-.119-.584-.17l-.236.14-.458.037-.007-.118q3.567-.39 3.523-.968c.155-.015.236.06.25.215l.695-.178-.022-.214-5.694.155q.01.113-.111.126l-.694-.06a.84.84 0 0 0-.444.156l-.258-.096c-.716.059-1.248.148-1.603.258a10 10 0 0 0-1.625.022l-1.277.111-.591-.066c-.03-.377.702-2.23 2.208-5.554.436-1.123.835-1.825 1.219-2.09q.12-.012.362.088l.908-.31.465.074c.783-.067 1.692-.288 2.733-.672.259-.022.45-.008.59.051l.695-.162 2.068-.177c.879-.074 1.832-.266 2.866-.584l-.022-.214c-.384.037-.584-.03-.599-.185q-.033-.43-.842-.361l-.022-.215.569-.162 1.492-.126-.022-.214c-.06.008-.362 0-.924-.022l-.022-.229.576-.052c.155-.014.222-.088.207-.236q-1.163.035-1.174-.118-8.11.4-8.132.148c-.08.007-.192.059-.34.147l-.14-.221c1.433-3.043 2.275-4.58 2.519-4.602q.012.18-.185.57l.007.095.23-.022c.568-1.359 1.048-2.06 1.447-2.09 1.699-.148-.236-.258 3.397-.827.148.066.251.096.325.088q2.138-.433 5.96-.9l-.014-.215-1.36.126-.014-.214a.74.74 0 0 0 .406-.155l.007.118q.112-.014.31-.148c.237-.022.414 0 .54.067a8 8 0 0 1 1.137-.23l.85-.08c.206-.134.302-.252.295-.363l-.007-.096a2.7 2.7 0 0 1-.746-.044c-.008-.118.051-.2.192-.236l1.58-.148.724-.185c.007.081.044.111.103.111q.111-.012.31-.148c.037.008.082.008.119.015a6 6 0 0 0-.318.864l-.207.015a.9.9 0 0 0-.118-.377l-.103.008c-1.92 5.347-2.777 7.836-4.55 11.942-.325 1.049-.598 1.632-.834 1.758.007.118.081.177.207.163.044.517-.074 1.026-.362 1.528-.82 2.364-1.367 3.656-1.647 3.892l.184 1.116q.012.177-.177.199l-.192.015c-.03-.31-.14-.458-.34-.436l-.103.008a4.4 4.4 0 0 0-.569 1.366l.192-.015q.388-.255.355-.598l.384-.037.221.081q-.266.419-.243.672l.103.177-.251.591.007.096c.222-.022.466.052.724.207q.264-.024.584-.236.333-.031 2.474-.03l.716-.244c.872-.007 1.012.015 1.765-.051l.31-.03.163-.11.007.096c.79-.067.842-.015 1.463.059l.007.096-.436.037.015.184a.63.63 0 0 0 .347-.133c.11-.007.177.052.185.185a2.6 2.6 0 0 0-.599.133l-.192-.067c-.302.081-.236.104-.443.118l-.302-.059c.007.052-.023.089-.074.089.007.118.074.177.184.17l.31-.03 1.618-.14.613-.133c.007.052.03.081.081.074l.296-.11.554-.045c.428-.037.42-.067 1.351-.214-.007-.06.015-.082.06-.089l.007.081c1.514-.258 1.61-.273 1.853-.354l.022.044c.377-.088.163-.066.266-.14q.012.097.067.096l.266-.022-.015-.2-.54-.007-.007-.015c-.022.007-.037.007-.059.015h-.073v.015c-.362.073-.37.022-.606.044l-1.352.074-.007-.096.753-.104.273-.022.156-.11.007.095c1.064-.088 1.44.178 6.359-.871.266-.022.244-.244.414-.702a.46.46 0 0 1-.259-.059c-.406.155-.62.082-1.403.207-.067.008-.118-.052-.14-.17l-.008-.081.753.022c.14-.015.414-.037.82-.266 0 .067-.148.104-.059.096m-36.366.584-.347.03c-.015-.141.17-.673.553-1.581l.23-.022c.007.214-.133.738-.436 1.573m.42-1.684-.007-.096c-.007-.118.067-.2.23-.237l.007.096c.007.14-.067.222-.23.237m4.617 3.567.007.096-.576.052-.007-.096zm-.695-.06c.008.119-.17.252-.553.385l-.71-.052-.228.022-.022-.214zm4.668-21.483-.347.029-.007-.118c-.008-.118.059-.2.206-.236l.126-.008.236.096c.008.14-.059.222-.214.236m5.28-1.035.112-.007.014.214-.317.03c-.008-.118.052-.2.192-.236m-1.329.466-.524-.06-.007-.095c.686-.06.915-.133 1.337-.252.007.082.08.111.213.097l.015.214-.207.022a.7.7 0 0 1-.42-.074.9.9 0 0 1-.407.148m.658 1.913-.008-.096.85-.082.007.096zm.908-.74-.007-.117.413-.037.008.118zm.096-1.447-.11.008.096-.23.945-.088.007.119a5.7 5.7 0 0 0-.938.192m.48 2.039-.015-.214.414-.037q.21-.023.222.2zm2.504-3.412-.532.148-.096.007a5.4 5.4 0 0 1-.96-.022c.687-.045 1.344-.096 1.588-.133m-.569 2.363.008.096-.731.067-.008-.096zm1.197.569c-.008-.089-.148-.148-.436-.177l-.731.206-.561.022c-.126-.088-.192-.147-.2-.192l.65.037 1.462-.236.746.03.008.118a4.2 4.2 0 0 0-.938.192m7.526-1.943c.088.008.147.008.17.008.258-.251.546-.45.878-.591q-.397 1.75-1.248 2.592l-.413-.25c.347-.88.553-1.463.613-1.759m-1.27 2.18.103-.008q-.212.4-.37.413l-.022-.28c.067 0 .163-.045.288-.126m-.82 1.956c.199-.797.39-1.248.568-1.366l.007.096c-.103.739-.266 1.13-.48 1.16l.037.465c-.177.25-.258.443-.25.59l-.104.008-.06-.643q.18-.022.281-.31m-.318 1.064c.007.11-.067.369-.214.768l-.104.007-.022-.28c.14-.325.258-.488.34-.495m-5.96 17.297-.008-.081.192-.015.023.28c-.104.008-.178-.051-.207-.184m8.515.221c-.007-.066-.037-.096-.103-.088l-.48.044-.008-.096h.045l1.137-.096.007.096c-.332.015-.531.066-.598.14m-.569-.236c.045.022.023.044 0 .059-.022-.007-.051-.03 0-.06m.06-1.33-.635.052-.008-.096.576-.051.502-.126c.008.059.037.081.104.074.598-.104.539-.133.827-.155.096-.008.155.051.162.17zm2.223-.192c-.355-.037-.377-.066-.628-.044l-.007-.081.568-.052.008.081c-.06.008.155.023.059.096m.044-.103-.007-.081.31-.03.007.082zm.687-.06-.007-.08a.54.54 0 0 0 .221-.118c.155-.015.236.088.251.206zm.879-.11-.008-.096.377-.03.008.097zm.524-.044c-.007-.11.037-.177.133-.192l.125.162q-.009-.076.06-.088l.096.177zm-5.576 2.408-.015-.185-.059.007.015.185zm12.977-3.36c.059-.038.088-.075-.052-.097-.067.074.074.096-.074.103l.007.067c.015-.015.052-.037.081-.059l-.08.066v.008l-.156.2.31-.111h.037l-.014-.185zm.539.42-.06.008.015.184.436-.037c-.007-.118-.296-.155-.391-.155m-.672-.325.007-.007v-.008s-.008.008-.008.015"/><path fill="#F9DC3E" d="m70.583 39.479.008.118.244-.022c-.008-.074.022-.192.073-.34l-.022-.214q-.156.012-.303.457m-2.333-5.613-.022-.215-.348.03.023.214zm-6.773 12.68c-.015-.199-.635-.974-1.861-2.34q-.033-.38 1.263-1.123l2.467-2.15q.83-1.05.974-3.419l-.029-.362c-.096-1.093-.886-1.972-2.385-2.644q-1.33-.898-4.786-.99c-1.906.163-4.395.842-7.46 2.046a31 31 0 0 1-2.88 1.817l.015.185a.7.7 0 0 0 .288-.126c.125-.015.2.045.206.163l.185-.096.089-.008.007.081c.008.097-.657.62-2.001 1.559l.103.192-.089.007-.221-.081c.007.066-.089.11-.273.126l.007.08.214.267c-.066.007-.17-.022-.31-.074-.31.03-.613.192-.916.502l.126-.547q.677-2.915.923-5.155l-.022-.096c-.31-.2-.613-.48-.894-.834a3 3 0 0 0 0-.392l-.022-.08-.089.021c-.975 1.463-2.85 3.959-5.635 7.49q-3.18 3.765-3.279 4.187c-.864.893-1.278 1.433-1.233 1.617-.23.148-.325.296-.288.458q-.102.024-.126-.074c-.37.599-.916.983-1.647 1.153l-.768.177q-.157.033-.148.221l.023.096.287-.066.023.081-.65.251-1.152.266-.606.037c-.089.089.48-.008.258.044l-.753.178c-.458.103-.709.066-.753-.119l-.089.022a.4.4 0 0 1 .008.192l-.045-.184-.606.14q-.067-.42-2.451-3.057-.043-.512 1.676-1.477l3.235-2.844c.724-.93 1.152-2.422 1.293-4.475l-.045-.48c-.125-1.448-1.174-2.615-3.146-3.516-1.167-.79-3.264-1.211-6.292-1.278-2.512.214-5.79 1.108-9.823 2.666a38 38 0 0 1-3.789 2.393l.022.251c.096-.007.222-.059.377-.147.162-.015.251.059.266.207l.25-.14.126-.008.008.118c.007.118-.872.805-2.652 2.06l.14.222-.125.008-.273-.097q.011.113-.377.148l.015.133.295.325c-.096.008-.229-.022-.398-.081-.577.051-1.138.465-1.692 1.248l.14.222c.48-.444.761-.665.842-.672l.03.361q-.122.014-.377.148l.303.458a10 10 0 0 1 1.928-1.617c.347.088.532.199.539.317l.266-.022q2.856-2.115 5.657-3.058l.022.251q-.52.776-.709.798a.8.8 0 0 0 .185.465c.03.318-.82 2.46-2.54 6.418C5.944 54.693 2.665 61.502 0 65.904q.012.133.155.354c.658-.155 1.071-.317 1.248-.472l.14-.015.023.251.243-.022.252-.14c.007.074.088.11.258.096l.022.25c.022.245-.118.614-.413 1.123q-.4.454-.857 1.906l.007.118.244-.022q1.594-1.786 2.423-3.493c3.101-.909 5.465-1.803 7.104-2.681 1.647-.14 2.903-.576 3.76-1.293l-.015-.133-.62.185-.141.015-.015-.133c1.212-.185 2.046-.45 2.512-.82 2.355-1.817 4.135-3.102 5.34-3.863 2.473-1.817 4.083-3.59 4.815-5.31.132-.03.265-.06.413-.096.347-.015.54-.022.59-.037-.014-.066.016-.103.082-.118.554-.06.288.037.643-.044l.93-.215.155-.037-.073.045a.9.9 0 0 0 .34-.022l.066.273-4.232 6.728-.938 1.174-.458 1.537.089-.023.457-.191-.147.598.044.177.126.155q-.09.02-.067.118l.022.096.192-.044q.422-.366.355-.665c.303.052.502.074.605.045l.023.096q-.276.066-.296.443l.022.096.104-.023c1.536-1.676 5.303-7.415 8.323-11.307-.096-.42 1.477-1.004 4.727-1.758l.103-.022q.177.765-.753 3.7c-.399 1.182-.59 1.832-.561 1.935-.517 1.574-.761 2.423-.731 2.556l-1.153 3.774a34.5 34.5 0 0 0-1.713 6.108.75.75 0 0 1 .318.03l.162-.141c.015.067.06.089.126.074l-.067-.273.502-.015q.222-.054.377-.561c-.022-.51.081-.783.31-.843.31-1.21.502-1.816.569-1.839q.432-1.805.643-2.06c.435-1.566.753-2.37.96-2.423l.044.192-.318.82q-.83 3.69-1.684 5.828l.163.709.103-.023q2.063-4.43 5.93-17.548.114-1.154 1.101-1.787l-.147-.155-.023-.081q.444-.102.62-.347c-.014-.067-.272-.163-.775-.296l1.285-5.51c.281-.25.444-.383.495-.383l.022.28a.7.7 0 0 0-.288.126l.244.347q.663-.72 1.448-1.24c.266.073.398.162.413.25l.192-.015q2.191-1.606 4.306-2.304l.015.185q-.388.586-.532.598a.8.8 0 0 0 .118.354q.035.364-1.913 4.882c-2.969 6.98-5.458 12.142-7.481 15.495.007.067.051.155.133.273.495-.118.812-.243.938-.362l.088-.007.015.185.207-.015.184-.096q.011.078.2.066l.015.2c.014.177-.089.458-.318.842-.214.229-.435.709-.672 1.44l.007.096.193-.015q1.206-1.35 1.838-2.659c2.356-.694 4.151-1.366 5.392-2.03 1.263-.111 2.215-.436 2.865-.983l-.007-.096-.48.14-.103.008-.008-.096c.916-.133 1.559-.34 1.906-.613 1.787-1.374 3.139-2.356 4.054-2.932 2.851-2.076 4.18-4.07 4.018-5.983m-.487.126.066.746c-.088.185-.184.28-.273.288l-.11-1.27c.206.074.31.147.317.236M5.066 40.66l-.125.008-.022-.23.51-.044.007.119c-.082.007-.207.051-.37.147M2.578 65.557c-.296-.133-.562-.185-.79-.163l-.03-.362c-.015-.14.066-.236.244-.273.162-.014.258.104.273.34q.642-.786.709-.798l.273.111c-.089.739-.318 1.115-.68 1.145m26.595-27.821c-.126.014-.377-.377-.739-1.153l-.022-.228q.352-.035.739 1.152zm-.355-2.755-.103.244-3.612-1.507q3.614.121 3.715 1.263m-15.25 13.094-.51.045-.022-.23.51-.044zm-.415-7.865.126-.008.03.362q-.177.014-.466.525l-.022-.252c.23-.273.347-.48.332-.627m-1.07 2.526.044.48-.125.007-.045-.48zm-.562.9.244-.022c-.022.4-.133.614-.332.628l-.126.008c.155-.266.23-.473.214-.613m-.42 1.256.14-.015.007.118-.229.385-.244.022-.007-.118c.244-.023.355-.148.332-.392m-.414 1.13-.074.606-.125.007-.052-.598zm-4.143 11.78q-.246 1.24-.525 1.263l-.007-.118q-.066-.61.532-1.145m-.761 1.647.007.118c.015.163-.059.259-.221.266l-.008-.118q-.022-.211.222-.266m-.222 3.42.384-.037.015.133c-.096.007-.222.059-.377.147l-.243.022c-.015-.125.066-.221.221-.265m10.93-3.376q-3.236 1.598-3.803 2.164-3.503 1.218-3.47 1.514c-2.076.82-3.443 1.426-4.1 1.802-.155.015-.376-.044-.672-.177-.037-.42.155-.76.561-1.034q.543-.047 1.042.163.578-.301 2.009-.658l-.022-.25-.769.066q.143-.2 2.223-1.042l.384-.036.008.118c-.657.059-1.02.25-1.1.598.014.155.103.221.265.207q.742-.467.732-.547 1.406-.267 7.776-4.07l.023.23c.007.11-.355.42-1.086.952m-6.513 2.142a2.52 2.52 0 0 0 1.595-.738c.177-.015.274.051.28.206-.302.03-.885.281-1.735.768l-.125.008zm10.51-8.072-3.258 2.585c-2.422 1.587-3.722 2.385-3.914 2.4-3.855 2.12-6.255 3.22-7.186 3.301l-.14.015c.118-.436 1.831-3.944 5.155-10.546 1.462-.126 3.766-.805 6.905-2.046l.768-.067c1.588-.14 2.777.17 3.56.909l.044.48c-.583 1.691-1.233 2.68-1.934 2.969M14.12 49.98l.524-.044.008.118-.524.044zm7.364-1.248.384-.037c.354.17.539.317.553.45l.008.118q-.511.045-.945-.531m1.04-5.93c-.339.405-1.27 1.1-2.79 2.074-.503.045-2.372.768-5.606 2.186a1 1 0 0 0-.518-.088l-.022-.23q-.057-.695.628-1.757.375-1.996.827-2.274l2.696-6.064q-.044-.566 1.728-.864l.384-.037.03.347q1.741-.267 2.164-.303c2.142-.184 3.257.251 3.345 1.293l.244-.023-.052-.612.266-.023q.944.521 1.012 1.263c.03.34-.155.761-.546 1.263-.163.015-.259-.103-.274-.34l-.266.023-.059.738c-1.085 1.625-1.876 2.46-2.363 2.504-.443.613-.716.916-.827.923m1.655 4.246c-.221-.148-.399-.214-.532-.207l-.03-.362.245-.022.539.318c.022.17-.052.258-.222.273m1.714 2.03c.236.097.376.2.406.296l-.118.03.007.007a.3.3 0 0 0-.074.015l-.177.14zm.162 1.02-.022-.096.31-.074.022.096zm.746.835c.318-.052.473-.074 1.064-.207l.022.096-1.123.258c.015-.052.03-.103.037-.147m1.093.465c-.473.044-.37-.015-1.122.155l-.023-.096.946-.303.45-.103.045.177c-.207.044-.06.044-.296.17m.997-.236c-.11.029-.2-.023-.251-.148l.288-.067c.126-.03.207.023.236.148zm2.703-2.91-.022-.096.465-.111.045.177zm2.888 17.71a.7.7 0 0 0 .022-.295l.104-.023q.186-.044.228.133l.023.096zm2.024-16.95-.207-.037a6 6 0 0 1-.842.281l-.192.044c-.11.03-.2-.015-.244-.133l1.352-.31.443-.207.148.17q-.324.069-.458.192m1.041-.332-.022-.096a.56.56 0 0 0 .251-.163l.96-.221.022.096c-.51.126-.916.251-1.211.384m.148-1.942c-.067.014-.155.073-.266.162q-.023-.097-.399-.007c-.044-.185.665-.443 2.134-.783l.207-.045.045.178c-1.034.303-1.61.472-1.721.495m2.585-2.792c-.104 1.174-.517 1.839-1.249 2.009l-.022-.096-.65.25-.288.067a.73.73 0 0 1-.398-.007l-.06-.259c-.022-.096.916-1.396 2.822-3.892l.221.037q.123.509-.376 1.89m4.571-3.915-.088.008-.015-.185.384-.037.007.096a1.2 1.2 0 0 0-.288.118M42.97 58.947c-.221-.104-.421-.148-.59-.133l-.023-.28q-.01-.145.177-.2.19-.022.215.266c.317-.406.494-.613.531-.613l.2.081c-.074.561-.244.857-.51.879m20.19-21.123c-.096.008-.28-.288-.569-.886l-.014-.185c.184-.014.376.274.568.864zm-.266-2.112-.089.192-2.732-1.145c1.824.06 2.77.377 2.821.953M51.307 45.66l-.384.037-.015-.184.384-.037zm-.317-5.975.103-.007.022.28q-.144.012-.354.4l-.015-.185q.255-.321.244-.488m-.805 1.92.03.363-.104.007-.03-.362zm-.436.687.192-.014q-.033.465-.244.487l-.103.008c.11-.207.162-.37.155-.48m-.31.946.088-.008.008.096-.17.296-.192.015-.008-.096c.2-.015.288-.118.274-.303m-.31.856-.067.473-.089.008-.036-.466zm-3.154 8.96q-.189.93-.399.952l-.007-.081c-.023-.31.11-.606.406-.872M45.39 54.3l.008.082c.015.132-.044.206-.178.214l-.007-.096q-.01-.144.177-.2m-.162 2.6.295-.022.008.096a.9.9 0 0 0-.288.11l-.192.015q-.012-.155.177-.199m8.294-2.563c-1.625.805-2.593 1.352-2.895 1.633q-2.66.928-2.637 1.159c-1.573.628-2.607 1.078-3.094 1.366q-.177.013-.51-.14c-.03-.318.118-.576.428-.768q.424-.035.79.118c.296-.148.806-.31 1.53-.495l-.015-.184-.598.051c.073-.103.642-.369 1.698-.797l.295-.023.008.082c-.502.044-.783.192-.842.458.007.118.081.177.207.162.369-.244.546-.384.546-.428.71-.126 2.674-1.16 5.901-3.095l.015.185q.002.109-.827.716m-4.948 1.625q.718-.066 1.226-.554c.125-.007.199.044.206.163-.221.022-.657.206-1.314.561l-.103.007zm7.99-6.137-2.459 1.98q-2.759 1.803-2.99 1.823-4.385 2.415-5.459 2.504l-.103.007c.089-.332 1.396-2.998 3.922-8.006q1.648-.146 5.236-1.565l.598-.052q1.808-.153 2.696.702l.03.361q-.675 1.904-1.47 2.246m-4.83-2.718.385-.037.007.096-.384.037zm5.591-.953.296-.022q.41.201.42.347l.008.081c-.258.022-.502-.11-.724-.406m.776-4.498c-.259.31-.96.842-2.105 1.58-.384.038-1.802.584-4.254 1.648a1 1 0 0 0-.391-.052l-.015-.185q-.045-.53.465-1.336c.192-1.02.406-1.588.628-1.721l2.06-4.609q-.031-.41 1.3-.664l.296-.023.022.281q1.307-.21 1.64-.244c1.624-.14 2.474.185 2.54.983l.192-.015-.037-.443.192-.015q.71.386.754.938.03.4-.392.968c-.126.014-.2-.074-.214-.267l-.192.015-.06.554q-1.23 1.873-1.794 1.92c-.332.45-.54.68-.635.687m.864 3.073-.022-.281.192-.015.413.251q.012.177-.177.2-.264-.167-.406-.155m-34.38 17.94-.192.044-.162.14c.03.118.103.162.229.133q.19-.045.148-.222zm-.73-1.456.021.096q.191-.045.148-.221l-.022-.096c-.118.03-.17.103-.148.221m5.228-9.823.14-.088c-.03 0-.051-.008-.073-.015q-.078.025-.067.103m-.03-2.548.222-.051-.044-.192-.222.051zm52.194 7.46-.502-.06-.089.193.008.096 2.99-.251-.014-.185zm2.733-.23.015.185h.029l-.015-.184zm12.548-1.639.015.185.325.059-.015-.185zm-.458.037c-2.245.502-2.526.414-2.998.45l.014.185.207-.014.11-.008-.029-.022.244-.096c2.223-.244 2.481-.155 2.46-.406zm-13.479-3.264-.199-.067c-.162.436-.244.695-.236.768l.007.082c.155-.008.295-.274.428-.783m-2.703-1.455-.007-.096-.104.007-.184.118.103.178c.14-.015.207-.082.192-.207m5.872 6.07-.015-.184-.06.008.016.184zm12.186-2.747.14-.015q.122-.012.11-.191l-.08-.178c-.51.044-.746.067-1.16.296l-.007-.096-.613.059c-.015-.185-.067-.28-.148-.273l-.317.03c-.37.029-.547.014-.732.154q-.011-.098-.066-.096l-.355.03-.206.118c-.008-.067-.03-.096-.067-.096l-.126.11-.007-.095-.495-.037-.118.007.015.185.251.066.236-.014a.43.43 0 0 0 .274.058l.206-.103.008.081c-1.16.288-1.152.237-1.95.37q-.133-.091-.2-.082l-.014.015c-.089-.007-.14-.066-.148-.162l.414-.052c.03 0 .051.03.28.074.333-.163.347-.23.525-.244l-.015-.185c-1.137.222-.68.074-2.105.2l-.067.007-.014-.184c1.832-.222 1.219-.096 1.846-.274.008.067.03.096.067.096a.43.43 0 0 1 .25-.125l.126-.008c.643-.051.857.074 2.127-.28l.008.081.207-.103.192-.015c-.015-.185.266-.214.362-.222l-.015-.2c-2.23.451-2.814.326-3.435.503l-.007-.081c-.583.103-.605.059-.753.066a.4.4 0 0 0-.185.118q-.01-.098-.074-.096c-.022 0-.03.008-.037.008l-1.89.31c-.008-.052-.03-.081-.074-.074-.983.207-.717.244-2.031.362a.6.6 0 0 0-.244.103c-.007-.051-.037-.08-.103-.073l-.806.066-.539.133c-.007-.052-.036-.081-.103-.074a4.3 4.3 0 0 1-.783.148h-.014c-.133.015.066-.037-.037-.081l-.163.096c-.236.022-.11-.015-.923-.008-1.425.178-1.27.2-1.425.207l-.532-.037c.007.052-.023.089-.082.089q-.91-.122-.923-.288.123-.864.421-.887l.104-.007-.089.192.103-.007q.286-.156.274-.288l-.015-.2-.192.015-.015-.185a.67.67 0 0 1 .06-.369l.435-.702.015.185.206-.015-.014-.184-.118-.17c.155-.133.273-.207.369-.214l-.008-.096-.28.022-.022-.28c.561-1.168.827-1.847.812-2.04l.2.082c.125-.007.184-.081.177-.214l-.192.015-.008-.082a.7.7 0 0 1 .074-.391c.303-.318.443-.635.414-.968.059-.007.088.023.096.09.258-.149.458-.54.605-1.19.458-.827 1.108-2.482 1.957-4.956 1.625-4.372 1.559-4.837 1.788-5.871l-.192.014a.67.67 0 0 1-.074.377c-.133-.051-.236-.081-.31-.074l-.008-.08c-.03-.378.126-.828.48-1.36l.09-.007.162.635.192-.015c-.008-.044.044-.295.147-.76-.007-.097-.081-.156-.229-.163l-.184.118q-.02-.201.014-1.034l-.096.008c-.162-.163-.243-.296-.25-.407l-1.057.104a1 1 0 0 0-.118-.325q-.012-.144.716-.288l.215.081.199-.118q.009.1.118.088l.2-.118q.009.1.118.089l.096-.008-.015-.214c-.148.015-.539.015-1.16-.007l-.199.133-.007-.118c-4.956.406-7.77.635-8.442.701-.089.008-.436 0-1.049-.014q.01.119-.214.14l-.214-.096-.724.185c-.17.014-.458.007-.857-.037a.74.74 0 0 1-.406.155c-.088.007 1.056-.06 2.12-.133q-.163.13-.517.162a.7.7 0 0 1-.421-.074c-.162.074-.687.193-1.566.37l-.214-.082-3.456.532a.86.86 0 0 0-.466-.074c-.184.015-.495.082-.923.2l-1.669.694.125.207a.9.9 0 0 0 .34-.133l.591.051-.074.554c-.546.244-.864.606-.953 1.064-.82.362-1.225.62-1.225.776l.007.095.125-.007.222-.118.258.31.037.428c.015.133-1.366 3.036-4.128 8.708-2.393 5.465-3.649 8.456-3.767 8.996-.82.228-1.292.56-1.433 1.004.015.14.259.236.732.273l.022.214-.214.355.037.428q.033.333 1.794.51-.01-.112.111-.126.033.399-.222 1.551l.126-.007q.729-.997.694-1.374l.104-.007c.118-.008.243.126.391.413-.148.06-.665 1.234-1.55 3.53l.125.208.125-.008c1.086-2.747 1.766-4.269 2.046-4.557q2.14-.187 7.393-.753l.222-.133q.01.112.132.103l.23-.022.221-.133q.011.113.133.104l2.651-.23c.702-.058 1.034-.273 1.005-.634q-.011-.146 1.24-.325.121-.012.362.066-.009-.098 1.256-.207c.022-.443.162-.68.413-.701l-.021-.214a3.7 3.7 0 0 0-.813.184q-.832-.047-1.056-.126-.22.123-.34.133l-1.846.06-.222.118q-.011-.1-.133-.089l-.103.007-.237.119c-.007-.067-.199-.119-.583-.17l-.236.14-.458.037-.008-.118c2.379-.258 3.553-.584 3.523-.968q.231-.02.251.215l.695-.178-.022-.214-5.695.155q.011.113-.11.126l-.695-.06a.84.84 0 0 0-.443.156l-.258-.096q-1.074.09-1.603.258a10 10 0 0 0-1.625.023l-1.278.11-.59-.066c-.03-.377.701-2.23 2.208-5.554.436-1.123.835-1.824 1.219-2.09q.119-.012.361.088l.909-.31.465.074c.783-.066 1.691-.288 2.733-.672.258-.022.45-.007.59.052l.695-.163 2.068-.177c.879-.074 1.831-.266 2.865-.584l-.022-.214c-.384.037-.583-.03-.598-.184q-.033-.43-.842-.362l-.022-.214.569-.163 1.491-.126-.022-.214c-.059.008-.362 0-.923-.022l-.022-.229.576-.051c.155-.015.222-.09.207-.237q-1.164.035-1.174-.118-8.11.401-8.132.148-.12.012-.34.148l-.14-.222c1.433-3.043 2.275-4.58 2.518-4.601q.012.179-.177.569l.007.095.23-.022c.568-1.359 1.048-2.06 1.447-2.09 1.699-.148-.236-.258 3.397-.827.148.066.252.096.325.089q2.139-.434 5.96-.901l-.014-.215-1.36.126-.014-.214a.74.74 0 0 0 .406-.155l.008.118q.11-.014.31-.148c.236-.022.413 0 .539.066a8 8 0 0 1 1.137-.228l.85-.082c.206-.133.302-.25.295-.362l-.007-.096a2.7 2.7 0 0 1-.746-.044c-.008-.118.051-.2.192-.236l1.58-.148.724-.184c.008.08.044.11.103.11q.112-.013.31-.148c.038.008.082.008.119.015a6 6 0 0 0-.318.864l-.206.015a.9.9 0 0 0-.119-.377l-.103.008c-1.92 5.347-2.777 7.836-4.55 11.942-.325 1.05-.598 1.633-.834 1.758.007.118.081.177.207.163.044.517-.074 1.026-.362 1.528-.82 2.364-1.367 3.656-1.647 3.893l.184 1.115q.012.176-.177.2l-.192.014c-.03-.31-.14-.458-.34-.436l-.103.008a4.4 4.4 0 0 0-.569 1.366l.192-.015q.388-.255.355-.598l.384-.037.221.081q-.266.42-.243.672l.103.178-.251.59.007.096c.222-.022.466.052.724.207.177-.014.37-.096.584-.236q.333-.031 2.474-.03l.716-.243c.872-.008 1.012.014 1.765-.052l.31-.03.163-.11.007.096c.79-.067.842-.015 1.463.059l.007.096-.436.037.015.184a.63.63 0 0 0 .347-.133c.111-.007.177.052.185.185a2.6 2.6 0 0 0-.599.133l-.191-.067c-.303.082-.237.104-.444.119l-.302-.06c.007.052-.022.09-.074.09.007.117.074.176.184.169l.31-.03 1.618-.14.613-.133c.007.052.03.081.081.074l.296-.11.554-.045c.428-.037.42-.067 1.351-.214-.007-.06.015-.081.06-.089l.007.081c1.514-.258 1.61-.273 1.853-.354l.023.044c.376-.089.162-.066.266-.14q.01.098.066.096l.266-.022-.015-.2-.539-.007-.008-.015c-.022.008-.036.008-.059.015h-.073v.015c-.362.074-.37.022-.606.044l-1.352.074-.007-.096.753-.103.274-.023.155-.11.007.096c1.064-.09 1.44.177 6.359-.872.266-.022.244-.244.414-.702a.46.46 0 0 1-.259-.059c-.406.155-.62.082-1.403.207-.066.008-.118-.051-.14-.17l-.008-.081.753.022c.14-.014.414-.037.82-.266 0 .067-.155.104-.066.096m-36.366.584-.348.03c-.014-.141.17-.673.554-1.581l.23-.022c.007.214-.134.738-.437 1.573m.42-1.684-.007-.096c-.007-.118.066-.2.229-.236l.008.096q.012.212-.23.236m4.616 3.567.008.096-.576.052-.008-.096zm-.694-.059c.008.118-.17.251-.554.384l-.709-.052-.229.023-.022-.215zm4.668-21.485-.347.03-.008-.118c-.007-.118.06-.2.207-.236l.126-.008.236.096c.007.14-.06.222-.214.236m5.28-1.033.111-.008.015.214-.317.03c-.008-.118.051-.2.191-.236m-1.329.465-.524-.06-.008-.095c.687-.06.916-.133 1.337-.251q.013.118.214.096l.015.214-.207.022a.7.7 0 0 1-.42-.074.9.9 0 0 1-.407.148m.657 1.913-.007-.096.85-.082.007.096zm.909-.739-.008-.118.414-.037.008.118zm.096-1.447-.111.007.096-.229.945-.089.008.119a5.7 5.7 0 0 0-.938.192m.48 2.038-.015-.214.414-.037q.21-.023.221.2zm2.504-3.412-.532.148-.096.007a5.4 5.4 0 0 1-.96-.022c.687-.044 1.344-.096 1.588-.133m-.57 2.363.008.096-.73.067-.008-.096zm1.197.569c-.007-.089-.147-.148-.435-.177l-.732.207-.56.022c-.126-.09-.193-.148-.2-.192l.65.036L80 34.376l.746.03.007.118q-.552.057-.938.192m7.526-1.943c.089.008.148.008.17.008.258-.251.547-.45.879-.59q-.398 1.75-1.248 2.591l-.414-.25c.347-.88.554-1.463.613-1.758m-1.27 2.18.103-.008c-.14.266-.266.406-.369.413l-.022-.28c.066 0 .162-.045.288-.126m-.82 1.956c.2-.797.392-1.248.569-1.366l.007.096c-.103.739-.266 1.13-.48 1.16l.037.465c-.177.251-.258.443-.251.59l-.103.008-.06-.642q.18-.023.281-.31m-.317 1.064c.007.11-.067.37-.215.768l-.103.008-.022-.281c.14-.325.258-.488.34-.495m-5.96 17.297-.008-.081.192-.015.022.28c-.103.008-.177-.051-.207-.184m8.515.221c-.008-.066-.037-.096-.104-.088l-.48.044-.007-.096h.044l1.138-.096.007.096c-.332.015-.532.067-.598.14m-.569-.236c.045.022.022.044 0 .06-.022-.008-.051-.03 0-.06m.06-1.33-.636.052-.007-.096.576-.051.502-.126c.007.06.037.081.104.074.598-.103.539-.133.827-.155.096-.008.155.052.162.17zm2.222-.191c-.354-.037-.376-.067-.627-.045l-.008-.081.569-.051.007.08c-.059.008.155.023.06.097m.045-.104-.008-.081.31-.03.008.082zm.687-.059-.008-.081a.54.54 0 0 0 .222-.118c.155-.015.236.088.25.206zm.879-.11-.008-.097.377-.03.007.097zm.524-.045c-.008-.11.037-.177.133-.192l.125.163q-.009-.078.06-.09l.095.178zm7.267-.857.008-.007v-.007s-.008.007-.008.014m.133-.096c.06-.037.089-.074-.052-.096-.066.074.074.096-.073.104l.007.066c.015-.014.052-.037.081-.059l-.081.067v.007l-.155.2.31-.111h.037l-.015-.185zm.54.421-.06.008.015.184.436-.037c-.008-.118-.296-.155-.392-.155"/></svg>