<svg xmlns="http://www.w3.org/2000/svg" fill="none" viewBox="0 0 100 100"><path fill="#fff" d="M87.356 20.423 55.83 1.694c-3.728-2.203-8.39-2.203-12.203 0L12.102 20.423C8.372 22.626 6 26.779 6 31.27v37.458c0 4.491 2.288 8.56 6.102 10.847l31.525 18.73c1.864 1.1 3.983 1.694 6.102 1.694 2.118 0 4.237-.593 6.101-1.695l31.526-18.729c3.729-2.203 6.102-6.356 6.102-10.847V31.186c0-4.407-2.289-8.56-6.102-10.763"/><path fill="#2A3238" d="M87.356 20.423 55.83 1.694C53.966.592 51.847 0 49.729 0s-4.237.593-6.102 1.695L12.102 20.423C8.372 22.626 6 26.779 6 31.27v37.458c0 4.492 2.288 8.56 6.102 10.847l31.525 18.73c1.864 1.1 3.983 1.694 6.102 1.694 2.118 0 4.237-.593 6.102-1.695l31.525-18.729c3.729-2.203 6.102-6.356 6.102-10.847V31.186c0-4.407-2.288-8.56-6.102-10.763M44.729 96.27 13.203 77.542c-3.05-1.865-5-5.255-5-8.899V31.186c0-3.645 1.95-7.12 5-8.899L44.73 3.558c1.525-.932 3.22-1.355 5-1.355s3.474.508 5 1.355l31.525 18.73c2.627 1.525 4.322 4.237 4.83 7.203-1.016-2.204-3.39-2.882-6.186-1.271L55.153 46.694c-3.73 2.203-6.441 4.576-6.441 9.068v36.78c0 2.711 1.101 4.406 2.712 4.915-.509.085-1.102.17-1.695.17-1.695.084-3.475-.424-5-1.357"/><path fill="#4DA925" d="m79.136 72.287-7.882 4.661c-.17.085-.339.254-.339.509v2.034c0 .254.17.338.34.254l7.965-4.83c.17-.086.255-.34.255-.594v-1.78c0-.254-.17-.339-.34-.254"/><path fill="#fff" d="M62.356 55c.254-.17.423 0 .508.338v2.712c1.102-.424 2.119-.593 3.051-.339.17.085.254.339.17.593l-.594 2.373-.254.509c-.085.084-.085.084-.17.084-.084 0-.169.085-.254 0-.423-.085-1.356-.339-2.881.509-1.61.847-2.203 2.203-2.119 3.22 0 1.271.678 1.61 2.797 1.61 2.881.085 4.153 1.356 4.237 4.238 0 2.88-1.525 6.017-3.898 7.88l.085 2.713c0 .339-.17.678-.424.847L61 83.22c-.254.17-.424 0-.509-.338v-2.628c-1.356.594-2.712.678-3.644.34-.17-.085-.254-.34-.17-.594l.594-2.457c.085-.17.17-.424.254-.509.085-.085.085-.085.17-.085q.127-.126.254 0c.932.34 2.203.17 3.305-.423 1.526-.763 2.458-2.289 2.458-3.814 0-1.356-.763-1.95-2.543-1.95-2.288 0-4.406-.423-4.491-3.813 0-2.796 1.44-5.678 3.729-7.457V56.78c0-.34.17-.678.423-.848z"/></svg>