<svg xmlns="http://www.w3.org/2000/svg" fill="none" viewBox="0 0 100 100"><g clip-path="url(#a)"><path fill="#00577B" fill-rule="evenodd" d="m60.669 43.97-10.793-6.231-10.793 6.23 10.793 6.293z" clip-rule="evenodd"/><path fill="#1E384B" fill-rule="evenodd" d="m49.876 62.668 10.793-6.234V43.97l-10.793 6.232z" clip-rule="evenodd"/><path fill="#15211F" fill-rule="evenodd" d="m49.876 62.668-10.793-6.234V43.97l10.793 6.232z" clip-rule="evenodd"/><path fill="#00437C" d="M75.592 35.506v29.599L49.876 79.952 24.158 65.105v-.045l-17.28 9.93c.907 1.599 2.199 2.87 3.63 3.696l34.211 19.752c3.347 1.933 6.95 1.942 10.277.021l34.295-19.8c3.201-1.849 4.89-4.782 4.89-8.511V30.69c0-1.94-.425-3.672-1.24-5.155z"/><path fill="url(#b)" d="M10.458 21.674c-3.186 1.84-4.888 3.66-4.888 7.267v41.057c0 1.876.5 3.564 1.309 4.993l17.28-9.93v-51.3z"/><path fill="url(#c)" d="m44.904 1.97-5.837 3.37v21.465l10.809-6.24L75.592 35.41v.095l17.348-9.97c-.837-1.519-2.084-2.777-3.727-3.725L54.86 1.976a9.94 9.94 0 0 0-4.982-1.35 9.94 9.94 0 0 0-4.974 1.344"/></g><defs><linearGradient id="b" x1="340.341" x2="2147.8" y1="-4829.32" y2="-4358.38" gradientUnits="userSpaceOnUse"><stop stop-color="#00437C"/><stop offset="1" stop-color="#093266"/></linearGradient><linearGradient id="c" x1="39.067" x2="92.94" y1="-1708.44" y2="-1708.44" gradientUnits="userSpaceOnUse"><stop stop-color="#00437C"/><stop offset="1" stop-color="#3984B5"/></linearGradient><clipPath id="a"><path fill="#fff" d="M5 0h89.437v100H5z"/></clipPath></defs></svg>