<svg xmlns="http://www.w3.org/2000/svg" fill="none" viewBox="0 0 100 100"><path fill="#00B46F" d="m71.531 37.812 21.406 12.656v25L71.532 87.812 49.97 75.468v-25z"/><path fill="#2294D9" d="M49.969 0 71.53 12.811v25L49.97 49.999 28.406 37.812v-25z"/><path fill="#2294D9" d="m71.531 12.812 21.406 12.656v25L71.532 62.812 49.97 50.468v-25z"/><path fill="#F85551" d="M28.406 12.812 49.97 25.468v25L28.406 62.812 7 50.468v-25z"/><path fill="#F85551" d="M28.406 37.812 49.97 50.468v25L28.406 87.812 7 75.468v-25z"/><path fill="#00B46F" d="M49.969 50 71.53 62.811v25L49.97 99.999 28.406 87.812v-25z"/><path fill="#30B2E9" d="M71.531 12.812 49.97 25.468 28.406 12.812 49.97-.001zm21.406 12.656L71.376 38.28 49.969 25.468 71.53 12.655z"/><path fill="#00AB64" d="M49.969 75V50L28.406 62.811v25z"/><path fill="#00CE8E" d="M71.531 62.812 49.97 74.999 28.406 62.812 49.97 49.999z"/><path fill="#00C783" d="M49.969 75 28.406 62.811 49.97 49.999z"/><path fill="#2CAEE7" d="M49.969 25.468 28.406 12.812 49.97-.001z"/><path fill="#FB716C" d="M49.969 25.468 28.406 38.281 7 25.468l21.406-12.656z"/><path fill="#1F8ED6" d="M92.938 50.468 71.53 62.812 49.97 49.999 71.53 38.28z"/><path fill="#F64743" d="M28.094 87.5 7 75.311l21.094-12.813z"/><path fill="#F96560" d="M28.406 38.28V12.813L49.97 25.468V50z"/><path fill="#B71D1D" d="M49.969 49.999V25.467L28.406 38.28v24.53z"/><path fill="#B21A1A" d="m49.969 49.999-21.563-11.72L49.97 25.468z"/><path fill="#10161A" fill-opacity=".2" d="M92.938 75.467 71.53 62.811l21.406-12.344z"/><path fill="#007233" d="M71.531 87.811v-25L49.97 75v25zm21.406-12.344v-25L71.376 62.655v25z"/><path fill="#00682C" d="M92.938 75.467 71.53 62.811l21.406-12.344z"/><path fill="#0759BA" d="M92.938 50.467v-25L71.53 38.28v24.53z"/><path fill="#0860BF" d="M92.938 50.467 71.53 38.28l21.406-12.813z"/><path fill="#FEBCB7" d="m7 25.467 21.563 12.188 21.406-12.188-20.938 12.97-.468 24.218-.47-24.219z" opacity=".78"/><path fill="#4EDCF8" d="M49.969 25.467 71.53 37.811l21.406-12.344L72 38.437l-.469 24.374-.625-24.375z" opacity=".78"/><path fill="#00F3C9" d="M28.406 62.812 49.97 74.531l21.56-11.719-20.937 12.5L49.969 100 49.5 75.312z" opacity=".78"/></svg>