<svg xmlns="http://www.w3.org/2000/svg" fill="none" viewBox="0 0 100 100"><path fill="#563D7C" d="M0 87.106C0 94.228 5.773 100 12.894 100h74.212C94.228 100 100 94.227 100 87.106V12.895C100 5.772 94.227 0 87.106 0H12.895C5.773 0 0 5.773 0 12.894z"/><path fill="#fff" d="M41.468 44.234V30.072h12.465q1.782 0 3.435.297 1.654.296 2.926 1.06a5.65 5.65 0 0 1 2.035 2.12q.762 1.356.763 3.476 0 3.816-2.29 5.513-2.289 1.696-5.85 1.696zM28.154 19.727v60.546h29.341q4.07 0 7.93-1.017 3.856-1.018 6.868-3.138 3.01-2.12 4.791-5.47 1.781-3.348 1.78-7.928 0-5.681-2.755-9.71-2.757-4.028-8.353-5.639 4.07-1.95 6.148-5.003t2.078-7.632q0-4.24-1.4-7.123-1.398-2.883-3.943-4.622-2.543-1.739-6.105-2.501-3.562-.764-7.887-.763zm13.314 50.2v-16.62h14.5q4.326 0 6.955 1.993t2.629 6.657q-.001 2.374-.806 3.9-.806 1.527-2.163 2.417-1.356.891-3.137 1.272-1.781.382-3.732.382z"/></svg>