<svg xmlns="http://www.w3.org/2000/svg" fill="none" viewBox="0 0 100 100"><path fill="#7952B3" fill-rule="evenodd" d="M20.77 10c-5.705 0-9.928 4.994-9.739 10.41.182 5.203-.054 11.942-1.75 17.438C7.578 43.36 4.7 46.852 0 47.3v5.06c4.7.45 7.578 3.94 9.28 9.453 1.697 5.495 1.933 12.234 1.751 17.438-.189 5.415 4.033 10.41 9.74 10.41h58.466c5.706 0 9.928-4.994 9.738-10.41-.181-5.204.055-11.943 1.751-17.438C92.43 56.3 95.3 52.809 100 52.36V47.3c-4.7-.45-7.571-3.94-9.274-9.452-1.697-5.495-1.932-12.234-1.75-17.438.189-5.415-4.033-10.41-9.739-10.41zm47.027 49.037c0 7.457-5.563 11.98-14.794 11.98H37.287a1.695 1.695 0 0 1-1.695-1.695V30.34a1.695 1.695 0 0 1 1.695-1.695h15.625c7.698 0 12.75 4.17 12.75 10.571 0 4.493-3.4 8.516-7.729 9.22v.235c5.894.646 9.863 4.728 9.863 10.366m-16.508-25.02h-8.96v12.656h7.547c5.834 0 9.05-2.349 9.05-6.548 0-3.935-2.766-6.108-7.637-6.108m-8.96 17.678v13.947h9.29c6.074 0 9.291-2.437 9.291-7.017s-3.307-6.93-9.682-6.93z" clip-rule="evenodd"/></svg>