<svg xmlns="http://www.w3.org/2000/svg" fill="none" viewBox="0 0 100 100"><path fill="#5C8DBC" d="M94.73 29.321c0-1.677-.359-3.158-1.084-4.43-.713-1.25-1.78-2.299-3.21-3.128-11.814-6.811-23.638-13.602-35.448-20.42-3.183-1.838-6.27-1.771-9.43.093C40.856 4.21 17.315 17.696 10.3 21.76c-2.889 1.672-4.295 4.231-4.295 7.558C6 43.016 6.005 56.714 6 70.413c0 1.64.344 3.093 1.037 4.346.713 1.288 1.795 2.365 3.26 3.213 7.014 4.063 30.559 17.549 35.26 20.323 3.16 1.865 6.248 1.932 9.432.093 11.81-6.819 23.635-13.61 35.45-20.42 1.464-.848 2.546-1.925 3.259-3.213.692-1.252 1.036-2.705 1.037-4.346 0 0 0-27.39-.005-41.088"/><path fill="#1A4674" d="M50.503 49.732 7.037 74.76c.713 1.288 1.795 2.365 3.26 3.213 7.014 4.063 30.559 17.549 35.26 20.323 3.16 1.865 6.248 1.932 9.432.093C66.8 91.57 78.625 84.78 90.44 77.968c1.464-.848 2.546-1.925 3.259-3.213z"/><path fill="#1A4674" d="M37.629 57.145c2.53 4.416 7.284 7.394 12.738 7.394 5.488 0 10.27-3.016 12.787-7.479l-12.65-7.328z"/><path fill="#1B598E" d="M94.73 29.322c0-1.677-.359-3.16-1.084-4.43l-43.143 24.84 43.195 25.024c.692-1.253 1.036-2.706 1.037-4.347 0 0 0-27.389-.005-41.087"/><path fill="#fff" d="M92.355 51.52H88.98v3.377h-3.376V51.52h-3.375v-3.375h3.375V44.77h3.376v3.376h3.375zm-12.316 0h-3.375v3.377h-3.376V51.52h-3.375v-3.375h3.375V44.77h3.376v3.376h3.375z"/><path fill="#fff" d="M63.154 57.06c-2.517 4.463-7.299 7.48-12.787 7.48-5.454 0-10.209-2.979-12.738-7.395a14.6 14.6 0 0 1-1.935-7.28c0-8.103 6.57-14.673 14.673-14.673 5.42 0 10.15 2.941 12.691 7.312l12.826-7.385c-5.098-8.8-14.615-14.72-25.516-14.72-16.275 0-29.468 13.193-29.468 29.467 0 5.339 1.42 10.346 3.903 14.664 5.084 8.846 14.63 14.803 25.565 14.803 10.955 0 20.514-5.98 25.592-14.853z"/></svg>