<svg xmlns="http://www.w3.org/2000/svg" fill="none" viewBox="0 0 100 100"><path fill="#A179DC" d="M94.094 29.111c0-1.665-.356-3.136-1.076-4.398-.708-1.242-1.767-2.283-3.188-3.106C78.102 14.845 66.362 8.103 54.637 1.333c-3.16-1.825-6.225-1.758-9.363.093C40.606 4.18 17.234 17.57 10.27 21.604c-2.868 1.66-4.264 4.201-4.265 7.504-.004 13.6 0 27.2-.004 40.8 0 1.629.342 3.072 1.03 4.315.708 1.279 1.782 2.348 3.235 3.19 6.965 4.034 30.34 17.423 35.008 20.177 3.139 1.852 6.203 1.918 9.365.093 11.725-6.77 23.466-13.512 35.196-20.274 1.453-.842 2.528-1.911 3.235-3.19.688-1.243 1.03-2.686 1.03-4.314 0 0 0-27.193-.005-40.794"/><path fill="#280068" d="M50.184 49.376 7.03 74.223c.708 1.279 1.782 2.348 3.235 3.19 6.965 4.034 30.34 17.423 35.008 20.177 3.139 1.852 6.203 1.918 9.365.093 11.725-6.77 23.466-13.512 35.196-20.275 1.453-.84 2.528-1.91 3.235-3.189z"/><path fill="#390091" d="M94.095 29.111c-.001-1.665-.357-3.136-1.077-4.398L50.184 49.376 93.07 74.22c.688-1.244 1.03-2.687 1.03-4.315 0 0 0-27.193-.005-40.794"/><path fill="#fff" d="M75.592 40.087v4.644h4.644v-4.644h2.323v4.644h4.644v2.323H82.56v4.644h4.644v2.322H82.56v4.644h-2.323V54.02h-4.644v4.644H73.27V54.02h-4.644v-2.322h4.644v-4.644h-4.644V44.73h4.644v-4.644zm4.644 6.966h-4.644v4.645h4.644z"/><path fill="#fff" d="M50.279 16.762c12.114 0 22.69 6.579 28.356 16.358l-.056-.094-14.253 8.206c-2.808-4.754-7.955-7.963-13.861-8.029l-.186-.001c-9.006 0-16.306 7.3-16.306 16.306a16.23 16.23 0 0 0 2.15 8.09c2.81 4.907 8.095 8.216 14.156 8.216 6.099 0 11.413-3.351 14.209-8.31l-.068.119 14.231 8.244c-5.603 9.696-16.034 16.255-28.007 16.386l-.365.002c-12.152 0-22.759-6.62-28.41-16.45a32.6 32.6 0 0 1-4.337-16.297c0-18.085 14.661-32.746 32.747-32.746"/></svg>