<svg xmlns="http://www.w3.org/2000/svg" viewBox="381 479 4562 5044"><g fill-rule="evenodd" clip-rule="evenodd"><path fill="#004482" d="M2529.36 515.354c81.48-45.72 181.8-45.72 263.16 0 402.6 225.96 1614.12 906.12 2016.84 1132.08 81.48 45.6 131.64 130.08 131.64 221.52v2264.04c0 91.44-50.16 175.92-131.64 221.64-402.6 225.96-1614.12 906.12-2016.84 1132.08-81.48 45.72-181.8 45.72-263.16 0-402.6-225.96-1614.12-906.12-2016.84-1132.08-81.36-45.72-131.52-130.08-131.52-221.52v-2264.04c0-91.44 50.16-175.92 131.64-221.64 402.48-225.96 1614.24-906.12 2016.72-1132.08"/><path fill="#659ad2" d="M417.48 4249.514c-31.92-42.72-36.48-83.28-36.48-137.88v-2251.08c0-90.96 50.04-174.96 131.28-220.32 401.16-224.64 1608.6-900.84 2009.76-1125.6 81.24-45.48 191.28-44.52 272.52.96 401.16 224.64 1604.52 895.08 2005.68 1119.72 32.4 18.24 57.12 40.2 79.2 69.12z"/><path fill="#fff" d="M2661 1321.034c927.24 0 1680 752.76 1680 1680s-752.76 1680-1680 1680-1680-752.76-1680-1680 752.76-1680 1680-1680m0 840c463.56 0 840 376.32 840 840 0 463.56-376.44 840-840 840s-840-376.44-840-840c0-463.68 376.32-840 840-840"/><path fill="#00599c" d="M4879.2 1705.634c61.92 57.96 60.72 145.32 60.72 214.08 0 455.4-3.84 1750.68 1.08 2206.08.48 47.52-15.24 97.56-38.76 135.24l-2290.08-1260z"/></g></svg>