<svg xmlns="http://www.w3.org/2000/svg" fill="none" viewBox="0 0 100 100"><path fill="#7D2AE7" d="M50 100c27.614 0 50-22.386 50-50S77.614 0 50 0 0 22.385 0 50s22.386 50 50 50"/><path fill="url(#a)" d="M50 100c27.614 0 50-22.386 50-50S77.614 0 50 0 0 22.385 0 50s22.386 50 50 50"/><path fill="url(#b)" d="M50 100c27.614 0 50-22.386 50-50S77.614 0 50 0 0 22.385 0 50s22.386 50 50 50"/><path fill="url(#c)" d="M50 100c27.614 0 50-22.386 50-50S77.614 0 50 0 0 22.385 0 50s22.386 50 50 50"/><path fill="url(#d)" d="M50 100c27.614 0 50-22.386 50-50S77.614 0 50 0 0 22.385 0 50s22.386 50 50 50"/><path fill="#fff" d="M71.586 60.256c-.412 0-.775.349-1.153 1.11-4.268 8.653-11.638 14.776-20.168 14.776-9.862 0-15.969-8.903-15.969-21.202 0-20.833 11.608-32.879 21.803-32.879 4.765 0 7.674 2.994 7.674 7.759 0 5.654-3.213 8.648-3.213 10.643 0 .895.557 1.437 1.661 1.437 4.437 0 9.644-5.098 9.644-12.3 0-6.982-6.078-12.114-16.273-12.114-16.85 0-31.824 15.621-31.824 37.235 0 16.73 9.553 27.786 24.294 27.786 15.646 0 24.693-15.566 24.693-20.619 0-1.119-.572-1.632-1.169-1.632"/><defs><radialGradient id="a" cx="0" cy="0" r="1" gradientTransform="rotate(-49.416 105.972 23.325)scale(77.3416)" gradientUnits="userSpaceOnUse"><stop stop-color="#6420FF"/><stop offset="1" stop-color="#6420FF" stop-opacity="0"/></radialGradient><radialGradient id="b" cx="0" cy="0" r="1" gradientTransform="rotate(54.703 2.249 31.273)scale(87.2168)" gradientUnits="userSpaceOnUse"><stop stop-color="#00C4CC"/><stop offset="1" stop-color="#00C4CC" stop-opacity="0"/></radialGradient><radialGradient id="c" cx="0" cy="0" r="1" gradientTransform="matrix(53.84252 -54.21027 24.93201 24.76288 19.315 88.63)" gradientUnits="userSpaceOnUse"><stop stop-color="#6420FF"/><stop offset="1" stop-color="#6420FF" stop-opacity="0"/></radialGradient><radialGradient id="d" cx="0" cy="0" r="1" gradientTransform="rotate(66.52 10.176 37.912)scale(78.7295 131.889)" gradientUnits="userSpaceOnUse"><stop stop-color="#00C4CC" stop-opacity=".726"/><stop offset="0" stop-color="#00C4CC"/><stop offset="1" stop-color="#00C4CC" stop-opacity="0"/></radialGradient></defs></svg>