<svg xmlns="http://www.w3.org/2000/svg" fill="none" viewBox="0 0 100 100"><path fill="#373535" d="M11.933 71.344c.816 0 1.59.193 1.977.58.065.602-.473 1.57-.817 1.57a3.5 3.5 0 0 0-1.268-.237c-1.956 0-2.923 2.02-2.923 4.019 0 1.246.43 2 1.419 2 1.053 0 2.127-.71 2.729-1.247.15.107.344.45.344.838 0 .43-.13.838-.516 1.225-.688.688-1.848 1.268-3.525 1.268-1.934 0-3.267-1.096-3.267-3.654 0-3.353 2.214-6.362 5.825-6.362zm6.317 7.823c1.053 0 2.967-1.848 3.504-5.373.021-.215.043-.28.086-.494a2.7 2.7 0 0 0-.882-.15c-.795 0-1.611.236-2.342 1.224-.752 1.053-1.075 2.364-1.075 3.418 0 .902.258 1.375.688 1.375zm-3.46-.967c0-1.268.43-3.482 2.042-5.094 1.375-1.418 3.052-1.762 4.578-1.762 1.01 0 2.386.322 3.245.495-.215.945-.73 4.513-.967 6.576-.107.881-.15 2.106-.107 2.558-.71.3-2.042.386-2.408.386-.193 0-.236-.88-.171-1.719.02-.28.064-.687.085-.86-.838 1.397-2.493 2.58-4.233 2.58-1.247 0-2.064-1.032-2.064-3.138zm15.216-6.856c.881 0 1.72.322 2.106.73-.02.603-.494 1.612-1.246 1.333a3.2 3.2 0 0 0-1.075-.193c-.58 0-1.075.258-1.075.795 0 .408.301.71 1.741 1.72 1.032.752 1.44 1.418 1.44 2.364 0 1.569-1.483 3.267-4.062 3.267-1.053 0-1.977-.409-2.278-.838-.387-.645-.086-1.913.344-1.699.559.28 1.483.581 2.235.581.71 0 1.16-.323 1.16-.753 0-.364-.322-.687-1.633-1.611-1.096-.817-1.44-1.57-1.44-2.429 0-1.784 1.526-3.267 3.762-3.267zm7.414 0c.882 0 1.72.322 2.107.73-.022.603-.494 1.612-1.247 1.333a3.2 3.2 0 0 0-1.074-.193c-.58 0-1.075.258-1.075.795 0 .408.3.71 1.74 1.72 1.032.752 1.44 1.418 1.44 2.364 0 1.569-1.483 3.267-4.062 3.267-1.053 0-1.977-.409-2.278-.838-.386-.645-.086-1.913.344-1.699.559.28 1.483.581 2.235.581.71 0 1.16-.323 1.16-.753 0-.364-.322-.687-1.633-1.611-1.096-.817-1.44-1.57-1.44-2.429 0-1.784 1.526-3.267 3.762-3.267zm6.77 7.823c1.053 0 2.966-1.848 3.503-5.373.021-.215.043-.28.086-.494a2.7 2.7 0 0 0-.881-.15c-.795 0-1.612.236-2.343 1.224-.752 1.053-1.075 2.364-1.075 3.418 0 .902.258 1.375.688 1.375zm-3.461-.967c0-1.268.43-3.482 2.042-5.094 1.375-1.418 3.052-1.762 4.578-1.762 1.01 0 2.386.322 3.246.495-.215.945-.731 4.513-.967 6.576-.108.881-.15 2.106-.108 2.558-.71.3-2.042.386-2.407.386-.193 0-.237-.88-.172-1.719.021-.28.064-.687.086-.86-.839 1.397-2.493 2.58-4.234 2.58-1.247 0-2.064-1.032-2.064-3.138zm14.721-4.062c.99-1.59 2.279-2.794 4.084-2.794 1.526 0 2.02 1.418 1.742 3.439-.15.946-.409 2.3-.581 3.546-.15 1.054-.258 1.999-.236 2.644-.559.28-2.193.387-2.558.387-.15 0-.172-1.183.022-2.43.171-1.03.537-2.9.709-3.976.108-.622.086-1.375-.516-1.375-.796 0-2.686 1.269-3.633 6.47-.064.43-.236.687-.473.837-.322.194-1.01.366-2.406.388.258-1.311.666-3.998.967-5.975.279-1.806.387-2.967.322-3.418.366-.129 2.279-.537 2.493-.537.237 0 .28.666.065 2.279-.021.15-.043.386-.065.515zm10.919 5.008c.945 0 2.858-1.763 3.395-4.879a10 10 0 0 1 .13-.688c-.28-.258-.646-.43-1.226-.43-2.171 0-3.138 2.601-3.138 4.471 0 1.01.344 1.526.817 1.526zM64.95 81.36c-1.375 0-2.235-1.225-2.235-3.332 0-3.482 2.17-6.684 5.824-6.684.645 0 1.225.172 1.59.387.194-.989.645-4.041.667-4.944.601-.107 1.891-.3 2.471-.3.237 0 .302.236.216.773-.517 3.224-1.44 9.414-1.612 10.79-.13 1.16-.15 2.3-.13 2.944-.687.301-2.084.366-2.45.366-.15 0-.236-.989-.193-1.87.022-.28.064-.688.064-.752-1.074 1.762-2.558 2.622-4.19 2.622zm12.593-6.921c1.14-2.536 2.493-3.095 3.375-3.095.28 0 .71.172.903.387.086.709-.473 2.127-.968 2.665-.258-.13-.58-.258-.945-.258-.731 0-2.171 1.14-3.074 6.04-.065.408-.193.58-.43.687-.364.215-1.805.387-2.492.409.321-1.763.88-5.352 1.095-7.459.065-.537.086-1.525.043-1.912.409-.194 2.021-.56 2.386-.56.194 0 .344 1.183.042 3.096zm7.587 4.728c1.053 0 2.966-1.848 3.504-5.373.02-.215.043-.28.085-.494a2.7 2.7 0 0 0-.881-.15c-.795 0-1.612.236-2.343 1.224-.752 1.053-1.075 2.364-1.075 3.418 0 .902.258 1.375.689 1.375zm-3.461-.967c0-1.268.43-3.482 2.042-5.094 1.376-1.418 3.052-1.762 4.578-1.762 1.01 0 2.386.322 3.246.495-.215.945-.73 4.513-.967 6.576-.108.881-.151 2.106-.108 2.558-.709.3-2.041.386-2.407.386-.193 0-.236-.88-.172-1.719.021-.28.064-.687.086-.86-.838 1.397-2.493 2.58-4.234 2.58-1.247 0-2.064-1.032-2.064-3.138z"/><path fill="#BBE6FB" d="M78.818 34.922c.71 8.262-12.292 16.125-29.04 17.562-16.746 1.437-30.897-4.097-31.606-12.358-.71-8.263 12.293-16.126 29.04-17.563s30.898 4.097 31.606 12.36"/><path fill="#fff" d="M47.703 23.532c-6.388-.104-13.864 2.433-19.426 4.808a16 16 0 0 0-.89 5.282c0 9.8 8.849 17.745 19.765 17.745s19.765-7.945 19.765-17.745c0-3.102-.888-6.015-2.446-8.552-4.45-.692-10.57-1.437-16.768-1.538" opacity=".4"/><path fill="#fff" d="M47.152 23.53c-3.537-.215-9.633 1.63-14.716 3.47a15.1 15.1 0 0 0-1.201 5.91c0 8.588 7.785 15.548 16.02 15.548 8.182 0 15.42-6.972 16.021-15.547.196-2.793-.766-5.424-2.1-7.693-5.27-.928-10.863-1.495-14.024-1.688"/><path fill="#373535" d="M38.076 31.783c.434-.96 1.091-1.431 1.728-2.236-.071-.191-.226-.815-.226-1.031a1.75 1.75 0 0 1 2.394-1.624 12.75 12.75 0 0 1 11.564-2.033c-3.785-.525-8.05.815-10.953 3.158.089.209.335.806.335 1.047 0 .966-.625 1.2-1.591 1.2a1.7 1.7 0 0 1-.623-.115c-.655.88-1.459 2.557-1.852 3.605 1.605 1.435 3.055 1.956 4.944 2.662-.005-.09.065-.174.065-.265 0-2.912 2.563-5.278 5.476-5.278a5.27 5.27 0 0 1 5.191 4.387c1.302-.829 2.561-1.464 3.52-2.691-.223-.273-.464-1.047-.464-1.427 0-.876.71-1.587 1.587-1.587.124 0 .243.018.359.045a14 14 0 0 0 1.09-3.157c-4.554-3.37-13.364-2.91-13.364-2.91s-7.01-.367-11.756 1.946c.316 2.289 1.23 4.464 2.576 6.304"/><path fill="#373535" d="M59.84 30.47c.322.29.497.545.635.793.426.766-.428 1.466-1.304 1.466a1.6 1.6 0 0 1-.26-.026c-.988 1.543-2.717 3.521-4.253 4.517 2.355.386 4.576 1.33 6.344 2.787 1.287-2.306 2.274-5.636 2.274-8.465 0-2.153-.95-3.732-2.385-4.89-.075 1.154-.69 2.767-1.051 3.818M40.719 45.077c.785-2.167 2.715-3.847 4.541-5.324-.267-.366-.668-1.272-.835-1.7a12.8 12.8 0 0 1-5.726-3.625q-.02.074-.037.146a11.6 11.6 0 0 0-.198 3.843 2.3 2.3 0 0 1 1.874 2.257c0 .667-.584 1.633-1.038 2.054.493 1.063.83 1.576 1.419 2.35"/><path fill="#373535" d="M40.58 46.897c-.936-.931-1.583-2.788-2.19-3.954q-.17.029-.35.03c-1.27 0-2.6-1.066-2.3-2.299.167-.682.639-1.129 1.405-1.501-.174-1.414-.222-3.445.106-4.915.095-.42.294-.617.426-1.018-1.401-2.05-2.306-4.74-2.306-7.41q.002-.146.007-.291c-2.368 1.187-4.143 3.058-4.143 6.003 0 6.513 3.751 12.903 9.333 15.408zm13.726-9.005a5.27 5.27 0 0 1-4.97 3.525 5.25 5.25 0 0 1-3.253-1.129c-1.848 1.44-3.524 3.967-4.377 6.16.383.412.65.75 1.078 1.115 1.293.337 3.073 0 4.472 0 5.628 0 10.613-2.504 13.47-6.894-1.9-1.316-4.141-2.568-6.42-2.777"/><path fill="#1287B1" d="M37.932 32.545c.433-.961.977-1.85 1.614-2.656a1.75 1.75 0 0 1 2.282-2.236A12.75 12.75 0 0 1 53.39 25.62c-3.784-.525-7.695.635-10.596 2.978a1.749 1.749 0 0 1-2.235 2.312 11.8 11.8 0 0 0-1.585 2.901c1.378 1.485 3.07 2.66 4.959 3.366-.005-.09-.014-.18-.014-.271a5.269 5.269 0 0 1 10.464-.885 13.7 13.7 0 0 0 3.418-3.12 1.57 1.57 0 0 1-.363-.998c0-.876.711-1.587 1.588-1.587.124 0 .243.018.359.045a14 14 0 0 0 1.09-3.157c-4.554-3.37-13.364-2.91-13.364-2.91s-7.01-.367-11.757 1.946c.317 2.289 1.23 4.464 2.577 6.305"/><path fill="#1287B1" d="M60.085 30.73c.322.29.529.706.529 1.173 0 .876-.711 1.587-1.587 1.587a1.6 1.6 0 0 1-.261-.026 12.85 12.85 0 0 1-3.832 3.854 12.83 12.83 0 0 1 6.175 2.776 15.94 15.94 0 0 0 2.023-7.791c0-2.153-.95-3.731-2.385-4.89a12.8 12.8 0 0 1-.662 3.317M40.96 45.598a12.8 12.8 0 0 1 3.976-5.59 5.3 5.3 0 0 1-.655-1.195 12.8 12.8 0 0 1-5.727-3.623c-.01.048-.025.096-.036.145a11.6 11.6 0 0 0-.198 3.843 2.297 2.297 0 0 1 1.134 3.944c.412.872.918 1.703 1.507 2.476"/><path fill="#1287B1" d="M40.574 46.87c-.936-.93-1.722-2-2.329-3.165q-.17.027-.35.029a2.297 2.297 0 0 1-1.002-4.365 12.75 12.75 0 0 1 .555-5.58 12.7 12.7 0 0 1-2.221-7.198q.002-.146.006-.29c-2.367 1.187-4.143 3.058-4.143 6.002 0 6.514 3.89 12.116 9.472 14.62zm13.588-8.217a5.27 5.27 0 0 1-4.97 3.525 5.25 5.25 0 0 1-3.254-1.128c-1.848 1.439-3.242 3.4-4.094 5.594q.574.617 1.22 1.163c1.292.337 2.649.517 4.048.517 5.628 0 10.576-2.905 13.434-7.295-1.9-1.317-4.105-2.167-6.384-2.376"/><path fill="#fff" d="m54.347 37.294 4.87-1.162-4.889-.25 3.98-3.04-4.516 1.618 3.069-4.252-4.238 2.817 1.481-4.978-2.91 4.103-.066-5.184-1.915 4.617-1.597-4.673.087 5.505-2.76-4.934 1.494 5.24-4.476-3.256 3.506 4.406-5.557-2.044 4.386 3.245-5.624.173 5.75 1.484-5.755 1.244 5.68.412-4.79 3.067 4.933-1.788L41.067 44l4.325-3.488-1.557 5.816 3.338-4.733-.467 5.59 1.895-5.068 1.613 5.327.392-5.343 2.395 4.559-1.415-5.214 4.385 3.396-2.831-4.33 4.81 1.874-3.678-3.615 4.933.388z"/><path fill="#373535" d="M2.49 46.614c15.107-15.106 27.172-19.77 38.122-21.898 1.449-.282 1.723-3.448 1.723-3.448s.203 2.332 1.217 2.636c1.013.305 2.331-3.65 2.331-3.65s-1.216 3.549 0 3.752c1.217.203 3.447-3.448 3.447-3.448s-.912 3.143-.303 3.346c.607.203 3.649-4.562 3.649-4.562s-1.825 3.143-.102 3.447c1.725.304 4.24-2.145 4.24-2.145s-1.978 2.241-1.097 2.55c3.752 1.319 6.787-3.557 6.787-3.557s-.703 2.138-2.528 4.47c3.953 1.014 6.89-4.943 6.89-4.943L63.93 25.12c1.521.812 7.605-6.184 7.605-6.184s-3.143 5.475-4.968 6.59c1.014.811 4.664-2.433 4.664-2.433s-2.94 3.65-1.825 3.852c1.622 1.319 7.603-6.792 7.603-6.792s-2.331 4.765-5.778 8.516c2.88 1.441 10.037-7.806 10.037-7.806s-.203 2.94-5.374 7.603c3.853-.506 8.821-7.806 8.821-7.806s-1.825 5.475-6.185 9.327c3.783-.394 9.834-9.733 9.834-9.733s-2.331 6.489-7.096 10.24c5.272 1.166 12.876-6.691 12.876-6.691s-2.991 5.576-6.895 7.857c4.36 1.673 10.342-5.221 10.342-5.221s-5.982 9.226-15.512 8.82c-3.127-.133-12.585-9.486-32.849-8.719-26.765 1.014-32.443 12.37-46.738 20.074" opacity=".3"/><path fill="#373535" d="M3.11 45.467C18.216 30.361 30.28 25.698 41.23 23.57c1.45-.282 1.724-3.448 1.724-3.448s.202 2.333 1.217 2.636c1.014.304 2.331-3.65 2.331-3.65s-1.216 3.55 0 3.752c1.217.202 3.447-3.447 3.447-3.447s-.912 3.142-.304 3.345 3.65-4.562 3.65-4.562-1.825 3.143-.101 3.447 4.238-2.145 4.238-2.145-1.977 2.241-1.096 2.55c3.752 1.319 6.787-3.557 6.787-3.557s-.704 2.138-2.528 4.47c3.954 1.014 6.89-4.943 6.89-4.943l-2.936 5.957c1.52.811 7.603-6.184 7.603-6.184s-3.142 5.474-4.967 6.59c1.014.81 4.664-2.434 4.664-2.434s-2.94 3.65-1.825 3.853c1.622 1.318 7.603-6.793 7.603-6.793s-2.332 4.765-5.778 8.517c2.881 1.441 10.037-7.807 10.037-7.807s-.203 2.94-5.374 7.604c3.853-.507 8.821-7.807 8.821-7.807s-1.825 5.475-6.185 9.328c3.783-.394 9.834-9.733 9.834-9.733s-2.331 6.488-7.096 10.24c5.272 1.165 12.876-6.691 12.876-6.691s-2.99 5.575-6.895 7.856c4.36 1.673 10.342-5.221 10.342-5.221s-5.982 9.226-15.513 8.82c-3.126-.133-12.584-9.486-32.848-8.719-26.765 1.014-32.443 12.37-46.738 20.074"/><path fill="#373535" d="M2.095 48.267c7.984 4.005 15.284-.609 24.484 1.984 6.995 1.972 15.512 4.403 27.07 2.73s21.443-6.691 26.158-15.664c1.47-4.004 7.451.913 7.451.913s-4.36-1.825-4.257-.963c.1.861 6.539 3.852 6.539 3.852s-5.83-1.825-5.475-.456 7.299 6.843 7.299 6.843-7.857-5.981-8.516-5.17c-.66.81 3.346 4.106 3.346 4.106s-6.641-4.107-8.973-2.895c-1.677.87 6.894 6.494 6.894 6.494s-5.576-4.258-6.894-3.143 6.286 10.24 6.286 10.24-8.619-9.328-9.48-8.871 2.382 4.917 2.382 4.917-4.258-4.664-5.423-3.853 6.083 12.927 6.083 12.927-7.857-12.42-11.102-10.342c5.095 11.178 3.194 12.775 3.194 12.775s-.65-11.404-6.996-11.102c-3.193.152 1.52 8.517 1.52 8.517s-4.338-7.64-7.228-7.488c5.326 10.08 3.428 14.179 3.428 14.179s.88-8.608-6.343-13.398c2.737 2.432-1.718 13.398-1.718 13.398s3.919-16.16-2.89-13.078c-1.076.485-.076 8.06-.076 8.06s-1.368-8.67-3.42-8.213c-1.198.266-7.605 12.014-7.605 12.014s5.247-12.698 3.65-12.166c-1.163.388-3.346 5.627-3.346 5.627s1.065-5.17 0-5.475-6.996 5.475-6.996 5.475 4.411-5.17 3.65-6.235c-1.152-1.613-2.503-1.69-4.106-1.065-2.332.91-5.474 5.17-5.474 5.17s3.132-4.314 2.585-5.93c-.88-2.597-9.885 5.018-9.885 5.018s5.323-5.018 4.106-6.083c-1.216-1.064-7.822-.735-9.885-.741-6.083-.019-8.19-1.446-10.037-2.908" opacity=".3"/><path fill="#373535" d="M1.791 47.354c7.984 4.005 15.284-.608 24.484 1.985 6.995 1.971 15.513 4.402 27.07 2.73 11.558-1.674 21.443-6.692 26.158-15.664 1.47-4.005 7.45.912 7.45.912s-4.358-1.825-4.257-.963c.102.861 6.54 3.852 6.54 3.852s-5.83-1.824-5.475-.456 7.3 6.844 7.3 6.844-7.858-5.983-8.517-5.17c-.658.81 3.346 4.105 3.346 4.105s-6.641-4.106-8.973-2.896c-1.678.87 6.894 6.495 6.894 6.495s-5.576-4.258-6.894-3.143 6.287 10.24 6.287 10.24-8.62-9.327-9.48-8.871c-.862.457 2.382 4.917 2.382 4.917s-4.259-4.664-5.424-3.852c-1.166.81 6.083 12.926 6.083 12.926s-7.857-12.42-11.102-10.341c5.095 11.178 3.194 12.775 3.194 12.775s-.65-11.404-6.996-11.102c-3.193.152 1.52 8.516 1.52 8.516s-4.338-7.64-7.228-7.487c5.327 10.079 3.427 14.178 3.427 14.178s.881-8.608-6.342-13.399c2.737 2.433-1.718 13.4-1.718 13.4s3.92-16.16-2.889-13.079c-1.076.486-.076 8.06-.076 8.06s-1.37-8.669-3.422-8.212c-1.197.265-7.604 12.014-7.604 12.014s5.247-12.699 3.65-12.166c-1.163.387-3.346 5.626-3.346 5.626s1.065-5.17 0-5.474-6.995 5.474-6.995 5.474 4.41-5.17 3.65-6.235c-1.153-1.613-2.504-1.688-4.107-1.064-2.332.909-5.474 5.17-5.474 5.17s3.132-4.315 2.585-5.93c-.88-2.597-9.885 5.018-9.885 5.018s5.323-5.019 4.106-6.083-7.822-.735-9.885-.742c-6.083-.019-8.19-1.445-10.037-2.908"/></svg>