<svg xmlns="http://www.w3.org/2000/svg" fill="none" viewBox="0 0 100 100"><g clip-path="url(#a)"><path fill="url(#b)" d="M100 50c0-27.614-22.386-50-50-50S0 22.386 0 50s22.386 50 50 50 50-22.385 50-50"/><path fill="#fff" d="m27.065 52.135 34.083-33.848c.636-.632 1.661.137 1.231.925l-12.685 23.25a.778.778 0 0 0 .683 1.15H72.3c.706 0 1.047.866.531 1.348L34.415 80.813c-.69.642-1.715-.264-1.162-1.026L51.44 54.7a.778.778 0 0 0-.63-1.235H27.614a.778.778 0 0 1-.549-1.33"/></g><defs><linearGradient id="b" x1="50" x2="50" y1="0" y2="100" gradientUnits="userSpaceOnUse"><stop stop-color="#7BCBD4"/><stop offset="1" stop-color="#29C6B7"/></linearGradient><clipPath id="a"><path fill="#fff" d="M0 0h100v100H0z"/></clipPath></defs></svg>