<svg xmlns="http://www.w3.org/2000/svg" fill="none" viewBox="0 0 100 100"><g clip-path="url(#a)"><path fill="url(#b)" d="m50 50 21.651 12.5L50 100.002c27.614 0 50-22.386 50-50 0-9.11-2.448-17.643-6.706-25H50z"/><path fill="url(#c)" d="M50 0C31.493 0 15.348 10.062 6.702 25.007L28.349 62.5 49.999 50V25h43.296C84.647 10.06 68.504 0 50 0"/><path fill="url(#d)" d="M0 50c0 27.615 22.385 50.001 50 50.001l21.651-37.5L50.001 50 28.348 62.5 6.702 25.007A49.75 49.75 0 0 0 0 50"/><path fill="#fff" d="M75 50c0 13.808-11.193 25.001-25 25.001s-25-11.193-25-25 11.193-25 25-25 25 11.193 25 25"/><path fill="url(#e)" d="M70.313 50c0 11.219-9.095 20.314-20.313 20.314S29.687 61.219 29.687 50 38.782 29.688 50 29.688s20.313 9.095 20.313 20.313"/></g><defs><linearGradient id="b" x1="75.106" x2="75" y1="24.898" y2="100.001" gradientUnits="userSpaceOnUse"><stop stop-color="#AFCCFB"/><stop offset="1" stop-color="#8BB5F8"/></linearGradient><linearGradient id="c" x1="42.748" x2="46.881" y1=".762" y2="67.954" gradientUnits="userSpaceOnUse"><stop stop-color="#1972E7"/><stop offset="1" stop-color="#1969D5"/></linearGradient><linearGradient id="d" x1="35.826" x2="35.826" y1="25.007" y2="100.001" gradientUnits="userSpaceOnUse"><stop stop-color="#659CF6"/><stop offset="1" stop-color="#4285F4"/></linearGradient><linearGradient id="e" x1="49.793" x2="50" y1="29.765" y2="70.314" gradientUnits="userSpaceOnUse"><stop stop-color="#3680F0"/><stop offset="1" stop-color="#2678EC"/></linearGradient><clipPath id="a"><path fill="#fff" d="M0 0h100v100H0z"/></clipPath></defs></svg>