<svg xmlns="http://www.w3.org/2000/svg" fill="none" viewBox="0 0 100 100"><g clip-path="url(#a)"><path fill="#fff" d="M50 74.99c13.807 0 25-11.193 25-25s-11.193-25-25-25-25 11.192-25 25 11.193 25 25 25"/><path fill="url(#b)" d="M50 25h43.294a49.988 49.988 0 0 0-86.591.006L28.35 62.501l.02-.005A24.969 24.969 0 0 1 50 25"/><path fill="#1A73E8" d="M50 69.792c10.93 0 19.792-8.86 19.792-19.791S60.93 30.209 50 30.209s-19.792 8.86-19.792 19.792c0 10.93 8.861 19.791 19.792 19.791"/><path fill="url(#c)" d="M71.649 62.507 50.002 100A49.98 49.98 0 0 0 93.3 75.004a49.99 49.99 0 0 0-.01-49.997H49.999l-.005.02a24.97 24.97 0 0 1 21.655 37.48"/><path fill="url(#d)" d="M28.351 62.507 6.704 25.013A49.988 49.988 0 0 0 50.005 100l21.647-37.493-.014-.015a24.97 24.97 0 0 1-43.287.015"/></g><defs><linearGradient id="b" x1="6.703" x2="93.294" y1="31.25" y2="31.25" gradientUnits="userSpaceOnUse"><stop stop-color="#D93025"/><stop offset="1" stop-color="#EA4335"/></linearGradient><linearGradient id="c" x1="43.171" x2="86.466" y1="99.332" y2="24.341" gradientUnits="userSpaceOnUse"><stop stop-color="#FCC934"/><stop offset="1" stop-color="#FBBC04"/></linearGradient><linearGradient id="d" x1="55.413" x2="12.117" y1="96.879" y2="21.888" gradientUnits="userSpaceOnUse"><stop stop-color="#1E8E3E"/><stop offset="1" stop-color="#34A853"/></linearGradient><clipPath id="a"><path fill="#fff" d="M0 0h100v100H0z"/></clipPath></defs></svg>