<svg xmlns="http://www.w3.org/2000/svg" fill="none" viewBox="0 0 100 100"><path fill="#000" fill-rule="evenodd" d="M49.406-.001C26.112-.001 6.564 15.99 1.063 37.61a2 2 0 0 0-.063.485 2.38 2.38 0 0 0 2.377 2.38h20.112c.958 0 1.778-.572 2.156-1.39 4.132-9.013 13.212-15.278 23.761-15.278 14.432 0 26.138 11.729 26.138 26.193S63.838 76.191 49.406 76.191c-10.549 0-19.625-6.265-23.758-15.281l-.003.005a2.38 2.38 0 0 0-2.156-1.391H3.377A2.377 2.377 0 0 0 1 61.905c0 .163.025.319.06.475C6.56 84 26.107 99.999 49.405 99.999c27.557 0 49.901-22.389 49.901-50 0-27.613-22.344-50-49.9-50m-11.882 50c0-6.573 5.321-11.904 11.882-11.904S61.286 43.426 61.286 50s-5.319 11.907-11.88 11.907c-6.56 0-11.882-5.333-11.882-11.907" clip-rule="evenodd"/></svg>