<svg xmlns="http://www.w3.org/2000/svg" fill="none" viewBox="0 0 14.23 18" key="swx5bs4"><circle cx="9" cy="9" r="2.813" fill="#654BF6" key="rks9mw8"/><path fill="#654BF6" d="M14.067 15.66c.24.238.216.634-.066.823A8.96 8.96 0 0 1 9 18a8.96 8.96 0 0 1-5.002-1.517.533.533 0 0 1-.066-.824l2.055-2.055a.61.61 0 0 1 .708-.096A5.04 5.04 0 0 0 9 14.062c.83 0 1.614-.2 2.305-.554a.61.61 0 0 1 .708.096z" key="sdlpuuc"/><path fill="#654BF6" fill-opacity=".5" d="M14.002 1.517a.533.533 0 0 1 .066.824l-2.055 2.055a.61.61 0 0 1-.708.096 5.062 5.062 0 0 0-6.814 6.814c.12.233.09.521-.095.707l-2.055 2.055a.534.534 0 0 1-.824-.066A9 9 0 0 1 14.002 1.517" key="7dgco0i"/></svg>