<svg xmlns="http://www.w3.org/2000/svg" fill="none" viewBox="0 0 100 100"><path fill="#FAFF69" d="M9.943 0H1.169C.523 0 0 .523 0 1.169V98.83c0 .647.523 1.17 1.17 1.17h8.774c.645 0 1.168-.523 1.168-1.169V1.17A1.17 1.17 0 0 0 9.944 0m22.221 0h-8.773c-.646 0-1.169.523-1.169 1.169V98.83c0 .646.523 1.169 1.169 1.169h8.773a1.17 1.17 0 0 0 1.17-1.169V1.17A1.17 1.17 0 0 0 32.165 0m22.223 0h-8.773c-.646 0-1.169.523-1.169 1.169V98.83c0 .646.523 1.169 1.169 1.169h8.773a1.17 1.17 0 0 0 1.17-1.169V1.17A1.17 1.17 0 0 0 54.388 0m22.219 0h-8.774a1.17 1.17 0 0 0-1.169 1.169V98.83c0 .646.523 1.169 1.169 1.169h8.774c.645 0 1.168-.523 1.168-1.169V1.17A1.17 1.17 0 0 0 76.607 0m22.23 38.89h-8.774a1.17 1.17 0 0 0-1.169 1.169v19.884c0 .646.524 1.17 1.17 1.17h8.773a1.17 1.17 0 0 0 1.169-1.17V40.06a1.17 1.17 0 0 0-1.17-1.17"/></svg>