<svg xmlns="http://www.w3.org/2000/svg" fill="none" viewBox="0 0 100 100"><path fill="#fff" d="M50 0C22.43 0 0 22.43 0 50c0 27.572 22.43 50.002 50 50.002S100 77.572 100 50c0-27.57-22.43-50-50-50"/><path fill="#91DC47" d="M48.171 50.9c-.45.973-.945 2.066-1.458 3.23-1.815 4.111-3.824 9.114-4.558 12.318-.264 1.142-.427 2.556-.424 4.125 0 .62.033 1.272.086 1.936a23.9 23.9 0 0 0 8.23 1.466 24 24 0 0 0 7.532-1.228 14 14 0 0 1-1.571-1.663C52.797 66.99 51.005 60.99 48.17 50.9M36.316 30.556c-6.132 4.322-10.145 11.45-10.16 19.528.015 7.958 3.907 14.994 9.885 19.334 1.467-6.109 5.143-11.702 10.655-22.913-.328-.899-.7-1.883-1.118-2.917-1.527-3.83-3.731-8.279-5.698-10.293-1.003-1.053-2.22-1.962-3.564-2.739"/><path fill="#63B132" d="M70.857 77.487c-3.164-.397-5.775-.875-8.06-1.681a28.6 28.6 0 0 1-12.75 2.986c-15.854 0-28.705-12.85-28.707-28.708 0-8.604 3.79-16.317 9.788-21.578a21 21 0 0 0-4.985-.61c-8.423.08-17.314 4.74-21.016 17.33-.346 1.831-.263 3.217-.263 4.86 0 24.954 20.23 45.185 45.184 45.185 15.282 0 28.782-7.593 36.957-19.207-4.422 1.103-8.674 1.63-12.315 1.64-1.365 0-2.647-.072-3.833-.217"/><path fill="#90B4FE" d="M62.366 68.731c.28.139.912.364 1.792.614 5.92-4.346 9.768-11.348 9.783-19.26h-.002c-.022-13.192-10.698-23.866-23.892-23.892a24 24 0 0 0-7.502 1.22c4.852 5.529 7.184 13.431 9.44 22.075l.005.01c.004.008.722 2.4 1.954 5.576 1.223 3.171 2.966 7.097 4.867 9.958 1.248 1.917 2.62 3.295 3.555 3.7"/><path fill="#5881D8" d="M50.048 4.898c-15.135 0-28.522 7.45-36.722 18.875 4.267-2.673 8.625-3.637 12.427-3.603 5.253.015 9.382 1.644 11.363 2.758.479.276.933.573 1.378.878a28.6 28.6 0 0 1 11.553-2.428c15.855.002 28.708 12.851 28.71 28.706h-.002c0 7.994-3.27 15.222-8.54 20.426 1.293.145 2.673.236 4.082.229 5.004.002 10.413-1.102 14.468-4.513 2.644-2.227 4.86-5.489 6.088-10.378.24-1.889.379-3.809.379-5.763 0-24.954-20.23-45.187-45.184-45.187"/></svg>