<svg xmlns="http://www.w3.org/2000/svg" fill="none" viewBox="0 0 100 100"><g clip-path="url(#a)"><path fill="#fff" d="m79.046 46.295-2.075-.83c-9.75 21.94-48.539 8.601-50.873 15.128-.39 4.409 21.182.838 36.604 1.586 4.702.227 7.06 3.777 5.064 9.564l3.933.012C76.236 57.61 90.716 64.829 91.32 60.16c-.994-3.07-16.64 0-12.275-13.866"/><path fill="#F4811F" d="M68.88 69.324c.622-2.074.415-4.15-.623-5.394-1.037-1.245-2.49-2.074-4.357-2.282l-36.1-.416c-.207 0-.414-.206-.622-.206q-.31-.312 0-.623c.208-.415.415-.623.83-.623l36.307-.415c4.357-.207 8.922-3.734 10.581-7.883l2.075-5.394c0-.208.207-.416 0-.623C74.69 34.885 65.145 27 53.941 27c-10.373 0-19.294 6.64-22.406 15.975-2.075-1.452-4.564-2.282-7.469-2.074-4.979.415-8.92 4.564-9.543 9.543-.208 1.245 0 2.49.207 3.735C6.64 54.386 0 61.025 0 69.324c0 .83 0 1.452.207 2.282 0 .415.415.623.623.623h66.597c.415 0 .83-.207.83-.623z"/><path fill="#FAAD3F" d="M80.29 46.088h-1.037c-.207 0-.415.207-.622.414l-1.453 4.98c-.622 2.074-.414 4.15.623 5.394 1.037 1.245 2.49 2.074 4.357 2.282l7.676.415c.207 0 .415.207.623.207q.31.312 0 .623c-.208.415-.415.623-.83.623l-7.884.414c-4.357.207-8.921 3.735-10.58 7.884l-.416 1.867c-.207.208 0 .623.415.623h27.386q.622 0 .622-.622c.415-1.66.83-3.528.83-5.395 0-10.788-8.921-19.71-19.71-19.71"/></g><defs><clipPath id="a"><path fill="#fff" d="M0 0h100v100H0z"/></clipPath></defs></svg>