<svg xmlns="http://www.w3.org/2000/svg" fill="none" viewBox="0 0 100 100"><path fill="#3448C5" d="M81.113 40.287A33.45 33.45 0 0 0 49.486 17a32.82 32.82 0 0 0-29.1 17.288 24.752 24.752 0 0 0-5.973 46.853l.621.281h.042v-7.04a18.464 18.464 0 0 1 7.695-34.096l1.74-.183.762-1.565a26.63 26.63 0 0 1 24.213-15.267A27.09 27.09 0 0 1 75.621 43.98l.597 2.37h2.485a15.35 15.35 0 0 1 15.034 15.29c0 5.84-3.37 10.62-9.111 13.04v6.676l.414-.133C94.268 78.201 100 70.696 100 61.642a21.695 21.695 0 0 0-18.887-21.356"/><path fill="#3448C5" d="m37.342 80.612 1.375 1.375a.273.273 0 0 1-.19.464H27.674a4.97 4.97 0 0 1-4.97-4.97V56.406a.273.273 0 0 0-.274-.274h-2.32a.274.274 0 0 1-.198-.464l9.211-9.211a.273.273 0 0 1 .39 0l9.203 9.212a.274.274 0 0 1-.19.463h-2.353a.28.28 0 0 0-.282.274v20.709a4.97 4.97 0 0 0 1.45 3.496m20.353 0 1.383 1.375a.273.273 0 0 1-.199.464H48.053a4.97 4.97 0 0 1-4.97-4.97V61.732a.28.28 0 0 0-.274-.281h-2.344a.274.274 0 0 1-.19-.464l9.202-9.195a.27.27 0 0 1 .3-.06.3.3 0 0 1 .09.06l9.211 9.178a.274.274 0 0 1-.199.464h-2.352a.28.28 0 0 0-.274.282v15.399a4.97 4.97 0 0 0 1.442 3.496m20.361 0 1.375 1.375a.273.273 0 0 1-.19.464H68.38a4.97 4.97 0 0 1-4.97-4.97V67.017a.274.274 0 0 0-.274-.273h-2.32a.273.273 0 0 1-.19-.472l9.212-9.204a.266.266 0 0 1 .38 0l9.212 9.204a.273.273 0 0 1-.19.472h-2.36a.274.274 0 0 0-.274.273v10.098a4.97 4.97 0 0 0 1.45 3.496"/></svg>