<svg xmlns="http://www.w3.org/2000/svg" fill="none" viewBox="0 0 100 100"><path fill="#EE4323" d="m34.79 99.994-.003-.001c-11.884-2.736-22.408-10.47-25.69-22.62-3.287-12.158 1.185-24.416 8.488-34.162 3.651-4.869 7.922-9.239 12.365-13.387 4.135-3.863 8.691-7.413 12.438-11.664C46.25 13.775 51.08 5.93 47.415 0 54.07 4.973 59.437 13.282 58.54 21.84c-.717 6.83-5.84 13.783-.822 20.232 3.122 4.01 9.442 3.168 11.776-.703l-.172.184a6.9 6.9 0 0 0 .867-2.064c.012-.594-.093-1.256-.414-2.036l.61.334c11.702 6.067 21.148 16.664 20.883 30.433-.32 16.737-15.913 28.45-31.004 31.78 7.142-2.813 13.508-8.385 14.376-16.398.8-7.392-3.163-13.766-8.53-18.48-5.1-4.485-11.188-7.377-16.737-11.203-3.198-2.206-8.053-6.633-6.345-11.122-2.222 1.913-3.977 4.589-4.669 7.446-1.382 5.7 2.131 10.14 5.764 14.07 3.674 3.97 3.39 10.782-2.808 12.138a6.99 6.99 0 0 1-7.064-2.673c-1.725-2.354-1.345-4.76-.65-7.39-5.791 4.1-10.448 10.338-10.432 17.687.014 6.739 5.623 13.325 11.618 15.918z"/></svg>