<svg xmlns="http://www.w3.org/2000/svg" fill="none" viewBox="0 0 100 100"><path fill="#19B99A" d="M51.946 36.72c6.534 7.647 9.222 17.842 7.23 27.712 10.24-4.078 14.225-10.936 15.43-17.794 0 0 3.476-13.022 8.944-18.397-10.705 1.622-11.77-2.595-31.604 8.48"/><path fill="#19B99A" d="M35.542 50.02a43.5 43.5 0 0 0-10.797-17.562s14.921 3.938 23.54 31.788C40.177 61.79 36.701 53.774 35.543 50.02m18.49 18.211c.231-1.343 4.216-14.828-3.661-25.764-13.114-14.55-32.947-16.59-32.947-16.59 3.846 7.46 3.985 14.458 8.202 28.684 5.097 14.736 24.003 15.71 25.394 15.756 1.25 1.992 4.17 4.68 10.843 6.07l.741-3.522c-5.746-1.205-7.831-3.429-8.572-4.634"/><path fill="#1D1D1B" d="M19.555 21.614c-8.34 3.939-11.677 13.531-11.677 28.22 0 14.412 3.336 24.05 11.677 28.268l-.927 3.614C5.792 77.221 0 67.212 0 49.881 0 32.411 5.792 22.401 18.628 18zM81.372 18C94.208 22.402 100 32.41 100 49.835c0 17.33-5.792 27.34-18.628 31.788l-1.02-3.614c8.341-4.217 11.678-13.856 11.678-28.267 0-14.69-3.337-24.282-11.678-28.174z"/></svg>