<svg xmlns="http://www.w3.org/2000/svg" xml:space="preserve" viewBox="44.63 30.58 87.98 88.59" key="h62nvfq"><path d="M100.22 100.4c13.1-1.43 25.45-8.29 32.25-19.74-3.22 28.32-34.73 46.22-60.45 35.23-2.37-1.01-4.41-2.69-5.81-4.85-5.78-8.92-7.68-20.27-4.95-30.57 7.8 13.23 23.66 21.34 38.96 19.93" fill="#f3b01c" key="i4yah3t"/><path d="M60.78 72.16c-5.31 12.06-5.54 26.18.97 37.8C38.84 93.02 39.09 56.77 61.47 40c2.07-1.55 4.53-2.47 7.11-2.61 10.61-.55 21.39 3.48 28.95 10.99-15.36.15-30.32 9.82-36.75 23.78" fill="#8d2676" key="g7t1oac"/><path d="M104.94 52.09c-7.75-10.62-19.88-17.85-33.17-18.07 25.69-11.46 57.29 7.12 60.73 34.59.32 2.55-.1 5.15-1.25 7.45-4.8 9.58-13.7 17.01-24.1 19.76 7.62-13.89 6.68-30.86-2.21-43.73" fill="#ee342f" key="lx23vco"/></svg>