<svg xmlns="http://www.w3.org/2000/svg" fill="none" viewBox="0 0 102 102"><path fill="#fff" fill-opacity=".965" stroke="#FFFFFE" stroke-linecap="round" stroke-width=".378" d="M51 101c27.614 0 50-22.386 50-50S78.614 1 51 1 1 23.385 1 51s22.386 50 50 50Z"/><path fill="#000" d="M84.02 59.935 59.903 84.004c-.096.096-.24.144-.337.096l-32.944-8.827c-.145-.048-.241-.144-.241-.24l-8.875-32.896c-.048-.145 0-.241.096-.338L41.72 17.731c.097-.097.242-.145.338-.097L75 26.461c.144.048.24.145.24.241l8.828 32.896c.096.144.048.24-.049.337m-32.316-26.19-32.365 8.633c-.048 0-.097.096-.048.145l23.682 23.634c.049.049.145.049.145-.048L51.8 33.792c.048 0-.048-.096-.096-.048"/></svg>