<svg xmlns="http://www.w3.org/2000/svg" fill="none" viewBox="0 0 100 100"><g clip-path="url(#a)"><path fill="#00C4B3" d="m26.878 27.059-6.425-6.426v46.335l.09 2.172c0 .995.181 2.172.543 3.348l50.86 17.919 12.67-5.61z"/><path fill="#22D3C5" d="m84.615 84.796-12.67 5.61-50.769-17.918c.996 3.71 3.077 7.874 5.43 10.227l16.561 16.47 36.923.09z"/><path fill="#0075C9" d="M20.634 20.633.905 50.497c-1.629 1.72-.814 5.34 1.81 8.055l11.403 11.493 7.149 2.534c-.271-1.177-.543-2.353-.543-3.349l-.09-2.172z"/><path fill="#0075C9" d="M72.308 21.176a26 26 0 0 0-3.349-.543l-2.262-.09H20.453l64.162 64.163 5.611-12.67z"/><path fill="#00A8E1" d="M82.534 26.606c-2.353-2.353-6.425-4.525-10.226-5.43l17.918 50.86-5.61 12.67L98.37 80.27V42.534z"/><path fill="#00C4B3" d="M69.774 14.117 58.28 2.715C55.656.09 52.036-.725 50.226.905L20.362 20.633h46.244l2.263.09c.995 0 2.172.182 3.348.544z"/></g><defs><clipPath id="a"><path fill="#fff" d="M0 0h100v100H0z"/></clipPath></defs></svg>