<svg xmlns="http://www.w3.org/2000/svg" fill="none" viewBox="0 0 100 100"><g clip-path="url(#a)"><path fill="#632CA6" fill-rule="evenodd" d="m81.248 70.986-8.321-5.475-6.934 11.57-8.066-2.336-7.117 10.84.365 3.394 38.613-7.117-2.226-24.088zM45.226 60.584l6.205-.839c.985.438 1.678.62 2.92.912a9.12 9.12 0 0 0 7.226-.656c.73-.365 2.299-1.825 2.92-2.592l25.4-4.635 2.556 31.387-43.431 7.81zM92.38 49.271l-2.519.51L85.044.002 3.037 9.49l10.109 82.116 9.562-1.46c-.766-1.094-1.97-2.408-4.015-4.087-2.81-2.372-1.824-6.35-.146-8.869 2.19-4.27 13.577-9.671 12.92-16.496-.219-2.445-.62-5.693-2.92-7.883a8.8 8.8 0 0 0 .073 1.825s-.948-1.241-1.423-2.884c-.438-.62-.803-.803-1.314-1.642-.365.949-.292 2.08-.292 2.08s-.803-1.825-.912-3.357a5.4 5.4 0 0 0-.584 2.007s-.985-2.92-.73-4.416c-.474-1.35-1.825-4.015-1.46-10.11 2.518 1.752 8.03 1.35 10.146-1.825.73-1.058 1.204-3.905-.365-9.561-.985-3.614-3.467-8.979-4.416-11.022l-.11.073q1.043 3.354 1.935 6.751c1.277 5.11 1.642 6.862 1.022 9.197-.475 2.044-1.643 3.358-4.599 4.855-2.956 1.46-6.898-2.154-7.153-2.336a15.8 15.8 0 0 1-5.328-7.847c-.256-2.007 1.13-3.175 1.824-4.817q-1.082.335-2.117.802s1.35-1.386 2.993-2.554c.73-.475 1.095-.767 1.825-1.387h-1.898s1.752-.913 3.577-1.606c-1.35-.073-2.628 0-2.628 0s3.905-1.752 7.007-3.03c2.117-.875 4.197-.62 5.365 1.06 1.497 2.189 3.103 3.393 6.533 4.123 2.08-.912 2.701-1.387 5.329-2.117 2.299-2.554 4.124-2.846 4.124-2.846s-.913.803-1.132 2.117c1.314-1.022 2.738-1.898 2.738-1.898s-.548.693-1.095 1.788l.146.182a29 29 0 0 1 3.32-1.642l-1.094 1.46c1.131 0 3.467.073 4.38.182 5.365.11 6.46-5.73 8.503-6.46 2.555-.912 3.723-1.46 8.102 2.847 3.76 3.65 6.716 10.292 5.256 11.789-1.241 1.204-3.65-.475-6.314-3.832a14.4 14.4 0 0 1-2.993-6.497c-.401-2.226-2.043-3.54-2.043-3.54s.948 2.117.948 4.015c0 1.022.11 4.817 1.752 6.97-.146.329-.219 1.57-.401 1.825-1.898-2.335-6.022-4.014-6.679-4.452 2.263 1.825 7.445 6.095 9.489 10.182 1.861 3.869.73 7.409 1.715 8.321.256.256 4.051 4.964 4.781 7.373 1.278 4.124.073 8.467-1.605 11.168l-4.636.73c-.693-.183-1.13-.292-1.751-.657.427-.751.77-1.547 1.022-2.373l-.256-.474a19.9 19.9 0 0 1-5.912 5.182 9.93 9.93 0 0 1-7.665.657 42.9 42.9 0 0 1-12.19-6.533s0 .803.22.986c1.387 1.606 4.635 4.489 7.773 6.496l-6.678.73 3.175 24.599c-1.424.219-1.643.328-3.175.547a16.46 16.46 0 0 0-6.752-9.708 12.77 12.77 0 0 0-9.197-1.314l-.183.22c2.263-.22 4.964.109 7.737 1.86 2.738 1.716 4.927 6.205 5.73 8.833 1.059 3.43 1.752 7.08-1.022 10.948-1.97 2.774-7.773 4.307-12.408 1.022 1.204 2.008 2.92 3.65 5.182 3.942 3.358.474 6.57-.11 8.76-2.372 1.897-1.935 2.883-5.986 2.627-10.22l2.956-.437 1.095 7.628 49.27-5.95-4.05-39.16zM62.453 28.54c-.183.328-.365.51-.073 1.532v.073l.073.146.145.292c.584 1.205 1.241 2.336 2.3 2.92.292-.073.547-.11.876-.11.985-.036 1.642.11 2.043.33v-.95c-.072-1.496.293-4.087-2.59-5.438-1.096-.51-2.665-.365-3.176.292l.256.073c.766.256.255.511.11.84zm8.138 14.124c-3.08-.323-6.19.22-8.978 1.57-1.022.802-.547 2.189.22 2.736 2.116 1.606 4.014 2.665 5.948 2.41 1.204-.147 2.263-2.081 3.03-3.797.51-1.204.51-2.481-.256-2.92zM49.423 30.438c.694-.656-3.357-1.496-6.46.62-2.299 1.57-2.372 4.964-.182 6.862l.584.438c1.83-.88 3.789-1.46 5.803-1.715.474-.511 1.022-1.46.876-3.102-.183-2.263-1.898-1.898-.62-3.103" clip-rule="evenodd"/></g><defs><clipPath id="a"><path fill="#fff" d="M0 0h100v100H0z"/></clipPath></defs></svg>