<svg xmlns="http://www.w3.org/2000/svg" fill="none" viewBox="0 0 100 100"><path fill="#000" d="M50 0c27.614 0 50 22.386 50 50s-22.386 50-50 50S0 77.615 0 50 22.386 0 50 0"/><path fill="#fff" d="M48.878 74.465a2.44 2.44 0 0 0-2.976 1.662l-.017.06-3.32 12.304-.015.06a2.44 2.44 0 0 0 4.712 1.271l.017-.059 3.32-12.304.015-.06q.034-.138.052-.278l.01-.093-.08-.398-.114-.574-.073-.358a2.44 2.44 0 0 0-1.53-1.233M25.741 61.793q-.09.181-.152.382l-.023.08-3.32 12.304-.016.06a2.441 2.441 0 0 0 4.713 1.272l.016-.06 3.01-11.156a22 22 0 0 1-4.228-2.881m-7.917-14.15a2.44 2.44 0 0 0-2.977 1.663l-.017.059-3.32 12.304-.015.06A2.441 2.441 0 0 0 16.208 63l.016-.059 3.32-12.305.016-.059a2.44 2.44 0 0 0-1.736-2.933m74.45-2.794a2.44 2.44 0 0 0-2.977 1.662l-.017.06-3.32 12.304-.016.06a2.442 2.442 0 0 0 4.713 1.27l.017-.058 3.32-12.305.015-.06a2.44 2.44 0 0 0-1.736-2.933M10.592 28.42a44.6 44.6 0 0 0-5.214 16.358 2.441 2.441 0 0 0 4.174-.917l.017-.06 3.32-12.304.015-.06a2.44 2.44 0 0 0-2.312-3.018m73.27.084a2.44 2.44 0 0 0-2.976 1.662l-.017.059-3.32 12.305-.015.059a2.441 2.441 0 0 0 4.713 1.271l.016-.058 3.32-12.305.016-.06a2.44 2.44 0 0 0-1.737-2.933m-58.819-11.7a2.44 2.44 0 0 0-2.977 1.662l-.016.059-3.32 12.304-.016.06a2.441 2.441 0 0 0 4.713 1.271l.017-.059 3.32-12.304.015-.06a2.44 2.44 0 0 0-1.736-2.933m42.662 2.326a2.44 2.44 0 0 0-2.976 1.662l-.017.058-2.231 8.268a27.3 27.3 0 0 1 4.122 2.511l.215.16 2.608-9.666.015-.06a2.44 2.44 0 0 0-1.736-2.933M45.99 5.255a45 45 0 0 0-4.641.656l-.326.065-3.095 11.472-.015.06a2.442 2.442 0 0 0 4.713 1.27l.016-.058 3.32-12.305.016-.059c.088-.361.093-.738.012-1.1m30.553 8.5-.652 2.418-.016.059a2.442 2.442 0 0 0 4.713 1.272l.017-.06.071-.261a45 45 0 0 0-3.845-3.215zm-19.319-8.1-1.178 4.364-.015.06a2.441 2.441 0 0 0 4.713 1.271l.017-.059L62 6.7a45 45 0 0 0-4.429-.985zM32.303 82.085a2.442 2.442 0 0 1 4.713 1.271l-.016.06-2.376 8.806-.332-.123a45 45 0 0 1-4.202-1.819l2.196-8.136z"/><path fill="#fff" d="M48.047 28.303c-14.54 0-25.85 9.153-25.85 20.537 0 10.75 10.407 17.614 26.54 17.27 1.372-.028 1.769.893 2.215 2.135.447 1.242 1.647 7.788 2.603 12.795.856 4.48 1.726 8.978 2.39 13.492C66.48 93.14 76.22 87.937 83.359 80.089l-7.613-28.391c-1.898-6.857-4.116-13.175-9.985-17.765-4.722-3.693-10.72-5.629-17.714-5.629"/><path fill="#000" d="M51.172 36.524a3.125 3.125 0 1 1 0 6.25 3.125 3.125 0 0 1 0-6.25"/></svg>