<svg xmlns="http://www.w3.org/2000/svg" version="1.0" viewBox="0 0 375 375"><defs><clipPath id="a"><path d="M26.25 0h322.5c6.96 0 13.64 2.766 18.563 7.688A26.26 26.26 0 0 1 375 26.25v322.5c0 6.96-2.766 13.64-7.687 18.563A26.26 26.26 0 0 1 348.75 375H26.25c-6.96 0-13.64-2.766-18.562-7.687A26.26 26.26 0 0 1 0 348.75V26.25C0 11.754 11.754 0 26.25 0m0 0"/></clipPath><clipPath id="b"><path d="M22.902 25.137H63v39.75H22.902Zm0 0"/></clipPath><clipPath id="c"><path d="M79 25.137h41v39.75H79Zm0 0"/></clipPath><clipPath id="d"><path d="M136 25.137h40.652v39.75H136Zm0 0"/></clipPath><clipPath id="e"><path d="M99.676 114.457h175.5V304h-175.5Zm0 0"/></clipPath></defs><g clip-path="url(#a)"><path fill="#14151e" d="M-37.5-37.5h450v450h-450z"/></g><path fill="#ff1d25" d="M59.352 45q-.001.814-.079 1.629a17.33 17.33 0 0 1-.637 3.195q-.234.78-.55 1.531-.31.757-.695 1.477-.386.72-.84 1.398-.452.675-.969 1.31c-.344.417-.71.823-1.094 1.206a17 17 0 0 1-2.52 2.066c-.452.301-.917.583-1.398.836-.48.258-.968.493-1.472.7q-.756.311-1.535.547-.78.24-1.583.398c-.53.105-1.07.184-1.609.238a16.2 16.2 0 0 1-3.258 0 16.159 16.159 0 0 1-3.195-.637q-.78-.236-1.535-.546a16 16 0 0 1-1.473-.7 16.3 16.3 0 0 1-2.707-1.808 16 16 0 0 1-1.207-1.094 16 16 0 0 1-1.094-1.207 16.4 16.4 0 0 1-2.507-4.184q-.31-.75-.551-1.53a17 17 0 0 1-.395-1.583 16 16 0 0 1-.238-1.613 16.2 16.2 0 0 1 0-3.258 16.713 16.713 0 0 1 .633-3.191 17 17 0 0 1 1.246-3.008 16.8 16.8 0 0 1 2.906-3.918q.574-.576 1.207-1.094.631-.516 1.309-.972.679-.451 1.398-.836.721-.385 1.473-.7.755-.311 1.535-.547c.523-.16 1.05-.289 1.582-.398q.8-.157 1.613-.238c.543-.051 1.082-.078 1.63-.078q.813 0 1.628.078.811.08 1.61.238c.535.11 1.062.238 1.581.398q.78.236 1.536.547a17 17 0 0 1 2.87 1.535 17 17 0 0 1 2.52 2.067q.576.58 1.094 1.207.517.633.969 1.312.455.676.84 1.399.385.716.695 1.473.316.75.55 1.535.236.78.395 1.582a16 16 0 0 1 .32 3.238m0 0"/><g clip-path="url(#b)"><path fill="#14151e" d="M42.742 25.164c-10.957 0-19.84 8.879-19.84 19.836s8.883 19.836 19.84 19.836c10.953 0 19.836-8.879 19.836-19.836s-8.883-19.836-19.836-19.836m0 36.45c-9.16 0-16.613-7.454-16.613-16.614s7.453-16.61 16.613-16.61 16.61 7.45 16.61 16.61-7.45 16.613-16.61 16.613m0 0"/></g><path fill="#ff931e" d="M116.285 45q0 .814-.082 1.629c-.05.543-.133 1.078-.238 1.613a17 17 0 0 1-.395 1.582 17.4 17.4 0 0 1-1.246 3.008c-.258.48-.535.945-.84 1.398q-.452.675-.968 1.31a16.9 16.9 0 0 1-3.614 3.273c-.453.3-.918.582-1.398.835a16.3 16.3 0 0 1-3.008 1.247q-.78.24-1.582.398-.8.157-1.613.238a16 16 0 0 1-3.254 0 17 17 0 0 1-1.613-.238 16 16 0 0 1-1.582-.398q-.78-.236-1.536-.547a16 16 0 0 1-1.472-.7 16.3 16.3 0 0 1-2.707-1.808 16.893 16.893 0 0 1-2.305-2.3q-.517-.635-.969-1.31a16.4 16.4 0 0 1-1.535-2.875 16.2 16.2 0 0 1-.945-3.113 16 16 0 0 1-.238-1.613 16.3 16.3 0 0 1 0-3.258 16.713 16.713 0 0 1 .633-3.191c.16-.524.34-1.035.55-1.535a16.4 16.4 0 0 1 1.535-2.872q.452-.68.969-1.312c.348-.418.711-.82 1.098-1.207q.573-.576 1.207-1.094.628-.516 1.308-.972.678-.451 1.399-.836.719-.385 1.472-.7.756-.311 1.536-.547c.52-.16 1.046-.289 1.582-.398q.797-.157 1.613-.238.81-.077 1.625-.078.82 0 1.629.078.813.08 1.613.238c.535.11 1.063.238 1.582.398q.78.236 1.535.547.75.315 1.473.7.72.385 1.398.835a17 17 0 0 1 2.516 2.067c.387.387.75.789 1.098 1.207q.516.633.968 1.312a16.363 16.363 0 0 1 1.535 2.871q.311.75.551 1.536a16.7 16.7 0 0 1 .715 4.82m0 0"/><g clip-path="url(#c)"><path fill="#14151e" d="M99.672 25.164c-10.953 0-19.836 8.879-19.836 19.836s8.883 19.836 19.836 19.836c10.957 0 19.84-8.879 19.84-19.836s-8.883-19.836-19.84-19.836m0 36.45c-9.156 0-16.61-7.454-16.61-16.614s7.454-16.61 16.61-16.61c9.16 0 16.613 7.45 16.613 16.61s-7.453 16.613-16.613 16.613m0 0"/></g><path fill="#8cc63f" d="M173.219 45q0 .814-.082 1.629-.078.813-.239 1.613a17 17 0 0 1-.394 1.582 17.4 17.4 0 0 1-1.246 3.008c-.258.48-.535.945-.84 1.398q-.452.675-.969 1.31a16.9 16.9 0 0 1-3.613 3.273c-.453.3-.918.582-1.399.835a16.3 16.3 0 0 1-3.007 1.247q-.78.24-1.582.398c-.536.105-1.07.184-1.614.238a16 16 0 0 1-3.254 0 17 17 0 0 1-1.613-.238 16 16 0 0 1-1.582-.398q-.78-.236-1.535-.547a16 16 0 0 1-1.473-.7 16.3 16.3 0 0 1-2.707-1.808 16.893 16.893 0 0 1-2.305-2.3q-.516-.635-.968-1.31a16.4 16.4 0 0 1-1.535-2.875 16.2 16.2 0 0 1-.946-3.113 17 17 0 0 1-.242-1.613 18 18 0 0 1-.078-1.629q0-.814.078-1.629a17 17 0 0 1 .637-3.191c.16-.524.34-1.035.55-1.535q.31-.758.696-1.473c.258-.48.535-.95.84-1.399q.452-.68.969-1.312c.347-.418.71-.82 1.097-1.207q.574-.576 1.207-1.094.628-.516 1.309-.972.679-.451 1.398-.836.72-.385 1.473-.7.756-.311 1.535-.547c.52-.16 1.047-.289 1.582-.398q.798-.157 1.613-.238.811-.077 1.625-.078.82 0 1.63.078.811.08 1.613.238c.535.11 1.062.238 1.582.398q.779.236 1.535.547.751.315 1.472.7.72.385 1.399.835.678.458 1.309.973.632.518 1.207 1.094.578.58 1.097 1.207.517.633.969 1.312a16.362 16.362 0 0 1 1.535 2.871q.31.75.55 1.536a16.7 16.7 0 0 1 .716 4.82m0 0"/><g clip-path="url(#d)"><path fill="#14151e" d="M156.605 25.164c-10.953 0-19.835 8.879-19.835 19.836s8.882 19.836 19.835 19.836c10.958 0 19.84-8.879 19.84-19.836s-8.882-19.836-19.84-19.836m0 36.45c-9.156 0-16.609-7.454-16.609-16.614s7.453-16.61 16.61-16.61c9.16 0 16.613 7.45 16.613 16.61s-7.453 16.613-16.614 16.613m0 0"/></g><g clip-path="url(#e)"><path fill="#d9d9d9" d="M275.316 124.375h-7.828v-9.906h-70.765v8.71h-8.989v57.426h-8.714v8.993h-13.028v8.254h-13.3v9.359h-9.172v8.625h-17.524V207.3h-8.805v-8.805h-8.804v-17.89h-8.711v52.656h8.441v8.992h9.172v8.898h8.715v8.805h8.8v8.531h8.716v35.5h17.89v-9.082h-8.898v-8.71h8.804v-8.805h8.801v-8.715h8.903v8.715h8.472v26.605h17.676v-8.992h-8.535v-35.137h8.535v-8.902h9.078v-13.211h8.625V206.94h8.992v8.532h8.532v-17.246h-17.426v-17.704h35.039v-8.804h-26.145l-.093-9.66h43.546Zm-61.175 12.21h-8.805v-8.804h8.805Zm0 0"/></g></svg>