<svg xmlns="http://www.w3.org/2000/svg" fill="none" viewBox="0 0 100 100"><path fill="#2BA977" d="M46.206 0h16.342v74.898c-8.37 1.584-14.533 2.207-21.2 2.207C21.39 77.084 11 68.167 11 51.042c0-16.5 11.02-27.208 28.098-27.208 2.65 0 4.669.208 7.108.833zm.573 38.165c-1.914-.626-3.491-.834-5.51-.834-8.265 0-13.04 5.042-13.04 13.877 0 8.602 4.565 13.352 12.935 13.352 1.808 0 3.28-.102 5.615-.414z"/><path fill="#2BA977" d="M89.27 25.845v37.5c0 12.914-.967 19.125-3.806 24.48-2.65 5.147-6.141 8.393-13.355 11.978l-15.163-7.145c7.213-3.353 10.704-6.315 12.934-10.836 2.334-4.623 3.07-9.977 3.07-24.06V25.844zM71.304 0h16.342v16.605H71.303z"/></svg>