<svg xmlns="http://www.w3.org/2000/svg" fill="none" viewBox="0 0 100 100"><path fill="#B03931" d="M74.171 55.226c9.765 0 17.681-7.257 17.681-16.208s-7.916-16.207-17.68-16.207c-9.766 0-17.682 7.256-17.682 16.207s7.916 16.208 17.681 16.208m20.148-28.811c3.138 0 5.681-2.331 5.681-5.208C100 18.331 97.457 16 94.319 16s-5.681 2.331-5.681 5.207 2.543 5.208 5.68 5.208"/><path fill="#B03931" d="M2.2 17.778C.969 17.93.004 18.913 0 20.102l.078 60.727c0 .92.248 2.816 2.836 2.816l23.256-.093c6.648-.012 11.1-.126 13.752-.46h.063c2.538-.353 5.226-1.003 8.148-1.952 5.081-1.588 9.587-3.936 13.46-7.07 3.794-3.037 6.733-6.633 8.799-10.678s3.107-8.321 3.099-12.755c-.011-6.171-1.878-11.95-5.624-17.15-3.746-5.198-8.86-9.18-15.152-11.817-6.397-2.712-14.739-3.948-25.087-3.93l-25.113.037c-.108.001-.21-.012-.315 0m13.517 12.496 10.826-.016c5.059-.01 8.658.144 10.7.425 2.07.284 4.337.884 6.737 1.812 2.38.906 4.453 2.016 6.236 3.398 4.903 3.812 7.214 8.324 7.224 14.297.011 6.117-2.222 10.881-6.998 14.877a23.3 23.3 0 0 1-4.906 3.092c-1.703.793-3.926 1.477-6.732 2.066-2.646.53-6.664.83-11.894.84l-11.141.016z"/></svg>