<svg xmlns="http://www.w3.org/2000/svg" fill="none" viewBox="0 0 100 100"><path fill="#fff" fill-rule="evenodd" d="M49.23 24.832h43.078v17.436H49.23z" clip-rule="evenodd"/><path fill="#3ECC5F" fill-rule="evenodd" d="M10.256 81.755c-3.793 0-7.099-2.065-8.873-5.128A10.2 10.2 0 0 0 0 81.755C0 87.419 4.592 92.01 10.256 92.01h10.257V81.755z" clip-rule="evenodd"/><path fill="#3ECC5F" fill-rule="evenodd" d="m56.4 27.589 35.908-2.244v-5.128c0-5.665-4.592-10.257-10.257-10.257H35.897l-1.282-2.22a1.48 1.48 0 0 0-2.564 0L30.77 9.96l-1.282-2.22a1.48 1.48 0 0 0-2.564 0l-1.282 2.22-1.282-2.22a1.48 1.48 0 0 0-2.564 0l-1.282 2.22-.034.002-2.124-2.124a1.48 1.48 0 0 0-2.476.664l-.702 2.617-2.662-.714a1.48 1.48 0 0 0-1.813 1.814l.713 2.663-2.617.7a1.48 1.48 0 0 0-.664 2.477l2.124 2.125-.002.032-2.22 1.282a1.48 1.48 0 0 0 0 2.565l2.22 1.282-2.22 1.282a1.48 1.48 0 0 0 0 2.564l2.22 1.282-2.22 1.282a1.48 1.48 0 0 0 0 2.564l2.22 1.282-2.22 1.282a1.48 1.48 0 0 0 0 2.564l2.22 1.282-2.22 1.282a1.48 1.48 0 0 0 0 2.564l2.22 1.282-2.22 1.282a1.48 1.48 0 0 0 0 2.565l2.22 1.282-2.22 1.282a1.48 1.48 0 0 0 0 2.564l2.22 1.282-2.22 1.282a1.48 1.48 0 0 0 0 2.564l2.22 1.282-2.22 1.282a1.48 1.48 0 0 0 0 2.564l2.22 1.282-2.22 1.282a1.48 1.48 0 0 0 0 2.564l2.22 1.283-2.22 1.282a1.48 1.48 0 0 0 0 2.564l2.22 1.282-2.22 1.282a1.48 1.48 0 0 0 0 2.564l2.22 1.282c0 5.665 4.592 10.256 10.257 10.256H82.05c5.665 0 10.257-4.591 10.257-10.256V40.729L56.4 38.485a5.459 5.459 0 0 1 0-10.896" clip-rule="evenodd"/><path fill="#3ECC5F" fill-rule="evenodd" d="M71.795 92.011H87.18V71.498H71.795z" clip-rule="evenodd"/><path fill="#44D860" fill-rule="evenodd" d="M97.436 79.19c-.112 0-.22.02-.328.033l-.06-.23a2.564 2.564 0 0 0-.987-4.93 2.54 2.54 0 0 0-1.546.53l-.172-.172a2.54 2.54 0 0 0-.06-3.152 2.564 2.564 0 0 0-4.344.616q-.114-.032-.228-.059c.014-.108.033-.215.033-.328a2.564 2.564 0 1 0-5.129 0c0 .113.02.22.033.328q-.114.028-.228.059a2.563 2.563 0 0 0-4.923 1.005c0 .576.197 1.103.519 1.531a10.22 10.22 0 0 0-3.093 7.334c0 5.664 4.592 10.256 10.257 10.256 4.789 0 8.8-3.287 9.928-7.725.108.014.216.033.328.033a2.564 2.564 0 1 0 0-5.128" clip-rule="evenodd"/><path fill="#3ECC5F" fill-rule="evenodd" d="M76.923 61.242h15.385V50.986H76.923z" clip-rule="evenodd"/><path fill="#44D860" fill-rule="evenodd" d="M97.436 57.396a1.282 1.282 0 0 0 0-2.564c-.056 0-.11.01-.164.016l-.03-.115a1.283 1.283 0 0 0-.493-2.465c-.292 0-.558.1-.774.265l-.086-.086a1.27 1.27 0 0 0-.03-1.577 1.282 1.282 0 0 0-2.172.31 5 5 0 0 0-1.38-.194 5.129 5.129 0 0 0 0 10.256c.48 0 .94-.07 1.38-.193a1.282 1.282 0 0 0 2.462-.502c0-.289-.099-.552-.26-.766q.045-.043.086-.087a1.27 1.27 0 0 0 1.586-.024 1.282 1.282 0 0 0-.318-2.175l.03-.115c.053.006.107.016.163.016" clip-rule="evenodd"/><path fill="#000" fill-rule="evenodd" d="M30.77 26.627a1.28 1.28 0 0 1-1.283-1.282 3.85 3.85 0 0 0-3.846-3.847 3.85 3.85 0 0 0-3.846 3.846 1.282 1.282 0 0 1-2.564 0 6.417 6.417 0 0 1 6.41-6.41 6.417 6.417 0 0 1 6.41 6.41 1.28 1.28 0 0 1-1.282 1.282" clip-rule="evenodd"/><path fill="#FFFF50" fill-rule="evenodd" d="M51.282 92.011h30.77c5.664 0 10.256-4.592 10.256-10.256V45.857h-30.77c-5.664 0-10.256 4.592-10.256 10.257z" clip-rule="evenodd"/><path fill="#000" fill-rule="evenodd" d="M84.626 61.755H58.964a.513.513 0 1 1 0-1.026h25.662a.513.513 0 1 1 0 1.026m0 10.256H58.964a.513.513 0 1 1 0-1.025h25.662a.513.513 0 1 1 0 1.025m0 10.257H58.964a.513.513 0 0 1 0-1.026h25.662a.513.513 0 1 1 0 1.026m0-25.546H58.964a.513.513 0 1 1 0-1.025h25.662a.513.513 0 1 1 0 1.025m0 10.161H58.964a.513.513 0 1 1 0-1.025h25.662a.513.513 0 1 1 0 1.025m0 10.257H58.964a.513.513 0 1 1 0-1.026h25.662a.513.513 0 1 1 0 1.026m7.682-47.38-.018-.002c-1.584.054-2.334 1.64-2.996 3.038-.69 1.461-1.224 2.411-2.099 2.383-.968-.035-1.522-1.13-2.109-2.288-.674-1.33-1.443-2.838-3.058-2.782-1.562.053-2.314 1.433-2.978 2.65-.706 1.296-1.186 2.084-2.113 2.048-.988-.036-1.513-.926-2.121-1.956-.678-1.146-1.46-2.435-3.044-2.391-1.535.052-2.29 1.223-2.956 2.256-.704 1.092-1.197 1.758-2.135 1.718-1.012-.035-1.535-.774-2.14-1.629-.678-.96-1.444-2.047-3.022-1.995-1.502.052-2.256 1.01-2.922 1.856-.631.802-1.125 1.437-2.168 1.397a.513.513 0 0 0-.037 1.025c1.547.052 2.33-.923 3.011-1.788.604-.767 1.125-1.43 2.15-1.464.988-.042 1.451.572 2.152 1.562.665.94 1.42 2.007 2.939 2.062 1.591.053 2.357-1.136 3.034-2.189.607-.94 1.13-1.752 2.129-1.786.92-.035 1.42.692 2.125 1.888.665 1.126 1.419 2.403 2.968 2.459 1.603.055 2.376-1.344 3.05-2.582.585-1.07 1.136-2.082 2.113-2.116.92-.021 1.4.818 2.108 2.22.663 1.31 1.414 2.793 2.987 2.85l.087.001c1.572 0 2.317-1.577 2.977-2.971.584-1.236 1.137-2.4 2.086-2.448z" clip-rule="evenodd"/><path fill="#3ECC5F" fill-rule="evenodd" d="M41.026 92.011h20.512V71.498H41.027z" clip-rule="evenodd"/><path fill="#D8D8D8" d="M92.184 38.792 52.298 49.479a1.026 1.026 0 0 0-.726 1.256l3.898 14.547c.147.547.71.872 1.257.725L96.613 55.32c.547-.147.872-.709.725-1.256L93.44 39.517a1.026 1.026 0 0 0-1.256-.725"/><path fill="#4A4A4A" d="m64.336 57.443-1.428.382a.513.513 0 0 0-.363.628l.383 1.428a.513.513 0 0 0 .628.363l1.428-.383a.513.513 0 0 0 .363-.628l-.383-1.428a.513.513 0 0 0-.628-.362m2.866-.769-1.428.383a.513.513 0 0 0-.362.628l.382 1.428a.513.513 0 0 0 .628.363l1.428-.383a.513.513 0 0 0 .363-.628l-.383-1.428a.513.513 0 0 0-.628-.363m2.867-.768-1.428.383a.513.513 0 0 0-.363.628l.383 1.428a.513.513 0 0 0 .628.363l1.428-.383a.513.513 0 0 0 .363-.628l-.383-1.428a.513.513 0 0 0-.628-.363m2.867-.768-1.429.383a.513.513 0 0 0-.362.628l.382 1.428a.513.513 0 0 0 .629.363l1.428-.383a.513.513 0 0 0 .362-.628l-.382-1.428a.513.513 0 0 0-.628-.363m2.866-.768-1.428.383a.513.513 0 0 0-.363.628l.383 1.428a.513.513 0 0 0 .628.363l1.428-.383a.513.513 0 0 0 .363-.628l-.383-1.428a.513.513 0 0 0-.628-.363m2.867-.768-1.428.383a.513.513 0 0 0-.363.628l.383 1.428a.513.513 0 0 0 .628.363l1.428-.383a.513.513 0 0 0 .362-.628l-.382-1.428a.513.513 0 0 0-.628-.363m2.866-.768-1.428.383a.513.513 0 0 0-.362.628l.382 1.428a.513.513 0 0 0 .628.362l1.428-.382a.513.513 0 0 0 .363-.628l-.383-1.428a.513.513 0 0 0-.628-.363m2.867-.768-1.428.383a.513.513 0 0 0-.363.628l.383 1.428a.513.513 0 0 0 .628.362l1.428-.382a.513.513 0 0 0 .362-.628l-.382-1.428a.513.513 0 0 0-.628-.363m2.866-.768-1.428.382a.513.513 0 0 0-.362.629l.382 1.428a.513.513 0 0 0 .629.362l1.427-.382a.513.513 0 0 0 .363-.629l-.382-1.428a.513.513 0 0 0-.629-.362"/><path fill="#4A4A4A" fill-rule="evenodd" d="m55.294 59.866 6.086-1.63a.513.513 0 0 1 .628.362l.382 1.428a.513.513 0 0 1-.362.628l-6.086 1.63a.513.513 0 0 1-.628-.362l-.383-1.428a.513.513 0 0 1 .363-.628m33.502-8.977 6.086-1.63a.513.513 0 0 1 .629.362l.382 1.428a.513.513 0 0 1-.362.628l-6.087 1.63a.513.513 0 0 1-.628-.362l-.383-1.428a.513.513 0 0 1 .363-.628m-35.053 3.189 2.323-.623a.513.513 0 0 1 .628.363l.383 1.427a.513.513 0 0 1-.363.628l-2.323.623a.513.513 0 0 1-.628-.363l-.383-1.427a.513.513 0 0 1 .363-.629" clip-rule="evenodd"/><path fill="#4A4A4A" d="m58.933 52.687-1.428.382a.513.513 0 0 0-.363.628l.383 1.428a.513.513 0 0 0 .628.363l1.428-.383a.513.513 0 0 0 .363-.628l-.383-1.428a.513.513 0 0 0-.628-.362m2.867-.769-1.429.383a.513.513 0 0 0-.362.628l.382 1.428a.513.513 0 0 0 .629.363l1.427-.383a.513.513 0 0 0 .363-.628l-.383-1.428a.513.513 0 0 0-.628-.363m2.867-.768-1.428.383a.513.513 0 0 0-.363.628l.383 1.428a.513.513 0 0 0 .628.363l1.428-.383a.513.513 0 0 0 .363-.628l-.383-1.428a.513.513 0 0 0-.628-.362m2.867-.769-1.428.383a.513.513 0 0 0-.363.628l.383 1.428a.513.513 0 0 0 .628.363l1.428-.383a.513.513 0 0 0 .362-.628l-.382-1.428a.513.513 0 0 0-.628-.363m2.867-.768-1.429.383a.513.513 0 0 0-.362.628l.382 1.428a.513.513 0 0 0 .628.363l1.428-.383a.513.513 0 0 0 .363-.628l-.383-1.428a.513.513 0 0 0-.628-.363m2.867-.768-1.428.383a.513.513 0 0 0-.363.628l.383 1.428a.513.513 0 0 0 .628.362l1.428-.382a.513.513 0 0 0 .362-.629l-.382-1.428a.513.513 0 0 0-.628-.362m2.866-.768-1.428.383a.513.513 0 0 0-.362.628l.382 1.428a.513.513 0 0 0 .628.363l1.428-.383a.513.513 0 0 0 .363-.628l-.383-1.428a.513.513 0 0 0-.628-.363m2.867-.768-1.428.383a.513.513 0 0 0-.363.628l.383 1.428a.513.513 0 0 0 .628.362l1.428-.382a.513.513 0 0 0 .363-.629l-.383-1.428A.513.513 0 0 0 79 47.31m2.865-.768-1.428.382a.513.513 0 0 0-.363.628l.383 1.428a.513.513 0 0 0 .628.363l1.428-.383a.513.513 0 0 0 .363-.628l-.383-1.428a.513.513 0 0 0-.628-.362m2.867-.768-1.428.383a.513.513 0 0 0-.363.628l.383 1.428a.513.513 0 0 0 .628.362l1.428-.382a.513.513 0 0 0 .362-.628l-.382-1.429a.513.513 0 0 0-.628-.362m2.866-.768-1.428.382a.513.513 0 0 0-.362.629l.382 1.427a.513.513 0 0 0 .628.363l1.428-.383a.513.513 0 0 0 .363-.628l-.383-1.428a.513.513 0 0 0-.628-.362m2.867-.769-1.428.383a.513.513 0 0 0-.363.628l.383 1.428a.513.513 0 0 0 .628.363l1.428-.383a.513.513 0 0 0 .362-.628l-.382-1.428a.513.513 0 0 0-.628-.363m2.866-.767-1.428.382a.513.513 0 0 0-.362.629l.382 1.427a.513.513 0 0 0 .628.363l1.428-.383a.513.513 0 0 0 .363-.628l-.382-1.428a.513.513 0 0 0-.629-.362"/><path fill="#4A4A4A" fill-rule="evenodd" d="m93.244 43.145-2.323.623a.51.51 0 0 1-.628-.363l-.383-1.428a.513.513 0 0 1 .363-.628l2.323-.622a.513.513 0 0 1 .628.362l.383 1.428a.513.513 0 0 1-.363.628" clip-rule="evenodd"/><path fill="#4A4A4A" d="m88.054 44.536 1.428-.383a.513.513 0 0 0 .363-.628l-.383-1.428a.513.513 0 0 0-.628-.362l-1.428.382a.513.513 0 0 0-.363.628l.383 1.428a.513.513 0 0 0 .628.363m-2.866.768 1.428-.382a.513.513 0 0 0 .362-.628l-.382-1.428a.513.513 0 0 0-.628-.363l-1.428.383a.513.513 0 0 0-.363.628l.383 1.428a.513.513 0 0 0 .628.362m-2.867.768 1.428-.383a.513.513 0 0 0 .363-.628l-.383-1.428a.513.513 0 0 0-.628-.362l-1.428.382a.513.513 0 0 0-.362.628l.382 1.428a.513.513 0 0 0 .628.363m-2.866.768 1.428-.382a.513.513 0 0 0 .362-.628l-.382-1.428a.513.513 0 0 0-.628-.363l-1.428.383a.513.513 0 0 0-.363.628l.383 1.428a.513.513 0 0 0 .628.362m-2.867.769 1.428-.383a.513.513 0 0 0 .363-.628l-.383-1.428a.513.513 0 0 0-.628-.363l-1.428.383a.513.513 0 0 0-.363.628l.383 1.428a.513.513 0 0 0 .628.363m-2.866.768 1.428-.383a.513.513 0 0 0 .362-.628l-.383-1.428a.513.513 0 0 0-.628-.363l-1.428.383a.513.513 0 0 0-.362.628l.382 1.428a.513.513 0 0 0 .629.363m-2.867.768 1.428-.383a.513.513 0 0 0 .363-.628l-.383-1.428a.513.513 0 0 0-.628-.363l-1.428.383a.513.513 0 0 0-.363.628l.383 1.428a.513.513 0 0 0 .628.363m-2.867.768 1.428-.383a.513.513 0 0 0 .363-.628l-.383-1.428a.513.513 0 0 0-.628-.363l-1.428.383a.513.513 0 0 0-.362.628l.382 1.428a.513.513 0 0 0 .628.363m-2.866.768 1.428-.383a.513.513 0 0 0 .362-.628l-.382-1.428a.513.513 0 0 0-.628-.362l-1.428.382a.513.513 0 0 0-.363.628l.383 1.428a.513.513 0 0 0 .628.363m-2.867.769 1.428-.383a.513.513 0 0 0 .363-.629l-.383-1.428a.513.513 0 0 0-.628-.362l-1.428.382a.513.513 0 0 0-.363.628l.383 1.429a.513.513 0 0 0 .628.362m-2.866.768 1.428-.383a.513.513 0 0 0 .362-.628l-.383-1.428a.513.513 0 0 0-.628-.362l-1.428.382a.513.513 0 0 0-.362.628l.382 1.428a.513.513 0 0 0 .629.363m-2.867.768 1.428-.383a.513.513 0 0 0 .363-.628l-.383-1.428a.513.513 0 0 0-.628-.362l-1.428.382a.513.513 0 0 0-.363.628l.383 1.428a.513.513 0 0 0 .628.363m-2.866.768 1.428-.383a.513.513 0 0 0 .363-.628l-.383-1.428a.513.513 0 0 0-.628-.362l-1.428.382a.513.513 0 0 0-.363.628l.383 1.428a.513.513 0 0 0 .628.363"/><path fill="#4A4A4A" d="m88.054 44.536 1.428-.383a.513.513 0 0 0 .363-.628l-.383-1.428a.513.513 0 0 0-.628-.362l-1.428.382a.513.513 0 0 0-.363.628l.383 1.428a.513.513 0 0 0 .628.363m-2.866.768 1.428-.382a.513.513 0 0 0 .362-.628l-.382-1.428a.513.513 0 0 0-.628-.363l-1.428.383a.513.513 0 0 0-.363.628l.383 1.428a.513.513 0 0 0 .628.362m-2.867.768 1.428-.383a.513.513 0 0 0 .363-.628l-.383-1.428a.513.513 0 0 0-.628-.362l-1.428.382a.513.513 0 0 0-.362.628l.382 1.428a.513.513 0 0 0 .628.363m-2.866.768 1.428-.382a.513.513 0 0 0 .362-.628l-.382-1.428a.513.513 0 0 0-.628-.363l-1.428.383a.513.513 0 0 0-.363.628l.383 1.428a.513.513 0 0 0 .628.362m-2.867.769 1.428-.383a.513.513 0 0 0 .363-.628l-.383-1.428a.513.513 0 0 0-.628-.363l-1.428.383a.513.513 0 0 0-.363.628l.383 1.428a.513.513 0 0 0 .628.363m-2.866.768 1.428-.383a.513.513 0 0 0 .362-.628l-.383-1.428a.513.513 0 0 0-.628-.363l-1.428.383a.513.513 0 0 0-.362.628l.382 1.428a.513.513 0 0 0 .629.363m-2.867.768 1.428-.383a.513.513 0 0 0 .363-.628l-.383-1.428a.513.513 0 0 0-.628-.363l-1.428.383a.513.513 0 0 0-.363.628l.383 1.428a.513.513 0 0 0 .628.363m-2.867.768 1.428-.383a.513.513 0 0 0 .363-.628l-.383-1.428a.513.513 0 0 0-.628-.363l-1.428.383a.513.513 0 0 0-.362.628l.382 1.428a.513.513 0 0 0 .628.363m-2.866.768 1.428-.383a.513.513 0 0 0 .362-.628l-.382-1.428a.513.513 0 0 0-.628-.362l-1.428.382a.513.513 0 0 0-.363.628l.383 1.428a.513.513 0 0 0 .628.363m-2.867.769 1.428-.383a.513.513 0 0 0 .363-.629l-.383-1.428a.513.513 0 0 0-.628-.362l-1.428.382a.513.513 0 0 0-.363.628l.383 1.429a.513.513 0 0 0 .628.362m-2.866.768 1.428-.383a.513.513 0 0 0 .362-.628l-.383-1.428a.513.513 0 0 0-.628-.362l-1.428.382a.513.513 0 0 0-.362.628l.382 1.428a.513.513 0 0 0 .629.363m-2.867.768 1.428-.383a.513.513 0 0 0 .363-.628l-.383-1.428a.513.513 0 0 0-.628-.362l-1.428.382a.513.513 0 0 0-.363.628l.383 1.428a.513.513 0 0 0 .628.363m-2.866.768 1.428-.383a.513.513 0 0 0 .363-.628l-.383-1.428a.513.513 0 0 0-.628-.362l-1.428.382a.513.513 0 0 0-.363.628l.383 1.428a.513.513 0 0 0 .628.363"/><path fill="#4A4A4A" fill-rule="evenodd" d="m54.51 56.943 3.31-.886a.513.513 0 0 1 .628.362l.382 1.428a.513.513 0 0 1-.362.628l-3.31.887a.513.513 0 0 1-.627-.363l-.383-1.427a.513.513 0 0 1 .363-.628" clip-rule="evenodd"/><path fill="#4A4A4A" d="m60.776 55.264-1.428.383a.513.513 0 0 0-.363.628l.383 1.428a.513.513 0 0 0 .628.362l1.428-.382a.513.513 0 0 0 .363-.628l-.383-1.428a.513.513 0 0 0-.628-.363m2.867-.768-1.429.382a.513.513 0 0 0-.362.628l.383 1.428a.513.513 0 0 0 .627.363l1.429-.383a.513.513 0 0 0 .362-.628l-.382-1.428a.513.513 0 0 0-.629-.362m2.868-.768-1.429.383a.513.513 0 0 0-.363.628l.383 1.428a.513.513 0 0 0 .628.362l1.428-.382a.513.513 0 0 0 .363-.628l-.383-1.428a.513.513 0 0 0-.628-.363m2.867-.768-1.428.382a.513.513 0 0 0-.363.628l.383 1.428a.513.513 0 0 0 .628.363l1.428-.383a.513.513 0 0 0 .362-.628l-.382-1.428a.513.513 0 0 0-.628-.362m2.866-.769-1.428.383a.513.513 0 0 0-.362.628l.382 1.428a.513.513 0 0 0 .628.363l1.428-.383a.513.513 0 0 0 .363-.628l-.383-1.428a.513.513 0 0 0-.628-.363m2.867-.768-1.428.383a.513.513 0 0 0-.363.628l.383 1.428a.513.513 0 0 0 .628.363l1.428-.383a.513.513 0 0 0 .363-.628l-.383-1.428a.513.513 0 0 0-.628-.363m2.866-.767-1.428.382a.513.513 0 0 0-.362.628l.382 1.428a.513.513 0 0 0 .629.363l1.428-.383a.513.513 0 0 0 .362-.628l-.383-1.428a.513.513 0 0 0-.628-.362m2.867-.769-1.429.383a.513.513 0 0 0-.362.628l.382 1.428a.513.513 0 0 0 .628.363l1.429-.383a.513.513 0 0 0 .362-.628l-.382-1.428a.513.513 0 0 0-.629-.363m2.867-.768-1.428.383a.513.513 0 0 0-.363.628l.383 1.428a.513.513 0 0 0 .628.362l1.428-.382a.513.513 0 0 0 .363-.628l-.383-1.428a.513.513 0 0 0-.628-.363m2.867-.768-1.429.383a.513.513 0 0 0-.362.628l.382 1.428a.513.513 0 0 0 .629.363l1.428-.383a.513.513 0 0 0 .362-.628l-.382-1.428a.513.513 0 0 0-.629-.363m2.867-.768-1.428.383a.513.513 0 0 0-.363.628l.383 1.428a.513.513 0 0 0 .628.362l1.428-.382a.513.513 0 0 0 .363-.628l-.383-1.428a.513.513 0 0 0-.628-.363"/><path fill="#4A4A4A" fill-rule="evenodd" d="m90.97 47.174 3.13-.839a.513.513 0 0 1 .627.363l.383 1.428a.513.513 0 0 1-.363.628l-3.13.839a.513.513 0 0 1-.628-.363l-.382-1.427a.513.513 0 0 1 .362-.628z" clip-rule="evenodd"/><path fill="#4A4A4A" d="m57.523 62.473-1.428.383a.513.513 0 0 0-.363.628l.383 1.428a.513.513 0 0 0 .628.363l1.428-.383a.513.513 0 0 0 .363-.628l-.383-1.428a.513.513 0 0 0-.628-.363m2.867-.768-1.428.383a.513.513 0 0 0-.363.628l.383 1.428a.513.513 0 0 0 .628.362l1.428-.382a.513.513 0 0 0 .362-.628l-.382-1.428a.513.513 0 0 0-.628-.363m2.866-.768-1.428.383a.513.513 0 0 0-.362.628l.382 1.428a.513.513 0 0 0 .628.363l1.428-.383a.513.513 0 0 0 .363-.628l-.383-1.428a.513.513 0 0 0-.628-.363m2.867-.768-1.428.382a.513.513 0 0 0-.363.628l.383 1.428a.513.513 0 0 0 .628.363l1.428-.383a.513.513 0 0 0 .362-.628l-.382-1.428a.513.513 0 0 0-.628-.362"/><path fill="#4A4A4A" fill-rule="evenodd" d="m67.56 59.783 13.791-3.695a.513.513 0 0 1 .628.363l.383 1.428a.513.513 0 0 1-.362.628l-13.79 3.696a.513.513 0 0 1-.629-.363l-.383-1.429a.513.513 0 0 1 .363-.628m15.23-4.08 1.786-.479a.513.513 0 0 1 .628.363l.383 1.428a.513.513 0 0 1-.363.628l-1.787.48a.513.513 0 0 1-.627-.363l-.383-1.43a.513.513 0 0 1 .362-.627" clip-rule="evenodd"/><path fill="#4A4A4A" d="m87.443 54.456-1.429.383a.513.513 0 0 0-.362.628l.382 1.428a.513.513 0 0 0 .628.363l1.429-.383a.513.513 0 0 0 .362-.628l-.382-1.428a.513.513 0 0 0-.629-.363m2.868-.768-1.429.383a.513.513 0 0 0-.363.628l.383 1.428a.513.513 0 0 0 .628.362l1.428-.382a.513.513 0 0 0 .363-.628l-.383-1.428a.513.513 0 0 0-.628-.363m5.375-1.44-1.428.383a.513.513 0 0 0-.363.628l.383 1.428a.513.513 0 0 0 .628.363l1.428-.383a.513.513 0 0 0 .362-.628l-.382-1.428a.513.513 0 0 0-.628-.363m-4.335 2.266-.144-.535a.513.513 0 0 1 .363-.628l1.428-.383a.513.513 0 0 1 .628.363l.143.535zm2.515-.29.143.535a.51.51 0 0 1-.363.628l-1.428.382a.513.513 0 0 1-.628-.362l-.143-.535zm-1.769-14.84L52.86 49.897a.556.556 0 1 0 .288 1.075L92.383 40.46a.556.556 0 1 0-.288-1.075"/><path fill="#D8D8D8" d="m55.258 49.447-1.544.414a.37.37 0 1 0 .192.717l1.544-.414a.37.37 0 1 0-.192-.717m3.092-.829-1.543.414a.37.37 0 1 0 .192.717l1.544-.414a.37.37 0 0 0-.192-.717m2.379-.638-1.543.414a.37.37 0 1 0 .192.717l1.544-.414a.37.37 0 1 0-.192-.717m2.379-.637-1.544.414a.37.37 0 1 0 .192.717l1.544-.414a.37.37 0 1 0-.192-.717m2.38-.638-1.545.414a.37.37 0 1 0 .192.717l1.544-.414a.37.37 0 0 0-.192-.717m2.974-.796-1.544.413a.37.37 0 0 0 .192.717l1.544-.413a.37.37 0 0 0 .263-.454v-.001a.37.37 0 0 0-.455-.262m2.379-.638-1.544.414a.37.37 0 0 0 .192.717l1.544-.414a.37.37 0 1 0-.192-.717m2.38-.638-1.544.414a.37.37 0 1 0 .192.717l1.544-.414a.37.37 0 0 0-.192-.717m2.379-.637-1.544.413a.37.37 0 1 0 .192.717l1.544-.413a.37.37 0 1 0-.192-.717m2.975-.797-1.544.414a.37.37 0 1 0 .192.717l1.544-.414a.37.37 0 1 0-.192-.717m2.379-.638-1.544.414a.37.37 0 1 0 .192.717l1.544-.414a.37.37 0 0 0-.192-.717m2.38-.637-1.544.413a.37.37 0 1 0 .192.717l1.544-.413a.37.37 0 0 0 .262-.454v-.001a.37.37 0 0 0-.454-.262m2.974-.797-1.544.414a.37.37 0 0 0 .192.717l1.544-.414a.37.37 0 1 0-.192-.717m2.379-.637-1.544.413a.37.37 0 0 0 .192.717l1.544-.414a.37.37 0 1 0-.192-.717m2.38-.637-1.544.413a.37.37 0 1 0 .192.717l1.544-.414a.37.37 0 0 0-.192-.717" opacity=".136"/><path fill="#44D860" fill-rule="evenodd" d="M71.795 79.19c-.112 0-.22.02-.328.033q-.028-.115-.06-.23a2.564 2.564 0 0 0-.986-4.93 2.54 2.54 0 0 0-1.547.53l-.172-.172a2.54 2.54 0 0 0-.06-3.152 2.563 2.563 0 0 0-4.344.616q-.114-.032-.228-.059c.014-.108.033-.215.033-.328a2.565 2.565 0 0 0-5.129 0c0 .113.02.22.033.328q-.114.028-.228.059a2.563 2.563 0 0 0-4.923 1.005c0 .576.197 1.103.519 1.531a10.22 10.22 0 0 0-3.093 7.334c0 5.664 4.592 10.256 10.257 10.256 4.789 0 8.8-3.287 9.928-7.725.108.014.216.033.328.033a2.564 2.564 0 1 0 0-5.128" clip-rule="evenodd"/><path fill="#3ECC5F" fill-rule="evenodd" d="M41.026 61.242h20.512V50.986H41.027z" clip-rule="evenodd"/><path fill="#44D860" fill-rule="evenodd" d="M66.667 57.396a1.282 1.282 0 0 0 0-2.564c-.056 0-.11.01-.164.016l-.03-.115a1.283 1.283 0 0 0-.493-2.465c-.292 0-.559.1-.774.265l-.086-.086a1.27 1.27 0 0 0-.03-1.577 1.282 1.282 0 0 0-2.172.31 5 5 0 0 0-1.38-.194 5.129 5.129 0 0 0 0 10.256c.48 0 .94-.07 1.38-.193a1.282 1.282 0 0 0 2.461-.502c0-.289-.098-.552-.259-.766q.044-.043.086-.087a1.27 1.27 0 0 0 1.586-.024 1.283 1.283 0 0 0-.319-2.175q.016-.057.03-.115c.054.006.108.016.164.016" clip-rule="evenodd"/><path fill="#000" fill-rule="evenodd" d="M71.795 19.576a1.4 1.4 0 0 1-.492-.098 1.3 1.3 0 0 1-.221-.118 2 2 0 0 1-.195-.159c-.056-.061-.113-.123-.159-.195a1.4 1.4 0 0 1-.118-.22 1.3 1.3 0 0 1-.097-.492 1.4 1.4 0 0 1 .097-.493 1.4 1.4 0 0 1 .277-.415c.062-.057.128-.113.195-.16q.107-.069.22-.117a1.3 1.3 0 0 1 .242-.072q.247-.054.502 0 .124.024.241.072.115.047.22.118c.067.046.133.102.196.159a1.3 1.3 0 0 1 .349.656 1.3 1.3 0 0 1-.349 1.159 2 2 0 0 1-.195.16 1.3 1.3 0 0 1-.713.215m10.256-.642a1.3 1.3 0 0 1-.908-.374 1.4 1.4 0 0 1-.277-.415 1.3 1.3 0 0 1-.097-.492c0-.339.139-.667.374-.908q.094-.087.195-.16.107-.069.221-.117a1.3 1.3 0 0 1 .744-.072 1.3 1.3 0 0 1 .461.19c.067.046.133.102.195.159.235.24.374.569.374.907a1.3 1.3 0 0 1-.097.492 2 2 0 0 1-.118.221 2 2 0 0 1-.159.195 1.3 1.3 0 0 1-.415.277 1.3 1.3 0 0 1-.493.098" clip-rule="evenodd"/></svg>