<svg xmlns="http://www.w3.org/2000/svg" fill="none" viewBox="0 0 100 100"><path fill="url(#a)" d="M90.251 74.422a37 37 0 0 1-4.116 1.84 39.8 39.8 0 0 1-14.022 2.522c-18.482 0-34.582-12.713-34.582-29.027a12.3 12.3 0 0 1 6.417-10.667c-16.717.703-21.013 18.123-21.013 28.329 0 28.856 26.595 31.781 32.324 31.781 3.09 0 7.75-.898 10.546-1.781l.512-.172a50.13 50.13 0 0 0 26.012-20.622 1.562 1.562 0 0 0-2.078-2.203"/><path fill="url(#b)" d="M90.251 74.422a37 37 0 0 1-4.116 1.84 39.8 39.8 0 0 1-14.022 2.522c-18.482 0-34.582-12.713-34.582-29.027a12.3 12.3 0 0 1 6.417-10.667c-16.717.703-21.013 18.123-21.013 28.329 0 28.856 26.595 31.781 32.324 31.781 3.09 0 7.75-.898 10.546-1.781l.512-.172a50.13 50.13 0 0 0 26.012-20.622 1.562 1.562 0 0 0-2.078-2.203" opacity=".35"/><path fill="url(#c)" d="M41.296 94.294a30.9 30.9 0 0 1-8.882-8.335 31.528 31.528 0 0 1 11.534-46.87c1.219-.573 3.3-1.612 6.07-1.562a12.63 12.63 0 0 1 10.034 5.078 12.45 12.45 0 0 1 2.484 7.288c0-.082 9.554-31.09-31.246-31.09C14.143 18.803.043 35.075.043 49.35a50.8 50.8 0 0 0 4.73 21.873 49.994 49.994 0 0 0 61.079 26.212 29.5 29.5 0 0 1-24.52-3.125z"/><path fill="url(#d)" d="M41.296 94.294a30.9 30.9 0 0 1-8.882-8.335 31.528 31.528 0 0 1 11.534-46.87c1.219-.573 3.3-1.612 6.07-1.562a12.63 12.63 0 0 1 10.034 5.078 12.45 12.45 0 0 1 2.484 7.288c0-.082 9.554-31.09-31.246-31.09C14.143 18.803.043 35.075.043 49.35a50.8 50.8 0 0 0 4.73 21.873 49.994 49.994 0 0 0 61.079 26.212 29.5 29.5 0 0 1-24.52-3.125z" opacity=".41"/><path fill="url(#e)" d="M59.497 58.142c-.316.41-1.289.977-1.289 2.21 0 1.02.664 2 1.844 2.825 5.616 3.906 16.205 3.39 16.232 3.39a23.26 23.26 0 0 0 11.823-3.261 23.97 23.97 0 0 0 11.885-20.654c.102-8.753-3.124-14.573-4.429-17.15C87.287 9.311 69.422 0 49.994 0A49.995 49.995 0 0 0 0 49.292C.187 35.02 14.373 23.494 31.246 23.494c1.367 0 9.163.133 16.405 3.933 6.382 3.351 9.725 7.398 12.05 11.409 2.413 4.167 2.843 9.432 2.843 11.53s-1.07 5.206-3.047 7.776"/><path fill="url(#f)" d="M59.497 58.142c-.316.41-1.289.977-1.289 2.21 0 1.02.664 2 1.844 2.825 5.616 3.906 16.205 3.39 16.232 3.39a23.26 23.26 0 0 0 11.823-3.261 23.97 23.97 0 0 0 11.885-20.654c.102-8.753-3.124-14.573-4.429-17.15C87.287 9.311 69.422 0 49.994 0A49.995 49.995 0 0 0 0 49.292C.187 35.02 14.373 23.494 31.246 23.494c1.367 0 9.163.133 16.405 3.933 6.382 3.351 9.725 7.398 12.05 11.409 2.413 4.167 2.843 9.432 2.843 11.53s-1.07 5.206-3.047 7.776"/><defs><radialGradient id="b" cx="0" cy="0" r="1" gradientTransform="matrix(37.2535 0 0 35.3908 61.407 69.702)" gradientUnits="userSpaceOnUse"><stop offset=".72" stop-opacity="0"/><stop offset=".95" stop-opacity=".53"/><stop offset="1"/></radialGradient><radialGradient id="d" cx="0" cy="0" r="1" gradientTransform="rotate(-81.384 58.983 22.832)scale(56.0195 45.258)" gradientUnits="userSpaceOnUse"><stop offset=".76" stop-opacity="0"/><stop offset=".95" stop-opacity=".5"/><stop offset="1"/></radialGradient><radialGradient id="e" cx="0" cy="0" r="1" gradientTransform="rotate(92.291 -3.84 14.105)scale(79.1283 168.527)" gradientUnits="userSpaceOnUse"><stop stop-color="#35C1F1"/><stop offset=".11" stop-color="#34C1ED"/><stop offset=".23" stop-color="#2FC2DF"/><stop offset=".31" stop-color="#2BC3D2"/><stop offset=".67" stop-color="#36C752"/></radialGradient><radialGradient id="f" cx="0" cy="0" r="1" gradientTransform="rotate(73.74 26.728 77.628)scale(38.0191 30.9171)" gradientUnits="userSpaceOnUse"><stop stop-color="#66EB6E"/><stop offset="1" stop-color="#66EB6E" stop-opacity="0"/></radialGradient><linearGradient id="a" x1="22.935" x2="92.591" y1="69.153" y2="69.153" gradientUnits="userSpaceOnUse"><stop stop-color="#0C59A4"/><stop offset="1" stop-color="#114A8B"/></linearGradient><linearGradient id="c" x1="59.657" x2="16.151" y1="38.937" y2="86.326" gradientUnits="userSpaceOnUse"><stop stop-color="#1B9DE2"/><stop offset=".16" stop-color="#1595DF"/><stop offset=".67" stop-color="#0680D7"/><stop offset="1" stop-color="#0078D4"/></linearGradient></defs></svg>