<svg xmlns="http://www.w3.org/2000/svg" fill="none" viewBox="0 0 100 100"><path fill="#fff" d="M100 52.197a19.67 19.67 0 0 0-13.018-18.554c.339-1.776.508-3.55.508-5.368 0-15.596-12.68-28.276-28.233-28.276-9.13 0-17.583 4.354-22.909 11.708a14.95 14.95 0 0 0-9.171-3.128c-8.284 0-15.004 6.72-15.004 15.004 0 1.818.338 3.593.93 5.241C5.325 31.614 0 39.094 0 47.421c0 8.41 5.241 15.765 13.06 18.597a28 28 0 0 0-.507 5.367c0 15.554 12.638 28.192 28.191 28.192 9.13 0 17.583-4.396 22.866-11.75 2.62 2.07 5.832 3.212 9.171 3.212 8.284 0 15.005-6.72 15.005-15.004a15.5 15.5 0 0 0-.93-5.241C94.632 68.004 100 60.524 100 52.197"/><path fill="#FED10A" d="M39.306 42.9 61.2 52.875l22.062-19.358c.338-1.606.465-3.17.465-4.86 0-13.61-11.074-24.684-24.683-24.684-8.157 0-15.723 4.016-20.33 10.736L35.037 33.77z"/><path fill="#24BBB1" d="M16.653 66.06c-.338 1.607-.465 3.255-.465 4.945 0 13.652 11.116 24.726 24.768 24.726 8.2 0 15.85-4.058 20.457-10.82l3.634-18.977-4.86-9.299-21.978-10.017z"/><path fill="#EF5098" d="m16.525 28.19 15.004 3.55 3.297-17.032c-2.029-1.564-4.565-2.41-7.185-2.41-6.509 0-11.834 5.284-11.834 11.835 0 1.395.253 2.79.718 4.057"/><path fill="#1BA9F5" d="M15.217 31.782c-6.678 2.198-11.37 8.622-11.37 15.68 0 6.89 4.27 13.018 10.652 15.47l21.048-19.02-3.846-8.241z"/><path fill="#93C83E" d="M65.216 84.91c2.071 1.563 4.565 2.451 7.143 2.451 6.51 0 11.835-5.283 11.835-11.834 0-1.437-.254-2.832-.719-4.1l-14.962-3.508z"/><path fill="#07C" d="m68.258 63.989 16.483 3.846c6.72-2.198 11.37-8.622 11.37-15.723 0-6.847-4.27-13.018-10.651-15.427L63.904 55.578z"/></svg>