<svg xmlns="http://www.w3.org/2000/svg" fill="none" viewBox="0 0 100 100"><path fill="#2DD0ED" d="M36.547 21.494c-13.068-2.38-23.4.112-27.519 7.244-3.073 5.322-2.195 12.379 2.13 19.922a1.34 1.34 0 1 0 2.326-1.334c-3.896-6.794-4.656-12.884-2.134-17.248 3.42-5.925 12.635-8.148 24.716-5.947a1.342 1.342 0 0 0 1.57-1.603 1.34 1.34 0 0 0-1.09-1.034zM17.953 57.828c5.284 5.807 12.149 11.254 19.978 15.775 18.956 10.944 39.136 13.87 49.082 7.088a1.34 1.34 0 0 0-1.51-2.215c-8.901 6.07-28.071 3.29-46.232-7.195-7.596-4.386-14.243-9.66-19.335-15.256a1.341 1.341 0 1 0-1.983 1.803"/><path fill="#2DD0ED" d="M83.841 56.198c8.557-10.108 11.545-20.275 7.436-27.393-3.024-5.237-9.417-8.002-17.912-8.112a1.341 1.341 0 0 0-.036 2.68c7.64.099 13.149 2.481 15.627 6.772 3.412 5.913.748 14.98-7.16 24.322a1.34 1.34 0 1 0 2.045 1.731M61.851 21.94c-7.737 1.659-15.971 4.9-23.88 9.465C18.402 42.703 5.637 59.362 7.41 71.443a1.34 1.34 0 1 0 2.65-.39C8.488 60.328 20.588 44.536 39.31 33.726c7.672-4.43 15.646-7.566 23.103-9.166a1.34 1.34 0 0 0-.562-2.62"/><path fill="#2DD0ED" d="M30.148 79.817C34.623 92.308 41.94 100 50.172 100c6.002 0 11.555-4.09 15.885-11.294a1.342 1.342 0 0 0-1.947-1.785q-.215.167-.348.404c-3.892 6.474-8.673 9.996-13.59 9.996-6.836 0-13.364-6.86-17.5-18.408a1.343 1.343 0 0 0-1.723-.836 1.34 1.34 0 0 0-.8 1.74zm40.866-2.444c2.316-7.4 3.559-15.938 3.559-24.836 0-22.2-7.77-41.337-18.837-46.251a1.34 1.34 0 0 0-1.087 2.449c9.87 4.384 17.245 22.545 17.245 43.802 0 8.63-1.206 16.9-3.437 24.036a1.34 1.34 0 0 0 .623 1.606 1.34 1.34 0 0 0 1.934-.806m25.237-1.312a6.413 6.413 0 1 0-12.825-.082 6.413 6.413 0 0 0 12.825.082m-2.68 0a3.734 3.734 0 1 1-7.467-.002 3.734 3.734 0 0 1 7.467.002m-83.157 6.413a6.412 6.412 0 1 0 0-12.827 6.414 6.414 0 1 0 0 12.827m0-2.68a3.734 3.734 0 1 1 0-7.468 3.734 3.734 0 0 1 0 7.468"/><path fill="#2DD0ED" d="M50.172 12.828a6.412 6.412 0 1 0 0-12.828 6.413 6.413 0 1 0 0 12.827m0-2.681a3.735 3.735 0 0 1-1.429-7.182 3.734 3.734 0 1 1 1.429 7.183zm.98 46.927a4.643 4.643 0 0 1-4.316-7.764A4.64 4.64 0 0 1 49.192 48a4.642 4.642 0 0 1 1.96 9.073"/></svg>