<svg xmlns="http://www.w3.org/2000/svg" fill="none" viewBox="0 0 100 100"><path fill="url(#a)" fill-rule="evenodd" d="M53.262.237c-7.346 2.606-14.217 10.188-21.088 22.509C21.985 41.465 8.954 68.002 26.96 89.09c8.293 9.714 22.273 15.401 40.28 6.397 14.455-7.345 18.72-28.433 13.27-38.147-10.9-20.378-21.8-25.353-24.642-37.911-1.896-8.53-2.843-14.927-2.608-19.192" clip-rule="evenodd"/><path fill="url(#b)" fill-rule="evenodd" d="M53.262 0c-7.346 2.606-14.454 10.188-21.088 22.51-10.189 18.717-23.22 45.255-5.213 66.343 8.293 9.714 22.036 12.795 29.618 7.108 4.975-3.791 8.293-7.345 10.188-14.927 2.133-8.53.474-19.666-.71-25.116-1.422-6.635-1.896-13.743-1.422-21.799 0 0-.237 0-.237-.237-4.028-4.738-6.871-9.003-8.293-14.927-2.133-8.293-3.08-14.69-2.843-18.955" clip-rule="evenodd"/><path fill="url(#c)" fill-rule="evenodd" d="M47.101 3.317C40.23 8.767 35.254 17.77 31.937 30.328c-4.976 18.956-5.45 36.49-3.791 46.915C31.463 97.146 49.234 104.49 67.24 95.25c11.136-5.686 15.875-17.77 15.638-31.04-.237-13.742-26.774-29.143-31.276-40.516C48.523 15.874 47.1 9.24 47.1 3.317" clip-rule="evenodd"/><path fill="url(#d)" fill-rule="evenodd" d="M64.398 38.858c8.293 10.426 9.951 17.77 5.45 21.799-6.872 6.16-23.932 10.188-34.357 2.843-7.108-4.976-9.715-15.638-8.056-31.987-2.843 6.16-5.45 12.084-7.345 18.481-1.896 6.16-2.607 12.795-1.659 19.43 2.606 4.975 8.53 8.53 18.245 10.188 14.453 2.607 28.196 1.185 37.436-3.317 6.16-3.08 9.004-6.16 8.767-9.24.237-4.503-1.185-8.768-4.265-13.033-2.843-4.264-7.582-9.24-14.216-15.164" clip-rule="evenodd"/><path fill="url(#e)" fill-rule="evenodd" d="M32.41 28.433c0 7.582 1.896 14.69 5.924 21.561 5.924 10.189 12.795 20.377 23.22 28.67 6.872 5.687 12.558 7.346 16.586 5.45-3.317 6.16-7.108 9.004-10.899 9.004-5.687-.237-12.795-2.607-23.931-16.112-7.582-9.004-12.558-17.534-15.401-25.59.474-3.08.948-6.397 1.421-9.478.711-3.08 1.659-7.582 3.08-13.505" clip-rule="evenodd"/><path fill="url(#f)" fill-rule="evenodd" d="M50.181 38.858c.711 6.16 3.08 16.112 0 22.51-3.08 6.634-17.06 18.481-13.268 28.907 3.79 10.425 13.268 8.056 19.192 3.317 5.923-4.74 9.004-12.558 9.714-18.245.711-5.45-1.658-16.112-2.369-25.353-.474-6.16-.237-11.373.948-15.875l-1.896-2.37-10.662-3.08c-1.422 2.607-2.133 5.924-1.659 10.19" clip-rule="evenodd"/><path fill="url(#g)" fill-rule="evenodd" d="M53.972 8.293c-3.554 1.421-6.634 4.265-9.714 8.766-4.74 6.398-7.108 10.426-5.213 23.22 1.185 8.53 1.895 16.35 2.606 23.695l14.928-43.36c-.474-2.133-.948-4.265-1.422-5.924-.71-2.132-.948-4.028-1.185-6.397" clip-rule="evenodd"/><path fill="#330A4C" fill-opacity=".316" fill-rule="evenodd" d="M56.342 20.377c-3.791 2.132-6.635 6.871-8.767 13.505-2.133 6.872-4.028 16.35-5.687 28.67 2.37-7.819 3.791-13.505 4.502-17.06 1.185-5.212 1.422-12.794 4.502-17.77 1.896-3.317 3.791-5.687 5.45-7.345" clip-rule="evenodd"/><path fill="#fff" fill-rule="evenodd" d="M38.571 93.829c6.16.947 9.478 1.658 9.715 2.369.474.948-.711 1.896-4.265 1.422-2.133-.474-4.028-1.659-5.45-3.791" clip-rule="evenodd"/><path fill="#EDEDED" fill-opacity=".603" fill-rule="evenodd" d="M41.888 8.293c-3.317 4.028-6.397 8.53-9.003 13.031-2.607 4.502-4.265 8.056-5.45 10.189-.237 1.659-.474 4.265-.474 7.582s.237 6.871.948 10.9c.474-7.82 1.895-15.639 4.502-22.984 2.369-7.345 5.686-13.743 9.477-18.718" clip-rule="evenodd"/><defs><linearGradient id="a" x1="51.314" x2="47.835" y1="7.554" y2="100.104" gradientUnits="userSpaceOnUse"><stop stop-color="#D9D8DC"/><stop offset="1" stop-color="#fff" stop-opacity=".385"/></linearGradient><linearGradient id="b" x1="50.049" x2="13.703" y1="6.014" y2="85.672" gradientUnits="userSpaceOnUse"><stop stop-color="#8D67AF" stop-opacity=".672"/><stop offset="1" stop-color="#9F8DAF"/></linearGradient><linearGradient id="c" x1="55.16" x2="55.16" y1="33.365" y2="97.441" gradientUnits="userSpaceOnUse"><stop stop-color="#26053D" stop-opacity=".762"/><stop offset="1" stop-color="#B7B4B4" stop-opacity=".278"/></linearGradient><linearGradient id="d" x1="31.244" x2="47.556" y1="35.2" y2="78.409" gradientUnits="userSpaceOnUse"><stop stop-color="#91739F" stop-opacity=".46"/><stop offset="1" stop-color="#32054F" stop-opacity=".54"/></linearGradient><linearGradient id="e" x1="68.114" x2="23.263" y1="90.906" y2="53.758" gradientUnits="userSpaceOnUse"><stop stop-color="#463D49" stop-opacity=".331"/><stop offset="1" stop-color="#340A50" stop-opacity=".821"/></linearGradient><linearGradient id="f" x1="57.014" x2="25.383" y1="32.647" y2="80.777" gradientUnits="userSpaceOnUse"><stop stop-color="#715383" stop-opacity=".145"/><stop offset="1" stop-color="#F4F4F4" stop-opacity=".234"/></linearGradient><linearGradient id="g" x1="62.267" x2="39.866" y1="44.545" y2="43.178" gradientUnits="userSpaceOnUse"><stop stop-color="#A5A1A8" stop-opacity=".356"/><stop offset="1" stop-color="#370C50" stop-opacity=".582"/></linearGradient></defs></svg>