<svg xmlns="http://www.w3.org/2000/svg" fill="none" viewBox="0 0 100 100"><path fill="#E05C43" d="M50 0c27.614 0 50 22.386 50 50s-22.386 50-50 50S0 77.615 0 50 22.386 0 50 0"/><path fill="#fff" fill-rule="evenodd" d="M50.988 18.85c6.443-.127 10.995 1.62 14.912 7.18 8.542 21.18-21.99 32.11-23.214 32.54l-.038.012s-.922 5.752 7.834 5.531c10.776 0 22.105-8.352 26.414-11.883a2.573 2.573 0 0 1 3.49.207l3.227 3.352a2.57 2.57 0 0 1 .067 3.508c-2.805 3.123-9.386 9.534-19.294 13.675 0 0-16.531 7.655-27.672.407-6.643-4.32-8.47-9.493-9.213-14.874.004 0-8.066-.41-13.248-2.433-5.183-2.025.038-8.133.038-8.133s1.594-2.526 4.625 0c3.034 2.522 8.696 1.384 8.696 1.384.504-3.983 1.344-9.24 3.815-14.789 5.182-11.629 13.117-15.558 19.561-15.683m3.792 11.653c-3.414-3.29-13.269 3.283-13.65 18.32 0 0 2.91.886 9.352-3.539 6.445-4.422 7.711-11.498 4.298-14.781" clip-rule="evenodd"/></svg>