<svg xmlns="http://www.w3.org/2000/svg" fill="none" viewBox="0 0 100 100"><path fill="#A90432" d="M15.68 69.294C7.92 61.069 3.379 49.707 3.39 36.151 3.38 24.16 7.146 13.856 13.622 6.015l-.01.003H0v63.277h15.671zm71.688.005c3.343-3.58 6.34-7.798 9.054-12.621l-15.066-7.533c-5.291 8.602-13.03 16.52-23.729 16.572-15.572-.052-21.69-13.369-21.657-30.508h58.192c.078-1.935.078-2.835 0-3.767.38-10.196-2.323-18.768-7.239-25.442l-.025.018H100v63.277H87.34zM36.912 20.52c.644-7.76 6.762-12.978 13.935-12.994 7.223.016 12.441 5.234 12.618 12.994z"/><path fill="#231F20" d="M8.286 80.03v-2.636H.188v15.63h8.098v-2.636H3.202v-4.143h4.896v-2.637H3.202V80.03zm13.748 6.403c2.019-.3 3.127-2.3 3.201-4.331-.074-3.324-2.228-4.699-5.273-4.709H15.82v15.631h3.013V86.81l3.767 6.214h3.766zm-3.202-6.592h.377c1.644.063 2.878.438 2.825 2.449.053 1.843-1.14 2.343-2.825 2.26h-.377zm16.95-2.447h-3.014v15.63h7.345v-2.636h-4.331zm19.774 12.429 1.318 3.201h3.201l-5.838-16.007H51.79l-6.215 16.007h3.202l1.318-3.201zm-.754-2.448h-3.766l1.695-5.838zm10.923 5.65h3.202V82.477L77.213 93.4h2.26V77.394H76.27V87.94l-8.286-10.923h-2.26zm26.93-8.287v2.448h3.39c-.07 1.968-1.68 3.635-3.578 3.578-2.996.057-4.481-2.84-4.52-5.461.039-2.587 1.503-5.608 4.52-5.65 1.584.042 2.922 1.125 3.578 2.449l2.637-1.319c-1.16-2.442-3.502-3.796-6.215-3.766-4.67-.03-7.66 3.824-7.721 8.286.061 4.35 2.968 8.226 7.533 8.286 4.93-.06 7.21-3.998 7.156-8.474v-.377z"/></svg>