<svg xmlns="http://www.w3.org/2000/svg" fill="none" viewBox="0 0 100 100"><path fill="#8080F2" d="m30.455 37.472 18.973-10.954a1.53 1.53 0 0 1 1.535 0l18.973 10.954a1.54 1.54 0 0 1 .767 1.33V60.71c0 .547-.293 1.054-.767 1.329L50.963 72.993a1.54 1.54 0 0 1-1.535 0L30.455 62.039a1.54 1.54 0 0 1-.768-1.33V38.802c0-.548.293-1.054.768-1.329"/><path fill="#4B32C3" d="M99.382 47.96 76.689 8.481c-.825-1.427-2.347-2.48-3.996-2.48H27.307c-1.649 0-3.172 1.053-3.996 2.48L.618 47.873a4.7 4.7 0 0 0 0 4.658l22.693 39.156c.824 1.427 2.347 2.157 3.996 2.157h45.386c1.648 0 3.171-.708 3.995-2.136l22.693-39.22a4.45 4.45 0 0 0 0-4.528M80.59 66.945c0 .58-.35 1.117-.853 1.408L50.832 85.03a1.65 1.65 0 0 1-1.635 0L20.27 68.353c-.503-.291-.855-.828-.855-1.409V33.59c0-.581.347-1.118.85-1.408L49.17 15.504a1.64 1.64 0 0 1 1.634 0l28.93 16.678c.504.29.858.827.858 1.408z"/></svg>