<svg xmlns="http://www.w3.org/2000/svg" viewBox="0 0 100 100"><path d="M100 77.484c-3.637.926-5.887.04-7.906-2.992l-14.356-19.86-2.074-2.75L58.898 74.56c-1.918 2.73-3.925 3.918-7.5 2.949l21.47-28.817-19.99-26.03c3.438-.669 5.813-.329 7.923 2.75L75.69 45.52l15-20c1.922-2.73 3.989-3.766 7.438-2.762l-7.75 10.277-10.5 13.672c-1.25 1.563-1.078 2.629.07 4.14ZM.023 48.211l1.758-8.64c4.782-17.094 24.375-24.196 37.887-13.633 7.898 6.21 9.86 15 9.469 24.843H4.625C3.957 68.5 16.711 79.195 32.969 73.738c5.703-1.918 9.062-6.383 10.742-11.968.855-2.801 2.266-3.239 4.898-2.438-1.343 6.988-4.375 12.824-10.78 16.477-9.571 5.468-23.235 3.699-30.423-3.899-4.281-4.41-6.05-9.996-6.843-15.972-.125-.989-.375-1.93-.563-2.876q.024-2.425.023-4.851m4.684-1.188H44.93c-.262-12.812-8.239-21.914-19.14-21.992-11.97-.093-20.563 8.79-21.083 21.992m0 0" stroke="none" fill-rule="nonzero" fill="#fff" fill-opacity="1"/></svg>