<svg xmlns="http://www.w3.org/2000/svg" fill="none" viewBox="0 0 100 100"><path fill="#3F00A5" d="M74.982 20.977c-6.186 2.065-9.165 5.769-11.194 11.537-.524 1.541-1.833 3.245-3.306 4.392l5.073 5.441-16.104-11.275L5 0s3.208 20.846 4.32 28.516c.786 5.408 2.128 7.833 6.384 10.292l1.702.917 7.332 3.868-4.354-2.262 20.098 10.98-.13.295-21.637-10.03c1.146 3.934 3.371 11.505 4.32 14.848 1.015 3.605 2.161 4.917 5.663 6.195l6.449 2.36 3.993-1.573-5.074 3.375L8.7 100c16.857-15.667 31.128-21.239 41.57-25.794 13.322-5.77 21.342-9.473 26.579-22.78 3.731-9.341 6.645-21.304 10.343-25.926l7.889-10.095s-16.333 4.327-20.098 5.572"/></svg>