<svg xmlns="http://www.w3.org/2000/svg" fill="none" viewBox="0 0 100 100"><path fill="url(#a)" d="M80.281 9.304c-2.432 2.832-3.569 9.214-1.099 15.676 2.466 6.467 6.25 5.063 8.608 11.657 3.113 8.697 1.662 20.387 1.662 20.387s3.743 10.834 6.35-.677c5.766-21.612-15.52-41.717-15.52-47.043"/><path fill="url(#b)" d="M50.584 99.056c24.922 0 45.11-20.302 45.11-45.329S75.505 8.397 50.607 8.397 5.522 28.696 5.522 53.728c-.047 25.055 20.164 45.33 45.062 45.33"/><path fill="url(#c)" d="M84.386 81.675a25 25 0 0 1-3.062 1.846 71 71 0 0 0 3.893-6.401c.962-1.067 1.84-2.1 2.559-3.217.348-.55.742-1.226 1.16-2.015 2.531-4.565 5.325-11.948 5.405-19.532v-.02c0-.187.005-.375 0-.558a26 26 0 0 0-.582-5.664l.056.437c-.023-.113-.042-.226-.066-.338.038.206.066.408.099.606.516 4.39.15 8.679-1.695 11.834-.029.047-.062.09-.09.137.958-4.8 1.278-10.102.212-15.41 0 0-.428-2.577-3.597-10.411-1.822-4.509-5.063-8.204-7.927-10.896-2.508-3.104-4.79-5.19-6.044-6.509-2.625-2.761-3.724-4.832-4.174-6.185-.39-.197-5.4-5.063-5.8-5.246-2.188 3.391-9.063 13.99-5.79 23.9 1.484 4.49 5.231 9.149 9.152 11.764.174.198 2.334 2.546 3.363 7.844 1.06 5.47.502 9.74-1.681 16.056-2.57 5.542-9.153 11.018-15.319 11.577-13.176 1.198-18.004-6.617-18.004-6.617 4.71 1.883 9.913 1.489 13.083-.465 3.193-1.973 5.123-3.438 6.687-2.86 1.545.573 2.775-1.094 1.672-2.823a7.98 7.98 0 0 0-8.068-3.513c-3.193.522-6.119 3.048-10.308.601a7 7 0 0 1-.784-.516c-.277-.183.897.277.625.07-.812-.441-2.254-1.409-2.63-1.751-.06-.057.634.22.568.164-3.911-3.222-3.423-5.4-3.3-6.768.098-1.094.807-2.493 2.004-3.062.578.315.94.56.94.56s-.25-.503-.38-.77c.046-.02.088-.015.135-.034.475.23 1.522.822 2.076 1.184.718.507.948.958.948.958s.188-.104.047-.545c-.051-.183-.267-.756-.981-1.339l.042.005q.643.366 1.207.836c.202-.728.564-1.493.484-2.855-.047-.958-.028-1.207-.197-1.578-.15-.32.084-.442.347-.113a3.5 3.5 0 0 0-.225-.751v-.024c.328-1.141 6.936-4.114 7.415-4.461a6.9 6.9 0 0 0 1.944-2.114c.366-.587.643-1.409.709-2.653.037-.897-.38-1.498-7.063-2.198-1.827-.179-2.897-1.503-3.508-2.724-.112-.263-.225-.502-.338-.742a5.4 5.4 0 0 1-.258-.855c1.094-3.137 2.925-5.79 5.625-7.796.146-.136-.587.033-.44-.098.173-.155 1.29-.606 1.502-.71.258-.122-1.104-.7-2.31-.558-1.226.136-1.49.286-2.142.563.272-.272 1.136-.624.935-.624-1.325.202-2.964.972-4.372 1.84-.005-.15.028-.3.084-.44-.653.276-2.263 1.399-2.728 2.352a5 5 0 0 0 .028-.55 9 9 0 0 0-1.343 1.405l-.023.023c-3.795-1.53-7.138-1.63-9.965-.944-.62-.62-.92-.169-2.33-3.26-.093-.187.076.184 0 0-.23-.6.141.8 0 0-2.366 1.87-5.48 3.983-6.973 5.477-.019.06 1.742-.498 0 0-.61.174-.568.535-.662 3.813-.024.25-.005.526-.024.752-1.192 1.521-2.005 2.808-2.315 3.475-1.545 2.663-3.245 6.81-4.893 13.37a34 34 0 0 1 2.62-5.123c-1.37 3.485-2.695 8.951-2.958 17.372a50 50 0 0 1 1.273-5.147 48.1 48.1 0 0 0 3.531 20.434c.949 2.32 2.517 5.837 5.184 9.697 8.387 8.825 20.216 14.32 33.318 14.32 13.693 0 25.978-5.983 34.416-15.489"/><path fill="url(#d)" d="M74.266 88.086c16.553-1.916 23.878-18.974 14.468-19.312-8.5-.268-22.31 20.218-14.468 19.312"/><path fill="url(#e)" d="M89.927 65.294c11.388-6.626 8.42-20.946 8.42-20.946s-4.396 5.105-7.382 13.244c-2.95 8.06-7.885 11.704-1.038 7.702"/><path fill="url(#f)" d="M53.773 96.558c15.877 5.067 29.523-7.444 21.113-11.62-7.65-3.766-28.646 9.224-21.113 11.62"/><path fill="url(#g)" d="M91.11 71.371c.385-.544.906-2.291 1.371-3.071 2.804-4.527 2.823-8.134 2.823-8.214 1.695-8.458 1.54-11.91.497-18.297-.84-5.143-4.503-12.511-7.677-16.057-3.274-3.654-.968-2.466-4.138-5.133-2.775-3.081-5.47-6.129-6.936-7.355C66.453 4.382 66.692 2.5 66.894 2.18l-.15.169c-.127-.503-.216-.92-.216-.92s-5.795 5.795-7.011 15.446c-.798 6.302 1.564 12.872 4.977 17.076a39 39 0 0 0 5.997 5.894v-.005c2.583 3.705 4.001 8.28 4.001 13.201 0 12.324-9.993 22.313-22.32 22.313-1.68 0-3.352-.188-4.991-.559-5.819-1.108-9.176-4.044-10.853-6.035-.958-1.141-1.366-1.972-1.366-1.972 5.212 1.869 10.974 1.474 14.477-.46 3.532-1.959 5.668-3.41 7.401-2.837 1.71.568 3.071-1.085 1.85-2.8-1.197-1.713-4.31-4.165-8.931-3.484-3.536.517-6.777 3.024-11.407.592a9 9 0 0 1-.868-.512c-.306-.178.99.272.69.07-.902-.436-2.498-1.395-2.912-1.733-.07-.056.7.221.63.165-4.33-3.199-3.79-5.354-3.654-6.711.108-1.085.897-2.47 2.221-3.034.639.315 1.038.554 1.038.554s-.272-.498-.422-.765c.051-.02.103-.015.15-.033a28 28 0 0 1 2.296 1.174c.794.502 1.047.953 1.047.953s.212-.103.057-.54c-.057-.178-.296-.751-1.085-1.33l.047.006q.706.36 1.334.83c.22-.722.62-1.479.535-2.831-.052-.949-.028-1.198-.216-1.564-.17-.315.094-.437.385-.113a3 3 0 0 0-.249-.746l.005-.024c.361-1.132 7.677-4.076 8.208-4.424a7.15 7.15 0 0 0 2.15-2.095c.41-.582.715-1.394.79-2.63.023-.558-.146-.995-2.085-1.418-1.165-.253-2.963-.497-5.734-.76-2.024-.179-3.207-1.494-3.884-2.706a13 13 0 0 0-.375-.732 5.5 5.5 0 0 1-.287-.85 16.1 16.1 0 0 1 6.237-7.735c.164-.132-.653.033-.489-.099.188-.155 1.428-.601 1.663-.704.286-.122-1.226-.695-2.555-.555-1.357.137-1.644.282-2.371.56.3-.268 1.258-.62 1.033-.616-1.465.202-3.283.963-4.837 1.827a.94.94 0 0 1 .094-.437c-.723.277-2.503 1.39-3.02 2.334q.035-.268.029-.544a9.3 9.3 0 0 0-1.485 1.39l-.028.023c-4.202-1.517-7.898-1.615-11.03-.934-.686-.616-1.785-1.55-3.344-4.612-.108-.183-.164.38-.244.197-.606-1.404-.972-3.705-.911-5.288 0 0-1.254.568-2.287 2.954-.193.427-.315.667-.437.902-.056.07.127-.785.099-.738-.179.305-.648.733-.85 1.282-.141.409-.338.64-.465 1.146l-.028.047c-.01-.15.037-.62.005-.521a24 24 0 0 0-1.25 3.034c-.558 1.836-1.206 4.33-1.31 7.58-.023.244-.004.521-.023.742-1.32 1.507-2.221 2.785-2.56 3.447-1.714 2.63-3.597 6.744-5.423 13.248a32.6 32.6 0 0 1 2.902-5.081C3.76 42.3 2.296 47.725 2 56.08c.366-1.728.84-3.433 1.409-5.105-.263 5.57.385 12.474 3.907 20.265 2.09 4.584 6.903 13.887 18.662 21.148 11.758 7.26 4 2.977 10.875 5.208a60 60 0 0 0 1.55.54q-.24-.1-.48-.207A49.2 49.2 0 0 0 52.032 100c17.802.015 23.052-7.133 23.052-7.133l-.052.037a15 15 0 0 0 .728-.737c-2.808 2.653-9.218 2.827-11.618 2.64 4.086-1.203 6.777-2.217 12.008-4.223.61-.225 1.24-.484 1.878-.775.07-.028.141-.065.207-.094.127-.06.253-.112.38-.178a35.5 35.5 0 0 0 7.143-4.471c5.254-4.199 6.396-8.29 6.997-10.985-.085.258-.343.86-.526 1.254-1.353 2.893-4.353 4.673-7.612 6.195a70 70 0 0 0 4.306-6.345c1.061-1.052 1.395-2.705 2.188-3.814"/><path fill="url(#h)" d="M84.714 81.407c2.142-2.362 4.067-5.062 5.523-8.129 3.752-7.885 9.547-20.998 4.982-34.687-3.611-10.82-8.565-16.738-14.853-22.52C70.147 6.684 67.292 2.495 67.292.002c0 0-11.796 13.154-6.682 26.867s15.595 13.216 22.527 27.53c8.156 16.847-6.603 35.228-18.808 40.375.747-.164 27.129-6.138 28.519-21.227-.028.277-.625 4.447-8.134 7.861"/><path fill="url(#i)" d="M50.532 32.457c.043-.892-.422-1.489-7.79-2.179-3.034-.282-4.194-3.08-4.546-4.264-1.08 2.803-1.521 5.739-1.282 9.299.165 2.329 1.728 4.827 2.475 6.297 0 0 .164-.216.244-.296 1.409-1.465 7.312-3.7 7.866-4.02.606-.385 2.935-2.085 3.033-4.837"/><path fill="url(#j)" d="M18.088 15.902c-.108-.183-.164.38-.244.198-.606-1.405-.972-3.678-.888-5.289 0 0-1.253.569-2.286 2.954a16 16 0 0 1-.437.902c-.056.07.127-.784.098-.737-.178.305-.648.733-.85 1.259-.168.432-.338.662-.47 1.197-.037.146.039-.643.006-.545-2.41 4.66-2.87 11.699-2.616 11.403 5.128-5.476 11.007-6.777 11.007-6.777-.62-.465-1.981-1.794-3.32-4.565"/><path fill="url(#k)" d="M37.553 73.189c-7.086-3.025-15.14-7.294-14.84-16.987.414-12.765 11.905-10.243 11.905-10.243-.432.103-1.592.93-2.005 1.813-.432 1.099-1.226 3.583 1.174 6.19 3.77 4.086-7.744 9.693 10.026 20.283.45.24-4.161-.15-6.26-1.056"/><path fill="url(#l)" d="M35.036 66.824c5.024 1.747 10.876 1.442 14.384-.493 2.347-1.305 5.353-3.4 7.208-2.883-1.602-.634-2.818-.93-4.278-1a8 8 0 0 1-.817-.033q-.804-.002-1.602.09c-.906.084-1.906.652-2.817.563-.047-.005.883-.385.808-.367-.484.099-1.01.123-1.564.193-.352.038-.658.084-1.005.099-10.467.887-19.31-5.673-19.31-5.673-.756 2.53 3.367 7.546 8.993 9.504"/><path fill="url(#m)" d="M84.696 81.473c10.584-10.393 15.942-23.026 13.674-37.2 0 0 .906 7.265-2.526 14.7 1.648-7.256 1.84-16.273-2.536-25.61-5.842-12.464-15.45-19.02-19.122-21.758-5.555-4.147-7.861-8.364-7.903-9.238-1.663 3.4-6.683 15.062-.54 25.103 5.757 9.406 14.825 12.2 21.17 20.828C98.61 64.2 84.695 81.473 84.695 81.473"/><path fill="url(#n)" d="M83.179 54.432c-3.7-7.642-8.317-10.976-12.684-14.592.507.709.634.963.915 1.423 3.847 4.095 9.514 14.094 5.396 26.638-7.748 23.618-38.732 12.497-41.981 9.374C36.139 90.94 59.013 97.483 73.909 88.62c8.476-8.026 15.332-21.664 9.27-34.19"/><defs><radialGradient id="a" cx="0" cy="0" r="1" gradientTransform="matrix(34.91406 1.55796 -2.29019 51.32333 94.309 25.007)" gradientUnits="userSpaceOnUse"><stop offset=".045" stop-color="#FFEA00"/><stop offset=".12" stop-color="#FFDE00"/><stop offset=".254" stop-color="#FFBF00"/><stop offset=".429" stop-color="#FF8E00"/><stop offset=".769" stop-color="#FF272D"/><stop offset=".872" stop-color="#E0255A"/><stop offset=".953" stop-color="#CC2477"/><stop offset="1" stop-color="#C42482"/></radialGradient><radialGradient id="b" cx="0" cy="0" r="1" gradientTransform="matrix(98.5004 0 0 98.5095 69.39 19.628)" gradientUnits="userSpaceOnUse"><stop stop-color="#00CCDA"/><stop offset=".22" stop-color="#0083FF"/><stop offset=".261" stop-color="#007AF9"/><stop offset=".33" stop-color="#0060E8"/><stop offset=".333" stop-color="#005FE7"/><stop offset=".438" stop-color="#2639AD"/><stop offset=".522" stop-color="#401E84"/><stop offset=".566" stop-color="#4A1475"/></radialGradient><radialGradient id="d" cx="0" cy="0" r="1" gradientTransform="rotate(5.67 -477.008 875.15)scale(33.224 33.2271)" gradientUnits="userSpaceOnUse"><stop offset=".003" stop-color="#FFEA00"/><stop offset=".497" stop-color="#FF272D"/><stop offset="1" stop-color="#C42482"/></radialGradient><radialGradient id="e" cx="0" cy="0" r="1" gradientTransform="matrix(55.21075 5.48157 -5.48202 55.21523 84.287 19.41)" gradientUnits="userSpaceOnUse"><stop offset=".003" stop-color="#FFE900"/><stop offset=".157" stop-color="#FFAF0E"/><stop offset=".316" stop-color="#FF7A1B"/><stop offset=".472" stop-color="#FF4E26"/><stop offset=".621" stop-color="#FF2C2E"/><stop offset=".762" stop-color="#FF1434"/><stop offset=".892" stop-color="#FF0538"/><stop offset="1" stop-color="#FF0039"/></radialGradient><radialGradient id="f" cx="0" cy="0" r="1" gradientTransform="matrix(50.6614 5.03006 -5.03046 50.66538 87.018 71.37)" gradientUnits="userSpaceOnUse"><stop offset=".003" stop-color="#FF272D"/><stop offset=".497" stop-color="#C42482"/><stop offset=".986" stop-color="#620700"/></radialGradient><radialGradient id="g" cx="0" cy="0" r="1" gradientTransform="matrix(79.4889 0 0 79.4963 74.681 40.047)" gradientUnits="userSpaceOnUse"><stop offset=".156" stop-color="#FFEA00"/><stop offset=".231" stop-color="#FFDE00"/><stop offset=".365" stop-color="#FFBF00"/><stop offset=".541" stop-color="#FF8E00"/><stop offset=".763" stop-color="#FF272D"/><stop offset=".796" stop-color="#F92433"/><stop offset=".841" stop-color="#E91C45"/><stop offset=".893" stop-color="#CF0E62"/><stop offset=".935" stop-color="#B5007F"/></radialGradient><radialGradient id="h" cx="0" cy="0" r="1" gradientTransform="matrix(93.8623 0 0 93.8709 68.7 .13)" gradientUnits="userSpaceOnUse"><stop offset=".279" stop-color="#FFEA00"/><stop offset=".402" stop-color="#FD0"/><stop offset=".63" stop-color="#FFBA00"/><stop offset=".856" stop-color="#FF9100"/><stop offset=".933" stop-color="#FF6711"/><stop offset=".994" stop-color="#FF4A1D"/></radialGradient><linearGradient id="c" x1="56.943" x2="37.485" y1="74.11" y2="10.464" gradientUnits="userSpaceOnUse"><stop stop-color="#000F43" stop-opacity=".4"/><stop offset=".485" stop-color="#001962" stop-opacity=".173"/><stop offset="1" stop-color="#002079" stop-opacity="0"/></linearGradient><linearGradient id="i" x1="3.863" x2="39.98" y1="39.133" y2="33.652" gradientUnits="userSpaceOnUse"><stop stop-color="#C42482" stop-opacity=".5"/><stop offset=".474" stop-color="#FF272D" stop-opacity=".5"/><stop offset=".486" stop-color="#FF2C2C" stop-opacity=".513"/><stop offset=".675" stop-color="#FF7A1A" stop-opacity=".72"/><stop offset=".829" stop-color="#FFB20D" stop-opacity=".871"/><stop offset=".942" stop-color="#FFD605" stop-opacity=".964"/><stop offset="1" stop-color="#FFE302"/></linearGradient><linearGradient id="j" x1="16.555" x2="12.455" y1="26.205" y2="11.509" gradientUnits="userSpaceOnUse"><stop stop-color="#891551" stop-opacity=".6"/><stop offset="1" stop-color="#C42482" stop-opacity="0"/></linearGradient><linearGradient id="k" x1="24.41" x2="32.842" y1="47.675" y2="59.438" gradientUnits="userSpaceOnUse"><stop offset=".005" stop-color="#891551" stop-opacity=".5"/><stop offset=".484" stop-color="#FF272D" stop-opacity=".5"/><stop offset="1" stop-color="#FF272D" stop-opacity="0"/></linearGradient><linearGradient id="l" x1="40.514" x2="41.28" y1="68.299" y2="60.738" gradientUnits="userSpaceOnUse"><stop stop-color="#C42482"/><stop offset=".083" stop-color="#C42482" stop-opacity=".81"/><stop offset=".206" stop-color="#C42482" stop-opacity=".565"/><stop offset=".328" stop-color="#C42482" stop-opacity=".362"/><stop offset=".447" stop-color="#C42482" stop-opacity=".204"/><stop offset=".562" stop-color="#C42482" stop-opacity=".091"/><stop offset=".673" stop-color="#C42482" stop-opacity=".023"/><stop offset=".773" stop-color="#C42482" stop-opacity="0"/></linearGradient><linearGradient id="m" x1="65.061" x2="96.128" y1="3.67" y2="73.134" gradientUnits="userSpaceOnUse"><stop stop-color="#FFF14F"/><stop offset=".268" stop-color="#FFEE4C"/><stop offset=".452" stop-color="#FFE643"/><stop offset=".612" stop-color="#FFD834"/><stop offset=".757" stop-color="#FFC41E"/><stop offset=".892" stop-color="#FFAB02"/><stop offset=".902" stop-color="#FFA900"/><stop offset=".949" stop-color="#FFA000"/><stop offset="1" stop-color="#FF9100"/></linearGradient><linearGradient id="n" x1="71.195" x2="56.478" y1="43.621" y2="83.13" gradientUnits="userSpaceOnUse"><stop stop-color="#FF8E00"/><stop offset=".04" stop-color="#FF8E00" stop-opacity=".858"/><stop offset=".084" stop-color="#FF8E00" stop-opacity=".729"/><stop offset=".13" stop-color="#FF8E00" stop-opacity=".628"/><stop offset=".178" stop-color="#FF8E00" stop-opacity=".557"/><stop offset=".227" stop-color="#FF8E00" stop-opacity=".514"/><stop offset=".282" stop-color="#FF8E00" stop-opacity=".5"/><stop offset=".389" stop-color="#FF8E00" stop-opacity=".478"/><stop offset=".524" stop-color="#FF8E00" stop-opacity=".416"/><stop offset=".676" stop-color="#FF8E00" stop-opacity=".314"/><stop offset=".838" stop-color="#FF8E00" stop-opacity=".172"/><stop offset="1" stop-color="#FF8E00" stop-opacity="0"/></linearGradient></defs></svg>