<svg xmlns="http://www.w3.org/2000/svg" fill="none" viewBox="-0.03 4.97 100.05 89.25"><path fill="#000" d="M29.883 84.435c-3.81-2.997-7.873-5.87-10.65-9.915C13.39 67.386 8.891 59.127 5.815 50.448 3.956 44.804 3.32 38.753.923 33.328c-2.507-3.942.43-8.25 4.747-9.502 1.921-.369 5.3-2.181 1.222-.886-3.657 2.684-4.011-2.435-.262-2.76 2.56-.34 3.502-2.435 2.626-4.32-2.746-1.792 6.662-3.76 1.928-6.434-4.932-5.32 6.898-6.344 3.98-.302-.7 4.646 8.266-.852 6.186 4.514 2.113 2.577 7.916.586 7.772 4.201 3.08.212 4.137 2.803 7.028 3.002 2.997 1.354 8.428 2.42 9.448 5.796-2.973 2.354-9.856-4.861-10.187 1.654.898 9.623.669 19.536 4.19 28.7 1.665 5.55 5.702 9.918 9.348 14.24 3.49 4.232 8.215 7.212 13.031 9.721 4.225 1.993 8.78 3.315 13.385 4.143 1.867-1.428 5.164-6.739 8.078-4.5.138 2.517-5.782 5.26-.279 4.983 3.232-.975 5.474 2.499 8.135-.635 2.452 2.905 10.192-1.856 8.447 4.081-2.359 1.523-5.8.602-8.162 2.697-3.896-1.947-6.998 1.74-11.312 1.274-4.79.858-9.662 1.205-14.519 1.212-7.967-.63-16.102-.895-23.682-3.669-4.268-1.24-8.436-3.671-12.188-6.103m6.728 2.915c4.17 1.803 8.246 3.703 12.815 4.276 7.25 1.008 14.735 2.559 22.01 1.144-3.293-1.486-6.697.58-9.977-1.062-3.934.846-8.155-.216-12.155-.74-4.548-2.025-9.456-3.418-13.715-6.047-5.322-1.945 2.752 2.492 4.19 2.851 3.326 1.889-3.659-.967-4.644-1.753-2.786-1.563-3.141-1.236-.276.351.578.338 1.147.692 1.752.98m-7.933-5.606c4.04 1.496-.018-2.841-1.868-2.59-.82-1.423-3.134-2.322-1.502-3.086-2.936 1.02-3.076-3.875-4.455-3.176-3.106-.98-1.209-4.454-4.908-6.587-.338-2.248-3.676-4.198-4.74-7.588-.47-1.737-3.771-6.721-1.743-2.082 1.726 4.466 4.763 8.291 7.291 12.11 1.963 3.638 4.28 7.44 7.855 9.71 1.206 1.155 2.369 2.926 4.07 3.288M17.04 68.965c.739 1.32.142-.61 0 0m16.477 14.571c.894-.4-1.287-.505 0 0m2.192.8c-.227-1.104-1 .618 0 0m2.746 1.145c1.307-1.244-2.014-.784 0 0m4.705 2.623c.794-1.174-2.542-.443 0 0m-9.034-6.299c2.03-1.313-2.623-.017 0 0m2.059 1.027c-.058-.694-.734.311 0 0m10.292 6.424c1.654 1.045 9.662 2.289 4.648.429-.84.176-9.297-2.393-4.648-.429m-16.34-12.725c-.16-.696-2.568-.77 0 0m4.792 2.792c1.247-.87-2.588-.67 0 0m4.03 2.471c1.79-.674-2.903-.677 0 0M28.188 74.41c1.94 1.488 7.83.19 2.973-.89-2.21-1.178-7.193-1.984-3.797.71zm13.5 8.24c.81-1.378-3.39-.787 0 0m-4.102-3.26c4.748 1.342-3.992-3.003-1.171-.495l.625.282zm8.226 4.753c4.496.043-4.061-.62 0 0M26.458 71.807c-.176-.837-1.11.07 0 0m26.96 16.602c.12-1.513-1.468 1.125 0 0M34.13 76.505c-.272-.796-1.404-.032 0 0m-7.246-5.224c2.581-.155-3.534-1.137 0 0m-8.585-5.549c-.32-1.237-2.808-2.224 0 0m22.537 14.302c-.223.118-.473-.539 0 0m14.027 8.608c-.045-.824-.764.312 0 0m-15.269-9.89c.253-1.062-2.201-.32 0 0m-10.45-6.623c1.92-.205-3.076-1.298 0 0m17.677 10.985c2.992-1.186-2.916-.579 0 0m-9.195-6.242c3.45.445-4.103-2.346-.756-.25zm11.987 7.37c3.22-1.925 2.159 4.508 5.463.544 3.26-2.38-2.815 2.943 1.202.424 2.906-1.943 7.197.922 9.908 1.856 1.949-.096 3.845 1.686 5.843.602 3.847-1.036-7.523-1.537-4.543-3.375-3.52 1.024-6.12-1.222-7.853-3.477-3.948-.911-8.514-2.93-10.485-6.425-.803-1.312 1.161.185-.694-1.96-2.379-2.116-3.567-4.518-5.164-7.09-1.908-1.019-2.13-4.015-2.324-.101.016-2.47-2.303-4.133-2.869-3.441-.01-2.38 2.481-1.187.737-2.947-.375-2.465-1.611-5.034-1.983-7.818-.578-1.342-.082-4.216-1.97-1.178-.688 3.21-.229-3.945.842-1.585 1.404-2.408-.505-2.125-.583-1.79.915-2.032.579-4.914-.24-3.814.489-2.154.771-7.925-.729-6.902.91-2.252 1.725-10.303-2.223-7.233-1.6.023-4.37.58-5.68 1.232 4.107 2.264-.413.818-2.085.458-.217 2.094-1.873 1.188-3.941 1.209 3.303.409-1.609 3.38-3.504 2.225-2.461 1.177 2.124 4.113.049 5.02.255 1.37-3.77-.493-3.455 2.668-2.39-1.005-.329 3.75.867 2.141 4.064 1.1 2.861 3.608 2.964 5.99-.662 1.388-3.27-3.263-.58-3.047-2.121-3.446-2.347-1.246-4.11.355-.41.116 4.497 2.278 1.418 3.346 2.709.418 2.786 2.789 3.338 4.288 1.627 1.696 1.294-1.872 3.242.166-1.233-1.815-6.53-5.115-2.265-4.057-.023-1.827-.771-3.3.535-3.265 1.294-2.343-1.354 5.778 1.562 2.799.807-.352 1.007-2.346 2.459.188 2.107 2.074.76 3.577-2.213 1.678.532 1.805 3.978 2.45 3.33 5.271.687 2.482 1.647 1.568 2.484 1.424.657 2.412 1.03.639 1.06-.509 3.007.644 2.303 2.421 3.244 3.663 2.072.935-2.966-6.339.591-2.187 3.743 3.378 1.404 4.789-1.955 4.248 2.126-.173 2.812 2.873 5.47 2.766 2.425 1.153 4.066 5.584-.113 3.739-1.449-1.307-6.579-2.92-2.389-.433 3.87 1.791 6.942 2.864 10.674 5.113 2.671 1.907 3.825 4.09 4.837 4.522-2.244 1.073-6.764-.856-3.408-1.447-2.093-.381-4.448-1.44-2.443 1.169 1.705 1.423 6.04 1.273 6.818 1.433-.66 1.453-1.79 1.568.027 1.68-2.027 1.08.65 1.248.837 1.865M45.47 72.54c-1.233-1.289-1.551-3.704-.219-1.603.684.275 2.19 3.947.22 1.603m13.496 8.573c.769-.05.022.584 0 0M43.522 69.379c.447 1.503-.047-1.95 0 0m-1.34-1.805c1.955.849-1.551-2.996 0 0M25.927 56.356c.91-.243.448 1.558 0 0m12.936 7.012c.657 1.763.56-2.102 0 0m-9.14-6.355c1.349 1.087-.643-1.16 0 0m7.844 2.514c-1.469-3.292 1.04-1.798.325.54zm-13.525-9.02c-.657-1.08-1.744-4.249-1.394-5.215.317 1.574 3.35 6.779 1.488 2.155-2.058-3.876 2.46 1.258 2.925 2.225.216.962-1.27-.263-.263 1.992-1.837-2.567-1.084 1.418-2.756-1.157m-4.18-2.88c.957 1.721.172-2.511 0 0m1.88.647c1.521 2.642.897-1.895 0 0m-4.523-3.5c-1.557-1.546-2.682-2.97.073-.959 1.062.042-2.36-3.241.255-1.042 2.75.5 1.358 4.507-.328 2.002m2.376-.061c.904-.896.48.881 0 0m1.462.469c1.662 1.076-1.37-2.569 0 0m-2.907-2.778c-4.524-4.026 5.686 2.105.74.746zm12.963 7.532c-1.958-1.174-.519-8.264.149-3.415 1.903-.616-.105 2.504 1.315 2.475-.224 1.969-.86 2.677-1.464.94m4.795 2.834c.404 1.46.192-2.137 0 0m-.833-.823c.215-.913.022 1.074 0 0M19.038 41.08c-2.906-4.01 8.447 4.057 1.861 1.017-.688-.18-1.516-.243-1.86-1.017m9.233 4.895c.614.56-.276-3.376 0 0m7.01 4.497c.542-1.923.04 1.272 0 0M19.483 39.55c1.728-.368 7.16 3.034 2.171.973-.554-.614-1.735-.335-2.17-.973m14.834 7.395c.185-3.453 1.031-2.062.006.494zM20.769 38.35c.703-1.032-1.869-4.668.37-1.304.968.769 2.802 1.288 1.183 1.61 2.546 2.248-.621.61-1.553-.306m12.815 7.516c.486-3.933.428 2.304 0 0m-14.285-11.15c.538-.23.284.717 0 0m3.343 1.99c1.587 2.013.86-1.805 0 0m9.428 5.245c.178 1.008-.009-.693 0 0m-.546-1.209c1.217 1.71-1.309-3.229 0 0m-.803-2.117c.746 1.676-.22-1.334 0 0m1.307-2.126c-.898-1.582 1.134-6.973 1.361-3.63-.948 2.606-.274 4.063.388.569 1.221-2.75-.264 5.426-1.749 3.061m1.344-8.018c.392-.48.087.58 0 0m-2.244 44.223c.067.296-.532-.465 0 0m4.623 2.338c2.572.66 2.559-.4.234-.714-1.25-1.164-5.194-2.397-1.663-.145.233.592.972.579 1.429.86m-9.13-6.064c1.416 1.056 5.336 2.994 2.018.403 1.118-1.301-2.142-1.993-1.06-2.862-2.751-1.683-2.17-1.534-.243-1.48-3.306-1.478.477-1.368.3-2.125-1.276-.252-6.332-2.248-3.357.164-3.024-1.542-.721.574-1.635.35-3.093-.842 2.754 2.356-.492 1.562 1.775 1.406 4.776 3.601.75 1.488-.53.763 2.881 1.92 3.718 2.5m4.835 2.778c5.88 1.894-2.883-2.315 0 0M56.207 86.75c.076-1.167-.803.995 0 0m2.544 1.07c1.357-1.314.056 2.094 2.248-.321.024-1.73-.068-2.75-2.52-.65-.675.374-.978 1.968.272.972M18.368 62.46c-.417-1.638-2.92-1.63 0 0m2.717 1.78c-1.01-1.673-3.6-1.515 0 0m15.454 9.32c1.509 1.34 6.93.983 1.833.165-.755-1.116-4.794-.847-1.833-.165m21.245 13.12c2.323-1.948-2.25.87 0 0m4.83 3.32c.015-.626-1 .274 0 0m.008-.876c2.571-2.725-2.492.161 0 0M11.687 56.866c-2.192-3.128-1.363-4.534-3.477-7.087-.4-1.953-3.626-6.384-1.668-1.69 1.793 2.746 2.325 6.997 5.145 8.777m50.129 31.393c4.731-3.059-1.942-1.333 0 0m3.611 1.414c2.37-2.034-1.498-.425 0 0m-47.864-30.67c.678-1.01-1.751-.13 0 0m47.11 29.704c2.294-1.479-.528-1.252-.416.136zM33.54 69.083c-.078-.998-1.211.086 0 0m1.924 1.108c-.611-1.236-.94.194 0 0m32.89 19.516c2.94-2.12-1.781-.406-.617.401zm-1.125-.544c2.394-2.007-2.528.889 0 0m5.75 3.829c1.608-1.077-1.953-.349 0 0M19.037 58.275c2.155.483 8.61 5.307 4.802.334-1.951-.578-.781-5.346-2.77-4.502 1.335 2.23 1.098 3.18-1.706 1.774-3.524-1.72-1.98.852-1.292 1.561-.938.214 1.242.815.965.833M9.22 50.522c.386-1.596-3.552-8.778-1.86-3.6.611 1.086.55 3.142 1.86 3.6M27.238 61.63c-.052-.13-1.11-.928 0 0m2.732.636c-.001-1.69-3.02-.686 0 0m23.678 14.927c-.452-1.155-1.785-.027 0 0m1.137.83c-.168-.646-.656.125 0 0m9.385 5.911c.903-.666-1.127-.085 0 0m-50.047-32.16c2.582-1-2.765-.713 0 0m37.44 23.588c-.028-1.672-1.645.414 0 0m-38.46-25.965c1.659-.56-1.534-.369 0 0m4.814 2.332c-.03-.55-.509.208 0 0m58.71 36.003c2.133-.433 6.993 1.085 7.778-.565-2.59-.064-8.96-1.828-9.261.42l.567.09zm-57.18-35.618c.037-1.693-1.32-.063 0 0M6.79 43.335c-.575-3.227-2.187-.489 0 0m3.018.759c.037-1.036-2.763-.933 0 0m1.724.847c-.39.51-.498-.404 0 0m10.853 6.961c.51-.469-1.21-.348 0 0m-12-8.872c-.292-2.437-3.496-.365 0 0m-6.188-4.014c-.088-1.125-.603.423 0 0m.92-.696c-.15-1.334-.79.17 0 0m5.085 3.036c2.15-.845-3.916-1.747-.44-.16zM78.26 83.394c1.376-1.262-1.75-.39 0 0m8.221 4.262c.552-1.632-1.388.214 0 0M10.724 38.69c.226-1.579-1.705.313 0 0m-7.236-4.848c-.389-2.228-.335-6.139 3.382-4.817-4.962.985 3.434 6.168 2.374 2.076 2.087.102 4.082-1.233 2.987.793 4.111-.454 6.961-4.019 10.932-3.52 3.094-.409 6.476-.719 9.809-1.964 2.741-.198 5.38-3.148 3.877-4.898-3.738-.316-7.65.152-11.78.973-4.578.951-8.737 2.76-13.355 3.536-4.502.605.905 1.666-.384 1.902-2.35.816 2.801 1.366-.305 2.225-1.919-.365-3.915-1.024-3.096-3.046-4.312.56-8.102 2.35-4.695 6.738zM13.88 28.55c1.01-3.725 5.416 3.065 1.657.494-.45-.335-1.188-.61-1.657-.494m.196-1.806c1.46-1.087.776.61 0 0m1.853.03c.132-1.715 4.243.907.678.617zm2.535-1.02c.926-1.081.266.963 0 0m.649-.434c1.54-1.852 8.728-1.183 3.467-.18-1.41-1.063-2.49.626-3.467.18m9.38-1.446c4.659 1.798-.235-5.059 0 0m2.66-.014c.974-2.55 3.776-1.024.45-.513.073.272-.097 1.316-.45.513M9.674 37.382c2.908-1.78-3.086-1.545 0 0m2.15.597c1.02-1.084-2.215-.44 0 0M5.49 33.484c1.66-1.277-1.966-.486 0 0m85.846 53.705c.048-1.48-1.27.667 0 0m-8.724-5.953c.248-1.705-1.12.149 0 0m11.122 6.527c2.323.008 7.038-.722 1.984-.72-.793.125-4.621.098-1.984.72m-80.02-50.828c1.88-.13 2.942-2.074-.363-1.962-5.121-.53 4.518 1.754-.657 1.1-.696.46.98.989 1.02.862m1.656.837c-.196-1.207-.58.642 0 0m1.964-5.236c.816-1.012-1.129-.27 0 0m-6.252-10.45c3.355-1.141 7.943-2.423 9.526.562-1.611-1.94-.65-3.85.873-1.013 2.153 2.87 3.23-1.306 1.83-2.268 1.596 1.982 3.411 2.92 1.069.125 2.545-3.062-5.097.4-6.834.366-.836.375-8.628 1.987-6.464 2.229m1.967-3.765c1.913-1.444 6.616.859 3.598-1.435-.295-.26-6.61 1.74-3.598 1.435m6.975.287c2.239.058-.966-3.007 1.702-1.618-.438-1.432-3.107-1.7-4.411-2.272-.738 1.309 1.502 3.908 2.709 3.891m-5.753-6.33c.775-1.05-1.357.532 0 0m2.851.682c3.609-.478-.92-1.553-.727-.038zM11.8 8.795c-2.541-3.317 4.778.557 2.196-2.916-2.172-1.73-4.26 1.947-2.197 2.916m32.606 17.562c1.165-2.066-4.811-2.784-.785-.732.37.124.287.875.785.732"/></svg>