<svg xmlns="http://www.w3.org/2000/svg" fill="none" viewBox="0 0 100 100"><path fill="url(#a)" fill-rule="evenodd" d="M69.928 17.342h11.515C91.685 17.342 100 25.658 100 35.9v40.489c0 10.242-8.315 18.557-18.557 18.557h-.908c-5.271-.824-7.557-2.405-9.323-3.742l-14.64-12.037a2.06 2.06 0 0 0-2.592 0l-4.756 3.911-13.396-11.014a2.056 2.056 0 0 0-2.59 0l-18.61 16.37c-3.745 3.047-6.223 2.484-7.83 2.308C2.65 87.336 0 82.169 0 76.389v-40.49c0-10.241 8.315-18.557 18.558-18.557h11.49l-.021.047-.387 1.129-.121.387-.521 2.313-.072.406-.23 2.316-.03.636-.004.223.021 1.062.053.622.129.975.164.877.195.807.254.875.657 1.851.217.555 1.145 2.42.404.742 1.324 2.273.507.82 1.848 2.72.266.361 2.405 3.13.777.963 2.745 3.21.564.617 2.263 2.434.896.928 1.482 1.472-.298.248-.185.167q-.755.704-1.427 1.49-.323.381-.614.785-.445.619-.793 1.296a8 8 0 0 0-.318.72 6.7 6.7 0 0 0-.43 1.956l-.008.579a6.9 6.9 0 0 0 .49 2.378 6.6 6.6 0 0 0 1.323 2.075c.412.438.88.82 1.395 1.135a7 7 0 0 0 1.388.656 7.8 7.8 0 0 0 3.28.373h.005a7.4 7.4 0 0 0 2.704-.803 7 7 0 0 0 1.033-.668 6.6 6.6 0 0 0 2.083-2.77 6.9 6.9 0 0 0 .493-2.677l-.027-.479a6.7 6.7 0 0 0-.448-1.843 8 8 0 0 0-.347-.752q-.36-.677-.816-1.293a14 14 0 0 0-.431-.551 18 18 0 0 0-1.593-1.669l-.401-.341.678-.67 2.916-3.045 1.009-1.107 1.567-1.764 1.02-1.192 1.454-1.771.984-1.237 1.446-1.933.73-1 1.035-1.548.862-1.32 1.625-2.829.929-1.856.027-.057.711-1.723.025-.068.766-2.39.08-.348.332-1.902.065-.515.02-.316.023-1.191-.006-.222-.061-1.067-.076-.828-.377-2.388a1 1 0 0 0-.022-.096l-.485-1.765-.167-.491zm5.474 50.492a4.46 4.46 0 0 0-4.397 4.397 4.46 4.46 0 0 0 4.397 4.395 4.464 4.464 0 0 0 4.398-4.395 4.46 4.46 0 0 0-4.398-4.397" clip-rule="evenodd"/><path fill="#000" fill-rule="evenodd" d="m43.408 93.357-.776.652a4.06 4.06 0 0 1-2.546.928h-21.53a18.5 18.5 0 0 1-11.758-4.204c1.606.177 4.084.74 7.829-2.306l18.607-16.37a2.06 2.06 0 0 1 2.59 0L49.22 83.07l4.755-3.91a2.07 2.07 0 0 1 2.592 0l14.638 12.036c1.767 1.336 4.053 2.916 9.323 3.74H70.79a4.13 4.13 0 0 1-2.39-.796l-.171-.131-.722-.6a1.5 1.5 0 0 0-.193-.195c-.818-.685-11.19-9.277-11.19-9.277a1.22 1.22 0 0 0-1.56.002s.026.032-11.008 9.275a1.4 1.4 0 0 0-.147.143m31.986-25.529a4.48 4.48 0 0 0-4.397 4.396 4.48 4.48 0 0 0 4.397 4.395 4.48 4.48 0 0 0 4.397-4.395 4.48 4.48 0 0 0-4.397-4.396m-28.421-13.32-1.481-1.471-.897-.928-2.263-2.435-.564-.617-2.744-3.209-.777-.963-2.404-3.13-.267-.36-1.848-2.72-.506-.82-1.324-2.273-.405-.743-1.144-2.418-.217-.555-.657-1.851-.253-.875-.195-.808-.164-.876-.13-.975-.052-.622-.022-1.062.005-.223.03-.636.23-2.315.071-.406.522-2.313.119-.387.387-1.13.125-.292.616-1.354.427-.806.596-.982.593-.874.423-.556.487-.587.536-.59.459-.46 1.118-.984.817-.669.061-.046.967-.654.769-.49 1.46-.768q.034-.02.07-.036l2.068-.858.191-.072 1.84-.538.776-.175 1.05-.21.697-.106 1.068-.133.728-.065 1.446-.076.566-.006 1.074.022.279.015 1.554.13 2.054.29.238.05 2.032.505.596.178.663.229.807.305.639.27.937.443.591.303 1.062.624.396.243 1.448 1.058.416.36 1.008.918.05.05.856.919.295.332 1.005 1.335.204.32.798 1.346.24.462.45 1.005.47 1.173.167.49.484 1.767q.014.046.022.095l.378 2.388.075.827.061 1.067.006.222-.023 1.19-.02.316-.064.515-.332 1.903-.08.348-.767 2.39-.024.068-.711 1.723-.027.057-.93 1.855-1.624 2.83-.863 1.318-1.034 1.548-.73 1-1.445 1.933-.984 1.238-1.455 1.77-1.019 1.192-1.568 1.763-1.008 1.108-2.916 3.044-.677.67.4.341a18 18 0 0 1 1.593 1.669q.222.27.43.552.456.615.817 1.29.194.367.347.754c.233.59.39 1.213.448 1.842l.027.479a6.9 6.9 0 0 1-.493 2.677 6.6 6.6 0 0 1-2.083 2.77q-.487.38-1.033.668a7.4 7.4 0 0 1-2.703.803h-.006a7.8 7.8 0 0 1-3.279-.372 7.2 7.2 0 0 1-1.388-.657 6.7 6.7 0 0 1-1.395-1.135 6.7 6.7 0 0 1-1.322-2.074 6.9 6.9 0 0 1-.491-2.38l.008-.578c.044-.67.19-1.33.43-1.956q.141-.369.318-.72.349-.676.793-1.294.292-.404.614-.785.672-.786 1.427-1.49l.186-.167z" clip-rule="evenodd"/><path fill="#fff" fill-rule="evenodd" d="m42.632 94.009 11.931-10.07a1.22 1.22 0 0 1 1.56-.002L68.228 94.01a4.13 4.13 0 0 0 2.605.928h-30.79c.944 0 1.86-.328 2.589-.928m7.427-35.944.117.034c.038.018.07.044.103.067l.098.086q.362.334.7.693.239.255.462.524.284.342.526.715.104.163.195.336.079.151.141.308c.073.183.128.375.145.572l-.004.367a2.1 2.1 0 0 1-.995 1.636 2.84 2.84 0 0 1-1.21.398l-.455.014-.383-.034a3 3 0 0 1-.528-.128 2.5 2.5 0 0 1-.499-.234l-.3-.22a2.05 2.05 0 0 1-.682-1.168 3 3 0 0 1-.035-.232l-.011-.35q.01-.144.041-.283.08-.308.223-.592.184-.355.42-.681.389-.526.841-1 .29-.308.6-.594l.147-.133c.102-.067.103-.067.22-.101zm-.754-48.9.048-.003v41.003l-.103-.189a115 115 0 0 1-3.767-7.633 82 82 0 0 1-2.556-6.4 51 51 0 0 1-1.541-5.27c-.323-1.416-.571-2.853-.674-4.305q-.06-.93-.035-1.861.015-.81.066-1.62.079-1.273.264-2.535.147-.993.37-1.972.18-.777.417-1.537.343-1.095.822-2.14.176-.379.374-.746c.792-1.467 1.866-2.818 3.273-3.72a6.8 6.8 0 0 1 3.042-1.072m5.317.104 2.758.787a17 17 0 0 1 3.638 1.852 14.6 14.6 0 0 1 3.913 3.903 14.8 14.8 0 0 1 1.514 2.92c.573 1.519.929 3.11 1.054 4.728q.055.637.066 1.274c.01.395.007.79-.024 1.186a13.3 13.3 0 0 1-.496 2.606 21 21 0 0 1-.715 2.051 30 30 0 0 1-1.135 2.452c-.918 1.775-1.977 3.474-3.11 5.117a80 80 0 0 1-4.485 5.853 111 111 0 0 1-5.38 5.964 114 114 0 0 0 3.54-7.246 90 90 0 0 0 1.723-4.15 65 65 0 0 0 1.604-4.665c.353-1.18.665-2.373.922-3.578.22-1.034.393-2.08.5-3.13.09-.877.123-1.76.101-2.639a38 38 0 0 0-.06-1.613c-.128-2.162-.457-4.318-1.088-6.392a19 19 0 0 0-.87-2.305c-.807-1.759-1.934-3.402-3.459-4.601z" clip-rule="evenodd"/><defs><radialGradient id="a" cx="0" cy="0" r="1" gradientTransform="translate(53.096 55.806)scale(72.4412)" gradientUnits="userSpaceOnUse"><stop stop-color="#BA7BF0"/><stop offset=".45" stop-color="#996BEC"/><stop offset="1" stop-color="#5046E4"/></radialGradient></defs></svg>