<svg xmlns="http://www.w3.org/2000/svg" fill="none" viewBox="0 0 100 100"><path fill="#744C9E" d="M50 0C22.384 0 0 22.385 0 50c0 27.617 22.384 50 50 50s50-22.383 50-50c0-27.615-22.384-50-50-50M10.744 50.52 49.48 89.258C28.208 88.98 11.02 71.793 10.744 50.52m48.044 37.756L11.724 41.213C15.716 23.76 31.336 10.737 50 10.737c13.044 0 24.604 6.364 31.744 16.155l-5.436 4.797C70.516 23.385 60.892 17.949 50 17.949c-13.868 0-25.68 8.807-30.144 21.135l41.06 41.057c9.972-3.613 17.64-12.029 20.208-22.453H64.108v-7.687h25.16c-.004 18.664-13.028 34.284-30.48 38.276"/></svg>