<svg xmlns="http://www.w3.org/2000/svg" fill="none" viewBox="0 0 100 100"><path fill="#00ACD7" d="M7.547 42.313c-.195 0-.244-.098-.146-.244l1.022-1.314c.097-.146.34-.244.536-.244H26.34c.195 0 .244.146.146.293l-.827 1.265c-.098.146-.341.293-.487.293zm-7.352 4.48c-.195 0-.244-.098-.146-.244l1.022-1.315c.098-.146.341-.243.536-.243h22.202c.194 0 .292.146.243.292l-.39 1.168c-.048.195-.243.293-.438.293zm11.782 4.479c-.194 0-.243-.146-.146-.292l.682-1.218c.097-.146.292-.292.487-.292h9.738c.194 0 .292.146.292.34l-.098 1.17c0 .194-.194.34-.34.34zm50.539-9.835c-3.067.779-5.161 1.363-8.18 2.142-.73.195-.779.243-1.412-.487-.73-.828-1.266-1.363-2.288-1.85-3.067-1.51-6.037-1.071-8.813.73-3.31 2.142-5.014 5.307-4.966 9.25.049 3.896 2.727 7.11 6.573 7.645 3.31.438 6.086-.73 8.277-3.213.438-.536.828-1.12 1.315-1.802h-9.397c-1.023 0-1.266-.633-.925-1.46.633-1.51 1.801-4.042 2.483-5.308.146-.292.487-.779 1.217-.779h17.723c-.098 1.315-.098 2.63-.293 3.944-.535 3.506-1.85 6.72-3.992 9.543-3.505 4.626-8.082 7.498-13.876 8.277-4.772.633-9.202-.292-13.097-3.213-3.603-2.727-5.648-6.33-6.184-10.81-.633-5.306.925-10.078 4.139-14.265 3.457-4.528 8.033-7.4 13.633-8.423 4.576-.828 8.958-.292 12.902 2.386 2.58 1.704 4.43 4.04 5.648 6.865.292.438.097.681-.487.828"/><path fill="#00ACD7" d="M78.632 68.361c-4.43-.097-8.472-1.363-11.88-4.284-2.873-2.483-4.674-5.648-5.258-9.397-.877-5.502.632-10.37 3.943-14.704 3.555-4.674 7.84-7.109 13.633-8.131 4.966-.876 9.64-.39 13.876 2.483 3.847 2.63 6.232 6.183 6.865 10.858.828 6.572-1.07 11.928-5.599 16.505-3.213 3.262-7.157 5.307-11.685 6.232-1.315.243-2.63.292-3.895.438m11.588-19.67c-.05-.633-.05-1.12-.146-1.607-.877-4.82-5.308-7.546-9.933-6.475-4.528 1.022-7.45 3.895-8.52 8.472-.877 3.797.973 7.644 4.479 9.202 2.678 1.168 5.356 1.022 7.936-.292 3.847-1.997 5.94-5.113 6.184-9.3"/></svg>