<svg xmlns="http://www.w3.org/2000/svg" fill="none" viewBox="0 0 100 100"><path fill="url(#a)" d="M96.362 44.227c-.177-1.599-.355-3.552-1.066-5.684q-.799-3.197-2.664-6.927t-4.796-7.46c-.71-.888-1.598-1.954-2.664-2.842 1.42-5.684-1.776-10.48-1.776-10.48-5.329-.355-8.881 1.599-10.125 2.665-.177 0-.355-.178-.71-.356a49 49 0 0 0-2.842-1.065c-1.065-.355-1.954-.533-3.02-.888-1.065-.178-2.131-.355-3.019-.533h-.533C60.837 3.197 54.088 0 54.088 0c-7.46 4.795-8.88 11.367-8.88 11.367v.355c-.356.178-.889.178-1.244.356-.533.177-1.065.355-1.776.533-.533.177-1.066.355-1.776.71-1.066.533-2.31 1.066-3.375 1.599-1.066.533-2.131 1.243-3.197 1.954-.178 0-.178-.178-.178-.178-10.48-3.908-19.715.888-19.715.888-.889 11.012 4.085 18.117 5.15 19.36-.177.711-.532 1.421-.71 2.132-.71 2.487-1.421 5.15-1.776 7.815 0 .356-.178.71-.178 1.066C6.842 52.753 4 62.522 4 62.522c7.993 9.236 17.407 9.769 17.407 9.769 1.243 2.132 2.486 4.085 4.085 6.039.71.71 1.42 1.599 1.954 2.309-2.842 8.348.355 15.275.355 15.275 8.88.356 14.742-3.907 15.986-4.973.888.355 1.776.533 2.664.888 2.664.71 5.506 1.066 8.348 1.243h3.375C62.437 99.112 69.719 100 69.719 100c5.329-5.507 5.506-11.013 5.506-12.256v-.356c1.066-.71 2.132-1.598 3.198-2.486 2.13-1.954 3.907-4.085 5.506-6.394.177-.178.355-.356.355-.71 6.039.354 10.124-3.73 10.124-3.73-1.065-6.218-4.618-9.237-5.329-9.77h-.177v-7.46c-.178-.71-.178-1.421-.355-1.954-.71-2.664-1.599-5.15-3.02-7.46-1.42-2.309-3.02-4.263-4.973-6.039-1.954-1.776-4.085-3.02-6.394-4.085-2.31-1.066-4.619-1.599-7.105-1.954-1.244-.178-2.31-.178-3.553-.178h-1.776c-.533 0-1.243.178-1.776.178-2.309.355-4.618 1.243-6.572 2.487s-3.73 2.664-5.15 4.263c-1.422 1.598-2.488 3.552-3.198 5.506s-1.066 3.907-1.243 5.861v2.842c.177.888.355 1.954.532 2.842.533 1.776 1.421 3.375 2.31 4.796 1.065 1.42 2.309 2.487 3.552 3.374 1.243.889 2.664 1.599 4.085 1.954s2.665.533 4.086.533h2.309c.177 0 .355 0 .532-.178.355 0 .533-.177.888-.177.533-.178 1.066-.355 1.6-.71.532-.178.887-.533 1.42-.889.177 0 .178-.177.355-.355.533-.355.533-1.065.178-1.42-.355-.356-.888-.534-1.243-.179-.178 0-.178.178-.356.178-.355.178-.71.356-1.243.533-.355.178-.888.178-1.244.355h-2.841c-1.066-.177-1.954-.355-3.02-.888-1.065-.355-1.954-1.065-2.842-1.776-.888-.71-1.598-1.776-2.131-2.664s-1.066-2.132-1.244-3.375c-.177-.533-.177-1.243-.177-1.776v-.888c0-.355 0-.711.177-1.066.533-2.665 1.777-5.151 3.908-7.282.533-.533 1.066-.889 1.599-1.422.532-.355 1.243-.71 1.776-1.065.71-.355 1.42-.533 1.954-.71.71-.178 1.42-.356 2.13-.356h2.133c.71 0 1.598.178 2.308.355 1.599.355 3.02.888 4.441 1.776 2.842 1.599 5.151 4.086 6.75 6.928.71 1.42 1.243 3.02 1.598 4.618 0 .355.178.888.178 1.243v2.842c0 .533 0 .888-.178 1.42 0 .356-.177.89-.177 1.244 0 .356-.178.889-.356 1.244-.178.888-.533 1.776-.888 2.486a32.3 32.3 0 0 1-2.664 4.796c-2.132 2.842-4.973 5.329-8.348 6.75-1.599.71-3.375 1.243-5.151 1.598-.888.178-1.776.178-2.665.355h-2.663c-1.954-.177-3.908-.532-5.685-1.065s-3.73-1.244-5.328-2.132c-3.375-1.776-6.395-4.263-8.881-7.282-1.244-1.421-2.31-3.02-3.02-4.796a33.3 33.3 0 0 1-2.131-5.328c-.533-1.776-.888-3.73-.888-5.506v-3.375c0-.888.177-1.954.177-2.842.178-.889.356-1.954.533-2.842s.356-1.954.71-2.842c.534-1.776 1.244-3.553 1.954-5.329 1.6-3.374 3.553-6.394 6.04-8.703.532-.533 1.243-1.243 1.953-1.776s1.421-1.066 2.132-1.421c.71-.533 1.42-.888 2.131-1.244l1.066-.532c.178 0 .355-.178.533-.178s.355-.178.533-.178c.71-.355 1.598-.533 2.309-.888.177 0 .355-.177.533-.177.177 0 .355-.178.532-.178.356-.178.889-.178 1.244-.355.177 0 .355-.178.71-.178.178 0 .356 0 .71-.178.179 0 .356 0 .711-.177h.711c.177 0 .355 0 .71-.178.178 0 .533 0 .711-.177h6.216q2.399 0 4.796.532c3.02.533 5.862 1.6 8.526 2.842a27.7 27.7 0 0 1 6.927 4.619l.355.355.355.355c.178.178.533.355.71.71.179.356.534.356.712.711s.532.533.71.71a18 18 0 0 1 2.31 2.842c1.42 1.776 2.663 3.73 3.551 5.507 0 .177.178.177.178.355 0 .177.178.177.178.355.177.178.177.355.355.71.178.178.178.356.355.711.178.178.178.355.355.71.356.889.711 1.6.888 2.31.356 1.243.71 2.308.889 3.197.177.355.532.71.888.533.355 0 .71-.355.71-.711.71-2.131.71-3.375.533-4.618"/><defs><linearGradient id="a" x1="50.519" x2="50.519" y1="127.024" y2="11.341" gradientUnits="userSpaceOnUse"><stop stop-color="#FFF100"/><stop offset="1" stop-color="#F05A28"/></linearGradient></defs></svg>