<svg xmlns="http://www.w3.org/2000/svg" fill="none" viewBox="0 0 100 100"><path fill="#000" fill-rule="evenodd" d="M53.478 2.179a3.943 3.943 0 0 1-1.763 5.29L12.76 26.948 50 45.567 87.232 26.95l-14.226-7.098-21.269 10.622a3.945 3.945 0 0 1-5.552-4.778 3.94 3.94 0 0 1 2.029-2.277l23.029-11.503a3.94 3.94 0 0 1 3.522 0l23.053 11.502a3.943 3.943 0 0 1 .002 7.055L51.814 53.476a3.94 3.94 0 0 1-1.811.418 3.9 3.9 0 0 1-1.816-.416L2.18 30.473a3.944 3.944 0 0 1 0-7.054L48.187.416a3.944 3.944 0 0 1 5.291 1.763m-53 68.996A3.945 3.945 0 0 1 5.77 69.41l44.244 22.123L94.256 69.41a3.944 3.944 0 0 1 3.528 7.056L51.776 99.469a3.94 3.94 0 0 1-3.527 0L2.241 76.466a3.945 3.945 0 0 1-1.763-5.291" clip-rule="evenodd"/><path fill="#000" fill-rule="evenodd" d="M.478 48.169a3.944 3.944 0 0 1 5.291-1.764l44.244 22.122 44.243-22.122a3.943 3.943 0 0 1 3.528 7.054L51.776 76.464a3.95 3.95 0 0 1-3.527 0L2.241 53.46a3.944 3.944 0 0 1-1.763-5.291" clip-rule="evenodd"/></svg>