<svg xmlns="http://www.w3.org/2000/svg" fill="none" viewBox="0 0 100 100"><path fill="#E535AB" fill-rule="evenodd" d="M58.972 11.445 79.507 23.3a9 9 0 0 1 2.02-1.598c4.259-2.448 9.69-.995 12.164 3.264 2.449 4.259.995 9.69-3.264 12.165a9 9 0 0 1-2.372.944v23.721c.823.2 1.613.516 2.347.939 4.284 2.473 5.738 7.905 3.264 12.164-2.448 4.259-7.906 5.713-12.165 3.265a8.8 8.8 0 0 1-2.2-1.787L58.89 88.16a9 9 0 0 1 .449 2.805c0 4.897-3.978 8.9-8.9 8.9a8.89 8.89 0 0 1-8.9-8.9c0-.874.125-1.72.36-2.518L21.37 76.595a9 9 0 0 1-1.992 1.57c-4.284 2.448-9.716.994-12.164-3.265s-.995-9.69 3.264-12.165a9 9 0 0 1 2.346-.938V38.076a9 9 0 0 1-2.371-.944c-4.26-2.448-5.713-7.906-3.265-12.165s7.906-5.712 12.165-3.264a9 9 0 0 1 2.01 1.588l20.54-11.86a9 9 0 0 1-.363-2.53c0-4.922 3.978-8.9 8.9-8.9s8.9 3.978 8.9 8.9c0 .884-.129 1.738-.368 2.544m-2.14 3.653 20.585 11.884a8.9 8.9 0 0 0 .846 6.885 8.85 8.85 0 0 0 5.56 4.188v23.751q-.174.043-.345.092L56.594 15.336q.121-.117.239-.238m-12.54.243L17.408 61.902a9 9 0 0 0-.35-.093V38.055a8.85 8.85 0 0 0 5.559-4.188 8.9 8.9 0 0 0 .842-6.898l20.578-11.88q.124.128.255.252m8.635 2.11L79.804 64a8.9 8.9 0 0 0-2.505 4.345H23.58A9 9 0 0 0 22.643 66a9 9 0 0 0-1.565-1.987l26.883-46.56c.806.231 1.64.349 2.479.348.863 0 1.698-.122 2.487-.35m4.095 67.52 20.45-11.808a9 9 0 0 1-.164-.584H23.57q-.044.173-.092.345l20.55 11.865a8.87 8.87 0 0 1 6.412-2.723 8.88 8.88 0 0 1 6.582 2.904" clip-rule="evenodd"/></svg>