<svg xmlns="http://www.w3.org/2000/svg" fill="none" viewBox="0 0 100 100"><path fill="url(#a)" d="M90.41 41.322c4.81-.232 9.067 3.5 9.482 8.313 1.799 23.287-19.13 49.33-49.162 50.164-4.813.134-8.822-3.67-8.956-8.497-.133-4.827 3.66-8.847 8.473-8.981 19.924-.554 32.546-17.763 31.873-31.848-.23-4.823 3.48-8.92 8.29-9.151"/><path fill="url(#b)" d="M8.811 40.826c4.815 0 8.718 3.914 8.718 8.742 0 20.153 16.204 33.195 32.388 32.795 4.814-.118 8.812 3.698 8.93 8.525s-3.687 8.836-8.5 8.955c-25.31.624-50.34-19.639-50.34-50.275 0-4.828 3.989-8.742 8.804-8.742"/><path fill="url(#c)" d="M68.63 50.246c0-4.943 4.033-8.95 9.007-8.95H90.76c4.975 0 9.131 4.007 9.131 8.95 0 4.944-4.156 8.95-9.13 8.95H77.636c-4.974 0-9.006-4.006-9.006-8.95"/><path fill="url(#d)" d="M41.093 50.26c0-4.951 4.006-8.964 8.942-8.964 4.937 0 8.944 4.013 8.944 8.963s-4.007 8.964-8.944 8.964c-4.936 0-8.942-4.014-8.942-8.964"/><path fill="url(#e)" d="M58.731 8.38c.2 4.823-3.538 8.896-8.35 9.097-20.766.865-33.445 17.187-32.828 32.686.193 4.824-3.474 8.891-8.285 9.084-4.81.193-9.042-3.701-9.234-8.526C-.97 25.465 20.058.498 49.658.007c4.811-.2 8.873 3.548 9.072 8.372z"/><defs><linearGradient id="a" x1="53.962" x2="80.981" y1="120.727" y2="124.2" gradientUnits="userSpaceOnUse"><stop stop-color="#1A7D75"/><stop offset="1" stop-color="#1A8864"/></linearGradient><linearGradient id="b" x1="3.466" x2="-10.254" y1="47.388" y2="83.459" gradientUnits="userSpaceOnUse"><stop offset=".013" stop-color="#168A81"/><stop offset="1" stop-color="#31A97F"/></linearGradient><linearGradient id="c" x1="23.521" x2="35.809" y1="50.861" y2="69.494" gradientUnits="userSpaceOnUse"><stop stop-color="#27A59B"/><stop offset="1" stop-color="#64D8A2"/></linearGradient><linearGradient id="d" x1="15.44" x2="40.301" y1="52.136" y2="73.673" gradientUnits="userSpaceOnUse"><stop stop-color="#27A59B"/><stop offset="1" stop-color="#64D8A2"/></linearGradient><linearGradient id="e" x1="122.673" x2="50.451" y1="-84.094" y2="-108.472" gradientUnits="userSpaceOnUse"><stop stop-color="#27A59B"/><stop offset="1" stop-color="#64D8A2"/></linearGradient></defs></svg>