<svg xmlns="http://www.w3.org/2000/svg" fill="none" viewBox="0 0 100 100"><g clip-path="url(#a)"><path fill="#FBA919" d="M18.027 24.23s1.707 6.585 1.95 8.78c.245 2.195-4.39 7.073-4.39 9.512s.975 6.829 6.341 9.024 6.098 7.804 6.098 11.22c0 3.414-1.951 9.999-1.951 9.999s-1.22 16.34 5.365 19.267 5.122 2.926 6.585 2.926 12.194 4.392 18.535 2.684c6.341-1.707 8.047-3.658 8.047-3.658s6.342.487 8.293-5.123c1.952-5.61 3.17-17.316 2.439-22.681-.732-5.367-1.707-12.438 2.682-14.878 4.392-2.439 9.025-5.364 8.293-7.804s-4.633-5.854-4.633-5.854-.976-6.096-.245-7.56c.732-1.463 5.122-5.123 2.683-7.805s-6.829-2.682-6.829-2.682l-5.609.487s-9.512-8.536-21.95-8.048-20.243 8.048-20.243 8.048-4.146-1.463-7.804 0c-3.66 1.464-4.389 0-3.657 4.146"/><path fill="#E78724" d="M40.312 60.543s-4.83 7.384-8.372 12.625c-.549.811 3.542.867 3.542.867zm2.3-15.311s-1.456 3.632-2.254 5.557c-.865 2.094-4.166 3.135-4.166 3.135s1.71-1.795 1.71-6.34c0-1.908 2.463-2.667 2.463-2.667z"/><path fill="#E78724" d="M41.14 47.285s-2.982 3.551-8.52 1.562c-5.54-1.988-6.108-9.09-6.108-11.078 0-1.989 10.51 1.988 11.931 2.84 1.42.853 4.118 4.261 2.698 6.676M20.22 9.344s5.113-.995 8.52 1.704c3.41 2.698 4.404 4.83 4.404 4.83l-5.745 4.553s-2.777-1.287-3.629-4.98-.284-5.397-3.55-6.107"/><path fill="#E78724" d="M39.65 37.03c-2.202-3.126-5.83-4.489-8.726-4.715-4.94-.386-7.284 1.36-7.284 1.36s8.089.343 10.42 3.405c4.34 5.699 10.672 6.162 11.685 4.91-1.171.058-2.459-.522-3.838-1.825-.86-.816-1.559-2.144-2.257-3.136M25.995 48.077s-8.975-3.085-7.27-6.21.348-4.827.348-4.827-5.01 3.74-3.734 7.718c.785 2.44 2.101 4.208 9.331 7.596 3.468 6.441.716 18.035.881 18.089.275.091 4.869-2.27 4.555-13.117-.096-3.33-.362-7.878-4.111-9.249m11.76-33.176c-3.763 1.912-8.918 4.574-8.918 4.574l2.029 1.015c-.194.314-.287.5-.287.5l2.082.948s5.084 3.683 8.199 6.05c-1.038-3.198-4.087-8.222-4.087-8.222s-.864-2.308.982-4.865m12.502 77.93c-11.567 0-15.485-5.873-15.485-5.873l1.808 4.402c.683 1.904 7.972 7.83 13.66 7.83"/><path fill="#E78724" d="M36.04 82.992s1.064 6.503 5.325 6.503c3.621 0 4.688-5.493 4.688-6.629zm-7.091-9.809c.378-1.042 1.704-5.256 2.13-9.09.51-4.593.324-11.31.324-11.31s-1.137 4.403-2.131 5.115c-.994.71-2.84 5.538-2.84 5.538s-.99 7.189-1.46 9.605c1.302.26 2.4-.507 3.977.142m-10.29-28.495s2.414-.853 3.125-6.108-.853-9.8-.853-9.8.142 7.243-.71 8.664c-.853 1.42-1.562 1.846-2.557 3.693s.426 2.982.995 3.55"/><path fill="#FDC168" d="m21.541 10.587-.493-.312c-1.453.05.493.312.493.312"/><path fill="#FBA919" d="M39.72 13.346s-2.272-.379-3.409-2.083c-1.136-1.704-4.355-5.114-9.487-5.152S16.616 7.475 16.616 7.475l4.432 2.8c.469-.015 1.288-.008 2.643.037 5.562.185 6.418 5.686 6.418 5.686l19.6-2.7"/><path fill="#fff" d="M41.614 43.73s-2.651 2.651-6.723 1.798c-4.072-.851-6.535-2.65-6.724-5.776s.853-4.355.853-4.355 4.544 1.42 6.723 3.315c2.178 1.893 3.788 4.923 5.871 5.018"/><path fill="#C9C9C9" d="M38.405 42.783s-2.3 1.05-4.87.194c-3.364-1.122-3.588-4.621-3.588-4.621s-2.065 6.057 3.723 7.223c4.641.935 7.386-1.755 7.386-1.755z"/><path fill="#463014" d="M40.04 12.06c-.248-5.194 4.01-9.331 5.486-9.508.082.88-.082 4.314 1.393 5.37.43-2.804 1.882-5.897 7.617-7.922-1.228 3.257-.164 5.986.343 7.25 3.916-3.554 6.554-2.967 6.554-2.967s-2.72 4.696-1.656 7.777c-7.862-.617-19.7.835-19.738 0m-16.667 7.914c-1.876-1.557-.478-3-.626-4.769-.08-.94-.155-1.828-.465-2.318-1.726-2.725-5.798-3.552-5.839-3.561l-1.91-.375 1.264-1.48c.164-.191 5.36-5.148 13.4-2.553 5.624 1.814 9.787 7.965 9.942 8.214l-2.82 1.326c-.033-.053-3.325-5.834-8.15-7.39-3.9-1.258-7.495-.061-9.034.724 1.637.653 3.776 1.843 5.066 3.879.608.962.711 2.172.81 3.344.131 1.552.253 3.017 1.395 3.966zm-5.01 22.716s2.364-2.93 3.064-8.632c.275-2.247-.214-6.677-.995-8.38.142 4.19-.923 8.38-.923 8.38s-.718 7.78-1.146 8.632"/><path fill="#463014" d="M30.825 17.014c-.002-.006-.759-3.315-2.857-4.985-2.961-2.355-6.576-1.102-6.611-1.091l-.525-1.622c.175-.057 4.307-1.359 8.115 1.318 3.83 2.692 4.29 5.133 4.33 5.402zm-5.04 23.575s-1.239-1.775-1.016-3.727c.11-.964.558-1.954 1.355-2.305 1.482-.65 2.14 1.03 2.14 1.03s-2.087.514-2.478 5.002"/><path fill="#463014" d="M39.399 43.294c.052.097.078.15.078.15s-3.867 2.903-7.83-.042c-2.121-1.578-1.92-5.481-1.271-7.136a12.8 12.8 0 0 1 4.321 1.88c-1.514-1.352-2.839-2.347-2.835-2.37l-1.721-.487-3.346-1.147c-.042.255-1.262 5.974 2.26 9.87 1.56 1.729 8.878 5.598 12.353-1.018z"/><path fill="#463014" d="M39.037 43.72c2.177 3.313 7.67 1.42 7.576-2.084 0 0-3.67 2.026-6.914-1.704-1.893-2.178-7.96-8.182-16.188-6.187 5.682 1.25 13.205 6.44 15.526 9.974"/><path fill="#463014" d="M22.743 53.072c.524.302 2.37 2.215 2.372 5.076 0 1.435-.143 8.642-.853 13.046 1.068.694 1.812.841 2.876 1.549.532-5.1.914-12.491.736-15.475-.203-3.401-2.024-5.684-3.713-6.657a71 71 0 0 0-1.638-.904c-2.893-1.563-5.884-3.18-5.884-5.94 0-2.16.84-2.836 1.728-3.552l.096-.078c.59-.476 1.258-1.017 1.653-1.904 1.08-2.426 1.256-8.607 0-10.176-.626-.782-2.303-3.41-1.82-5.177.183-.675.608-1.174 1.299-1.528.732-.375 1.72-.565 2.936-.565 2.39 0 5.04.727 6.408 1.16 4.886 1.549 10.782 6.014 12.472 7.346l.083.062 1.081.753-.676-1.132c-.042-.07-4.326-7.114-11.985-9.697-1.49-.502-4.418-1.346-7.295-1.346-1.712 0-3.166.3-4.317.889-1.403.718-2.352 1.862-2.747 3.31-.967 3.547 2.183 7.497 2.29 7.624.367.655.523 5.418-.325 7.324-.117.263-.437.521-.842.848q-.192.154-.419.323c-1.197.904-3.007 2.269-3.007 5.416 0 4.305 4.364 6.64 7.87 8.516.576.31 1.125.602 1.621.889"/><path fill="#463014" d="M23.373 19.974c-1.876-1.557-.478-3-.626-4.769-.08-.94-.155-1.828-.465-2.318-1.726-2.725-5.798-3.552-5.839-3.561l-1.91-.375 1.264-1.48c.164-.191 5.36-5.148 13.4-2.553 5.624 1.814 9.787 7.965 9.942 8.214l-2.82 1.326c-.033-.053-3.325-5.834-8.15-7.39-3.9-1.258-7.495-.061-9.034.724 1.637.653 3.776 1.843 5.066 3.879.608.962.711 2.172.81 3.344.131 1.552.253 3.017 1.395 3.966z"/><path fill="#463014" d="m23.312 20.293-.12-.101c-1.392-1.154-1.145-2.291-.906-3.392.108-.507.223-1.032.176-1.57-.075-.906-.148-1.76-.42-2.191-1.644-2.595-5.617-3.427-5.656-3.435L14 9.136l1.582-1.85c.029-.035 3.364-3.402 9.014-3.402 1.54 0 3.118.256 4.688.764 5.87 1.892 10.057 8.27 10.097 8.333l.17.27-3.337 1.57-.133-.213c-.36-.612-3.523-5.828-7.997-7.271a11.2 11.2 0 0 0-3.44-.534c-2.144 0-3.882.584-4.807.976 1.546.696 3.42 1.868 4.606 3.739.646 1.019.75 2.264.852 3.467.126 1.497.245 2.904 1.294 3.775l.396.328z"/><path fill="#463014" d="M30.825 17.014c-.002-.006-.759-3.315-2.857-4.985-2.961-2.355-6.576-1.102-6.611-1.091l-.525-1.622c.175-.057 4.307-1.359 8.115 1.318 3.83 2.692 4.29 5.133 4.33 5.402z"/><path fill="#463014" d="m30.621 17.4-.073-.325c-.008-.032-.75-3.227-2.758-4.823-1.144-.91-2.524-1.373-4.098-1.373-1.23 0-2.143.293-2.242.328l-.272.09-.704-2.163.27-.088c.121-.038 1.218-.38 2.77-.38 2.046 0 3.98.6 5.597 1.736 3.927 2.76 4.407 5.311 4.448 5.593l.034.222zm-6.93-7.088c1.683 0 3.224.517 4.453 1.495 1.783 1.42 2.621 3.925 2.875 4.824l1.932-.77c-.175-.682-.946-2.73-4.167-4.994-1.54-1.083-3.314-1.632-5.27-1.632a9.7 9.7 0 0 0-2.32.275l.348 1.077a8.5 8.5 0 0 1 2.15-.275m17.496 77.623c-.84 0-1.696-.304-2.29-.818-.454-.392-1.99-1.803-2.668-3.533-.253-.646-.197-1.164.17-1.536.253-.255.779-.56 1.844-.56l.758-.001 3.725-.001h1.247c.811 0 1.392.175 1.726.517.43.44.292 1.002.172 1.297-.209.517-1.074 2.2-2.537 3.765-.524.561-1.287.87-2.147.87m.88-44.021-3.03-.195s.774 1.366 1.276 3.131c.567 1.998-.518 4.917-.518 4.917s4.04-4.574 2.272-7.853m-3.783 52.022c-10.785-.829-14.579-11.02-14.579-13.142l2.816.001-1.408-.001h1.408c.015.918 2.88 9.635 11.979 10.335z"/><path fill="#fff" d="M35.254 77.678c-.17-.974-.186-1.898.019-2.805-.82-.617-2.29-.845-3.394-1.203-.902-.571-5.52.585-8.87-3.47-4.197-5.076-3.314-8.107-3.314-8.107-1.076 1.196-2.12.74-3.76 6.316-1.642 5.576.772 9.464 5.27 13.366 2.126 1.844 5.13 2.603 7.715 2.894-.866-.869 1.479-.956 3.094-1.56-.128-1.305.088-2.572 1.06-3.592.587-.615 1.342-.982 2.125-1.275.044-.101.08-.195.122-.292q-.042-.135-.067-.272"/><path fill="#C9C9C9" d="M31.993 83.075a10 10 0 0 1-.233-.835c-.075-.306-.447-1.176.011-.183a3.7 3.7 0 0 1-.251-.78c-7.286-.01-13.625-5.012-12.4-15.529-.954-1.266-2.29 2.554-2.29 2.554s-3.647 10.59 5.773 14.695c3.139 1.37 5.913 2.35 6.567 1.955 1.364.277 2.594-.674 3.056-1.299a7 7 0 0 1-.233-.579"/><path fill="#463014" d="M35.122 76.153a5.85 5.85 0 0 1 .622-2.604q.047-.088.097-.173c-2.804-.024-6.033-.293-8.782-1.393-3.022-1.21-6.803-5.345-7.452-10.204 0 0-5.692 4.392-4.02 13.793 1.57 8.827 8.957 11.705 17.381 12.191.005-.056-.947-2.023-.646-3.227-4.784.348-10.133-1.5-12.715-5.75-2.365-3.889-1.701-10.528-.73-11.501 2.37 7.478 10.898 8.998 16.245 8.868"/><path fill="#463014" d="M36.005 70.8c-1.516 4.448-4.612 8.049-4.612 8.049s4.259-.194 4.494-.948c.174-.555 3.846-9.152 5.256-19.222-1.326 2.178-5.008 11.74-5.138 12.12"/><path fill="#E78724" d="M60.137 60.543s4.83 7.384 8.373 12.625c.548.811-3.544.867-3.544.867zm-2.3-15.311s1.456 3.632 2.253 5.557c.866 2.094 4.166 3.135 4.166 3.135s-1.71-1.795-1.71-6.34c0-1.908-2.463-2.667-2.463-2.667z"/><path fill="#E78724" d="M59.308 47.285s2.983 3.551 8.523 1.562c5.54-1.988 6.107-9.09 6.107-11.078 0-1.989-10.51 1.988-11.931 2.84-1.42.853-4.119 4.261-2.699 6.676M80.23 9.344s-5.114-.995-8.523 1.704-4.403 4.83-4.403 4.83l5.746 4.553s2.777-1.287 3.629-4.98.284-5.397 3.55-6.107"/><path fill="#E78724" d="M60.8 37.029c2.201-3.125 5.828-4.488 8.725-4.714 4.94-.386 7.283 1.36 7.283 1.36s-8.088.343-10.42 3.405c-4.34 5.699-10.67 6.162-11.683 4.91 1.17.058 2.46-.522 3.837-1.825.86-.816 1.56-2.144 2.258-3.136m13.654 11.049s8.974-3.085 7.27-6.21-.35-4.827-.35-4.827 5.013 3.74 3.735 7.718c-.785 2.44-2.101 4.208-9.33 7.596-3.468 6.44-.717 18.034-.88 18.089-.276.09-4.87-2.271-4.556-13.118.096-3.33.362-7.877 4.111-9.248m-11.76-33.176c3.762 1.912 8.918 4.574 8.918 4.574l-2.028 1.015c.194.314.287.5.287.5l-2.083.948s-5.084 3.682-8.199 6.05c1.038-3.198 4.087-8.222 4.087-8.222s.865-2.308-.982-4.865m-12.5 77.93c11.564 0 15.482-5.873 15.482-5.873l-1.807 4.402c-.683 1.904-7.972 7.83-13.658 7.83"/><path fill="#E78724" d="M64.41 82.992s-1.066 6.503-5.326 6.503c-3.62 0-4.687-5.493-4.687-6.629zm7.09-9.809c-.378-1.042-1.704-5.256-2.13-9.09-.51-4.593-.324-11.31-.324-11.31s1.137 4.403 2.13 5.115c.995.71 2.84 5.538 2.84 5.538s.99 7.189 1.46 9.605c-1.302.26-2.398-.507-3.975.142m10.291-28.495s-2.415-.853-3.124-6.108.852-9.8.852-9.8-.143 7.243.71 8.664 1.562 1.846 2.557 3.693c.993 1.847-.427 2.982-.995 3.55"/><path fill="#FDC168" d="m78.908 10.587.493-.312c1.454.05-.493.312-.493.312"/><path fill="#FBA919" d="M60.728 13.346s2.273-.379 3.409-2.083 4.356-5.114 9.488-5.152 10.208 1.364 10.208 1.364l-4.432 2.8c-.468-.015-1.288-.009-2.644.037-5.561.184-6.417 5.685-6.417 5.685l-19.6-2.699"/><path fill="#fff" d="M58.835 43.73s2.651 2.651 6.723 1.798c4.072-.851 6.534-2.65 6.724-5.776.189-3.125-.852-4.355-.852-4.355s-4.546 1.42-6.724 3.315c-2.178 1.894-3.787 4.923-5.871 5.018"/><path fill="#C9C9C9" d="M62.043 42.783s2.3 1.05 4.87.194c3.365-1.122 3.59-4.621 3.59-4.621s2.063 6.057-3.725 7.223c-4.64.935-7.386-1.755-7.386-1.755z"/><path fill="#463014" d="M77.076 19.974c1.876-1.557.479-3 .627-4.769.079-.94.153-1.828.464-2.318 1.726-2.725 5.798-3.552 5.84-3.561l1.911-.375-1.265-1.48c-.164-.191-5.36-5.148-13.401-2.553-5.623 1.814-9.786 7.965-9.941 8.214l2.819 1.326c.034-.053 3.326-5.834 8.15-7.39 3.901-1.258 7.495-.061 9.034.724-1.636.653-3.776 1.843-5.066 3.879-.608.962-.71 2.172-.809 3.344-.13 1.552-.254 3.017-1.396 3.966zm5.009 22.716s-2.362-2.93-3.062-8.632c-.275-2.247.212-6.677.993-8.38-.142 4.19.925 8.38.925 8.38s.718 7.78 1.144 8.632"/><path fill="#463014" d="M69.625 17.014c0-.006.758-3.315 2.857-4.985 2.96-2.355 6.576-1.102 6.61-1.091l.526-1.622c-.175-.057-4.307-1.359-8.116 1.318-3.831 2.692-4.29 5.133-4.33 5.402zm5.038 23.575s1.24-1.775 1.016-3.727c-.11-.964-.556-1.954-1.354-2.305-1.482-.65-2.14 1.03-2.14 1.03s2.087.514 2.478 5.002"/><path fill="#463014" d="m61.05 43.294-.078.15s3.866 2.903 7.829-.042c2.123-1.578 1.922-5.481 1.271-7.136a12.8 12.8 0 0 0-4.321 1.88c1.514-1.352 2.84-2.347 2.835-2.37l1.722-.487 3.345-1.146c.043.255 1.263 5.974-2.26 9.87-1.56 1.728-8.879 5.598-12.352-1.019z"/><path fill="#463014" d="M61.412 43.72c-2.178 3.313-7.67 1.42-7.575-2.084 0 0 3.67 2.026 6.913-1.704 1.893-2.178 7.961-8.182 16.188-6.187-5.681 1.25-13.204 6.44-15.527 9.974"/><path fill="#463014" d="M77.707 53.072c-.524.302-2.372 2.215-2.372 5.076-.001 1.435.142 8.642.853 13.046-1.068.694-1.812.841-2.876 1.549-.532-5.1-.915-12.491-.736-15.475.203-3.401 2.023-5.684 3.712-6.657a69 69 0 0 1 1.64-.904c2.892-1.563 5.883-3.18 5.883-5.94 0-2.16-.84-2.836-1.729-3.552l-.095-.078c-.59-.476-1.258-1.017-1.653-1.904-1.079-2.426-1.256-8.607 0-10.176.625-.782 2.303-3.41 1.821-5.177-.185-.675-.61-1.174-1.3-1.528-.733-.375-1.72-.565-2.937-.565-2.388 0-5.04.727-6.406 1.16-4.887 1.549-10.783 6.014-12.474 7.346l-.081.062-1.083.753.677-1.132c.043-.07 4.325-7.114 11.984-9.697 1.49-.502 4.418-1.346 7.295-1.346 1.713 0 3.165.3 4.317.889 1.403.718 2.352 1.862 2.747 3.31.968 3.547-2.183 7.497-2.29 7.624-.367.655-.523 5.418.325 7.324.116.263.436.521.842.848q.191.154.42.323c1.196.904 3.006 2.269 3.006 5.416 0 4.305-4.364 6.64-7.87 8.516-.575.31-1.125.602-1.62.889"/><path fill="#463014" d="M72.502 19.467c-.694-1.175-2.47-3.445-6.56-5.44-4.565-2.225-9.849-3.354-15.706-3.357v-.001h-.023c-5.858.003-11.143 1.133-15.707 3.358-4.09 1.995-5.865 4.264-6.56 5.44l-.298.394 3.504.78.11-.14.06-.13c.053-.23.523-1.48 4.429-3.385 4.175-2.037 9.045-3.07 14.473-3.07s10.296 1.033 14.471 3.07c3.906 1.904 4.377 3.154 4.43 3.386l.06.128.11.14 3.503-.779z"/><path fill="#463014" d="M77.076 19.974c1.876-1.557.479-3 .627-4.769.079-.94.153-1.828.464-2.318 1.726-2.725 5.798-3.552 5.84-3.561l1.911-.375-1.265-1.48c-.164-.191-5.36-5.148-13.401-2.553-5.623 1.814-9.786 7.965-9.941 8.214l2.819 1.326c.034-.053 3.326-5.834 8.15-7.39 3.901-1.258 7.495-.061 9.034.724-1.636.653-3.776 1.843-5.066 3.879-.608.962-.71 2.172-.809 3.344-.13 1.552-.254 3.017-1.396 3.966z"/><path fill="#463014" d="m73.466 19.09.394-.329c1.05-.871 1.168-2.278 1.296-3.774.101-1.204.206-2.45.851-3.468 1.185-1.87 3.061-3.042 4.606-3.739a12.6 12.6 0 0 0-4.807-.976c-1.184 0-2.34.18-3.439.534-4.476 1.443-7.638 6.66-7.996 7.271l-.135.213-3.335-1.57.17-.27c.039-.063 4.225-6.44 10.095-8.333a15.3 15.3 0 0 1 4.689-.763c5.65 0 8.986 3.368 9.014 3.402l1.582 1.85-2.387.467c-.04.009-4.011.84-5.656 3.435-.273.432-.344 1.285-.421 2.19-.046.54.068 1.064.178 1.572.238 1.1.485 2.238-.907 3.392l-.12.1z"/><path fill="#463014" d="M69.625 17.014c0-.006.758-3.315 2.857-4.985 2.96-2.355 6.576-1.102 6.61-1.091l.526-1.622c-.175-.057-4.307-1.359-8.116 1.318-3.831 2.692-4.29 5.133-4.33 5.402z"/><path fill="#463014" d="m66.858 16.217.033-.222c.042-.282.521-2.833 4.448-5.593 1.615-1.136 3.55-1.736 5.597-1.736 1.552 0 2.65.341 2.77.38l.27.088-.704 2.163-.271-.09a7.6 7.6 0 0 0-2.243-.328c-1.575 0-2.953.462-4.097 1.373-2.008 1.597-2.751 4.792-2.758 4.823l-.074.325zm12.05-5.63.35-1.077a9.6 9.6 0 0 0-2.322-.275c-1.956 0-3.73.55-5.27 1.632-3.222 2.265-3.993 4.312-4.167 4.994l1.933.77c.253-.9 1.09-3.405 2.874-4.824 1.23-.978 2.77-1.495 4.451-1.495a8.5 8.5 0 0 1 2.151.275M57.117 87.065c-1.464-1.564-2.33-3.248-2.539-3.765-.12-.295-.255-.856.174-1.297.334-.342.914-.517 1.724-.517h4.973l.758.002c1.065 0 1.59.305 1.843.56.367.372.424.889.171 1.536-.677 1.73-2.215 3.141-2.669 3.533-.595.514-1.45.818-2.289.818-.86 0-1.622-.31-2.146-.87m1.266-43.151 3.029-.195s-.774 1.365-1.276 3.131c-.566 1.998.518 4.917.518 4.917s-4.04-4.574-2.27-7.853"/><path fill="#E78724" d="M50.225 33.096c-1.931 0-4.45-.053-6.339-1.41 0 0 2.474 4.336 6.336 4.336l.003-.549.003.549c3.862 0 6.335-4.336 6.335-4.336-1.889 1.357-4.409 1.41-6.338 1.41"/><path fill="#463014" d="M55.542 33.075c-1.937 1.172-3.667 1.579-5.317 1.615-1.65-.036-3.38-.442-5.317-1.615 0 0 2.82 3.442 5.303 3.469v.002l.014-.001.014.001v-.002c2.481-.026 5.303-3.469 5.303-3.469m6.623 62.861-.215-2.808c9.096-.7 11.962-9.417 11.977-10.335h2.816c.001 2.123-3.794 12.314-14.578 13.143"/><path fill="#fff" d="M65.195 77.678c.17-.974.187-1.898-.019-2.805.82-.617 2.29-.845 3.394-1.203.902-.571 5.52.585 8.87-3.47 4.198-5.076 3.314-8.107 3.314-8.107 1.077 1.196 2.119.74 3.76 6.316 1.643 5.576-.772 9.464-5.27 13.366-2.126 1.844-5.13 2.603-7.715 2.894.866-.869-1.479-.956-3.094-1.56.13-1.305-.087-2.572-1.06-3.592-.585-.615-1.341-.982-2.124-1.275-.044-.101-.082-.195-.122-.292a3 3 0 0 0 .066-.272"/><path fill="#C9C9C9" d="M68.455 83.075c.095-.275.164-.553.233-.835.076-.306.448-1.176-.01-.183.117-.254.194-.516.25-.78 7.287-.01 13.625-5.012 12.4-15.529.953-1.266 2.29 2.554 2.29 2.554s3.647 10.59-5.773 14.695c-3.139 1.37-5.912 2.35-6.567 1.955-1.364.277-2.595-.674-3.056-1.299q.132-.287.233-.579"/><path fill="#463014" d="M65.326 76.153a5.85 5.85 0 0 0-.62-2.604q-.048-.088-.098-.173c2.804-.024 6.033-.293 8.782-1.393 3.022-1.21 6.803-5.345 7.453-10.204 0 0 5.691 4.392 4.02 13.793-1.572 8.827-8.958 11.705-17.382 12.191-.005-.056.948-2.023.647-3.227 4.782.348 10.131-1.5 12.715-5.75 2.363-3.889 1.7-10.528.728-11.501-2.369 7.478-10.898 8.998-16.245 8.868"/><path fill="#463014" d="M68.728 78.367c-1.007-1.088-2.857-2.385-7.124-2.385l-11.365-.007h-.028l-11.366.007c-4.266 0-6.116 1.297-7.123 2.385-1.467 1.584-1.697 3.786-.682 6.54 2.696 7.329 6.486 14.774 19.17 14.785v.001l.015-.001.014.001v-.001c12.684-.011 16.473-7.456 19.17-14.785 1.015-2.754.785-4.956-.681-6.54m-1.975 6.026c-1.285 3.68-4.738 12.588-16.529 12.603-11.792-.015-15.243-8.922-16.528-12.603-.711-2.042-.657-3.553.166-4.491.562-.642 1.854-1.408 4.797-1.408l3.075-.001 8.49-.006 8.49.006 3.075.001c2.944 0 4.235.766 4.798 1.408.822.939.877 2.45.166 4.491"/><path fill="#463014" d="M64.444 70.8c1.516 4.448 4.612 8.049 4.612 8.049s-4.26-.194-4.495-.948c-.173-.555-3.845-9.152-5.254-19.222 1.324 2.178 5.007 11.74 5.137 12.12"/></g><defs><clipPath id="a"><path fill="#fff" d="M13 0h74.4v100H13z"/></clipPath></defs></svg>