<svg xmlns="http://www.w3.org/2000/svg" fill="none" viewBox="0 0 100 100"><path fill="#CF4547" d="M0 0h100v100H0z"/><path fill="#fff" stroke="#fff" stroke-miterlimit="10" stroke-width=".264" d="M34.6 50.666q-.07.102-.25.645-.183.542-.441 1.359-.259.817-.56 1.83l-.621 2.064q-.32 1.053-.613 2.066a322 322 0 0 0-.915 3.2 21 21 0 0 1-.19.655 4.9 4.9 0 0 1-.725 1.483 2.8 2.8 0 0 1-.57.593 1.05 1.05 0 0 1-.638.235q-.553 0-.803-.368t-.25-1.35v-.285q0-.144.017-.306.017-.326.258-1.228.242-.899.578-2.035.336-1.135.725-2.353.387-1.216.699-2.178a34 34 0 0 1-1.986 2.035 21 21 0 0 1-2.192 1.82q-1.122.81-2.262 1.318-1.14.511-2.192.511-1.207-.001-2.08-.53a4.6 4.6 0 0 1-1.442-1.391 6.3 6.3 0 0 1-.846-1.943 8.8 8.8 0 0 1-.276-2.168v-.267q0-.122.018-.245a25 25 0 0 1 .56-4.029 33 33 0 0 1 1.2-4.109 38 38 0 0 1 1.718-3.998 35 35 0 0 1 2.123-3.69 29 29 0 0 1 2.443-3.2 19.4 19.4 0 0 1 2.658-2.516q1.363-1.051 2.754-1.645 1.39-.593 2.754-.593 1.572 0 3.038.858 1.466.859 2.744 2.781.295.429.37.87.077.441.078.828 0 .92-.44 1.452-.442.53-1.044.53-.553 0-1.027-.583-.475-.582-1.061-1.667-.552-.981-1.217-1.422a2.56 2.56 0 0 0-1.441-.439q-1.209 0-2.582 1.003t-2.718 2.648a29 29 0 0 0-2.582 3.763 39 39 0 0 0-2.184 4.334 31 31 0 0 0-1.51 4.376q-.56 2.157-.56 3.877 0 .572.078 1.175t.294 1.095.587.807q.37.317.94.317.64 0 1.45-.429.812-.429 1.683-1.124.871-.698 1.753-1.575a28 28 0 0 0 2.985-3.506q.587-.828.88-1.442l1.605-4.804q.295-.777.768-1.105.476-.327.976-.327.24 0 .483.082a1.18 1.18 0 0 1 .733.707q.111.277.112.644 0 .982-.173 1.842a15 15 0 0 1-.44 1.676 28 28 0 0 1-.596 1.646 41 41 0 0 0-.635 1.725Zm21.77 4.008a16.3 16.3 0 0 1-1.77 1.994 18 18 0 0 1-2.08 1.727q-1.07.756-2.105 1.217-1.036.46-1.865.46-.827 0-1.347-.552-.517-.552-.517-1.883 0-.94.276-2.188-.45.8-1.123 1.616a9.8 9.8 0 0 1-1.537 1.493q-.864.676-1.933 1.093-1.07.42-2.331.419-.57 0-1.097-.143a2.3 2.3 0 0 1-.923-.49 2.45 2.45 0 0 1-.638-.93q-.24-.583-.241-1.461 0-.021.069-.623.066-.603.44-1.902.37-1.298 1.148-3.363.779-2.065 2.192-5.01.361-.777.836-1.115a1.74 1.74 0 0 1 1.026-.337q.241 0 .502.07.258.074.484.226.224.153.362.388.139.234.14.542 0 .206-.054.388-.084.348-.372.91-.285.565-.664 1.29-.378.725-.803 1.565a22 22 0 0 0-.785 1.737q-.362.9-.621 1.83a8 8 0 0 0-.294 1.81q0 .367.172.675.174.307.57.308 1.122 0 2.141-.737a9.5 9.5 0 0 0 1.882-1.83 17.4 17.4 0 0 0 1.564-2.352q.7-1.257 1.165-2.3.329-.696.578-1.492.25-.796.544-1.473.294-.674.674-1.124t.95-.45q.62 0 .983.47.362.47.363 1.124 0 .369-.233 1.012-.234.645-.588 1.474-.353.828-.768 1.768a31 31 0 0 0-.768 1.912 19 19 0 0 0-.587 1.902 7.2 7.2 0 0 0-.233 1.727q-.001.737.76.737.534-.001 1.33-.368a9 9 0 0 0 1.666-1.033 15.5 15.5 0 0 0 1.744-1.565q.872-.899 1.545-1.943z"/><path fill="#fff" stroke="#fff" stroke-miterlimit="10" stroke-width=".264" d="M56.906 53.651q-.19.47-.372 1.095-.18.624-.18 1.115 0 .306.104.491.102.185.397.184.361.001.907-.256.544-.255 1.173-.676.631-.418 1.313-.962.682-.541 1.355-1.124.674-.584 1.287-1.165.614-.584 1.097-1.074a.8.8 0 0 1 .327-.203q.188-.061.327-.061.346 0 .57.286t.223.756q0 .43-.24.962-.241.532-.847 1.042a52 52 0 0 1-2.227 2.29 23 23 0 0 1-2.235 1.911q-1.113.828-2.209 1.32-1.096.49-2.133.49-.708 0-1.183-.225a2 2 0 0 1-.76-.613 2.45 2.45 0 0 1-.406-.92 5 5 0 0 1-.121-1.125q0-1.003.25-2.055t.596-1.931q.605-1.596 1.226-3.17.621-1.575 1.14-2.883l5.23-13.19q.311-.796.838-1.124.527-.326 1.062-.327.536 0 .975.347.441.347.441 1.124 0 .368-.147.778a10 10 0 0 1-.37.88q-.432.96-1.026 2.35-.597 1.39-1.277 3.026-.682 1.635-1.399 3.404l-1.398 3.445q-.682 1.678-1.277 3.18a270 270 0 0 0-1.03 2.608Z"/><path fill="#fff" stroke="#fff" stroke-miterlimit="10" stroke-width=".264" d="M81.368 49.95q.242-.165.449-.267a.9.9 0 0 1 .398-.102q.378.001.57.337.19.337.19.828 0 .532-.233 1.084a2.3 2.3 0 0 1-.7.92 180 180 0 0 0-3.296 2.985 36 36 0 0 1-2.737 2.321q-1.287.972-2.51 1.503a6.5 6.5 0 0 1-2.625.53q-1.314 0-2.03-.571-.716-.573-.716-1.575v-.153q0-.071.017-.174.069-.615.535-1.41.466-.797 1.122-1.658.655-.86 1.399-1.737.742-.88 1.373-1.667.63-.787 1.044-1.441t.415-1.064a.48.48 0 0 0-.172-.388q-.174-.144-.57-.143-.69 0-1.424.359-.736.358-1.45.96a13 13 0 0 0-1.398 1.38q-.682.778-1.277 1.616-.597.838-1.087 1.687a23 23 0 0 0-.837 1.565q-.102.225-.294.634-.19.41-.413.92-.224.512-.476 1.053-.25.543-.456 1.022-.21.48-.372.86-.165.378-.233.521-.088.184-.286.695c-.134.341-.284.739-.459 1.197q-.259.684-.542 1.442-.285.756-.535 1.432l-.44 1.185q-.191.51-.244.695a8 8 0 0 1-.405 1.003q-.232.47-.535.828a2.4 2.4 0 0 1-.691.572q-.389.214-.872.214-.621-.001-1.028-.296-.405-.297-.406-1.134.001-.409.104-.838.105-.43.259-.849.155-.42.319-.816.165-.399.302-.768.931-2.045 1.9-4.1a182 182 0 0 0 1.855-4.07 100 100 0 0 0 1.649-3.956 40 40 0 0 0 1.26-3.722q.137-.368.38-1.044.24-.675.551-1.33t.7-1.134.836-.48q.69 0 1.001.317.312.317.311.93 0 .124-.035.389a14 14 0 0 1-.198 1.124 3 3 0 0 1-.111.388q.638-.696 1.38-1.381.743-.686 1.538-1.238a9 9 0 0 1 1.622-.901 4.3 4.3 0 0 1 1.657-.347q.57 0 1.13.165.56.164 1.001.48.441.317.717.797t.276 1.114q0 .84-.423 1.79a13 13 0 0 1-1.061 1.912q-.641.961-1.381 1.87a69 69 0 0 1-1.391 1.658q-.646.746-1.087 1.267-.441.523-.458.705 0 .246.154.4.153.154.52.153.293 0 .863-.328.57-.326 1.597-1.134a82 82 0 0 0 2.607-2.168 273 273 0 0 0 3.893-3.424Z"/></svg>