<svg xmlns="http://www.w3.org/2000/svg" fill="none" viewBox="0 0 100 100"><path fill="url(#a)" d="m19.799 62.145 61.01-20.372c-1.22-7.627-2.088-12.721-3.095-16.61-1.084-4.181-1.944-5.3-2.281-5.688a11.9 11.9 0 0 0-4.285-3.113c-.475-.203-1.807-.675-6.114-.415-4.557.275-10.54 1.206-20.012 2.706-9.47 1.5-15.45 2.466-19.866 3.61-4.179 1.085-5.301 1.947-5.688 2.285a11.95 11.95 0 0 0-3.11 4.285c-.204.475-.676 1.807-.416 6.117.275 4.557 1.206 10.542 2.707 20.015.418 2.657.797 5.032 1.15 7.18"/><path fill="url(#b)" fill-rule="evenodd" d="M2.977 57.447c-2.9-18.328-4.353-27.492-1.21-34.85a27.8 27.8 0 0 1 7.264-10.001c6.023-5.26 15.184-6.71 33.506-9.614C60.865.075 70.029-1.375 77.387 1.769a27.76 27.76 0 0 1 9.995 7.264c5.263 6.026 6.713 15.19 9.614 33.52 2.903 18.329 4.353 27.496 1.21 34.85a27.8 27.8 0 0 1-7.261 10.002c-6.023 5.263-15.187 6.713-33.512 9.617-18.322 2.903-27.486 4.354-34.84 1.21a27.8 27.8 0 0 1-9.995-7.264c-5.264-6.026-6.717-15.19-9.62-33.521m32.321 32.549c4.907-.297 11.227-1.288 20.582-2.77 9.357-1.48 15.668-2.493 20.431-3.728 4.61-1.197 6.735-2.363 8.107-3.563a17.85 17.85 0 0 0 4.667-6.43c.719-1.675 1.172-4.056.884-8.813-.296-4.907-1.287-11.23-2.769-20.588-1.481-9.358-2.49-15.674-3.725-20.434-1.197-4.614-2.366-6.739-3.563-8.111a17.85 17.85 0 0 0-6.427-4.67c-1.675-.718-4.056-1.172-8.813-.884-4.907.297-11.224 1.288-20.579 2.77-9.357 1.484-15.67 2.493-20.431 3.728-4.613 1.197-6.735 2.366-8.108 3.563a17.85 17.85 0 0 0-4.67 6.43c-.715 1.674-1.168 4.056-.88 8.813.296 4.91 1.284 11.23 2.769 20.588 1.481 9.357 2.49 15.674 3.725 20.434 1.197 4.613 2.363 6.739 3.563 8.11a17.85 17.85 0 0 0 6.426 4.67c1.676.72 4.051 1.172 8.811.885" clip-rule="evenodd"/><defs><linearGradient id="a" x1="39.161" x2="55.036" y1="0" y2="99.182" gradientUnits="userSpaceOnUse"><stop stop-color="#66E3FF"/><stop offset="1" stop-color="#7064F9"/></linearGradient><linearGradient id="b" x1="39.161" x2="55.036" y1="0" y2="99.182" gradientUnits="userSpaceOnUse"><stop stop-color="#66E3FF"/><stop offset="1" stop-color="#7064F9"/></linearGradient></defs></svg>