<svg xmlns="http://www.w3.org/2000/svg" fill="none" viewBox="0 0 100 100"><path fill="#430098" d="M85.75 0H14C9 0 5 4 5 9v82c0 5 4 9 9 9h71.75c5 0 9-4 9-9V9c0-5-4-9-9-9m4 91c0 2.25-1.75 4-4 4H14c-2.25 0-4-1.75-4-4V9c0-2.25 1.75-4 4-4h71.75c2.25 0 4 1.75 4 4zM27.5 85l11.25-10L27.5 65zM68 44.5c-2-2-5.75-4.5-12-4.5-6.75 0-13.75 1.75-18.75 3.5V15h-10v43.25l7-3.25s11.5-5.25 21.5-5.25c5 0 6.25 2.75 6.25 5.25v30h10V55c.25-.75.25-6.25-4-10.5M54.75 31.25h10c4.5-5.25 6.75-10.5 7.5-16.25h-10c-1 5.75-3.5 11-7.5 16.25"/></svg>