<svg xmlns="http://www.w3.org/2000/svg" fill="none" viewBox="0 0 100 100"><g clip-path="url(#a)"><path fill="#D1D3D4" fill-rule="evenodd" stroke="#000" stroke-linejoin="round" stroke-width="1.768" d="M44.506 18.572c.273-8.667-2.647-13.777-11.04-17.152-2.386 8.345 7.463 16.039 11.04 17.152Z" clip-rule="evenodd"/><path fill="#D1D3D4" fill-rule="evenodd" stroke="#000" stroke-linejoin="round" stroke-width="1.768" d="M67.267 33.26c.273-7.117-1.525-9.99-2.874-12.043-1.368-1.916-4.652-4.927-8.687-5.053-3.816-.12-4.734 1.99-8.254 2.116-.578-6.41 4.26-9.928 4.26-9.928s-1.322-1.87-2.417-2.326c-1.574 1.399-5.907 6.065-4.904 12.07-3.24-.62-5.526-2.474-8.928-1.805-4.636.913-8.457 3.715-10.635 9.865s.769 13.325 1.41 15.374c.64 2.051 5.381 10.762 9.097 12.044 3.714 1.282 3.715.704 5.701-.064 1.987-.769 4.997-2.178 9.418-.576 4.419 1.601 4.995 1.985 7.75.191 2.755-1.792 6.342-7.366 7.174-8.967s1.281-2.435 1.539-3.267c2.677-1.336.104-1.254.35-7.632Z" clip-rule="evenodd"/><path fill="#fff" stroke="#000" stroke-linejoin="round" stroke-width="1.768" d="M74.459 85.27a6.64 6.64 0 0 0 6.666-6.64V54.705a6.64 6.64 0 0 0-6.642-6.643h-5.475a1.476 1.476 0 0 1-1.476-1.476v-3.48H24.348l.108 51.002a1.48 1.48 0 0 0 .683 1.242c1.923 1.113 8.089 3.228 21.035 3.228 13.22 0 19.129-2.831 20.82-4.11a1.47 1.47 0 0 0 .531-1.13c.007-1.411.007-4.682.007-6.614a1.476 1.476 0 0 1 1.507-1.476c1.624.023 3.57.027 5.42.022Zm-6.927-29.448a1.847 1.847 0 0 1 1.845-1.845h4.7a1.846 1.846 0 0 1 1.846 1.845v21.47a1.847 1.847 0 0 1-1.846 1.845h-4.7a1.846 1.846 0 0 1-1.845-1.845z"/><path fill="#FBB040" fill-rule="evenodd" d="M28.605 42.68v45.75c0 .528.282 1.016.739 1.28 1.867.89 7.285 3.014 16.784 3.014 9.561 0 14.818-2.581 16.578-3.645a1.47 1.47 0 0 0 .674-1.237c.005-6.067.005-45.163.005-45.163z" clip-rule="evenodd"/><path stroke="#FFDB96" stroke-linecap="round" stroke-width="4.067" d="M33.717 50.429v35.356"/><path fill="#fff" fill-rule="evenodd" stroke="#000" stroke-linecap="round" stroke-linejoin="round" stroke-width="1.768" d="M53.367 52.068c0-.738-.434-1.619-1.147-2.061a6.17 6.17 0 0 1-2.562-3.063c-9.443.318-18.062-1.34-22.405-2.512a36 36 0 0 0-3.384-.785c-2.599-.516-4.574-2.798-4.574-5.542a5.59 5.59 0 0 1 5.39-5.582c.578-3.195 3.366-5.62 6.727-5.62a6.843 6.843 0 0 1 6.843 6.843c0 .796-.144 1.557-.393 2.268l.02.003a6.55 6.55 0 0 1 6.235-4.552 6.55 6.55 0 0 1 6.217 4.505 7.116 7.116 0 0 1 13.864-2.867l.62-.162a5.59 5.59 0 0 1 8.333 4.87c0 2.828-2.1 5.166-4.826 5.539a8.2 8.2 0 0 0-1.804.468 45 45 0 0 1-4.951 1.535 6.2 6.2 0 0 1-.705 2.3 7.65 7.65 0 0 0-.878 4.153l.003.631c0 1.83-1.482 2.942-3.312 2.942a3.31 3.31 0 0 1-3.31-3.31" clip-rule="evenodd"/></g><defs><clipPath id="a"><path fill="#fff" d="M17 0h66.421v100H17z"/></clipPath></defs></svg>