<svg xmlns="http://www.w3.org/2000/svg" fill="none" viewBox="0 0 100 100"><path fill="#009688" d="M62.713 10.362v18.82l21.149 54.319S90.318 96.767 71.852 100H29.724S12.513 98.204 16.64 84.575l22.225-55.392v-18.82z"/><path fill="#004D40" d="M63.16 8.174H37.79c-2.056 0-3.727-1.828-3.727-4.086 0-2.26 1.67-4.088 3.726-4.088h25.37c2.065 0 3.733 1.828 3.733 4.088 0 2.258-1.67 4.086-3.733 4.086"/><path fill="#fff" d="M56.467 41.092c2.722 0 4.942 2.66 4.942 5.954 0 3.28-2.221 5.946-4.942 5.946-2.73 0-4.943-2.667-4.943-5.946 0-3.296 2.214-5.954 4.943-5.954M41.294 56.538c2.301 0 4.166-2.249 4.166-5.022s-1.865-5.021-4.166-5.021c-2.3 0-4.166 2.248-4.166 5.021s1.865 5.022 4.166 5.022"/><path fill="#004D40" d="M64.594 27.935v-8.951s11.35-2.503 17.024 10.7c0 0-8.841 6.441-17.024-1.749m-27.802 0v-8.951s-11.353-2.503-17.023 10.7c0 0 8.833 6.441 17.023-1.749"/><path fill="#fff" d="M71.418 64.978c-18.458-5.726-33.977-2.652-41.562-.328l-7.649 18.41c-3.443 10.991 10.935 12.436 10.935 12.436h35.186C83.75 92.89 78.36 82.198 78.36 82.198z"/><path fill="#004D40" d="M44.817 71.819c0 1.985-2.668 3.6-5.955 3.6s-5.946-1.616-5.946-3.6c0-1.994 2.66-3.603 5.947-3.603 3.287.002 5.954 1.61 5.954 3.603m21.174 0c0 1.985-2.668 3.6-5.946 3.6-3.296 0-5.954-1.616-5.954-3.6 0-1.994 2.658-3.603 5.954-3.603 3.28.002 5.946 1.61 5.946 3.603"/></svg>