<svg xmlns="http://www.w3.org/2000/svg" fill="none" viewBox="0 0 100 100"><path fill="#49021F" d="M17.708 1h64.584C92.083 1 100 8.917 100 18.71v62.083c0 9.792-7.917 17.709-17.708 17.709H17.708C7.917 98.5 0 90.584 0 80.792V18.71C0 8.917 7.917 1 17.708 1"/><path fill="#F36" d="M36.333 26.5v42.917c0 .459-.208.667-.583.667h-8.167c-.375 0-.541-.209-.541-.667V26.501c0-.376.208-.542.583-.542h8.125a.47.47 0 0 1 .542.416c.041.042.041.084.041.125m24.084 44.084c-3.084.041-6.167-.584-8.959-1.875-2.625-1.209-4.791-3.209-6.291-5.667-1.542-2.541-2.292-5.708-2.292-9.5a17.1 17.1 0 0 1 2.292-8.791 17.3 17.3 0 0 1 6.625-6.459c2.916-1.625 6.416-2.416 10.541-2.416.209 0 .5 0 .875.041.375.042.792.042 1.292.084V22.834c0-.292.125-.459.417-.459h8.458c.208-.041.375.125.417.292v39.75c0 .75.041 1.584.083 2.5.083.875.125 1.709.167 2.417 0 .291-.125.541-.417.666a31.8 31.8 0 0 1-6.792 2 36.4 36.4 0 0 1-6.416.584M64.5 62.25V43.917a11 11 0 0 0-1.125-.208A15 15 0 0 0 62 43.625c-1.625 0-3.25.334-4.708 1.084a9.34 9.34 0 0 0-3.542 3.083c-.917 1.334-1.375 3.125-1.375 5.292a11.6 11.6 0 0 0 .708 4.291 8.1 8.1 0 0 0 1.875 2.959A7.2 7.2 0 0 0 57.792 62c1.125.376 2.291.542 3.458.542.625 0 1.208-.041 1.75-.083a3.55 3.55 0 0 0 1.5-.209"/></svg>