<svg xmlns="http://www.w3.org/2000/svg" fill="none" viewBox="0 0 100 100"><path fill="#fff" d="M50 97.458c26.21 0 47.458-21.247 47.458-47.457S76.21 2.543 50 2.543 2.542 23.791 2.542 50.001 23.79 97.458 50 97.458"/><path fill="#4000BF" d="M50 0C22.386 0 0 22.386 0 50s22.386 50 50 50 50-22.385 50-50S77.615 0 50 0m0 5.085c24.806 0 44.916 20.11 44.916 44.916S74.806 94.916 50 94.916 5.085 74.806 5.085 50 25.195 5.085 50 5.085"/><path fill="url(#a)" fill-rule="evenodd" d="M50.565 14.408C70.223 14.408 86.16 30.343 86.16 50S70.224 85.593 50.566 85.593c-19.657 0-35.593-15.936-35.593-35.593 0-4.805.952-9.386 2.677-13.568a13.82 13.82 0 0 0 11.165 5.658c7.645 0 13.842-6.197 13.842-13.842 0-4.582-2.227-8.645-5.658-11.164a35.5 35.5 0 0 1 13.567-2.677" clip-rule="evenodd"/><defs><linearGradient id="a" x1="50.565" x2="50.565" y1="85.594" y2="14.408" gradientUnits="userSpaceOnUse"><stop stop-color="#7400E1"/><stop offset="1" stop-color="#4000BF"/></linearGradient></defs></svg>