<svg xmlns="http://www.w3.org/2000/svg" xml:space="preserve" viewBox="0 0 100 100"><g transform="translate(50.12 50.12)scale(3.57)"><radialGradient id="a" cx="0" cy="0" r="1" fx="0" fy="0" gradientTransform="matrix(14.5 -21 21 14.5 -4 7)" gradientUnits="userSpaceOnUse"><stop offset="0%" stop-color="#b13589" stop-opacity="1"/><stop offset="79.309%" stop-color="#c62f94" stop-opacity="1"/><stop offset="100%" stop-color="#8a3ac8" stop-opacity="1"/></radialGradient><rect width="28" height="28" x="-14" y="-14" rx="6" ry="6" stroke="none" stroke-width="1" stroke-dasharray="none" stroke-linecap="butt" stroke-dashoffset="0" stroke-linejoin="miter" stroke-miterlimit="4" fill="url(#a)" fill-rule="nonzero" opacity="1"/></g><g transform="translate(50.12 50.12)scale(3.57)"><radialGradient id="b" cx="0" cy="0" r="1" fx="0" fy="0" gradientTransform="matrix(9.5 -20.5 20.5 9.5 -5 15)" gradientUnits="userSpaceOnUse"><stop offset="0%" stop-color="#e0e8b7" stop-opacity="1"/><stop offset="44.466%" stop-color="#fb8a2e" stop-opacity="1"/><stop offset="71.474%" stop-color="#e2425c" stop-opacity="1"/><stop offset="100%" stop-color="#e2425c" stop-opacity="0"/></radialGradient><rect width="28" height="28" x="-14" y="-14" rx="6" ry="6" stroke="none" stroke-width="1" stroke-dasharray="none" stroke-linecap="butt" stroke-dashoffset="0" stroke-linejoin="miter" stroke-miterlimit="4" fill="url(#b)" fill-rule="nonzero" opacity="1"/></g><g transform="translate(50.12 50.12)scale(3.57)"><radialGradient id="c" cx="0" cy="0" r="1" fx="0" fy="0" gradientTransform="matrix(38.5 -5.5 1.18 8.23 -15.5 -13)" gradientUnits="userSpaceOnUse"><stop offset="15.67%" stop-color="#406adc" stop-opacity="1"/><stop offset="46.78%" stop-color="#6a45be" stop-opacity="1"/><stop offset="100%" stop-color="#6a45be" stop-opacity="0"/></radialGradient><rect width="28" height="28" x="-14" y="-14" rx="6" ry="6" stroke="none" stroke-width="1" stroke-dasharray="none" stroke-linecap="butt" stroke-dashoffset="0" stroke-linejoin="miter" stroke-miterlimit="4" fill="url(#c)" fill-rule="nonzero" opacity="1"/></g><path d="M23 10.5a1.5 1.5 0 1 1-3 0 1.5 1.5 0 0 1 3 0" transform="translate(-7.068 -7.011)scale(3.57)" stroke="none" stroke-width="1" stroke-dasharray="none" stroke-linecap="butt" stroke-dashoffset="0" stroke-linejoin="miter" stroke-miterlimit="4" fill="#fff" fill-rule="nonzero" opacity="1"/><path d="M16 21a5 5 0 1 0 0-10 5 5 0 0 0 0 10m0-2a3 3 0 1 0 0-6 3 3 0 0 0 0 6" transform="translate(-7.028 -7.028)scale(3.57)" stroke="none" stroke-width="1" stroke-dasharray="none" stroke-linecap="butt" stroke-dashoffset="0" stroke-linejoin="miter" stroke-miterlimit="4" fill="#fff" fill-rule="evenodd" opacity="1"/><path d="M6 15.6c0-3.36 0-5.04.654-6.324a6 6 0 0 1 2.622-2.622C10.56 6 12.24 6 15.6 6h.8c3.36 0 5.04 0 6.324.654a6 6 0 0 1 2.622 2.622C26 10.56 26 12.24 26 15.6v.8c0 3.36 0 5.04-.654 6.324a6 6 0 0 1-2.622 2.622C21.44 26 19.76 26 16.4 26h-.8c-3.36 0-5.04 0-6.324-.654a6 6 0 0 1-2.622-2.622C6 21.44 6 19.76 6 16.4zM15.6 8h.8c1.713 0 2.878.002 3.778.075.877.072 1.325.202 1.638.361a4 4 0 0 1 1.748 1.748c.16.313.29.761.36 1.638.074.9.076 2.065.076 3.778v.8c0 1.713-.002 2.878-.075 3.778-.072.877-.202 1.325-.361 1.638a4 4 0 0 1-1.748 1.748c-.313.16-.761.29-1.638.36-.9.074-2.065.076-3.778.076h-.8c-1.713 0-2.878-.002-3.778-.075-.877-.072-1.325-.202-1.638-.361a4 4 0 0 1-1.748-1.748c-.16-.313-.29-.761-.36-1.638C8.001 19.278 8 18.113 8 16.4v-.8c0-1.713.002-2.878.075-3.778.072-.877.202-1.325.361-1.638a4 4 0 0 1 1.748-1.748c.313-.16.761-.29 1.638-.36.9-.074 2.065-.076 3.778-.076" transform="translate(-6.994 -6.994)scale(3.57)" stroke="none" stroke-width="1" stroke-dasharray="none" stroke-linecap="butt" stroke-dashoffset="0" stroke-linejoin="miter" stroke-miterlimit="4" fill="#fff" fill-rule="evenodd" opacity="1"/></svg>