<svg xmlns="http://www.w3.org/2000/svg" xml:space="preserve" viewBox="0 0 100 100"><g transform="translate(50.12 50.12)scale(3.57)"><radialGradient id="a" cx="0" cy="0" r="1" fx="0" fy="0" gradientTransform="matrix(14.5 -21 21 14.5 -4 7)" gradientUnits="userSpaceOnUse"><stop offset="0%" stop-color="#b13589"/><stop offset="79.309%" stop-color="#c62f94"/><stop offset="100%" stop-color="#8a3ac8"/></radialGradient><rect width="28" height="28" x="-14" y="-14" fill="url(#a)" rx="6" ry="6"/></g><g transform="translate(50.12 50.12)scale(3.57)"><radialGradient id="b" cx="0" cy="0" r="1" fx="0" fy="0" gradientTransform="matrix(9.5 -20.5 20.5 9.5 -5 15)" gradientUnits="userSpaceOnUse"><stop offset="0%" stop-color="#e0e8b7"/><stop offset="44.466%" stop-color="#fb8a2e"/><stop offset="71.474%" stop-color="#e2425c"/><stop offset="100%" stop-color="#e2425c" stop-opacity="0"/></radialGradient><rect width="28" height="28" x="-14" y="-14" fill="url(#b)" rx="6" ry="6"/></g><g transform="translate(50.12 50.12)scale(3.57)"><radialGradient id="c" cx="0" cy="0" r="1" fx="0" fy="0" gradientTransform="matrix(38.5 -5.5 1.18 8.23 -15.5 -13)" gradientUnits="userSpaceOnUse"><stop offset="15.67%" stop-color="#406adc"/><stop offset="46.78%" stop-color="#6a45be"/><stop offset="100%" stop-color="#6a45be" stop-opacity="0"/></radialGradient><rect width="28" height="28" x="-14" y="-14" fill="url(#c)" rx="6" ry="6"/></g><path fill="#fff" d="M75.042 30.474a5.355 5.355 0 1 1-10.71 0 5.355 5.355 0 0 1 10.71 0"/><path fill="#fff" fill-rule="evenodd" d="M50.092 67.942a17.85 17.85 0 1 0 0-35.7 17.85 17.85 0 0 0 0 35.7m0-7.14a10.71 10.71 0 1 0 0-21.42 10.71 10.71 0 0 0 0 21.42"/><path fill="#fff" fill-rule="evenodd" d="M14.426 48.698c0-11.995 0-17.993 2.335-22.577a21.42 21.42 0 0 1 9.36-9.36c4.584-2.335 10.582-2.335 22.577-2.335h2.856c11.995 0 17.993 0 22.577 2.335a21.42 21.42 0 0 1 9.36 9.36c2.335 4.584 2.335 10.582 2.335 22.577v2.856c0 11.995 0 17.993-2.335 22.577a21.42 21.42 0 0 1-9.36 9.36c-4.584 2.335-10.582 2.335-22.577 2.335h-2.856c-11.995 0-17.993 0-22.577-2.335a21.42 21.42 0 0 1-9.36-9.36c-2.335-4.584-2.335-10.582-2.335-22.577zm34.272-27.132h2.856c6.115 0 10.274.007 13.487.268 3.131.257 4.73.72 5.848 1.289a14.28 14.28 0 0 1 6.24 6.24c.572 1.117 1.036 2.717 1.286 5.848.264 3.213.271 7.372.271 13.487v2.856c0 6.115-.007 10.274-.268 13.487-.257 3.131-.72 4.73-1.289 5.848a14.28 14.28 0 0 1-6.24 6.24c-1.117.572-2.717 1.036-5.848 1.286-3.213.264-7.372.271-13.487.271h-2.856c-6.115 0-10.274-.007-13.487-.268-3.131-.257-4.73-.72-5.848-1.289a14.28 14.28 0 0 1-6.24-6.24c-.572-1.117-1.036-2.717-1.286-5.848-.267-3.213-.271-7.372-.271-13.487v-2.856c0-6.115.007-10.274.268-13.487.257-3.131.72-4.73 1.289-5.848a14.28 14.28 0 0 1 6.24-6.24c1.117-.572 2.717-1.036 5.848-1.286 3.213-.264 7.372-.271 13.487-.271"/></svg>