<svg xmlns="http://www.w3.org/2000/svg" fill="none" viewBox="0 0 100 100"><path fill="#1EBBEE" d="M100 52.404a44.7 44.7 0 0 0-5.628-21.786C109.649-3.958 78.002 1.107 76.24 1.451a80.5 80.5 0 0 0-18.63 6.09 45 45 0 0 0-2.547-.075c-21.354 0-39.228 14.894-43.802 34.86C22.515 29.7 30.39 24.606 35.108 22.567q-1.122 1.005-2.215 2.038c-.241.228-.474.46-.711.688q-.717.687-1.422 1.385c-.277.276-.546.555-.82.833q-.618.628-1.228 1.264-.428.45-.848.903-.565.602-1.12 1.213-.426.472-.846.946a125 125 0 0 0-3.66 4.31q-.44.544-.873 1.092-.422.528-.832 1.056c-.26.335-.513.668-.767 1.002-.287.378-.577.755-.856 1.13-.2.27-.392.536-.588.803a139 139 0 0 0-5.997 8.879l-.06.096q-.536.867-1.061 1.741l-.037.06a144 144 0 0 0-2.553 4.43C4.566 63.77 2.596 68.894 2.51 69.197c-12.78 45.692 27.108 26.397 32.674 23.517a44.75 44.75 0 0 0 19.878 4.627c19.54 0 36.164-12.473 42.352-29.89H73.803c-3.493 5.902-10.22 9.9-17.947 9.9-11.322 0-20.5-8.578-20.5-19.16H99.63c.244-1.895.37-3.827.37-5.788m-8.394-44.22c3.87 2.612 6.973 6.713 1.643 20.527-5.113-8.222-12.804-14.671-21.946-18.216 4.159-2.009 14.457-6.257 20.303-2.311M9.367 92.623c-3.152-3.233-3.71-11.105 3.246-25.451 3.51 10.092 10.514 18.548 19.567 23.914-4.502 2.478-16.455 8.058-22.813 1.537m25.89-46.72c.36-10.284 9.31-18.52 20.308-18.52s19.948 8.236 20.308 18.52z"/></svg>