<svg xmlns="http://www.w3.org/2000/svg" fill="none" viewBox="0 0 100 100"><path fill="#DC395F" d="M90.935 0H9.065A9.065 9.065 0 0 0 0 9.066v81.87A9.065 9.065 0 0 0 9.065 100h81.87A9.065 9.065 0 0 0 100 90.935V9.065A9.065 9.065 0 0 0 90.935 0"/><path fill="#fff" d="M33.42 31.464c3.324 0 6.109-2.606 6.109-6.02s-2.785-6.018-6.11-6.018c-3.323 0-6.107 2.605-6.107 6.017 0 3.415 2.784 6.02 6.108 6.02M20.753 63.698a20.7 20.7 0 0 0-.538 4.522c0 5.301 2.874 8.82 8.983 8.82 5.066 0 9.174-3.009 12.131-7.867l-1.806 7.248h10.061l5.75-23.063c1.438-5.839 4.222-8.87 8.445-8.87 3.324 0 5.39 2.068 5.39 5.48 0 .989-.09 2.066-.45 3.234l-2.964 10.6a16 16 0 0 0-.628 4.492c0 5.033 2.963 8.714 9.162 8.714 5.3 0 9.522-3.412 11.858-11.588l-3.952-1.526c-1.977 5.477-3.684 6.468-5.031 6.468-1.348 0-2.067-.898-2.067-2.694 0-.808.18-1.706.45-2.786l2.875-10.328c.718-2.425.988-4.575.988-6.55 0-7.726-4.672-11.758-10.331-11.758-5.3 0-10.69 4.78-13.385 9.812l1.975-9.031H42.31l-2.157 7.954h7.188l-4.426 17.72c-3.476 7.725-9.86 7.85-10.66 7.671-1.316-.297-2.158-.796-2.158-2.506 0-.986.18-2.403.629-4.111l6.738-26.728H20.395l-2.157 7.954h7.097z"/></svg>