<svg xmlns="http://www.w3.org/2000/svg" fill="none" viewBox="0 0 100 100"><path fill="#3880FF" fill-rule="evenodd" d="m95.102 28.3.408.952C98.503 35.851 100 42.79 100 50.001 100 77.55 77.55 100 50 100S0 77.551 0 50 22.449 0 50 0c8.095 0 15.782 1.905 22.857 5.443l.952.476-.816.68a15.5 15.5 0 0 0-4.625 6.055l-.273.68-.612-.272C61.973 10.477 56.123 9.116 50 9.116c-22.585 0-40.884 18.3-40.884 40.885S27.415 90.885 50 90.885 90.884 72.517 90.884 50c0-5.375-1.02-10.68-3.129-15.647l-.272-.68.68-.272a15.9 15.9 0 0 0 6.259-4.286zm-12.381.952c5.748 0 10.408-4.66 10.408-10.408S88.47 8.436 82.721 8.436s-10.408 4.66-10.408 10.408 4.66 10.408 10.408 10.408M50 27.212c-12.585 0-22.79 10.204-22.79 22.789S37.416 72.79 50 72.79 72.789 62.586 72.789 50c0-12.584-10.204-22.788-22.79-22.788" clip-rule="evenodd"/></svg>