<svg xmlns="http://www.w3.org/2000/svg" fill="none" viewBox="0 0 100 100"><path fill="#5382A1" d="M36.753 77.336s-3.822 2.222 2.72 2.974c7.924.904 11.973.775 20.706-.878 0 0 2.296 1.44 5.502 2.686-19.576 8.39-44.304-.486-28.928-4.782M34.36 66.388s-4.286 3.172 2.26 3.85c8.464.873 15.149.944 26.716-1.283 0 0 1.6 1.622 4.116 2.509-23.668 6.92-50.03.546-33.092-5.076"/><path fill="#E76F00" d="M54.527 47.816c4.823 5.553-1.268 10.55-1.268 10.55s12.248-6.322 6.623-14.24c-5.253-7.383-9.282-11.052 12.528-23.7 0 0-34.234 8.55-17.883 27.39"/><path fill="#5382A1" d="M80.418 85.434s2.827 2.33-3.115 4.133c-11.3 3.423-47.03 4.457-56.956.136-3.568-1.552 3.124-3.706 5.228-4.158 2.195-.476 3.45-.387 3.45-.387-3.968-2.796-25.648 5.489-11.012 7.86 39.913 6.474 72.757-2.914 62.405-7.584M38.59 55.044s-18.174 4.317-6.436 5.884c4.956.664 14.837.514 24.04-.257 7.522-.634 15.075-1.984 15.075-1.984s-2.653 1.136-4.571 2.446c-18.457 4.854-54.11 2.596-43.846-2.369 8.68-4.196 15.738-3.72 15.738-3.72m32.603 18.224c18.762-9.75 10.088-19.118 4.033-17.856-1.484.309-2.146.577-2.146.577s.551-.863 1.603-1.237c11.978-4.211 21.19 12.42-3.867 19.008 0 0 .29-.26.377-.492"/><path fill="#E76F00" d="M59.882 0s10.39 10.395-9.855 26.378c-16.234 12.82-3.702 20.131-.006 28.483-9.477-8.55-16.432-16.076-11.766-23.081C45.103 21.496 64.075 16.51 59.882 0"/><path fill="#5382A1" d="M40.434 99.686c18.009 1.153 45.663-.64 46.318-9.16 0 0-1.259 3.23-14.883 5.795-15.371 2.893-34.329 2.555-45.573.701 0 0 2.302 1.905 14.138 2.664"/></svg>