<svg xmlns="http://www.w3.org/2000/svg" fill="none" viewBox="0 0 100 100"><path fill="#1266A9" d="M5.857 68.026c.096.217.205.417.321.617.054.117.13.237.196.346.108.216.225.425.338.633l.654 1.1c.12.204.237.404.375.604.229.392.5.775.737 1.167.109.163.209.325.33.488.458.712.874 1.304 1.32 1.879.317.429.634.85.975 1.27.113.159.238.317.354.476l.921 1.116c.113.13.225.28.346.413.409.491.842.966 1.275 1.45 0 .008.013.017.021.029a12.6 12.6 0 0 0 1.75 1.808l.017.017c.333.342.666.68 1.02 1.013l.421.404c.463.433.925.862 1.413 1.279.008 0 .012.008.02.012l.238.209c.425.37.854.737 1.292 1.079l.52.437c.355.284.722.55 1.084.83l.567.433c.387.291.8.575 1.196.858.145.104.291.209.441.304l.121.096 1.171.767.5.333c.613.392 1.22.758 1.83 1.125.174.088.35.184.512.284.45.258.916.52 1.37.758.25.142.509.262.767.392.313.175.638.345.971.52.092.03.167.059.242.1l.016-.016c.138.062.267.129.4.196.5.25 1.021.487 1.563.72.1.042.208.084.317.142.6.263 1.2.513 1.82.754.142.042.292.113.438.167.562.212 1.142.43 1.717.633l.208.075a57 57 0 0 0 1.917.621c.15.042.304.096.462.138.663.2 1.304.437 1.975.562 42.805 7.763 55.242-25.609 55.242-25.609C87.108 84.598 68.562 88.169 51 84.194c-.65-.15-1.3-.358-1.959-.55q-1.394-.394-2.762-.87l.395.12-.258-.1c-.566-.192-1.112-.404-1.666-.617a6 6 0 0 0-.413-.158l-.046-.012a54 54 0 0 1-1.8-.759c-.129-.041-.237-.1-.367-.15q-1.05-.458-2.083-.958l.575.254a6 6 0 0 1-.441-.217c-.392-.183-.784-.391-1.167-.587a16 16 0 0 1-.863-.442l.084.042c-.471-.25-.942-.52-1.417-.775-.142-.1-.304-.183-.467-.275a58 58 0 0 1-2.091-1.275l.262.158a9 9 0 0 1-.517-.346l.025.017a25 25 0 0 1-1.316-.867c-.142-.091-.271-.191-.417-.291a35 35 0 0 1-1.325-.95l.1.07c-.175-.141-.363-.274-.55-.412-.367-.287-.737-.562-1.104-.862l-.492-.392a42 42 0 0 1-1.542-1.288l-.004-.004-1.445-1.312-.417-.392c-.342-.346-.692-.675-1.042-1.017l-.404-.416a38 38 0 0 1-1.263-1.313l-.025-.029-.07-.058a75 75 0 0 1-1.305-1.471c-.112-.13-.216-.267-.333-.404l-.946-1.146a57 57 0 0 1-1.25-1.63l-.166-.233C8.966 49.043 5.44 30.78 13.237 15.796l-6.884 8.705C-2.5 37.164-1.405 53.63 5.366 67.076c.154.33.325.638.491.95"/><path fill="#000" d="m35.679 49.785-.046-.067-.038-.05z"/><path fill="#1266A9" d="m40.337 55.251.375.375c.475.458.962.904 1.458 1.35l.063.054c.5.442 1.062.904 1.641 1.354l.088.067c.141.096.262.208.4.304.583.45 1.17.88 1.783 1.309l.063.037c.258.188.533.358.825.542.116.075.25.175.375.25.441.283.875.546 1.32.816.071.03.134.067.2.096.376.23.784.45 1.176.65.137.084.27.146.412.225.28.138.554.284.82.425l.134.059c.563.275 1.138.533 1.7.787.142.054.263.1.384.158.462.2.933.392 1.395.567.209.071.405.154.6.217.425.158.871.304 1.292.45l.584.187c.608.188 1.225.434 1.87.534C92.35 71.505 100 46.184 100 46.184c-6.888 9.863-20.217 14.563-34.421 10.892q-1.064-.268-2.109-.604l.238.066c-.2-.054-.375-.116-.567-.174-.433-.15-.879-.296-1.3-.45l-.6-.226c-.466-.187-.941-.362-1.396-.562-.141-.062-.27-.104-.379-.167-.583-.262-1.17-.52-1.742-.796l-.858-.445-.496-.25c-.383-.2-.737-.409-1.104-.621a2 2 0 0 1-.27-.15l.012.004c-.442-.275-.9-.542-1.325-.82-.142-.08-.271-.176-.404-.26l-.867-.562c-.6-.416-1.188-.862-1.783-1.295-.134-.121-.263-.221-.392-.33-6.246-4.887-11.171-11.566-13.509-19.13-2.462-7.862-1.92-16.678 2.334-23.833l-5.23 7.367c-6.42 9.171-6.058 21.43-1.058 31.13a37.4 37.4 0 0 0 2.859 4.746c.95 1.358 2 2.95 3.266 4.041.45.513.934 1 1.438 1.496"/><path fill="#1266A9" d="M56.941 5.863c-3.787 5.53-4.15 12.396-1.541 18.492 2.77 6.475 8.433 11.558 15.033 13.967.271.104.534.191.813.291l.366.113c.384.12.771.262 1.167.35 18.254 3.504 23.196-9.325 24.525-11.213-4.346 6.209-11.633 7.7-20.575 5.538a20 20 0 0 1-2.292-.709l.138.046a26 26 0 0 1-2.733-1.125l.158.071a27 27 0 0 1-4.538-2.767C59.471 22.876 54.53 11.371 59.746 2z"/></svg>