<svg xmlns="http://www.w3.org/2000/svg" fill="none" viewBox="0 0 100 100"><path fill="#FAEBD7" d="M81.25 0h-62.5C8.395 0 0 8.395 0 18.75v62.5C0 91.605 8.395 100 18.75 100h62.5C91.605 100 100 91.605 100 81.25v-62.5C100 8.395 91.605 0 81.25 0"/><path fill="#2F4F4F" d="M15.527.313C11.7.996 8.496 2.637 5.703 5.352c-2.48 2.402-4.16 5.293-5.156 8.906l-.45 1.66v68.164l.43 1.64c1.856 6.895 6.797 11.837 13.73 13.731l1.66.45h68.165l1.66-.45c6.875-1.875 11.875-6.875 13.711-13.71l.45-1.661V50c0-37.852.097-34.785-1.29-38.262C96.601 6.68 92.012 2.461 86.72.801 84.12 0 84.12 0 49.824.02c-27.46.02-32.988.058-34.297.293M84.141 5c.859.176 2.285.684 3.359 1.191 1.562.762 2.11 1.153 3.633 2.676s1.914 2.07 2.675 3.633c1.622 3.36 1.524.723 1.465 38.184-.078 37.168.059 33.75-1.523 36.933-1.328 2.735-4.297 5.489-7.129 6.66-2.559 1.075-1.29 1.035-36.621 1.035s-34.063.04-36.621-1.035c-2.832-1.171-5.801-3.925-7.13-6.66-1.581-3.183-1.444.235-1.523-36.933C4.668 13.204 4.57 15.82 6.191 12.5c.762-1.562 1.172-2.129 2.676-3.633 1.523-1.523 2.07-1.914 3.633-2.676 3.262-1.582.644-1.464 37.363-1.484 28.965-.02 32.95.02 34.278.293"/><path fill="#2F4F4F" d="m34.14 31.68-.058 16.66-4.14.058-4.16.04v-12.5h-8.4v10.644l2.989 2.988 2.969 2.97h13.28l2.89-2.892 2.872-2.87v-31.74H34.18zm19.61-13.653-2.969 2.97v8.593l6.25 6.25 6.25 6.25v6.348h-3.906l-4.102-2.051c-2.246-1.133-4.18-2.051-4.297-2.051s-.195.508-.195 1.133v1.113l2.988 2.988 2.97 2.97h8.984l2.988-2.99 2.969-2.968v-8.594l-6.25-6.25-6.25-6.25v-6.347h4.101l4.102 2.05c2.246 1.133 4.14 2.051 4.199 2.051s.098-.508.098-1.133v-1.113l-2.989-2.988-2.969-2.969h-8.984zm-37.344 55.41V87.5h15.625v-3.125h-9.375v-25h-6.25zm21.875-12.499V62.5h6.25v-3.125h-6.25zm37.5 1.562v3.125h-3.125v3.125h3.125v14.355l2.207 2.207 2.188 2.188h4.98v-3.125h-3.125V68.75h3.125v-3.125h-3.125v-6.25h-6.25zm-37.5 14.062V87.5h6.25V65.625h-6.25zm12.5 0V87.5h6.25V68.75h6.25V87.5h6.25V70.02l-2.207-2.208-2.187-2.187H50.78z"/></svg>