<svg xmlns="http://www.w3.org/2000/svg" fill="none" viewBox="12 0 50 45" key="7l3ds29"><path fill="#7D64FF" fill-rule="evenodd" d="M39.154 16.883 51.575 0 62 45H12L28.73 9.31zm-6.462 16.215 2.971 4.072v-.001h3.189l-3.486-4.777 3.07-4.209-2.086-1.51-3.658 5.015v-7.661l-2.75-1.989V37.17h2.75zm6.595-.42c0 2.574 2.095 4.661 4.68 4.661 2.587 0 4.682-2.087 4.682-4.66a4.67 4.67 0 0 0-3.924-4.6l2.239-3.069-2.086-1.51-4.695 6.435a4.62 4.62 0 0 0-.896 2.743m6.692 0c0 1.106-.9 2.003-2.011 2.003a2.007 2.007 0 0 1-2.012-2.003c0-1.106.9-2.003 2.012-2.003 1.11 0 2.011.897 2.011 2.003" clip-rule="evenodd" key="yne7jdg"/></svg>