<svg xmlns="http://www.w3.org/2000/svg" fill="none" viewBox="0 0 106 103"><path fill="#fff" stroke="#fff" stroke-miterlimit="10" stroke-width="5" d="M94.252 24.498c-.572-1.83-1.944-3.316-3.66-4.23L55.716 3.57C54.8 3.114 53.77 3 52.855 3s-1.943 0-2.858.228l-34.878 16.81c-1.716.8-2.974 2.288-3.431 4.232L3.111 61.892a7.22 7.22 0 0 0 1.258 5.49L28.5 97.227c1.371 1.372 3.315 2.287 5.26 2.401h38.423c2.058.229 4.002-.686 5.26-2.401L101.57 67.38c1.143-1.6 1.601-3.545 1.372-5.489z"/><path fill="#326DE6" d="M94.252 24.498c-.572-1.83-1.944-3.316-3.66-4.23L55.716 3.57C54.8 3.114 53.77 3 52.855 3s-1.943 0-2.858.228l-34.878 16.81c-1.716.8-2.974 2.288-3.431 4.232L3.111 61.892a7.22 7.22 0 0 0 1.258 5.49L28.5 97.227c1.371 1.372 3.315 2.287 5.26 2.401h38.423c2.058.229 4.002-.686 5.26-2.401L101.57 67.38c1.143-1.6 1.601-3.545 1.372-5.489z"/><path fill="#fff" d="M88.877 60.406c-.114 0-.228 0-.228-.115 0-.114-.23-.114-.458-.114-.457-.114-.915-.114-1.372-.114-.229 0-.458 0-.686-.115h-.115a23 23 0 0 1-3.888-.686 1.38 1.38 0 0 1-.8-.8l-.915-.23c.457-3.315.229-6.746-.457-10.062a31 31 0 0 0-4.003-9.377l.686-.687v-.114c0-.343.115-.8.343-1.03 1.03-.914 2.059-1.6 3.202-2.286l.686-.343c.458-.229.8-.458 1.258-.686.115-.115.229-.115.343-.23.115-.113 0-.113 0-.228 1.03-.8 1.258-2.172.458-3.202-.343-.457-1.03-.8-1.601-.8-.572 0-1.144.229-1.601.572l-.114.114c-.115.114-.23.229-.344.229-.343.343-.686.686-.914 1.029-.115.229-.343.343-.458.457-.8.915-1.83 1.83-2.859 2.516-.228.114-.457.229-.686.229-.114 0-.343 0-.457-.115h-.115l-.914.572c-.915-.915-1.944-1.83-2.86-2.744-4.23-3.317-9.49-5.375-14.865-5.947l-.115-.915v.115c-.343-.229-.457-.572-.572-.915 0-1.258 0-2.516.23-3.888v-.114c0-.23.114-.458.114-.687.114-.457.114-.914.228-1.372v-.686c.115-1.143-.8-2.287-1.944-2.401-.686-.115-1.372.228-1.944.8a2.26 2.26 0 0 0-.686 1.601v.572c0 .457.114.915.229 1.372.114.229.114.457.114.686v.114c.229 1.258.229 2.516.229 3.889-.114.343-.229.686-.572.914v.23l-.114.914c-1.258.114-2.516.343-3.888.572-5.375 1.143-10.292 4.002-14.066 8.005l-.686-.458h-.114c-.115 0-.229.114-.458.114s-.457-.114-.686-.228c-1.03-.8-2.058-1.715-2.859-2.63-.114-.23-.343-.343-.457-.458-.343-.343-.572-.686-.915-1.029-.114-.114-.229-.114-.343-.229l-.114-.114c-.458-.343-1.03-.572-1.601-.572-.686 0-1.258.229-1.601.8-.686 1.03-.458 2.402.457 3.203.114 0 .114.114.114.114s.23.229.343.229c.344.228.801.457 1.258.686l.686.343c1.144.686 2.288 1.372 3.202 2.287.23.229.458.686.344 1.03v-.115l.686.686c-.115.229-.23.343-.343.572-3.545 5.603-5.032 12.236-4.003 18.754l-.915.228c0 .115-.114.115-.114.115-.114.343-.457.572-.8.8a21 21 0 0 1-3.889.686c-.228 0-.457 0-.686.115-.457 0-.915.114-1.372.114-.114 0-.229.114-.457.114-.115 0-.115 0-.23.115-1.257.229-2.057 1.372-1.829 2.63.229 1.03 1.258 1.715 2.287 1.601.23 0 .343 0 .572-.114.114 0 .114 0 .114-.115 0-.114.344 0 .458 0 .457-.114.915-.343 1.258-.457.229-.114.457-.229.686-.229h.114c1.258-.457 2.402-.8 3.774-1.029h.114c.343 0 .686.114.915.343.114 0 .114.114.114.114l1.03-.114c1.715 5.26 4.917 9.949 9.377 13.38 1.029.8 1.944 1.486 3.087 2.058l-.571.8c0 .115.114.115.114.115.229.343.229.8.114 1.143-.457 1.144-1.143 2.287-1.83 3.317v.114c-.114.229-.228.343-.457.572s-.457.686-.8 1.143c-.115.115-.115.229-.229.343 0 0 0 .115-.114.115-.572 1.143-.115 2.515.914 3.087.23.115.572.229.801.229.915 0 1.715-.572 2.173-1.372 0 0 0-.115.114-.115 0-.114.114-.228.229-.343.114-.457.343-.8.457-1.258l.229-.686c.343-1.258.915-2.401 1.486-3.545.23-.343.572-.572.915-.686.115 0 .115 0 .115-.114l.457-.915c3.202 1.258 6.518 1.83 9.949 1.83 2.058 0 4.117-.23 6.175-.8 1.258-.23 2.516-.687 3.66-1.03l.457.8c.114 0 .114 0 .114.115.343.114.686.343.915.686.572 1.143 1.144 2.287 1.487 3.545v.114l.228.686c.115.458.229.915.458 1.258.114.115.114.229.228.343 0 0 0 .115.115.115.457.8 1.258 1.372 2.173 1.372.343 0 .571-.114.914-.229.458-.228.915-.686 1.03-1.258s.114-1.143-.115-1.715c0-.114-.114-.114-.114-.114 0-.115-.114-.23-.229-.343-.228-.458-.457-.8-.8-1.144-.115-.229-.229-.343-.458-.572v-.228c-.8-1.03-1.372-2.173-1.83-3.317-.114-.343-.114-.8.115-1.143 0-.115.114-.115.114-.115l-.343-.915c5.832-3.544 10.292-9.033 12.35-15.552l.915.115c.115 0 .115-.115.115-.115.228-.228.572-.343.914-.343h.115a19 19 0 0 1 3.66 1.03h.114c.228.114.457.228.686.228.457.229.8.458 1.258.572.114 0 .228.114.457.114.114 0 .114 0 .229.115.228.114.343.114.572.114 1.029 0 1.944-.686 2.287-1.601-.115-1.258-1.03-2.173-2.059-2.401M55.83 56.86l-3.088 1.486-3.087-1.486-.8-3.317 2.172-2.744h3.43l2.173 2.744zm18.64-7.433c.571 2.401.686 4.802.457 7.204l-10.864-3.088c-1.029-.228-1.6-1.258-1.372-2.287.114-.343.229-.572.458-.8l8.576-7.776c1.258 2.058 2.173 4.345 2.745 6.747M68.293 38.45l-9.377 6.632c-.8.457-1.944.343-2.515-.457-.23-.229-.344-.458-.344-.8l-.686-11.55c5.032.571 9.492 2.744 12.922 6.175m-20.698-5.833 2.287-.457-.571 11.436c0 1.029-.915 1.83-1.944 1.83-.343 0-.572-.115-.915-.23L36.96 38.45c2.974-2.86 6.633-4.918 10.635-5.833M33.644 42.682l8.462 7.547c.8.686.915 1.83.229 2.63-.229.343-.457.458-.915.572l-11.092 3.202a24.07 24.07 0 0 1 3.316-13.951M31.7 62.007l11.321-1.944c.915 0 1.83.571 1.944 1.486.114.343.114.8-.114 1.144l-4.346 10.52c-4.002-2.63-7.204-6.632-8.805-11.206m25.958 14.18c-1.6.343-3.202.571-4.917.571-2.401 0-4.917-.457-7.204-1.143l5.603-10.178c.572-.686 1.487-.915 2.287-.457.343.228.572.457.915.8l5.49 9.95c-.687.113-1.373.228-2.174.456m13.952-9.95a21.8 21.8 0 0 1-6.862 6.862l-4.46-10.75c-.228-.914.23-1.83 1.03-2.172.343-.114.686-.229 1.029-.229l11.435 1.944c-.571 1.601-1.257 3.088-2.172 4.346"/></svg>