<svg xmlns="http://www.w3.org/2000/svg" fill="none" viewBox="0 0 100 100"><path fill="#FF2D20" d="M98.494 22.486q.054.2.054.406v21.334a1.56 1.56 0 0 1-.782 1.35L79.86 55.884v20.434a1.56 1.56 0 0 1-.777 1.349L41.705 99.185c-.085.049-.179.08-.272.113-.035.011-.068.033-.105.043a1.6 1.6 0 0 1-.797 0c-.043-.012-.082-.035-.123-.051-.085-.031-.175-.058-.256-.105L2.782 77.668A1.56 1.56 0 0 1 2 76.318V12.317q.001-.21.055-.408c.011-.045.039-.086.054-.13.03-.082.057-.166.1-.242.028-.05.071-.09.106-.138.045-.062.086-.126.138-.18.045-.045.103-.078.154-.117.056-.047.107-.097.171-.134h.002L21.466.208a1.56 1.56 0 0 1 1.555 0l18.686 10.759h.004c.062.039.115.087.171.132.05.039.107.074.152.117.054.056.093.12.14.182.033.047.078.088.105.139.044.077.07.159.1.24.017.045.044.086.055.133q.054.2.055.406v39.975l15.57-8.965V22.89c0-.136.02-.274.055-.405.014-.046.039-.087.055-.132.03-.081.058-.165.1-.24.03-.051.073-.092.106-.139.046-.062.085-.126.14-.18.044-.046.1-.079.151-.117.059-.047.11-.098.171-.135h.002l18.688-10.758a1.56 1.56 0 0 1 1.556 0l18.686 10.758c.066.04.116.088.174.133.05.038.106.073.15.116.055.057.093.12.14.183.035.047.078.088.105.138.045.076.07.16.101.241.018.045.043.086.055.132m-3.06 20.84v-17.74l-6.54 3.764-9.034 5.202v17.74l15.575-8.965zM76.746 75.418V57.666l-8.885 5.075-25.375 14.482v17.92zM5.115 15.01v60.41l34.257 19.72V77.225L21.476 67.096l-.006-.004-.008-.004c-.06-.035-.11-.085-.167-.128-.049-.039-.105-.07-.148-.113l-.004-.005c-.05-.05-.085-.11-.128-.164-.04-.052-.086-.097-.117-.151l-.002-.006c-.035-.059-.056-.129-.082-.195-.025-.058-.058-.112-.073-.175v-.002c-.02-.074-.024-.151-.032-.227-.007-.058-.023-.117-.023-.175V23.975l-9.032-5.203-6.539-3.76zm17.13-11.655L6.678 12.316l15.565 8.962 15.567-8.964-15.567-8.96zm8.097 55.93 9.032-5.2V15.01l-6.54 3.765-9.033 5.2V63.05zM78.305 13.93l-15.567 8.962 15.567 8.962L93.87 22.89zm-1.558 20.62-9.033-5.2-6.54-3.765v17.74l9.032 5.2 6.541 3.766zm-35.82 39.98 22.834-13.036 11.413-6.513-15.555-8.956-17.91 10.31-16.323 9.398z"/></svg>