<svg xmlns="http://www.w3.org/2000/svg" fill="none" viewBox="0 0 102 100"><path fill="url(#a)" d="M95.853 63.808c0 4.703-3.848 8.552-8.55 8.552H15.428c-4.703 0-8.551-3.849-8.551-8.552V36.576c0-4.704 3.848-8.552 8.551-8.552h71.873c4.703 0 8.551 3.848 8.551 8.552z"/><path fill="#F6F6F6" d="M80.818 49.61q5.635 1.973 5.634 6.752 0 3.146-2.332 4.993c-1.552 1.232-3.767 1.996-6.649 1.996s-5.548-.835-8.004-2.206q.041-1.091.572-2.39t1.248-2.057q3.386 1.76 5.888 1.76 1.183 0 1.822-.398.637-.397.636-1.069 0-1.26-1.95-1.889l-2.332-.88c-3.529-1.287-5.293-3.382-5.293-6.293q0-3.187 2.223-5.056c1.483-1.244 3.48-2.315 5.993-2.315q1.863 0 4.108.524c1.496.35 2.724 1.213 3.684 1.687q.084 1.175-.465 2.58-.551 1.405-1.357 1.993-3.558-1.595-5.93-1.595c-.566 0-.993.126-1.293.379a1.2 1.2 0 0 0-.442.965q0 1.007 1.61 1.593zm-18.762 0q5.633 1.973 5.633 6.752-.002 3.146-2.33 4.993c-1.554 1.232-3.769 1.996-6.65 1.996-2.88 0-5.55-.835-8.004-2.206q.04-1.091.572-2.39.528-1.3 1.249-2.057 3.389 1.76 5.888 1.76 1.185 0 1.82-.398.636-.397.637-1.069 0-1.26-1.95-1.889l-2.33-.88c-3.53-1.287-5.295-3.382-5.295-6.293q0-3.187 2.225-5.056c1.482-1.244 3.479-2.315 5.991-2.315q1.865 0 4.108.524c1.497.35 2.724 1.213 3.685 1.687q.083 1.175-.466 2.58-.55 1.405-1.356 1.993-3.56-1.595-5.932-1.595-.846 0-1.291.379a1.21 1.21 0 0 0-.443.965q0 1.007 1.61 1.593zm-13.683.296q0-1.928-.614-3.566a8 8 0 0 0-1.757-2.81q-1.144-1.176-2.773-1.846c-1.088-.447-2.31-1.12-3.664-1.12-1.61 0-3.015.728-4.214 1.288q-1.8.838-2.964 2.306-1.167 1.47-1.738 3.462-.57 1.992-.571 4.34 0 2.433.466 4.49.466 2.052 1.588 3.564 1.122 1.51 2.923 2.348c1.2.559 2.69.988 4.468.988 3.275 0 6.042-.948 8.3-2.541-.223-1.62-.8-2.91-1.728-3.86q-1.73.65-3.06.934-1.328.282-2.34.283c-1.35 0-2.322-.343-2.912-1.037-.589-.691-.912-1.509-.97-2.75h11.012c.364-1.177.548-2.767.548-4.473m-11.601.29c.084-1.427.344-2.954.777-3.583q.652-.945 1.997-.944 1.386 0 2.08 1.006c.462.671.693 2.024.693 3.058v.464z"/><path fill="#F6F6F6" stroke="#404040" stroke-miterlimit="10" stroke-width=".539" d="M98.07 52.987c-1.197 1.046-1.891 2.55-1.891 4.518v7.327c0 2.435-.749 4.288-2.44 5.561s-3.66 1.902-5.908 1.963l-1.332-.01v-3.651c1.175-.343 1.657-.741 2.124-1.194.847-.765 1.496-2.01 1.496-3.74v-5.915c.031-2.01.186-3.586.918-4.724q1.103-1.705 4.29-2.992-3.522-1.612-4.727-4.209c-.473-1.028-.482-2.416-.482-4.16v-5.425c0-1.792-.586-3.047-1.308-3.763-.469-.468-1.014-.841-2.313-1.123v-3.427c1.588.016 2.39-.002 3.315 0 1.424-.012 2.617.767 3.655 1.578q1.697 1.333 2.405 3.604c.268.874.306 1.71.306 2.505v6.273c0 2.216.654 3.863 1.773 4.939.63.624 1.52 1.194 3.049 1.71v2.833c-1.354.374-2.204.882-2.93 1.522ZM13.837 28.025v.004c-.455-.002-.866-.004-1.196-.003-1.425-.012-2.617.766-3.655 1.578-1.132.89-2.1 2.05-2.404 3.604-.173.912-.137 1.709-.137 2.505v6.274c0 2.215-.824 3.86-1.942 4.938-.63.624-1.974 1.194-3.503 1.709v2.834c1.355.373 2.66.879 3.383 1.52 1.198 1.047 2.061 2.553 2.061 4.52v7.327c0 2.434.58 4.288 2.27 5.56 1.69 1.27 3.659 1.903 5.907 1.964l1.505-.01v-3.653c-1.174-.343-1.826-.742-2.296-1.193-.846-.766-1.325-2.01-1.325-3.739v-5.916c-.033-2.012-.357-3.586-1.09-4.724q-1.1-1.705-4.29-2.992 3.521-1.613 4.727-4.208c.473-1.029.653-2.416.653-4.161v-5.425c0-1.792.416-3.047 1.136-3.764.391-.389 1.086-.71 2.052-.969l1.528.01v-3.59h-3.383Z"/><path fill="#F6F6F6" d="M27.918 57.749h-1.144c-1.244 0-1.712-.654-1.712-1.968V31.644c0-1.451-.419-2.47-.956-3.058-.536-.585-1.468-.58-2.795-.58H18.73L18.424 28v.024l-.002 3.593V56.95c0 2.014.452 3.488 1.257 4.426q1.208 1.405 4.088 1.405 1.992 0 4.532-.42.127-.425.127-1.818 0-1.396-.508-2.794"/><defs><linearGradient id="a" x1="51.366" x2="51.366" y1="28.024" y2="72.36" gradientUnits="userSpaceOnUse"><stop offset=".15" stop-color="#2A4F84"/><stop offset=".388" stop-color="#294E82"/><stop offset="1" stop-color="#172E4E"/></linearGradient></defs></svg>