<svg xmlns="http://www.w3.org/2000/svg" fill="none" viewBox="0 0 100 100"><path fill="#001E36" d="M17.707 1h64.586C92.083 1 100 8.918 100 18.707v62.09c0 9.79-7.917 17.707-17.707 17.707H17.707C7.917 98.504 0 90.587 0 80.798v-62.09C0 8.917 7.917 1 17.707 1"/><path fill="#31A8FF" d="M52.496 69.916H26.092c-.468 0-.663-.234-.663-.74v-42.59a.524.524 0 0 1 .468-.585h8.307c.195-.04.468.116.468.35v35.102H53.94c.43 0 .546.195.468.585l-1.209 7.254c0 .195-.117.39-.234.507a1.04 1.04 0 0 1-.468.117m6.668-33.346h7.294c.429 0 .74.273.858.663a3.6 3.6 0 0 1 .35.975c.079.429.157.858.196 1.287.039.468.078.975.078 1.482 1.248-1.443 2.769-2.652 4.446-3.588a11.95 11.95 0 0 1 6.201-1.482.524.524 0 0 1 .585.468v8.307c0 .351-.195.468-.663.468-2.691-.156-5.421.351-7.878 1.404-.82.39-1.638.858-2.262 1.56V69.37c0 .43-.156.585-.546.585H59.71c-.35.04-.624-.156-.663-.507V46.203c0-1.014 0-2.028-.039-3.12s-.039-2.184-.078-3.237a33 33 0 0 0-.234-2.77c-.039-.194.078-.428.273-.467.078-.078.117-.078.195-.04"/></svg>