<svg xmlns="http://www.w3.org/2000/svg" fill="none" viewBox="0 0 100 100"><path fill="#754ABC" fill-rule="evenodd" d="M39.094 11.27A37.6 37.6 0 0 1 50.006 0a36.8 36.8 0 0 1 10.772 11.049 55.68 55.68 0 0 1 10.467 34.92c2.272 1.832 4.614 3.591 6.849 5.46a12.35 12.35 0 0 1 3.942 11.39c-1.08 5.206-2.114 10.422-3.254 15.615a4.336 4.336 0 0 1-6.6 2.179c-3.668-2.946-7.241-5.994-10.896-8.942a16.73 16.73 0 0 1-10.324 4.483 16.7 16.7 0 0 1-12.087-4.358c-2.627 1.933-5.068 4.255-7.636 6.33a19.7 19.7 0 0 1-3.736 2.877 4.34 4.34 0 0 1-5.725-2.802c-1.174-5.079-2.401-10.14-3.538-15.225a12.33 12.33 0 0 1 4.157-11.862 325 325 0 0 1 6.05-4.753c.565-.288.282-.934.31-1.433a55.77 55.77 0 0 1 10.356-33.641m3.598 15.719a8.554 8.554 0 0 0 .749 11.334 9.413 9.413 0 0 0 12.869.265 8.56 8.56 0 0 0 2.27-9.406 9.1 9.1 0 0 0-7.64-5.681A9.29 9.29 0 0 0 42.708 27" clip-rule="evenodd"/><path fill="#754ABC" d="M37.827 82.436a2.16 2.16 0 0 1 3.198-1.734 20.63 20.63 0 0 0 17.964 0 2.177 2.177 0 0 1 3.202 1.607q.026 4.77 0 9.538a2.15 2.15 0 0 1-3.358 1.557c-.953-.809-1.812-1.718-2.727-2.568-1.455 2.72-2.819 5.478-4.282 8.19a2.178 2.178 0 0 1-3.615.024c-1.468-2.719-2.825-5.494-4.307-8.21-.903.855-1.764 1.762-2.719 2.568a2.156 2.156 0 0 1-3.356-1.576c-.025-3.135 0-6.273 0-9.408m12.109-45.786a4.36 4.36 0 0 0 4.46-4.257v-.028a4.36 4.36 0 0 0-4.428-4.288l-.032.002a4.356 4.356 0 0 0-4.453 4.26l-.002.026a4.36 4.36 0 0 0 4.432 4.285z"/></svg>