<svg xmlns="http://www.w3.org/2000/svg" fill="none" viewBox="0 0 100 100"><path stroke="gray" stroke-dasharray="4.25 4.25" stroke-width="1.131" d="M93.163 27.611A48.738 48.738 0 1 1 76.28 8.862"/><path fill="navy" d="M49.737 87.433c20.82 0 37.696-16.877 37.696-37.696S70.556 12.041 49.737 12.041 12.041 28.918 12.041 49.737c0 20.82 16.877 37.696 37.696 37.696"/><path fill="#fff" d="M65.352 45.164c6.097 0 11.04-4.943 11.04-11.041s-4.943-11.041-11.04-11.041c-6.098 0-11.042 4.943-11.042 11.04 0 6.099 4.944 11.042 11.042 11.042"/><path fill="navy" d="M87.433 23.082c6.098 0 11.041-4.943 11.041-11.041S93.531 1 87.434 1c-6.1 0-11.043 4.943-11.043 11.04s4.944 11.041 11.041 11.041"/><path fill="#fff" d="M39.526 68.585v-2.782H27.312v-21.95h-3.155v24.732zm16.956 0V50.807h-2.816v9.805c0 3.63-1.9 6.005-4.852 6.005-2.239 0-3.664-1.357-3.664-3.495V50.808h-2.816v13.435c0 2.952 2.205 4.852 5.666 4.852 2.612 0 4.275-.916 5.937-3.257v2.748zm20.683-.068v-2.138c-.306.068-.441.068-.61.068-.985 0-1.528-.508-1.528-1.39V55.15c0-3.155-2.307-4.852-6.683-4.852-4.309 0-6.955 1.663-7.125 5.768h2.85c.237-2.172 1.527-3.156 4.173-3.156 2.545 0 3.97.95 3.97 2.647v.746c0 1.188-.713 1.697-2.952 1.968-4.004.509-4.614.645-5.7 1.086-2.07.848-3.121 2.442-3.121 4.614 0 3.223 2.239 5.123 5.835 5.123a8.32 8.32 0 0 0 6.04-2.613 3.01 3.01 0 0 0 2.917 2.341c.577 0 1.018-.068 1.934-.305m-4.954-6.073c0 2.544-2.578 4.173-5.326 4.173-2.205 0-3.495-.78-3.495-2.714 0-1.866 1.256-2.68 4.275-3.121 2.986-.407 3.596-.543 4.546-.984z"/></svg>