<svg xmlns="http://www.w3.org/2000/svg" fill="none" viewBox="0 0 100 100"><path fill="#179DE3" d="M0 40c0-14.001 0-21.002 2.725-26.35A25 25 0 0 1 13.65 2.725C18.998 0 26 0 40 0h20c14.001 0 21.002 0 26.35 2.725A25 25 0 0 1 97.275 13.65C100 18.998 100 26 100 40v20c0 14 0 21.002-2.725 26.35A25 25 0 0 1 86.35 97.275C81.002 100 74 100 60 100H40c-14 0-21.002 0-26.35-2.725A25 25 0 0 1 2.725 86.35C0 81.002 0 74 0 60z"/><path fill="#fff" d="M77.48 34.619a16.78 16.78 0 0 1-9.89-9.891 16.8 16.8 0 0 1-9.892 9.89 16.8 16.8 0 0 1 9.89 9.892 16.8 16.8 0 0 1 9.892-9.891"/><path fill="#fff" d="M50.122 25h-25v50h49.99V50l-24.99 24.99z"/></svg>