<svg xmlns="http://www.w3.org/2000/svg" fill="none" viewBox="0 0 100 100"><path fill="#1F305F" fill-rule="evenodd" d="M97.811 17.001c-1.535.051-1.09.743-4.414 1.564-3.357.826-7.416.32-11.026 1.838-9.447 3.959-10.977 19.265-22.228 25.186-7.377 4.166-14.9 5.122-21.626 7.23-5.398 2.165-8.755 3.6-12.713 7.012-3.07 2.649-3.818 5.218-7.029 8.542-3.256 4.425-15.598.495-18.775 6.044 1.676 1.085 2.643 1.384 5.584.996-.608 1.152-4.476 2.67-3.773 4.369 0 0 9.35 1.703 17.234-3.054 3.677-1.495 7.124-4.661 12.837-5.42 7.4-.984 15.739 1.552 24.685 2.266-1.85 3.655-3.756 5.814-5.797 8.828-.63.68.54 1.282 2.71.871 3.902-.967 6.73-2.013 9.536-3.953 3.66-2.524 5.235-4.835 8.322-8.496 2.683 4.302 12.14 5.246 14.08 1.53-3.61-1.53-4.38-9.486-3.143-12.922 1.462-3.272 2.513-7.9 3.694-12.202 1.063-3.874 1.72-9.784 2.992-12.809 1.518-3.761 4.47-4.937 6.685-6.933 2.216-1.996 4.42-3.66 4.353-8.226-.023-1.485-.788-2.306-2.188-2.26" clip-rule="evenodd"/><path fill="#C0765A" d="M2.823 78.994c5.797.175 7.371.023 11.954-1.968 3.897-1.692 9.11-6.252 13.714-7.726 6.76-2.17 14.007-1.844 21.199-.995 2.407.287 4.824.686 6.55.5 2.694-1.653 2.823-6.14 4.493-6.5-.455 8.682-4.177 14.238-7.9 19.276 7.844-1.383 13.085-6.281 16.256-12.343.962-1.838 2.558-4.847 3.29-6.916.579 1.372-.754 2.244-.13 3.74 5.05-4.167 7.434-8.913 9.48-15.863 2.373-8.04 4.808-14.951 6.338-17.33 1.49-2.322 3.812-3.756 5.932-5.24 2.406-1.693 4.56-3.453 4.931-6.675-2.542-.236-3.126-.82-3.503-2.103-1.27.714-2.44.872-3.762.911-1.147.034-2.406-.017-3.947.14-12.725 1.305-13.315 13.743-22.565 22.875a28 28 0 0 1-2.289 1.94c-2.856 2.13-5.915 3.3-9.137 4.532-5.218 1.99-10.166 2.57-15.058 4.29-3.593 1.26-6.933 2.705-9.885 4.723-.737.507-1.738 1.406-2.379 1.93-1.732 1.416-2.867 2.985-3.97 4.604-1.135 1.665-2.226 3.38-3.896 5.016-2.705 2.654-12.804.776-16.363 3.239-.394.275-.714.602-.928.995 1.94.883 3.239.343 5.471.585.276 2.13-4.622 3.39-3.896 4.363"/><path fill="#1F305F" fill-rule="evenodd" d="M83.478 25.166c1.8 1.563 5.578.31 4.904-2.8-2.8-.236-4.42.714-4.904 2.8" clip-rule="evenodd"/><path fill="#1F305F" d="M96.034 21.528c-.478 1.006-1.394 2.3-1.394 4.858-.006.439-.332.742-.338.062.023-2.502.686-3.582 1.39-4.999.32-.579.517-.343.342.079"/><path fill="#1F305F" d="M95.55 21.151c-.567.956-1.928 2.705-2.147 5.258-.04.438-.4.708-.343.033.247-2.485 1.332-4.043 2.159-5.398.371-.55.545-.298.332.107m-.439-.501c-.646.906-2.738 3.01-3.177 5.528-.079.433-.455.67-.343.006.456-2.457 2.26-4.392 3.194-5.668.416-.523.574-.253.326.135m-.393-.563c-.765.81-3.262 3.486-4.049 5.921-.14.416-.546.602-.343-.045.793-2.373 2.98-4.925 4.088-6.056.49-.455.601-.163.303.18"/></svg>