<svg xmlns="http://www.w3.org/2000/svg" fill="none" viewBox="0 0 100 100"><path fill="#939598" d="m57 45.366 8.984-21.25a.507.507 0 0 1 .662-.27.5.5 0 0 1 .271.656l-7.918 18.725z"/><path fill="#931A2B" d="M64.75 34.551s-4.3 5.635-7.334 8.89c-3.037 3.256-7.463 8.39-7.463 8.39v11.48c.032-.003.061-.01.093-.01a1.32 1.32 0 0 1 1.329 1.315c0 .726-.595 1.315-1.329 1.315-.032 0-.061-.007-.093-.01v11.58s5.573-3.786 9.61-7.45c4.553-4.132 9.612-10.583 9.612-10.583z"/><path fill="#A7A9AC" d="m46.797 13.548-.041 4.475-16.241 6.505.285-3.976 15.998-7.006z"/><path fill="#BCBEC0" d="m69.36 20.395.316 3.975-16.322-6.375-.078-4.473zm-19.33-8.262.017 4.57L26.29 7.424l.493-5.23zM26.782 2.194l-.493 5.23-3.15 1.86.544-5.107z"/><path fill="#A7A9AC" d="m73.172 2 .532 5.226-23.657 9.477-.017-4.57z"/><path fill="#BCBEC0" d="m76.295 3.957.584 5.103-3.174-1.834L73.173 2z"/><path fill="#808285" d="m33.748 25.442-3.234-.914 16.242-6.505-23.617-8.74 3.15-1.859 23.758 9.28 23.658-9.478 3.174 1.834-23.525 8.936 16.322 6.374-3.226.94-16.388-6.064z"/><path fill="#939598" d="M23.395 38.567q-.026 0-.05-.002a.5.5 0 0 1-.454-.548l2.896-28.889a.5.5 0 0 1 .553-.448c.277.027.48.272.453.547l-2.895 28.888a.504.504 0 0 1-.502.452m52.058 0a.504.504 0 0 1-.504-.47L73.2 9.01a.503.503 0 0 1 .475-.531.5.5 0 0 1 .536.47l1.749 29.085a.5.5 0 0 1-.474.531zM41.658 44.38l-8.375-19.744a.5.5 0 0 1 .27-.657.51.51 0 0 1 .662.268l9.296 21.915z"/><path fill="#A81E2C" d="M48.72 64.617c0-.695.544-1.258 1.234-1.306V51.832s-4.428-5.135-7.463-8.39-7.335-8.89-7.335-8.89L30.73 59.47s5.059 6.451 9.61 10.582c4.038 3.664 9.613 7.45 9.613 7.45v-11.58a1.316 1.316 0 0 1-1.233-1.305"/><path fill="#939598" d="M50.046 65.367a.5.5 0 0 1-.343-.133L32.272 49.21l-.006-1.371 17.777 16.34 17.551-16.535.07 1.315-17.27 16.27a.5.5 0 0 1-.349.14z"/><path fill="#CE2227" d="M86.504 38.057 64.75 34.552s2.024 11.52 2.024 30.803c0 19.286-2.656 32.433-2.656 32.433l22.007-2.38s2.781-10.52 2.781-28.677c0-18.156-2.403-28.674-2.403-28.674zm-10.056 50.84a1.07 1.07 0 0 1-1.075-1.063 1.07 1.07 0 0 1 1.075-1.064 1.07 1.07 0 0 1 1.075 1.064 1.07 1.07 0 0 1-1.075 1.064M33.133 65.355c0-19.283 2.023-30.803 2.023-30.803l-21.753 3.506S11 48.576 11 66.732c0 18.159 2.782 28.678 2.782 28.678l22.006 2.38c0-.002-2.655-13.149-2.655-32.436m-10.08 23.474a1 1 0 0 1-1.002-.993 1 1 0 0 1 1.002-.993 1 1 0 0 1 1.002.992 1 1 0 0 1-1.002.992z"/><path fill="#A51724" d="M76.448 45.365a.99.99 0 0 0 .994-.984.99.99 0 0 0-.994-.984.99.99 0 0 0-.994.984.99.99 0 0 0 .994.984"/><path fill="#939598" d="M76.45 88.335a.5.5 0 0 1-.494-.618c.015-.062 1.504-6.463 1.504-21.286 0-14.852-1.492-21.877-1.506-21.945a.506.506 0 0 1 .989-.211c.015.07 1.528 7.2 1.528 22.156 0 14.965-1.468 21.256-1.53 21.517a.505.505 0 0 1-.492.387"/><path fill="#A51724" d="M23.054 45.535a1.16 1.16 0 0 0 1.166-1.154 1.16 1.16 0 0 0-1.166-1.154 1.16 1.16 0 0 0-1.166 1.154 1.16 1.16 0 0 0 1.166 1.154"/><path fill="#939598" d="M23.052 88.335a.506.506 0 0 1-.5-.428c-.012-.083-1.27-8.517-1.27-21.737s1.258-21.777 1.27-21.862a.505.505 0 0 1 .575-.422.5.5 0 0 1 .427.568c-.013.085-1.26 8.575-1.26 21.717 0 13.147 1.248 21.508 1.26 21.588a.5.5 0 0 1-.426.57q-.039.005-.076.006"/></svg>