<svg xmlns="http://www.w3.org/2000/svg" fill="none" viewBox="0 0 100 100"><g clip-path="url(#a)"><path fill="#0081FB" d="M10.801 60.804c0 3.818.838 6.75 1.934 8.523 1.436 2.323 3.578 3.307 5.762 3.307 2.817 0 5.394-.7 10.36-7.567 3.978-5.505 8.666-13.232 11.82-18.076l5.341-8.207c3.71-5.7 8.005-12.036 12.93-16.33C62.968 18.947 67.304 17 71.668 17c7.327 0 14.307 4.247 19.648 12.21C97.162 37.932 100 48.917 100 60.254c0 6.74-1.328 11.691-3.589 15.604-2.184 3.783-6.44 7.564-13.6 7.564V72.634c6.13 0 7.66-5.633 7.66-12.08 0-9.188-2.142-19.385-6.86-26.67-3.35-5.168-7.69-8.325-12.464-8.325-5.164 0-9.32 3.894-13.99 10.84-2.483 3.689-5.032 8.185-7.894 13.259l-3.15 5.582c-6.33 11.221-7.933 13.777-11.098 17.996-5.547 7.386-10.283 10.186-16.518 10.186-7.397 0-12.074-3.203-14.97-8.03C1.16 71.459 0 66.298 0 60.418z"/><path fill="url(#b)" d="M8.516 29.972C13.47 22.339 20.615 17 28.811 17c4.748 0 9.466 1.406 14.394 5.429 5.39 4.399 11.135 11.643 18.302 23.581l2.57 4.284c6.204 10.336 9.734 15.653 11.8 18.16 2.656 3.22 4.517 4.18 6.934 4.18 6.13 0 7.66-5.633 7.66-12.08l9.529-.3c0 6.74-1.328 11.691-3.589 15.604-2.184 3.783-6.44 7.564-13.6 7.564-4.452 0-8.395-.967-12.756-5.081-3.352-3.158-7.272-8.767-10.287-13.81L50.8 49.551c-4.5-7.52-8.628-13.125-11.017-15.664-2.57-2.73-5.873-6.026-11.145-6.026-4.267 0-7.89 2.994-10.923 7.574z"/><path fill="url(#c)" d="M28.638 27.86c-4.267 0-7.891 2.995-10.923 7.575-4.288 6.472-6.914 16.111-6.914 25.369 0 3.818.838 6.75 1.934 8.523l-9.209 6.065C1.161 71.459 0 66.298 0 60.418c0-10.694 2.935-21.84 8.516-30.446C13.47 22.339 20.615 17 28.811 17z"/></g><defs><linearGradient id="b" x1="1278.13" x2="8155.45" y1="3732.2" y2="4079.55" gradientUnits="userSpaceOnUse"><stop stop-color="#0064E1"/><stop offset=".4" stop-color="#0064E1"/><stop offset=".83" stop-color="#0073EE"/><stop offset="1" stop-color="#0082FB"/></linearGradient><linearGradient id="c" x1="1564.89" x2="1564.89" y1="4850.76" y2="2312.19" gradientUnits="userSpaceOnUse"><stop stop-color="#0082FB"/><stop offset="1" stop-color="#0064E0"/></linearGradient><clipPath id="a"><path fill="#fff" d="M0 17h100v66.798H0z"/></clipPath></defs></svg>