<svg xmlns="http://www.w3.org/2000/svg" fill="none" viewBox="0 0 48 48" key="ealxk5w"><g clip-path="url(#a)" key="efit970"><path fill="transparent" d="M0 12.8c0-4.48 0-6.72.872-8.432A8 8 0 0 1 4.368.872C6.08 0 8.32 0 12.8 0h22.4c4.48 0 6.72 0 8.432.872a8 8 0 0 1 3.496 3.496C48 6.08 48 8.32 48 12.8v22.4c0 4.48 0 6.72-.872 8.432a8 8 0 0 1-3.496 3.496C41.92 48 39.68 48 35.2 48H12.8c-4.48 0-6.72 0-8.432-.872a8 8 0 0 1-3.496-3.496C0 41.92 0 39.68 0 35.2z" key="6t0bdjt"/><g clip-path="url(#b)" key="980d4ki"><mask id="c" width="48" height="48" x="0" y="0" maskUnits="userSpaceOnUse" style="mask-type:luminance" key="2c1z53f"><path fill="#fff" d="M48 0H0v48h48z" key="tmsl9l2"/></mask><g mask="url(#c)" key="m1ulv8c"><path fill="url(#d)" d="M23.998 33.6c10.604 0 19.2 3.223 19.2 7.2V26.4c0-3.977-8.596-7.2-19.2-7.2h-4.8v14.4z" key="78j84lg"/><path fill="url(#e)" d="M43.199 26.4c0 3.976-8.596 7.2-19.2 7.2-6.467 0-12.187-1.2-15.666-3.037-1.884-.835-3.534.43-3.534 2.146v8.09c0 3.977 8.596 7.2 19.2 7.2s19.2-3.223 19.2-7.2z" key="2e6qj4g"/><path fill="url(#f)" d="M43.199 26.4c0 3.976-8.596 7.2-19.2 7.2-6.467 0-12.187-1.2-15.666-3.037-1.884-.835-3.534.43-3.534 2.146v8.09c0 3.977 8.596 7.2 19.2 7.2s19.2-3.223 19.2-7.2z" key="lweikr6"/><path fill="url(#g)" d="M23.999 0c10.604 0 19.2 3.224 19.2 7.2v8.156c0 1.116-1.163 3.075-3.537 2.079C36.182 15.598 30.464 14.4 24 14.4c-10.604 0-19.2 3.223-19.2 7.2V7.2c0-3.976 8.596-7.2 19.2-7.2" key="5wgsan1"/><path fill="url(#h)" d="M23.999 14.4c-10.604 0-19.2-3.224-19.2-7.2v14.4c0 3.976 8.596 7.2 19.2 7.2h1.2a3.6 3.6 0 0 0 3.6-3.6V18a3.6 3.6 0 0 0-3.6-3.6z" key="hnbtn0r"/><path fill="url(#i)" d="M23.999 14.4c-10.604 0-19.2-3.224-19.2-7.2v14.4c0 3.976 8.596 7.2 19.2 7.2h1.2a3.6 3.6 0 0 0 3.6-3.6V18a3.6 3.6 0 0 0-3.6-3.6z" key="o7i8wf7"/></g></g></g><defs key="3ce3qgv"><radialGradient id="e" cx="0" cy="0" r="1" gradientTransform="matrix(-24.00004 17.70017 -31.46692 -42.66666 33.599 29.55)" gradientUnits="userSpaceOnUse" key="04ulfo7"><stop stop-color="#3BD5FF" key="tyzo55k"/><stop offset="1" stop-color="#0078D4" key="k3g55mm"/></radialGradient><radialGradient id="f" cx="0" cy="0" r="1" gradientTransform="rotate(146.31 15.621 19.795)scale(25.96 43.796)" gradientUnits="userSpaceOnUse" key="86obm1g"><stop stop-color="#DECBFF" stop-opacity=".9" key="nfp49rp"/><stop offset="1" stop-color="#DECBFF" stop-opacity="0" key="qj1i1bm"/></radialGradient><radialGradient id="h" cx="0" cy="0" r="1" gradientTransform="rotate(137.53 9.474 10.673)scale(24.6606 38.4117)" gradientUnits="userSpaceOnUse" key="2gle3y6"><stop stop-color="#3BD5FF" key="dvp4zh0"/><stop offset="1" stop-color="#0078D4" key="7t77ox7"/></radialGradient><radialGradient id="i" cx="0" cy="0" r="1" gradientTransform="rotate(149.036 12.304 9.222)scale(20.9914 33.6005)" gradientUnits="userSpaceOnUse" key="ktreaq2"><stop stop-color="#DECBFF" stop-opacity=".9" key="26b502t"/><stop offset="1" stop-color="#D1D1FF" stop-opacity="0" key="18au2ki"/></radialGradient><linearGradient id="d" x1="35.998" x2="15.933" y1="19.2" y2="35.819" gradientUnits="userSpaceOnUse" key="l1a6uts"><stop stop-color="#0094F0" key="ekzx001"/><stop offset=".243" stop-color="#0078D4" key="pk7v5yp"/><stop offset=".584" stop-color="#2052CB" key="an43xg0"/><stop offset=".831" stop-color="#312A9A" key="m36nf6o"/></linearGradient><linearGradient id="g" x1="32.399" x2="9.668" y1="1.2" y2="25.949" gradientUnits="userSpaceOnUse" key="ienwatc"><stop stop-color="#0FAFFF" key="3myimpt"/><stop offset=".163" stop-color="#0094F0" key="4r5xcbj"/><stop offset=".564" stop-color="#2052CB" key="mn9576l"/><stop offset=".764" stop-color="#312A9A" key="xhxmfn9"/></linearGradient><clipPath id="a" key="mrqq86p"><path fill="#fff" d="M0 12.8c0-4.48 0-6.72.872-8.432A8 8 0 0 1 4.368.872C6.08 0 8.32 0 12.8 0h22.4c4.48 0 6.72 0 8.432.872a8 8 0 0 1 3.496 3.496C48 6.08 48 8.32 48 12.8v22.4c0 4.48 0 6.72-.872 8.432a8 8 0 0 1-3.496 3.496C41.92 48 39.68 48 35.2 48H12.8c-4.48 0-6.72 0-8.432-.872a8 8 0 0 1-3.496-3.496C0 41.92 0 39.68 0 35.2z" key="e4qwa8d"/></clipPath><clipPath id="b" key="ul7foq4"><path fill="#fff" d="M0 0h48v48H0z" key="t0rj1w4"/></clipPath></defs></svg>