<svg xmlns="http://www.w3.org/2000/svg" fill="none" viewBox="0 0 48 48"><g clip-path="url(#a)"><path fill="transparent" d="M0 12.8c0-4.48 0-6.72.872-8.432A8 8 0 0 1 4.368.872C6.08 0 8.32 0 12.8 0h22.4c4.48 0 6.72 0 8.432.872a8 8 0 0 1 3.496 3.496C48 6.08 48 8.32 48 12.8v22.4c0 4.48 0 6.72-.872 8.432a8 8 0 0 1-3.496 3.496C41.92 48 39.68 48 35.2 48H12.8c-4.48 0-6.72 0-8.432-.872a8 8 0 0 1-3.496-3.496C0 41.92 0 39.68 0 35.2z"/><g clip-path="url(#b)"><mask id="c" width="48" height="48" x="0" y="0" maskUnits="userSpaceOnUse" style="mask-type:luminance"><path fill="#fff" d="M48 0H0v48h48z"/></mask><g mask="url(#c)"><path fill="url(#d)" d="M23.998 33.6c10.604 0 19.2 3.223 19.2 7.2V26.4c0-3.977-8.596-7.2-19.2-7.2h-4.8v14.4z"/><path fill="url(#e)" d="M43.199 26.4c0 3.976-8.596 7.2-19.2 7.2-6.467 0-12.187-1.2-15.666-3.037-1.884-.835-3.534.43-3.534 2.146v8.09c0 3.977 8.596 7.2 19.2 7.2s19.2-3.223 19.2-7.2z"/><path fill="url(#f)" d="M43.199 26.4c0 3.976-8.596 7.2-19.2 7.2-6.467 0-12.187-1.2-15.666-3.037-1.884-.835-3.534.43-3.534 2.146v8.09c0 3.977 8.596 7.2 19.2 7.2s19.2-3.223 19.2-7.2z"/><path fill="url(#g)" d="M23.999 0c10.604 0 19.2 3.224 19.2 7.2v8.156c0 1.116-1.163 3.075-3.537 2.079C36.182 15.598 30.464 14.4 24 14.4c-10.604 0-19.2 3.223-19.2 7.2V7.2C4.8 3.224 13.396 0 24 0"/><path fill="url(#h)" d="M23.999 14.4c-10.604 0-19.2-3.224-19.2-7.2v14.4c0 3.976 8.596 7.2 19.2 7.2h1.2a3.6 3.6 0 0 0 3.6-3.6V18a3.6 3.6 0 0 0-3.6-3.6z"/><path fill="url(#i)" d="M23.999 14.4c-10.604 0-19.2-3.224-19.2-7.2v14.4c0 3.976 8.596 7.2 19.2 7.2h1.2a3.6 3.6 0 0 0 3.6-3.6V18a3.6 3.6 0 0 0-3.6-3.6z"/></g></g></g><defs><radialGradient id="e" cx="0" cy="0" r="1" gradientTransform="matrix(-24.00004 17.70017 -31.46692 -42.66666 33.599 29.55)" gradientUnits="userSpaceOnUse"><stop stop-color="#3BD5FF"/><stop offset="1" stop-color="#0078D4"/></radialGradient><radialGradient id="f" cx="0" cy="0" r="1" gradientTransform="rotate(146.31 15.621 19.795)scale(25.96 43.796)" gradientUnits="userSpaceOnUse"><stop stop-color="#DECBFF" stop-opacity=".9"/><stop offset="1" stop-color="#DECBFF" stop-opacity="0"/></radialGradient><radialGradient id="h" cx="0" cy="0" r="1" gradientTransform="rotate(137.53 9.474 10.673)scale(24.6606 38.4117)" gradientUnits="userSpaceOnUse"><stop stop-color="#3BD5FF"/><stop offset="1" stop-color="#0078D4"/></radialGradient><radialGradient id="i" cx="0" cy="0" r="1" gradientTransform="rotate(149.036 12.304 9.222)scale(20.9914 33.6005)" gradientUnits="userSpaceOnUse"><stop stop-color="#DECBFF" stop-opacity=".9"/><stop offset="1" stop-color="#D1D1FF" stop-opacity="0"/></radialGradient><linearGradient id="d" x1="35.998" x2="15.933" y1="19.2" y2="35.819" gradientUnits="userSpaceOnUse"><stop stop-color="#0094F0"/><stop offset=".243" stop-color="#0078D4"/><stop offset=".584" stop-color="#2052CB"/><stop offset=".831" stop-color="#312A9A"/></linearGradient><linearGradient id="g" x1="32.399" x2="9.668" y1="1.2" y2="25.949" gradientUnits="userSpaceOnUse"><stop stop-color="#0FAFFF"/><stop offset=".163" stop-color="#0094F0"/><stop offset=".564" stop-color="#2052CB"/><stop offset=".764" stop-color="#312A9A"/></linearGradient><clipPath id="a"><path fill="#fff" d="M0 12.8c0-4.48 0-6.72.872-8.432A8 8 0 0 1 4.368.872C6.08 0 8.32 0 12.8 0h22.4c4.48 0 6.72 0 8.432.872a8 8 0 0 1 3.496 3.496C48 6.08 48 8.32 48 12.8v22.4c0 4.48 0 6.72-.872 8.432a8 8 0 0 1-3.496 3.496C41.92 48 39.68 48 35.2 48H12.8c-4.48 0-6.72 0-8.432-.872a8 8 0 0 1-3.496-3.496C0 41.92 0 39.68 0 35.2z"/></clipPath><clipPath id="b"><path fill="#fff" d="M0 0h48v48H0z"/></clipPath></defs></svg>