<svg xmlns="http://www.w3.org/2000/svg" fill="none" viewBox="0 0 100 100"><path fill="#8D6748" d="M91.346 76.945 52.7 99.275a5.33 5.33 0 0 1-5.368 0L8.684 76.945C7.02 75.98 6 74.208 6 72.33V27.67c0-1.931 1.02-3.649 2.684-4.615L47.33.724a5.33 5.33 0 0 1 5.368 0l38.647 22.33c1.664.966 2.684 2.737 2.684 4.616v44.66c-.053 1.878-1.073 3.65-2.684 4.615"/><path fill="#fff" d="M49.962 6.79c-.806 0-1.61.214-2.309.644l-33.387 19.27c-1.45.805-2.308 2.362-2.308 3.972v38.54c0 1.664.859 3.167 2.308 3.972l33.387 19.27c.698.43 1.503.644 2.309.644a4.4 4.4 0 0 0 2.307-.644l33.388-19.27c1.45-.805 2.308-2.362 2.308-3.972v-38.54c0-1.664-.859-3.167-2.308-3.972L52.27 7.434a4.4 4.4 0 0 0-2.309-.644m0 1.61c.536 0 1.02.161 1.502.43L84.851 28.1a3.09 3.09 0 0 1 1.503 2.63v38.54c0 1.074-.59 2.093-1.503 2.63L51.465 91.17c-.484.268-.967.43-1.504.43a2.9 2.9 0 0 1-1.503-.43L15.071 71.9a3.09 3.09 0 0 1-1.503-2.63V30.73a3.09 3.09 0 0 1 1.503-2.63L48.458 8.83c.483-.269 1.02-.43 1.503-.43m-3.087 33.602h4.509a.5.5 0 0 0 .376-.161c2.683-3.006 2.952-9.287 2.952-11.165a.54.54 0 0 0-.537-.537h-10.09a.54.54 0 0 0-.537.537c0 1.825.269 8.105 2.952 11.165a.5.5 0 0 0 .376.161M45.64 31.803h7.086c.268 0 .537.215.537.537 0 1.503-.269 5.743-2.094 7.944-.16.108-.268.161-.43.161h-3.166a.5.5 0 0 1-.376-.161c-1.825-2.147-2.04-6.441-2.093-7.944 0-.268.214-.537.536-.537m4.51-2.737s1.932-1.127.75-3.167c-.697-1.074-1.019-1.986-.75-2.362-.698.859-1.88 1.771-.591 3.704.43.483.644 1.503.59 1.825m-2.148.16s1.288-.75.483-2.146c-.483-.698-.697-1.342-.483-1.557-.483.59-1.234 1.18-.376 2.523.269.268.376.966.376 1.18m-.16 10.575h2.683q.161 0 .322-.16c.913-1.074 1.342-2.738 1.557-4.188 0 0-.054.483-1.342.967-1.771.644-4.885.214-4.885.214.268 1.127.698 2.2 1.342 3.006.054.108.215.161.322.161M27.658 54.884V44.15h-1.986l-3.275 5.046-3.274-5.046h-1.986v10.789h1.878v-7.676l3.328 4.992h.054l3.382-5.045v7.675zm12.024-10.52a6.2 6.2 0 0 0-2.255-.43c-.805 0-1.556.107-2.255.43a5.1 5.1 0 0 0-1.77 1.18 5.4 5.4 0 0 0-1.182 1.772c-.268.698-.43 1.395-.43 2.147v.053c0 .752.162 1.504.43 2.148a5 5 0 0 0 1.128 1.77 5.1 5.1 0 0 0 1.77 1.182c.699.268 1.45.43 2.255.43s1.557-.108 2.255-.43a5.1 5.1 0 0 0 1.77-1.181 5.4 5.4 0 0 0 1.182-1.771c.268-.698.43-1.396.43-2.148v-.053c0-.752-.162-1.503-.43-2.147a5 5 0 0 0-1.127-1.771 5.1 5.1 0 0 0-1.771-1.181m1.288 5.206c0 .483-.108.966-.269 1.45-.214.429-.429.858-.751 1.18-.33.328-.71.6-1.127.805q-.645.323-1.45.323a3.36 3.36 0 0 1-1.449-.323 4.3 4.3 0 0 1-1.127-.804c-.322-.377-.59-.752-.752-1.235-.16-.483-.268-.966-.268-1.503v-.054c0-.483.107-.966.268-1.45.215-.429.43-.858.752-1.18.33-.328.71-.6 1.127-.805q.644-.322 1.45-.322a3.2 3.2 0 0 1 1.449.322c.416.205.797.477 1.127.805.322.376.59.751.751 1.234.161.484.268.967.268 1.504zm7.944-1.61c.214-.43.43-.86.751-1.181.33-.328.71-.6 1.127-.805.43-.215.86-.322 1.396-.322.644 0 1.18.107 1.664.375.483.269.913.591 1.342.966l1.235-1.395a9 9 0 0 0-.806-.698c-.268-.215-.59-.375-.912-.536-.376-.108-.698-.215-1.128-.323-.429-.053-.858-.107-1.341-.107-.86 0-1.557.161-2.255.43a5.1 5.1 0 0 0-1.771 1.18 6.2 6.2 0 0 0-1.127 1.772 5.7 5.7 0 0 0-.43 2.147v.053c0 .752.161 1.45.43 2.148a5 5 0 0 0 1.127 1.77c.483.484 1.074.913 1.718 1.182.679.286 1.41.433 2.147.43.483 0 .966 0 1.449-.108.376-.054.805-.215 1.127-.376.322-.16.644-.322.966-.59.322-.269.59-.483.86-.806l-1.235-1.234c-.483.43-.967.752-1.396 1.02-.43.268-1.02.376-1.664.376-.483 0-.966-.162-1.396-.323-.429-.16-.805-.483-1.127-.804-.322-.377-.59-.752-.751-1.235s-.269-.966-.269-1.503v-.054c0-.483.108-.966.269-1.45m11.326-3.81v10.734h1.878v-4.508h5.153v4.508h1.879V44.15h-1.879v4.455H62.12V44.15h-1.878m20.612 8.158 1.073 2.577h1.986l-4.724-10.79H77.47l-4.723 10.79h1.933l1.127-2.577zM78.33 46.35l1.824 4.294h-3.65zM15.795 58.856h68.438v-.59H15.796zm39.346-20.773c0 .215-.055.376-.055.59h29.147v-.59zm-11.97 0H15.796v.59h27.43c0-.214-.055-.375-.055-.59"/></svg>