<svg xmlns="http://www.w3.org/2000/svg" fill="none" viewBox="0 0 100 100"><path fill="#599636" d="m50.146.274 2.668 5.012c.6.925 1.25 1.743 2.016 2.506a70 70 0 0 1 6.262 7.08c4.521 5.938 7.57 12.53 9.749 19.661 1.306 4.356 2.015 8.825 2.069 13.343.218 13.509-4.413 25.108-13.75 34.748a40 40 0 0 1-4.905 4.193c-.925 0-1.363-.71-1.744-1.362a11.2 11.2 0 0 1-1.362-3.922c-.328-1.634-.544-3.268-.438-4.956v-.762c-.075-.163-.89-75.157-.566-75.541"/><path fill="#6CAC48" d="M50.146.108c-.11-.219-.22-.053-.329.053.053 1.094-.328 2.069-.925 3-.656.925-1.524 1.634-2.396 2.397-4.844 4.193-8.656 9.258-11.709 14.924-4.062 7.624-6.156 15.795-6.75 24.398-.271 3.103.982 14.052 1.96 17.21 2.669 8.388 7.462 15.415 13.67 21.515 1.526 1.469 3.157 2.831 4.844 4.14.49 0 .544-.437.656-.762q.324-1.045.491-2.125l1.094-8.168z"/><path fill="#C2BFBF" d="M52.814 90.136c.11-1.25.71-2.288 1.362-3.322-.656-.272-1.143-.812-1.524-1.415a10 10 0 0 1-.813-1.797c-.762-2.288-.925-4.687-1.143-7.025v-1.415c-.272.219-.329 2.069-.329 2.343a54 54 0 0 1-.98 7.353c-.163.981-.273 1.96-.876 2.831 0 .11 0 .219.053.381.981 2.888 1.25 5.828 1.416 8.825v1.093c0 1.306-.053 1.031 1.031 1.469.438.162.925.219 1.362.544.329 0 .382-.272.382-.491l-.163-1.797v-5.012c-.053-.875.11-1.743.219-2.562z"/></svg>