<svg xmlns="http://www.w3.org/2000/svg" fill="none" viewBox="0 0 100 100"><path fill="#000" d="M87.028 54.26c0 .85.41 1.524 1.556 1.524 1.348 0 2.784-.968 2.87-3.165q-.945-.15-1.9-.172c-1.354-.002-2.526.378-2.526 1.813"/><path fill="#000" d="M0 34v32.07h100V34zm28.309 24.187h-5.531v-7.443c0-2.285-.763-3.165-2.256-3.165-1.817 0-2.55 1.29-2.55 3.136v4.604h1.75v2.871H14.19v-7.446c0-2.285-.76-3.165-2.256-3.165-1.817 0-2.55 1.29-2.55 3.136v4.604H11.9v2.871H3.84v-2.87h1.757v-7.476h-1.9v-2.871h5.68v1.99c.792-1.404 2.17-2.255 4.014-2.255 1.901 0 3.663.91 4.307 2.844.733-1.758 2.227-2.844 4.308-2.844 2.373 0 4.542 1.437 4.542 4.572v6.04h1.758zm8.409.292c-4.073 0-6.887-2.49-6.887-6.71 0-3.868 2.344-7.062 7.087-7.062s7.063 3.194 7.063 6.886c.003 4.22-3.044 6.888-7.263 6.888zm21.038-.292H46.21l-.38-1.993 7.26-8.352h-4.131l-.586 2.052-2.726-.292.468-4.631H57.73l.293 1.993-7.329 8.355h4.271l.615-2.051 2.989.292zm7.15 0h-3.957V53.44h3.956zm0-8.47h-3.957v-4.744h3.956zm2.073 8.47 5.72-20.152h3.721l-5.714 20.152zm7.678 0 5.716-20.152h3.722l-5.711 20.152zm19.69.292c-1.757 0-2.723-1.027-2.9-2.638-.762 1.349-2.11 2.638-4.248 2.638-1.901 0-4.072-1.027-4.072-3.78 0-3.253 3.135-4.014 6.153-4.014q1.089-.01 2.17.118v-.44c0-1.347-.03-2.958-2.17-2.958-.792 0-1.407.059-2.022.38l-.49 1.875-3.017-.323.586-3.427c2.314-.939 3.486-1.21 5.655-1.21 2.843 0 5.246 1.465 5.246 4.483v5.744c0 .762.292 1.027.91 1.027q.283-.005.556-.089l.03 1.993a5.1 5.1 0 0 1-2.38.623z"/><path fill="#000" d="M36.863 47.609c-1.934 0-3.136 1.434-3.136 3.927 0 2.285 1.055 4.043 3.112 4.043 1.963 0 3.253-1.582 3.253-4.102-.006-2.667-1.44-3.868-3.23-3.868"/></svg>