<svg xmlns="http://www.w3.org/2000/svg" fill="none" viewBox="0 0 100 100"><path fill="#00546B" d="M92.11 77.067c-5.44-.138-9.657.415-13.194 1.933-1.02.414-2.653.414-2.789 1.726.544.553.612 1.45 1.089 2.21.817 1.38 2.244 3.244 3.536 4.211 1.428 1.104 2.857 2.209 4.353 3.175 2.652 1.657 5.645 2.624 8.23 4.28 1.497.967 2.992 2.21 4.488 3.246.749.551 1.224 1.45 2.177 1.794v-.206c-.477-.622-.613-1.52-1.088-2.21-.68-.69-1.36-1.312-2.04-2.002-1.973-2.692-4.421-5.04-7.074-6.973-2.176-1.519-6.938-3.59-7.821-6.144l-.136-.138c1.496-.138 3.264-.69 4.693-1.105 2.312-.621 4.42-.483 6.8-1.104 1.089-.277 2.177-.622 3.265-.967v-.621c-1.224-1.243-2.108-2.9-3.4-4.073-3.469-3.039-7.278-6.007-11.222-8.492-2.11-1.381-4.83-2.279-7.074-3.452-.816-.415-2.176-.622-2.652-1.312-1.225-1.519-1.905-3.52-2.789-5.316-1.972-3.797-3.877-8.008-5.577-12.012-1.224-2.693-1.972-5.386-3.469-7.87-7.005-11.737-14.622-18.848-26.32-25.821-2.517-1.45-5.51-2.071-8.706-2.83-1.7-.07-3.4-.208-5.1-.277-1.09-.483-2.178-1.795-3.13-2.416C13.284 1.815 3.286-3.57.43 3.54c-1.837 4.488 2.72 8.906 4.284 11.185 1.157 1.588 2.652 3.382 3.469 5.178.476 1.172.611 2.416 1.088 3.659 1.088 3.036 2.108 6.42 3.537 9.25.748 1.45 1.564 2.97 2.516 4.281.544.76 1.496 1.105 1.7 2.347-.951 1.381-1.02 3.452-1.564 5.178-2.449 7.802-1.496 17.467 1.972 23.197 1.088 1.725 3.673 5.523 7.142 4.073 3.06-1.242 2.38-5.177 3.264-8.63.205-.829.069-1.38.476-1.933v.139c.953 1.932 1.904 3.797 2.789 5.73 2.108 3.382 5.78 6.904 8.841 9.251 1.633 1.242 2.925 3.383 4.966 4.142v-.207h-.137c-.408-.622-1.02-.898-1.564-1.381-1.224-1.242-2.585-2.761-3.536-4.142-2.857-3.867-5.374-8.147-7.618-12.565-1.088-2.14-2.04-4.488-2.924-6.628-.409-.829-.409-2.071-1.089-2.485-1.02 1.519-2.516 2.83-3.264 4.694-1.292 2.969-1.428 6.628-1.904 10.425-.273.07-.137 0-.273.139-2.176-.553-2.924-2.831-3.74-4.765-2.041-4.901-2.381-12.771-.613-18.432.477-1.45 2.517-6.007 1.701-7.388-.408-1.311-1.769-2.07-2.517-3.106-.884-1.312-1.836-2.968-2.448-4.419-1.633-3.866-2.449-8.146-4.217-12.012-.816-1.796-2.244-3.66-3.4-5.316-1.293-1.864-2.721-3.176-3.741-5.385-.34-.76-.817-2.002-.272-2.83.136-.553.407-.76.952-.898.884-.76 3.4.207 4.284.62 2.517 1.036 4.625 2.003 6.734 3.453.952.69 1.972 2.002 3.196 2.347h1.429c2.176.483 4.624.138 6.665.76 3.605 1.173 6.87 2.899 9.794 4.763 8.91 5.73 16.255 13.877 21.22 23.611.816 1.587 1.156 3.038 1.904 4.694 1.429 3.384 3.197 6.836 4.625 10.15 1.428 3.244 2.788 6.558 4.829 9.25 1.02 1.45 5.1 2.21 6.937 2.97 1.36.62 3.47 1.173 4.693 1.932 2.312 1.45 4.625 3.107 6.801 4.695 1.089.828 4.489 2.554 4.693 3.935"/><path fill="#00546B" d="M22.737 17.072c-1.156 0-1.972.14-2.788.346v.138h.136c.544 1.105 1.496 1.864 2.175 2.83.545 1.105 1.02 2.21 1.565 3.315l.136-.138c.953-.691 1.428-1.796 1.428-3.453-.408-.483-.476-.966-.816-1.45-.407-.69-1.292-1.035-1.836-1.588"/></svg>