<svg xmlns="http://www.w3.org/2000/svg" fill="none" viewBox="0 0 100 100"><path fill="#E0234E" fill-rule="evenodd" d="M58.881 0c-.723 0-1.394.155-2.014.361 1.317.878 2.04 2.04 2.402 3.357.025.181.077.31.103.491.026.155.051.31.051.465.104 2.273-.593 2.557-1.084 3.9-.75 1.73-.542 3.59.361 5.087.078.18.181.388.31.568-.981-6.533 4.468-7.515 5.475-9.555.078-1.782-1.394-2.97-2.556-3.796C60.818.206 59.81 0 58.88 0m8.213 1.472c-.104.594-.026.439-.052.749-.026.206-.026.464-.052.671a6 6 0 0 1-.18.62c-.052.206-.13.413-.207.62-.103.206-.18.387-.284.594-.078.103-.13.206-.207.31l-.155.232c-.129.18-.258.362-.387.516-.155.155-.284.336-.465.465v.026c-.155.13-.31.284-.49.413-.543.414-1.163.723-1.73 1.11-.182.13-.362.233-.517.388-.181.13-.336.258-.491.413-.18.155-.31.31-.465.491-.129.155-.284.336-.387.517a7 7 0 0 0-.362.542c-.103.207-.18.387-.284.594-.077.207-.155.387-.206.594-.078.232-.13.439-.181.646-.026.103-.026.232-.052.335s-.026.207-.051.31c0 .207-.026.44-.026.646 0 .155 0 .31.026.465 0 .206.025.413.077.645.026.207.077.413.13.62.077.207.128.413.206.62.051.129.129.258.18.361l-5.94-2.298a64 64 0 0 0-2.995-.775l-1.627-.387a48 48 0 0 0-4.7-.697c-.052 0-.078-.026-.13-.026a46 46 0 0 0-4.622-.233 49 49 0 0 0-3.383.13c-1.575.103-3.15.31-4.726.568-.388.051-.775.129-1.162.206-.8.155-1.576.336-2.325.517l-1.162.31c-.387.154-.749.335-1.11.49l-.852.388c-.052.025-.104.025-.13.051-.258.13-.49.233-.723.362a1 1 0 0 0-.18.077c-.284.13-.569.284-.8.414-.182.077-.363.18-.517.258a3 3 0 0 1-.233.129c-.232.129-.465.258-.671.387q-.35.194-.62.388c-.18.129-.362.232-.517.361-.026.026-.051.026-.077.052a6 6 0 0 0-.49.361l-.052.052-.388.31c-.051.026-.103.077-.155.103-.129.104-.258.233-.387.336-.026.052-.078.077-.103.103-.155.155-.31.284-.465.44-.026 0-.026.025-.052.05-.155.13-.31.285-.465.44-.026.026-.026.052-.051.052-.13.129-.259.258-.388.413-.051.051-.129.103-.18.155a7 7 0 0 1-.44.464c-.025.052-.077.078-.103.13-.206.206-.387.413-.594.62l-.077.077c-.414.439-.853.878-1.317 1.265-.465.414-.956.801-1.447 1.137a20 20 0 0 1-1.55.981q-.774.426-1.626.775a19 19 0 0 1-1.679.62c-1.084.232-2.195.671-3.15.749-.207 0-.44.051-.646.077-.232.052-.44.103-.646.155l-.62.232c-.206.078-.413.181-.62.284-.18.13-.387.233-.567.362a4 4 0 0 0-.517.439c-.18.13-.362.31-.516.465-.155.18-.31.336-.44.516-.129.207-.284.388-.387.594a4.6 4.6 0 0 0-.361.594c-.104.233-.207.44-.284.672-.078.206-.155.439-.233.671a5 5 0 0 0-.129.62c0 .026-.026.052-.026.077-.052.233-.052.543-.077.698-.026.18-.052.335-.052.516 0 .104 0 .233.026.336.026.18.051.336.103.49.052.156.104.31.181.466v.025c.077.155.18.31.284.465s.207.31.336.465c.129.13.284.284.439.413a4 4 0 0 0 .49.414c.62.542.775.723 1.576 1.136.129.077.258.129.413.206.026 0 .052.026.078.026 0 .052 0 .078.025.13.026.206.078.413.13.62.051.232.129.438.206.62.078.154.13.309.207.464.026.052.051.103.077.129.104.207.207.387.31.568l.387.543c.13.154.285.335.44.49.154.155.31.284.49.44 0 0 .026.025.052.025.155.13.31.258.465.362.18.129.361.232.568.335.18.104.387.207.594.285.155.077.335.129.516.18.026.026.052.026.104.052.103.026.232.051.335.077-.077 1.395-.103 2.712.104 3.177.232.516 1.368-1.059 2.505-2.867-.155 1.782-.259 3.874 0 4.494.284.645 1.833-1.369 3.176-3.59 18.31-4.235 35.02 8.42 36.775 26.29-.336-2.789-3.77-4.339-5.346-3.951-.774 1.91-2.091 4.364-4.21 5.888.182-1.705.104-3.46-.257-5.165a16.7 16.7 0 0 1-3.203 6.508c-2.453.18-4.906-1.007-6.198-2.79-.103-.077-.129-.232-.206-.335a5 5 0 0 1-.207-.542 2.2 2.2 0 0 1-.155-.543c-.026-.18-.026-.361-.026-.568v-.387a4 4 0 0 1 .13-.542c.051-.181.103-.362.18-.543.104-.18.18-.361.31-.542.44-1.24.44-2.247-.361-2.84a3 3 0 0 0-.491-.26c-.104-.025-.233-.077-.336-.102-.077-.026-.129-.052-.206-.078-.181-.051-.362-.103-.543-.13a2 2 0 0 0-.542-.077 4 4 0 0 0-.568-.051c-.13 0-.259.026-.388.026-.206 0-.387.026-.568.077-.18.026-.361.052-.542.103-.18.052-.362.104-.543.181-.18.078-.335.155-.516.233-.155.077-.31.18-.49.258-6.018 3.925-2.428 13.12 1.678 15.78-1.55.283-3.125.619-3.564.955l-.052.051a24 24 0 0 0 3.487 1.73 85 85 0 0 0 4.184 1.24v.026q3.214.66 6.507.465c11.441-.8 20.816-9.504 22.52-20.97.052.232.103.439.155.671.078.465.18.956.232 1.447v.025c.052.233.078.465.104.672v.103c.026.233.051.465.051.672.026.284.052.568.052.852v.413c0 .13.026.284.026.413 0 .155-.026.31-.026.465v.362c0 .18-.026.335-.026.516 0 .104 0 .207-.026.336 0 .18-.026.362-.026.568-.026.078-.026.155-.026.233-.025.206-.051.387-.077.594 0 .077 0 .154-.026.232-.026.258-.077.49-.103.749v.052c-.052.232-.104.49-.155.723v.077l-.155.697c0 .026-.026.078-.026.104a7 7 0 0 1-.18.697v.078c-.078.258-.156.49-.207.723-.026.025-.026.051-.026.051l-.233.775c-.103.258-.18.49-.284.749-.103.258-.18.516-.284.749-.103.258-.206.49-.31.749h-.026c-.103.232-.206.49-.335.723-.026.077-.052.13-.078.18-.026.027-.026.052-.051.078-1.679 3.383-4.158 6.353-7.257 8.677-.207.13-.413.285-.62.44-.052.051-.13.077-.18.129-.182.129-.362.258-.569.387l.078.155h.025l1.085-.155h.026a55 55 0 0 0 2.014-.362 5 5 0 0 0 .568-.129c.13-.026.233-.051.362-.077.18-.026.361-.078.542-.103.155-.052.31-.078.465-.13 2.583-.62 5.088-1.472 7.49-2.479a41.36 41.36 0 0 1-16.038 13.094c2.97-.207 5.94-.698 8.806-1.524 10.41-3.074 19.164-10.072 24.406-19.498A41.2 41.2 0 0 1 73.06 95.19a40.7 40.7 0 0 0 6.895-5.733 40.94 40.94 0 0 0 10.873-21.951c.878 4.08 1.136 8.29.749 12.447 18.646-26.005 1.55-52.967-5.604-60.069-.026-.051-.052-.077-.052-.129-.026.026-.026.026-.026.052 0-.026 0-.026-.026-.052 0 .31-.025.62-.051.93a35 35 0 0 1-.258 1.73c-.13.568-.285 1.136-.44 1.704-.18.543-.387 1.111-.62 1.653a22 22 0 0 1-.774 1.576c-.284.49-.594 1.007-.93 1.472-.335.49-.697.955-1.059 1.394-.387.465-.8.878-1.213 1.291-.259.233-.491.44-.75.646-.206.18-.387.336-.593.517-.465.361-.93.697-1.447 1.007-.49.31-1.007.62-1.523.878-.542.258-1.085.49-1.627.723-.543.207-1.11.387-1.679.542-.568.155-1.162.284-1.73.388-.594.103-1.188.155-1.756.206a20 20 0 0 1-1.24.052c-.594 0-1.188-.052-1.756-.103a13 13 0 0 1-1.756-.259 13 13 0 0 1-1.73-.439h-.026a19 19 0 0 0 1.704-.206 19 19 0 0 0 1.73-.388 18 18 0 0 0 1.68-.542 16 16 0 0 0 1.626-.723 18 18 0 0 0 1.55-.852c.49-.336.981-.672 1.446-1.033q.698-.543 1.317-1.163c.439-.387.826-.826 1.214-1.265q.581-.697 1.084-1.395c.052-.077.104-.18.155-.258.259-.413.517-.826.75-1.24a18 18 0 0 0 1.394-3.227c.18-.543.31-1.11.439-1.68.103-.593.207-1.161.258-1.73.052-.593.103-1.187.103-1.756 0-.413-.025-.826-.051-1.24-.052-.593-.13-1.161-.207-1.73a19 19 0 0 0-.387-1.73c-.18-.542-.362-1.11-.568-1.652a18 18 0 0 0-.723-1.602 29 29 0 0 0-.878-1.523 29 29 0 0 0-1.033-1.42c-.388-.44-.775-.879-1.188-1.318-.207-.206-.44-.439-.672-.645a48 48 0 0 0-3.59-2.531 5 5 0 0 0-.516-.259c-.852-.542-1.653-.826-2.453-1.084" clip-rule="evenodd"/></svg>