<svg xmlns="http://www.w3.org/2000/svg" fill="none" viewBox="0 0 100 100"><path fill="#25C7B7" d="m59.801 64.718-24.525-5.125a6 6 0 0 1-.342.576l22.327 32.57 1.347-1.346 3.798-23.62a4.47 4.47 0 0 1-2.605-3.056m-8.946-32.06A5.14 5.14 0 0 1 46.544 35c-.278 0-.549-.028-.814-.07l-11.185 17.5 29.882-12.859c-.01-.12-.036-.233-.036-.356 0-.252.034-.496.075-.736zm.812-3.189 14.478 6.19c.462-.36.99-.626 1.554-.784l2.38-14.796-9.067-9.066L50.808 26.98c.5.74.796 1.598.86 2.489m30.338 2.536-9.086-9.087-1.975 12.268c.5.252.95.594 1.326 1.01zm-21.77 29.481a4.43 4.43 0 0 1 3.551-2.282l2.61-16.23a4.5 4.5 0 0 1-.568-.466L35.775 55.443c.076.314.13.634.154.967zM84.48 34.482l-10.513 4.523 25.938 11.09.093-.094zM65.694 67.82l-3.16 19.642L80.88 69.118l-13.214-2.76a4.44 4.44 0 0 1-1.972 1.463m-35.658-5.05a5.9 5.9 0 0 1-1.895-.316l-6.094 9.536-2.355-2.353 5.772-9.031a6 6 0 0 1-.398-.553L14.61 64.555l-2.479-2.478 11.445-4.927-20.691-4.318L.055 50l.895-.896 23.86 4.981c.275-.52.627-.996 1.043-1.412L14.272 35.782l2.34-2.34 12.099 17.65a6 6 0 0 1 1.325-.154c.51 0 1.006.072 1.48.194l11.321-17.716a5.13 5.13 0 0 1-1.436-3.56c0-.407.052-.8.14-1.179l-14.124-6.039 2.478-2.478 13.382 5.723a5.13 5.13 0 0 1 4.943-.886L58.659 8.66 50 0 0 50l50 50 4.92-4.92-22.494-32.816a5.9 5.9 0 0 1-2.39.507m39.542-19.097-2.654 16.498a4.44 4.44 0 0 1 1.639 3.052L83.63 66.37l13.796-13.796-24.903-10.647a4.5 4.5 0 0 1-2.945 1.748"/></svg>