<svg xmlns="http://www.w3.org/2000/svg" fill="none" viewBox="0 0 100 100"><g fill="#000" clip-path="url(#a)"><path d="M66.477 40.009h17.418v3.215h-6.91v16.913H73.53V43.224h-7.053zm-28.647 0v3.215H23.87v5.172h11.228v3.215H23.869v5.311H37.83v3.215H20.414V43.224h-.002v-3.215zm8.698.008h-4.521L58.2 60.146h4.535l-8.099-10.058 8.086-10.055-4.522.007-5.827 7.237zm4.64 14.378-2.265-2.815-6.91 8.581h4.535z"/><path fill-rule="evenodd" d="M20.535 60.137 4.319 40.001H0v20.128h3.455V44.303l12.74 15.834z" clip-rule="evenodd"/><path d="M84.672 60.014a.9.9 0 0 1-.649-.263.85.85 0 0 1-.267-.639.84.84 0 0 1 .267-.63.9.9 0 0 1 .649-.262q.365 0 .636.263a.854.854 0 0 1 .148 1.084.93.93 0 0 1-.784.447m5.897-8.479h1.53v5.898q-.004.812-.348 1.396-.347.584-.965.897-.616.313-1.435.314-.746-.001-1.343-.265a2.16 2.16 0 0 1-.946-.785q-.35-.519-.349-1.294h1.534q.004.34.151.586a1 1 0 0 0 .408.376q.263.132.604.131.37.001.627-.154a1 1 0 0 0 .393-.457q.135-.301.138-.745zm7.83 2.307a1.11 1.11 0 0 0-.487-.835q-.432-.3-1.117-.3-.481 0-.826.143-.345.145-.53.39a.95.95 0 0 0-.186.56q0 .263.124.455.122.193.334.325.211.134.469.224.26.09.52.152l.797.196q.483.11.93.3.447.186.803.475.354.287.562.692t.208.95q.001.736-.382 1.297-.381.557-1.105.872-.719.312-1.744.313c-.66 0-1.236-.101-1.72-.304a2.54 2.54 0 0 1-1.14-.884q-.41-.581-.443-1.416h1.518c.02.29.114.533.273.729q.243.29.63.434.39.142.87.143.503 0 .886-.15.379-.149.594-.418a.98.98 0 0 0 .22-.627.8.8 0 0 0-.194-.545 1.5 1.5 0 0 0-.534-.36 5.5 5.5 0 0 0-.8-.26l-.97-.245q-1.05-.266-1.66-.81-.608-.54-.608-1.443 0-.742.41-1.299.408-.557 1.114-.865.71-.311 1.601-.31.905-.001 1.59.31a2.6 2.6 0 0 1 1.074.856q.391.546.403 1.255z"/></g><defs><clipPath id="a"><path fill="#fff" d="M0 40h100v20.306H0z"/></clipPath></defs></svg>