<svg xmlns="http://www.w3.org/2000/svg" fill="none" viewBox="0 0 100 100"><path fill="#F3D400" d="M50.397 16s-3.832 3.028-7.738 6.035c-4.019-.127-11.9.772-16.17 2.326-3.935-2.493-7.392-5.245-7.392-5.245s-2.954 5.082-4.811 8.064c-2.755 1.466-5.521 3.114-7.986 5.294A439 439 0 0 1 0 29.902C3.797 37.56 6.35 45.23 13.294 49.838c11.055-17.46 62.426-15.85 73.71-.099C94.296 45.937 97.132 37.753 100 30.198c-.314.104-4.216 1.41-6.746 2.375-1.51-1.644-5.07-4.172-7.093-5.393-1.92-3.514-4.713-8.261-4.713-8.261s-3.308 2.46-7.142 5.145c-5.18-.957-11.447-2.119-16.717-1.83C54.002 19.283 50.397 16 50.397 16"/><path fill="#FFE953" d="M3.926 46.178s5.382 13.031 9.12 22.086c15.838 20.896 56.283 22.349 73.915.405 4.173-9.403 9.802-22.618 9.802-22.618-4.524 6.701-11.886 11.327-16.42 13.819-3.221 1.765-10.655 2.832-10.655 2.832L50.172 52.588 30.543 62.5s-7.335-1.178-10.655-2.73c-6.702-3.578-11.21-7.805-15.962-13.591"/></svg>