<svg xmlns="http://www.w3.org/2000/svg" fill="none" viewBox="0 0 100 100"><path fill="#8CC84B" d="M46.279 1.067c2.479-1.419 5.709-1.425 8.186 0C66.929 8.11 79.396 15.142 91.858 22.188c2.343 1.32 3.911 3.929 3.887 6.63v42.37c.018 2.813-1.705 5.484-4.178 6.774-12.422 7.004-24.838 14.016-37.259 21.02-2.53 1.447-5.825 1.336-8.277-.23-3.724-2.159-7.455-4.307-11.18-6.464-.76-.454-1.619-.815-2.156-1.553.475-.64 1.324-.72 2.015-1 1.554-.494 2.982-1.287 4.41-2.058.361-.247.802-.152 1.148.07 3.185 1.825 6.342 3.704 9.537 5.513.682.393 1.372-.13 1.955-.454 12.19-6.89 24.396-13.754 36.584-20.645a1.21 1.21 0 0 0 .664-1.192c.009-13.977.002-27.957.005-41.934a1.31 1.31 0 0 0-.781-1.307C75.852 20.756 63.479 13.774 51.102 6.8a1.29 1.29 0 0 0-1.458-.002c-12.378 6.976-24.749 13.965-37.126 20.936-.506.23-.845.738-.785 1.301q.002 20.967 0 41.936a1.19 1.19 0 0 0 .673 1.177c3.303 1.873 6.61 3.733 9.916 5.6 1.861 1.001 4.148 1.597 6.199.829 1.81-.65 3.08-2.497 3.045-4.419.017-13.895-.009-27.793.013-41.687-.046-.617.54-1.126 1.14-1.068 1.586-.011 3.175-.022 4.762.004.663-.015 1.119.65 1.037 1.27-.007 13.984.017 27.968-.01 41.952.003 3.727-1.528 7.782-4.975 9.605-4.247 2.2-9.496 1.734-13.691-.376-3.632-1.812-7.098-3.952-10.666-5.894C6.697 76.681 4.983 74 5 71.19V28.818c-.026-2.757 1.604-5.413 4.021-6.714Q27.651 11.588 46.28 1.067"/><path fill="#8CC84B" d="M57.114 30.418c5.417-.349 11.216-.207 16.091 2.462 3.774 2.045 5.867 6.337 5.933 10.53-.105.566-.696.878-1.236.839-1.572-.002-3.144.021-4.716-.01-.667.025-1.054-.59-1.138-1.18-.451-2.006-1.545-3.993-3.434-4.96-2.898-1.452-6.26-1.379-9.42-1.348-2.308.122-4.79.322-6.744 1.679-1.5 1.028-1.957 3.103-1.421 4.774.505 1.2 1.89 1.587 3.023 1.944 6.529 1.707 13.447 1.537 19.85 3.784 2.651.916 5.245 2.697 6.152 5.473 1.187 3.72.667 8.167-1.98 11.154-2.146 2.458-5.273 3.795-8.39 4.522-4.149.925-8.454.948-12.666.538-3.962-.452-8.084-1.493-11.142-4.192-2.614-2.27-3.892-5.808-3.765-9.222.03-.577.605-.979 1.157-.931 1.583-.013 3.165-.017 4.748.002.632-.046 1.101.5 1.133 1.097.292 1.911 1.01 3.917 2.678 5.05 3.216 2.076 7.253 1.934 10.936 1.992 3.052-.136 6.477-.176 8.967-2.193 1.314-1.15 1.703-3.075 1.348-4.731-.384-1.398-1.847-2.05-3.103-2.475-6.444-2.039-13.44-1.3-19.822-3.605-2.59-.915-5.096-2.647-6.092-5.309-1.389-3.767-.752-8.427 2.172-11.313 2.852-2.87 6.968-3.976 10.881-4.372"/></svg>