<svg xmlns="http://www.w3.org/2000/svg" viewBox="56.37 43.05 387.26 413.9" key="cgq23pj"><g data-name="Layer 1" key="6lbqs3w"><path fill="#4DABCF" d="m220.93 127.14-69.16-34.91-75.9 37.88 71.03 35.67zM252.63 143.14l72.51 36.6-75.23 37.78-71.14-35.73zM349.47 92.76l74.49 37.35-66.62 33.46-72.66-36.65zM317.41 76.67l-67.06-33.62-66.34 33.1 69.1 34.85zM264.98 365.44v91.51l81.24-40.54-.09-91.55zM346.1 292.91l-.09-90.59-81.03 40.28v90.62zM443.63 275.93v91.87l-69.29 34.58-.05-91.45zM443.63 243.81v-90.02l-69.42 34.51.06 90.77z" key="fxvzvi4"/><path fill="#4D77CF" d="m236.3 242.6-54.72-27.51V334s-66.92-142.39-73.12-155.18c-.8-1.65-4.09-3.46-4.93-3.9-12-6.3-47.16-24.11-47.16-24.11v210.08l48.64 26V277.08s66.21 127.23 66.88 128.62 7.32 14.8 14.42 19.51c9.46 6.26 50 30.64 50 30.64Z" key="msy8lsv"/></g></svg>