<svg xmlns="http://www.w3.org/2000/svg" viewBox="56.37 43.05 387.26 413.9"><g data-name="Layer 1"><path fill="#4DABCF" d="m220.93 127.14-69.16-34.91-75.9 37.88 71.03 35.67zm31.7 16 72.51 36.6-75.23 37.78-71.14-35.73zm96.84-50.38 74.49 37.35-66.62 33.46-72.66-36.65zm-32.06-16.09-67.06-33.62-66.34 33.1 69.1 34.85zm-52.43 288.77v91.51l81.24-40.54-.09-91.55zm81.12-72.53-.09-90.59-81.03 40.28v90.62zm97.53-16.98v91.87l-69.29 34.58-.05-91.45zm0-32.12v-90.02l-69.42 34.51.06 90.77z"/><path fill="#4D77CF" d="m236.3 242.6-54.72-27.51V334s-66.92-142.39-73.12-155.18c-.8-1.65-4.09-3.46-4.93-3.9-12-6.3-47.16-24.11-47.16-24.11v210.08l48.64 26V277.08s66.21 127.23 66.88 128.62 7.32 14.8 14.42 19.51c9.46 6.26 50 30.64 50 30.64Z"/></g></svg>