<svg xmlns="http://www.w3.org/2000/svg" fill="none" viewBox="0 0 100 100"><path fill="#00DC82" d="M56.1 83.667h37.175c1.18 0 2.34-.308 3.363-.893a6.7 6.7 0 0 0 2.462-2.44 6.62 6.62 0 0 0-.003-6.666L74.132 30.81a6.7 6.7 0 0 0-2.461-2.44 6.77 6.77 0 0 0-6.725 0 6.7 6.7 0 0 0-2.462 2.44l-6.383 10.966-12.48-21.443a6.7 6.7 0 0 0-2.463-2.44 6.77 6.77 0 0 0-6.727 0 6.7 6.7 0 0 0-2.462 2.44L.903 73.668A6.62 6.62 0 0 0 .9 80.334a6.7 6.7 0 0 0 2.462 2.44 6.8 6.8 0 0 0 3.363.893H30.06c9.245 0 16.064-4.025 20.755-11.877l11.39-19.551 6.101-10.463 18.31 31.428h-24.41zM29.68 73.193l-16.285-.003 24.41-41.902 12.18 20.95-8.154 14.004c-3.116 5.095-6.656 6.951-12.152 6.951"/></svg>