<svg xmlns="http://www.w3.org/2000/svg" fill="none" viewBox="180 300 640.03 397.15" key="en0ysnp"><path fill="#020617" d="m499.651 555.512-83.519 131.111-138.479-224.431-.32 234.951H180V300h98.426l139.919 235.244.134-106.476zm16.027-153.43c.64-1.278 0-100.777.213-102.082h-97.332c.053 1.571-.134 100.564-.08 102.082zm150.239 110.099a55 55 0 0 0-31.914 9.458 54.9 54.9 0 0 0-20.592 26.123 52.33 52.33 0 0 1 27.776-20.809 52.4 52.4 0 0 1 34.703 1.127c10.56 4.288 24.454 11.239 35.467 7.537a56 56 0 0 0-19.885-17.201 56.05 56.05 0 0 0-25.555-6.235m90.399 28.257c-9.999-3.462-21.333-7.377-29.573-18.137-1.6-2.131-3.093-4.527-4.693-7.057a57.1 57.1 0 0 0-14.213-17.099c-7.84-5.752-18.133-8.575-31.467-8.575a66.25 66.25 0 0 0-36.807 11.175 66.13 66.13 0 0 0-24.366 29.732 62 62 0 0 1 24.757-20.271 62.07 62.07 0 0 1 61.566 5.962 61.94 61.94 0 0 1 20.397 24.643 20 20 0 0 0 9.661 8.159 20.03 20.03 0 0 0 12.632.736c13.147-2.797 12.266 9.588 32.08 13.795v-3.542c-.08-11.878-6.56-14.647-20-19.521zm53.973 33.716a19.26 19.26 0 0 0 9.254-16.991c-.267-78.752-64.266-146.132-143.199-146.132a143.2 143.2 0 0 0-67.975 17.098 143 143 0 0 0-51.678 47.299c-.267-.692-40.586-63.652-41.013-64.397h-97.199l92.346 144.427-90.106 141.685h94.399l41.066-63.012 41.813 63.012h94.427l-85.6-134.547a18.6 18.6 0 0 1-2.24-8.522 71.6 71.6 0 0 1 5.453-27.425 71.6 71.6 0 0 1 15.548-23.251 71.7 71.7 0 0 1 23.275-15.536 71.8 71.8 0 0 1 27.457-5.456h.027c39.679 0 46.293 23.703 54.853 34.835 16.906 21.998 50.666 12.357 50.666 41.041a18.82 18.82 0 0 0 9.65 16.088 18.86 18.86 0 0 0 18.776-.216m9.334 3.543c-4.614 9.907-14.933 9.001-20.133 17.018-4.694 7.217 3.04 10.972 3.04 10.972s8.986 4.155 14.346-8.282a35.45 35.45 0 0 0 2.747-19.708" key="2t618mz"/></svg>