<svg xmlns="http://www.w3.org/2000/svg" fill="none" viewBox="0 0 100 100"><path fill="#fff" d="M51.881 83.633c-.198-.792.198-1.782-.198-2.574-.198-.792-.792-.792-.99-1.386-.792-1.584-1.782-3.366-1.782-5.347 0-1.584-.594-3.168-.792-4.752v-2.376c0-.396 0-.792-.198-1.188 0-.199 0-.595-.198-.595l.198-.594c0-.198 1.782-.198 2.376-.198.99 0 1.782 0 2.772.198 1.98 0 3.565 0 5.545-.198 4.158-.594 5.94-2.376 6.93-2.97 3.763-2.574 5.545-7.129 5.545-7.129.594-1.386.594-3.96 1.98-4.95 1.584-1.386 4.159-1.188 5.94-1.98.991-.396 1.783-.792 2.971-.594.792.198 2.178 1.188 2.575-.198l-.595-.594c1.585-.198 0-3.565-.594-4.357-.99-.99-2.376-1.584-3.96-1.98-1.98-.594-3.762-1.188-5.545-.792-3.168.594-2.97-1.188-4.752-1.188-2.178 0-6.139.198-6.93 2.376-.397.99-.595.99-1.189 1.782-.396.594 0 1.188-.198 1.98s-.594 3.565-.99 4.555c-.594 1.584-1.386 3.564-2.772 3.564-1.98.198-3.565.396-5.149-.198-.99-.396-2.574-.99-3.366-1.188-3.763-1.584-4.357-3.168-4.357-3.168-.396-.594-1.386-1.782-1.782-3.169-.396-1.584-1.188-2.772-1.386-3.564-.396-.792-.99-2.178-1.584-3.564-.792-1.782-1.782-3.169-2.574-3.763-1.188-.99-2.178-2.574-4.555-2.178-.396 0-1.98.198-3.168 1.188-.792.594-.99 1.98-1.782 3.169-.396.594-1.188 2.574-1.782 4.158-.397 1.188-.594 1.98-1.189 2.376-.396.396-.792.792-1.386.594l-1.188-.594c-.594-.396-1.782-2.574-2.574-3.96-.594-1.386-1.98-3.367-2.772-4.357-1.188-1.584-1.783-1.98-3.565-1.98-3.564 0-3.96 1.98-5.544 4.95-.792 1.387-.99 3.367-2.376 4.951C4.356 42.643 1.781 46.406 0 47v27.326-.198c.198-.396.198-.792.396-.99.792-1.386 2.376-2.772 3.168-4.356.396-.792.99-1.584 1.386-2.574.199-.594.397-1.783.793-2.377.396-.792 1.188-.99 1.98-1.188 1.386-.198 2.376 1.782 3.96 2.575.594.395 3.762 1.386 4.753 1.584 1.584.396 3.168.594 4.752.99.792.198 1.584.198 2.574.396.793 0 3.763.198 3.763.396-1.386.792-2.376 2.772-2.97 4.356s-.99 3.367-1.585 4.753c-.792 1.584-2.376 2.376-2.178 4.356 0 .792.198 1.584 0 2.376-.198.99-.594 1.585-.792 2.575-.396 1.188-.792 4.95-1.188 5.94l3.168-.396c.396-.792.594-4.356.792-4.752.594-1.782 1.386-3.169 2.575-4.555 1.188-1.386 1.188-2.97 1.782-4.554.792-1.782 1.782-2.97 2.772-4.555 1.782-2.772 2.97-6.534 6.535-7.326.396 0 2.574 1.584 3.564 2.574 1.188 1.188 2.376 2.376 3.168 3.96 1.386 2.97 2.773 7.327 3.169 9.505.198 1.386.396 1.386 1.386 2.575.396.395 1.188 1.98 1.584 2.574.198.594.792 1.98.99 2.772.198.396.792 1.782 1.188 2.97h2.97c-1.188-3.366-2.178-6.732-2.574-10.099"/><path fill="url(#a)" d="M50.297 90.564c-.396-.792-.792-2.178-.99-2.772s-1.188-2.178-1.584-2.575c-.99-.99-1.188-1.188-1.386-2.574-.396-2.376-1.783-6.733-3.169-9.505-.792-1.584-1.98-2.772-3.168-3.96-.99-.99-3.168-2.574-3.564-2.574-3.763.792-4.753 4.356-6.535 7.326-.99 1.584-1.98 2.97-2.772 4.555s-.594 3.366-1.782 4.554c-1.189 1.386-1.98 2.772-2.575 4.555-.198.396-.396 3.96-.792 4.752l5.545-.396c5.148.396 3.564 2.376 11.683 1.98l12.673-.396c-.792-1.188-1.386-2.574-1.584-2.97"/><path fill="url(#b)" d="M87.129 7H12.475C5.545 7 0 12.742 0 19.673v27.525c1.782-.792 4.356-4.555 5.149-5.545 1.386-1.584 1.584-3.762 2.376-4.95 1.584-2.97 1.98-4.95 5.544-4.95 1.782 0 2.376.395 3.565 1.98.792.99 2.178 2.97 2.772 4.158.792 1.584 1.98 3.564 2.574 3.96q.594.594 1.188.594c.594.198.99-.198 1.387-.594.593-.396.791-1.188 1.188-2.376.594-1.584 1.386-3.565 1.782-4.159.792-1.188.99-2.574 1.782-3.168 1.188-.99 2.574-.99 3.168-1.188 2.377-.396 3.367 1.188 4.555 2.178.792.594 1.782 1.98 2.574 3.763.594 1.386 1.386 2.772 1.584 3.564s.99 1.98 1.386 3.564c.396 1.386 1.386 2.377 1.782 3.169 0 0 .594 1.782 4.357 3.168.792.396 2.376.792 3.366 1.188 1.584.594 3.169.594 5.149.198 1.386 0 2.178-1.98 2.772-3.564.396-.99.792-3.763.99-4.555s-.396-1.386.198-1.98c.594-.792.792-.792 1.188-1.782.594-2.178 4.753-2.376 6.93-2.376 1.783 0 1.585 1.782 4.753 1.188 1.783-.396 3.565.198 5.545.792 1.584.396 3.168.99 3.96 1.98.594.594 1.98 4.159.594 4.357.198.198.198.396.594.594-.396 1.386-1.782.396-2.574.198-.99-.198-1.782 0-2.97.594-1.782.792-4.555.792-5.94 1.98-1.387 1.188-1.387 3.564-1.98 4.95 0 0-1.783 4.555-5.545 7.13-.99.791-2.773 2.375-6.931 2.97-1.782.197-3.564.395-5.545.197-.99 0-1.782 0-2.772-.198-.594 0-2.376 0-2.376.198l-.198.594c0 .198 0 .594.198.594 0 .397 0 .793.198 1.189v2.376c0 1.584.594 3.168.792 4.752 0 1.782.99 3.763 1.782 5.347.396.594.792.594.99 1.386s0 1.584.198 2.574a30 30 0 0 0 2.97 9.901c1.783-.396 3.763-.99 6.14-1.386 4.356-.594 10.494-.396 14.455-.594 9.9-.99 15.445 4.159 24.356 1.98V19.673C99.802 12.743 94.257 7 87.129 7"/><path fill="url(#c)" d="M22.97 77.693c.792-1.584 1.188-3.169 1.585-4.753.593-1.584 1.386-3.564 2.97-4.356-.198-.198-3.169-.396-3.763-.396-.792 0-1.584-.198-2.574-.396-1.584-.396-3.366-.594-4.752-.99-.99-.198-3.96-1.387-4.753-1.585-1.584-.792-2.574-2.772-3.96-2.574-.792.198-1.584.396-1.98 1.188-.396.594-.594 1.782-.793 2.575-.396.792-.792 1.782-1.386 2.574-.99 1.584-2.574 2.97-3.168 4.356-.198.396-.198.594-.396.99v17.03c.792.198 1.584.396 2.574.594 6.93 1.782 8.713 1.98 15.644 1.188h.594c.594-1.188.99-4.752 1.188-5.94.198-.792.594-1.584.792-2.575.198-.792 0-1.584 0-2.376-.198-2.178 1.386-2.97 2.178-4.554"/><defs><linearGradient id="a" x1="36.608" x2="36.608" y1="66.663" y2="93.981" gradientUnits="userSpaceOnUse"><stop stop-color="#F29100"/><stop offset="1" stop-color="#EC670F"/></linearGradient><linearGradient id="b" x1="49.885" x2="49.885" y1="7.04" y2="94.034" gradientUnits="userSpaceOnUse"><stop stop-color="#F29100"/><stop offset="1" stop-color="#EC670F"/></linearGradient><linearGradient id="c" x1="13.754" x2="13.754" y1="62.594" y2="93.433" gradientUnits="userSpaceOnUse"><stop stop-color="#F29100"/><stop offset="1" stop-color="#EC670F"/></linearGradient></defs></svg>