<svg xmlns="http://www.w3.org/2000/svg" fill="none" viewBox="0 0 100 100"><path fill="#0364B8" d="M58.944 53.311s21.434-12.01 21.803-11.825A31.23 31.23 0 0 0 42.87 18.944a30.74 30.74 0 0 0-18.292 13.119c.185 0 34.367 21.248 34.367 21.248"/><path fill="#0F78D4" d="M38.065 35.758a25.1 25.1 0 0 0-13.118-3.695h-.37A24.96 24.96 0 0 0 .003 57.376 25.76 25.76 0 0 0 4.437 71.42l34.367-3.51 20.14-19.402z"/><path fill="#1490DF" d="M80.932 41.486H79.64a19.1 19.1 0 0 0-7.945 1.663L59.13 48.322l13.673 15.152 24.76 7.76a20.263 20.263 0 0 0-8.315-27.53 22.3 22.3 0 0 0-8.315-2.218"/><path fill="#28A8EA" d="m79.639 60.702-5.174-3.141L62.64 50.54l-3.696-2.218-9.423 4.065-18.292 7.76-8.315 3.327-18.477 7.76a25.14 25.14 0 0 0 20.51 10.717h54.507a20.54 20.54 0 0 0 17.923-10.717z"/></svg>