<svg xmlns="http://www.w3.org/2000/svg" fill="none" viewBox="0 0 100 100"><path fill="#193718" d="M93.06 40.937c1.25-3.437 1.563-6.875 1.25-10.312-.312-3.438-1.562-6.875-3.125-10C88.373 15.937 84.31 12.187 79.623 10c-5-2.188-10.313-2.813-15.625-1.563-2.5-2.5-5.313-4.687-8.438-6.25S48.685 0 45.248 0c-5.313 0-10.625 1.562-15 4.687a24.16 24.16 0 0 0-9.063 12.5c-3.75.938-6.875 2.5-10 4.375-2.812 2.188-5 5-6.875 7.813-2.812 4.687-3.75 10-3.125 15.312a27.2 27.2 0 0 0 6.25 14.375c-1.25 3.438-1.562 6.875-1.25 10.313.313 3.437 1.563 6.875 3.125 10 2.813 4.687 6.875 8.437 11.563 10.625 5 2.187 10.312 2.812 15.625 1.562 2.5 2.5 5.312 4.688 8.437 6.25S51.81 100 55.248 100c5.312 0 10.625-1.563 15-4.688s7.5-7.5 9.062-12.5c3.438-.625 6.875-2.187 9.688-4.375 2.812-2.187 5.312-4.687 6.875-7.812 2.812-4.688 3.75-10 3.125-15.313C98.373 50 96.498 45 93.06 40.937m-37.5 52.5c-5 0-8.75-1.562-12.187-4.375 0 0 .312-.312.625-.312l20-11.563c.625-.312.937-.625 1.25-1.25s.312-.937.312-1.562V46.25l8.438 5v23.125c.312 10.937-8.438 19.062-18.438 19.062M15.248 76.25c-2.188-3.75-3.125-8.125-2.188-12.5 0 0 .313.312.625.312l20 11.563c.625.312.938.312 1.563.312s1.25 0 1.562-.312l24.375-14.063v9.688L40.873 83.125c-4.375 2.5-9.375 3.125-14.063 1.875-5-1.25-9.062-4.375-11.562-8.75M9.935 32.812c2.188-3.75 5.625-6.562 9.688-8.125v23.75c0 .625 0 1.25.312 1.563.313.625.625.937 1.25 1.25L45.56 65.312l-8.437 5-20-11.562c-4.375-2.5-7.5-6.563-8.75-11.25s-.938-10.313 1.562-14.688M78.998 48.75 54.623 34.687l8.437-5 20 11.563c3.125 1.875 5.625 4.375 7.188 7.5s2.5 6.562 2.187 10.312c-.312 3.438-1.562 6.875-3.75 9.688-2.187 2.812-5 5-8.437 6.25V51.25c0-.625 0-1.25-.313-1.563 0 0-.312-.625-.937-.937m8.437-12.5s-.312-.313-.625-.313l-20-11.562c-.625-.313-.937-.313-1.562-.313s-1.25 0-1.563.313L39.31 38.437V28.75l20.313-11.875c3.125-1.875 6.562-2.5 10.312-2.5 3.438 0 6.875 1.25 10 3.437 2.813 2.188 5.313 5 6.563 8.125s1.562 6.875.937 10.313m-52.5 17.5-8.437-5V25.312c0-3.437.937-7.187 2.812-10 1.875-3.125 4.688-5.312 7.813-6.875s6.875-2.187 10.312-1.562c3.438.312 6.875 1.875 9.688 4.062 0 0-.313.313-.625.313l-20 11.562c-.625.313-.938.625-1.25 1.25s-.313.938-.313 1.563zm4.375-10 10.938-6.25 10.937 6.25v12.5L50.248 62.5 39.31 56.25z"/></svg>