<svg xmlns="http://www.w3.org/2000/svg" fill="none" viewBox="0 0 100 100"><g clip-path="url(#a)"><path fill="url(#b)" d="M33.54 78.18c-5.53-6.53-9.11-16.17-9.35-27v-2.36c.24-10.83 3.82-20.47 9.35-27C40.72 12.51 51.38 6.6 63.28 6.6c7.32 0 14.18 2.24 20.04 6.13C74.52 4.85 62.92.05 50.19 0H50C22.39 0 0 22.39 0 50c0 26.82 21.11 48.7 47.62 49.94.79.04 1.58.06 2.38.06 12.8 0 24.48-4.81 33.32-12.72-5.86 3.88-12.71 6.12-20.04 6.12-11.9 0-22.56-5.91-29.74-15.22"/><path fill="url(#c)" d="M33.54 21.82c4.59-5.42 10.51-8.68 16.99-8.68 14.56 0 26.35 16.5 26.35 36.86s-11.8 36.86-26.35 36.86c-6.47 0-12.4-3.27-16.99-8.68 7.18 9.31 17.84 15.22 29.74 15.22 7.32 0 14.18-2.24 20.04-6.12C93.56 78.12 100 64.81 100 50s-6.44-28.12-16.68-37.27C77.46 8.84 70.61 6.6 63.28 6.6c-11.9 0-22.56 5.91-29.74 15.22"/></g><defs><linearGradient id="b" x1="41.662" x2="41.662" y1="1.631" y2="98.545" gradientUnits="userSpaceOnUse"><stop offset=".3" stop-color="#FF1B2D"/><stop offset=".438" stop-color="#FA1A2C"/><stop offset=".594" stop-color="#ED1528"/><stop offset=".758" stop-color="#D60E21"/><stop offset=".927" stop-color="#B70519"/><stop offset="1" stop-color="#A70014"/></linearGradient><linearGradient id="c" x1="66.771" x2="66.771" y1="7.343" y2="93.059" gradientUnits="userSpaceOnUse"><stop stop-color="#9C0000"/><stop offset=".7" stop-color="#FF4B4B"/></linearGradient><clipPath id="a"><path fill="#fff" d="M0 0h100v100H0z"/></clipPath></defs></svg>