<svg xmlns="http://www.w3.org/2000/svg" fill="none" viewBox="0 0 100 100"><path fill="#F6E458" d="M1 11.458C1 5.13 6.13 0 12.458 0H88.5c6.328 0 11.458 5.13 11.458 11.458v77.083C99.958 94.87 94.828 100 88.5 100H12.458C6.13 100 1 94.87 1 88.54z"/><path fill="#000" d="M64.417 22.352c-5.46-1.568-11.029-1.781-16.704-1.274-3.176.33-6.229.96-9.174 2.067-6.366 2.391-11.145 6.532-13.995 12.767-2.043 4.47-2.781 9.219-2.858 14.09-.082 5.15.564 10.227 1.589 15.261.93 4.563 2.167 9.037 3.934 13.355.168.41.377.55.826.548 5.59-.012 11.18-.012 16.77-.012h4.965c.127 0 .253-.007.4-.015l.24-.012-.092-.222a8 8 0 0 0-.158-.369q-.608-1.296-1.23-2.587c-.894-1.868-1.789-3.736-2.598-5.64-2.455-5.775-4.335-11.722-4.909-18.017-.253-2.777-.218-5.538.553-8.245.88-3.093 2.77-5.277 5.904-6.19 2.878-.838 5.796-.833 8.657.093 2.555.826 4.22 2.57 4.928 5.183.544 2.006.544 4.034.133 6.057-.317 1.557-.955 2.978-2.104 4.115-2.06 2.039-4.632 2.508-7.393 2.351a28 28 0 0 1-1.485-.137q-.354-.04-.72-.076l.014.217a2 2 0 0 0 .04.358q.175.71.342 1.422c.27 1.143.54 2.286.888 3.406a66 66 0 0 0 2.373 6.437c6.408-.5 12.31-2.093 18.573-5.853l.265-.166c2.69-1.675 4.868-3.848 6.37-6.654 2.432-4.543 2.906-9.402 2.184-14.418-.746-5.176-3.069-9.52-7.067-12.928-2.774-2.364-5.98-3.912-9.461-4.912"/></svg>