<svg xmlns="http://www.w3.org/2000/svg" fill="none" viewBox="0 0 100 100"><path fill="#6E81B6" fill-rule="evenodd" d="M50 75.678c27.614 0 50-11.345 50-25.339S77.614 25.001 50 25.001 0 36.345 0 50.338s22.386 25.339 50 25.339" clip-rule="evenodd"/><path fill="#fff" fill-rule="evenodd" d="m60.133 58.529 2.48-12.765c.56-2.88.095-5.03-1.383-6.387-1.43-1.314-3.86-1.953-7.426-1.953H49.51l1.228-6.324a.814.814 0 0 0-.797-.969h-5.928a.81.81 0 0 0-.798.658L40.58 44.34c-.24-1.524-.83-2.835-1.774-3.917-1.74-1.99-4.49-3-8.176-3H19.14a.81.81 0 0 0-.798.659l-5.33 27.43a.81.81 0 0 0 .798.968h5.974c.39 0 .724-.277.798-.66l1.29-6.634h4.447c2.334 0 4.295-.253 5.826-.75 1.566-.51 3.006-1.373 4.276-2.562a13.1 13.1 0 0 0 2.526-3.137l-1.065 5.48a.81.81 0 0 0 .798.968h5.929a.814.814 0 0 0 .798-.657l2.925-15.057H52.4c1.734 0 2.242.345 2.38.494.125.135.385.612.093 2.116l-2.358 12.136a.815.815 0 0 0 .798.968h6.023a.81.81 0 0 0 .797-.656M32.65 47.982c-.373 1.914-1.074 3.278-2.086 4.056-1.028.793-2.672 1.195-4.887 1.195h-2.648l1.915-9.854h3.424c2.515 0 3.528.537 3.935.988.565.625.684 1.876.347 3.615m52.455-7.559c-1.738-1.99-4.489-3-8.175-3H65.44a.81.81 0 0 0-.798.659l-5.33 27.43a.814.814 0 0 0 .797.968h5.975c.39 0 .724-.277.798-.66l1.29-6.634h4.448c2.334 0 4.294-.253 5.825-.75 1.566-.51 3.007-1.373 4.276-2.562a13.1 13.1 0 0 0 2.59-3.247 13.2 13.2 0 0 0 1.41-3.915c.68-3.495.136-6.284-1.616-8.289m-5.817 7.56c-.373 1.913-1.074 3.277-2.085 4.055-1.029.793-2.672 1.195-4.887 1.195h-2.648l1.914-9.854h3.424c2.516 0 3.529.537 3.936.988.563.625.684 1.876.346 3.615" clip-rule="evenodd"/><path fill="#000" fill-rule="evenodd" d="M28.197 42.566q3.405 0 4.54 1.256 1.133 1.257.54 4.316-.621 3.184-2.388 4.546-1.77 1.361-5.382 1.361H21.87l2.232-11.48zm-14.558 23.1h5.974l1.418-7.292h5.118q3.387 0 5.575-.712 2.187-.712 3.977-2.386a12.2 12.2 0 0 0 2.432-3.046q.93-1.665 1.32-3.673.949-4.878-1.43-7.599-2.377-2.72-7.563-2.72H18.97zM43.84 30.944h5.929l-1.418 7.293h5.282q4.984 0 6.876 1.738 1.893 1.74 1.135 5.635l-2.48 12.764h-6.022L55.5 46.237q.403-2.07-.297-2.824t-2.974-.754h-4.738l-3.054 15.715H38.51zm30.994 11.622q3.405 0 4.54 1.256 1.133 1.257.54 4.316-.619 3.184-2.388 4.546-1.768 1.361-5.38 1.361H68.51l2.23-11.48zm-14.56 23.1h5.976l1.417-7.292h5.118q3.389 0 5.576-.712t3.977-2.386a12.2 12.2 0 0 0 2.43-3.046q.93-1.665 1.322-3.673.948-4.878-1.43-7.599-2.377-2.72-7.563-2.72h-11.49z" clip-rule="evenodd"/></svg>