<svg xmlns="http://www.w3.org/2000/svg" fill="none" viewBox="0 0 100 100"><path fill="url(#a)" fill-rule="evenodd" d="M44.319 49.152c6.688-6.372 4.647-14.253-1.41-23.803s-18.25-12.947-20.525-10.78-2.78 17.662 3.278 27.212 11.969 13.743 18.657 7.371" clip-rule="evenodd"/><path fill="url(#b)" fill-rule="evenodd" d="M50.102 50.034c4.948 7.801 11.562 4.949 19.75-2.852 8.188-7.8 11.582-22.744 9.9-25.397s-14.472-2.52-22.66 5.28c-8.187 7.801-11.938 15.168-6.99 22.97" clip-rule="evenodd"/><path fill="url(#c)" fill-rule="evenodd" d="M47.396 45.743c8.216 1.008 11.447-6.582 12.953-18.85 1.507-12.27-4.703-25.237-7.497-25.58C50.057.97 40.67 12.023 39.163 24.291s.018 20.443 8.233 21.452" clip-rule="evenodd"/><path fill="url(#d)" fill-rule="evenodd" d="M45.327 99.999c17.226 0 31.195-5.004 31.195-27.696 0-22.693-13.97-41.314-31.195-41.314S14.144 49.61 14.144 72.302 28.102 100 45.327 100" clip-rule="evenodd"/><path fill="#EAADCC" d="M61.083 67.67c2.46 0 4.455-.928 4.455-2.073 0-1.144-1.994-2.072-4.455-2.072-2.46 0-4.456.928-4.456 2.072s1.995 2.073 4.456 2.073m-32.996-1.259c2.442.3 4.535-.378 4.675-1.514s-1.728-2.3-4.17-2.6-4.535.378-4.675 1.514 1.727 2.3 4.17 2.6"/><path stroke="#000" stroke-linecap="round" stroke-linejoin="round" stroke-width="1.243" d="M48.182 64.864q-2.012 1.635-4.647 1.333-2.635-.3-3.906-2.187"/><path fill="#000" fill-rule="evenodd" d="M30.926 54.079a4.44 4.44 0 0 1 3.195 1.194 4.44 4.44 0 0 1 1.414 3.103 4.44 4.44 0 0 1-1.194 3.194 4.44 4.44 0 0 1-3.104 1.415 4.44 4.44 0 0 1-3.194-1.195 4.44 4.44 0 0 1-1.414-3.103 4.44 4.44 0 0 1 1.194-3.194 4.44 4.44 0 0 1 3.103-1.414" clip-rule="evenodd"/><path fill="#fff" fill-rule="evenodd" d="M31.16 57.803a1.45 1.45 0 1 0-2.9.102 1.45 1.45 0 0 0 2.9-.102" clip-rule="evenodd"/><path fill="#000" fill-rule="evenodd" d="M57.923 55.21a4.44 4.44 0 0 1 3.194 1.194 4.44 4.44 0 0 1 1.415 3.103 4.44 4.44 0 0 1-1.195 3.194 4.44 4.44 0 0 1-3.103 1.414 4.44 4.44 0 0 1-3.194-1.194 4.44 4.44 0 0 1-1.414-3.103 4.44 4.44 0 0 1 1.194-3.194 4.44 4.44 0 0 1 3.103-1.414" clip-rule="evenodd"/><path fill="#fff" stroke="#fff" stroke-width=".622" d="M34.914 58.398a3.834 3.834 0 1 1-7.664.268 3.834 3.834 0 0 1 7.663-.268Zm1.242-.044a5.077 5.077 0 1 0-10.148.355 5.077 5.077 0 0 0 10.148-.355Zm25.754 1.175a3.834 3.834 0 1 1-7.662.268 3.834 3.834 0 0 1 7.662-.268Zm1.243-.044a5.077 5.077 0 1 0-10.148.355 5.077 5.077 0 0 0 10.148-.355Z"/><path fill="#fff" fill-rule="evenodd" d="M58.157 58.934a1.45 1.45 0 1 0-2.9.102 1.45 1.45 0 0 0 2.9-.102" clip-rule="evenodd"/><path stroke="#ECB732" stroke-linecap="round" stroke-width="2.28" d="m21.708 74.405 15.335 15.957M34.971 76.27l-9.74 10.362M68.75 74.405 53.416 90.362m2.071-14.092 9.74 10.362"/><path stroke="#FFC73B" stroke-linecap="round" stroke-width="2.28" d="M51.55 39.175 41.395 49.329m8.083.001L39.323 39.174"/><defs><linearGradient id="a" x1="3362.04" x2="6131.73" y1="-2594.66" y2="5154.58" gradientUnits="userSpaceOnUse"><stop stop-color="#52CE63"/><stop offset="1" stop-color="#51A256"/></linearGradient><linearGradient id="b" x1="2693.69" x2="-5056.25" y1="3367.46" y2="6135.79" gradientUnits="userSpaceOnUse"><stop stop-color="#52CE63"/><stop offset="1" stop-color="#51A256"/></linearGradient><linearGradient id="c" x1="3421.36" x2="1891" y1="414.914" y2="12878.7" gradientUnits="userSpaceOnUse"><stop stop-color="#8AE99C"/><stop offset="1" stop-color="#52CE63"/></linearGradient><linearGradient id="d" x1="10237.6" x2="8584.34" y1="5782.55" y2="32930.3" gradientUnits="userSpaceOnUse"><stop stop-color="#FFE56C"/><stop offset="1" stop-color="#FFC63A"/></linearGradient></defs></svg>