<svg xmlns="http://www.w3.org/2000/svg" fill="none" viewBox="0 0 100 100"><path fill="#E72264" d="M50.275 0C29.688 0 13 16.688 13 37.275q0 .604.02 1.203v39.47l.004-.003v9.005c0 .07-.003.135-.003.205q0 .104.007.209v.166h.003c.199 6.918 5.864 12.466 12.831 12.466s12.692-5.547 12.89-12.465V74.307h10.65q.435.01.87.01c20.587 0 37.275-16.455 37.275-37.042S70.862 0 50.275 0m0 48.579H38.763v-11.3c0-6.334 5.179-11.472 11.512-11.472s11.471 5.138 11.471 11.471-5.137 11.304-11.47 11.304z"/><path fill="#1D1D1B" d="M25.539 74.314h13.196v13.22h-.06C38.478 94.452 32.813 100 25.846 100S13.209 94.452 13.01 87.534h-.003v-.167c0-.07-.007-.14-.007-.209 0-.07.004-.135.004-.205v-.932c.396-6.188 6.236-11.707 12.531-11.707z" opacity=".15"/><g fill="#000" opacity=".05"><path d="M13.02 58.412v15.895c0-14.003 11.767-25.53 25.736-25.721v-5.071C28.373 44.607 19.18 50.196 13.02 58.41" opacity=".5"/><path d="M13.042 86.268c3.033-2.226 6.713-3.537 10.685-3.537h15.032v-8.424H25.88c-6.803 0-12.364 5.276-12.837 11.96"/></g><g fill="#000" opacity=".05"><path d="M38.756 48.586V43.98c-10.47 1.026-19.707 6.737-25.735 15.123v15.203c0-14.003 11.766-25.53 25.735-25.721" opacity=".5"/><path d="M25.88 74.307c-6.62 0-12.066 4.998-12.79 11.425 3.03-2.365 6.772-3.763 10.831-3.763h14.835V74.31h-12.88z"/></g><g fill="#000" opacity=".05"><path d="M38.756 48.586v-4.143c-10.564.957-19.86 6.807-25.735 15.38v14.48c0-14.003 11.766-25.53 25.735-25.72z" opacity=".5"/><path d="M25.88 74.307c-6.435 0-11.76 4.72-12.72 10.886 3.012-2.5 6.817-3.993 10.956-3.993h14.64v-6.893h-12.88z"/></g><g fill="#000" opacity=".05"><path d="M38.756 48.586v-3.677c-10.671.884-20.031 6.894-25.735 15.676v13.722c0-14.003 11.766-25.53 25.735-25.721" opacity=".5"/><path d="M25.88 74.307c-6.25 0-11.457 4.455-12.626 10.361 2.988-2.64 6.845-4.233 11.06-4.233H38.76v-6.128z"/></g><g fill="#000" opacity=".05"><path d="M38.756 48.586v-3.207c-10.797.8-20.23 6.998-25.735 16.01v12.918c0-14.003 11.766-25.53 25.735-25.721" opacity=".5"/><path d="M25.88 74.307c-6.063 0-11.14 4.19-12.508 9.829 2.946-2.776 6.852-4.47 11.137-4.47h14.247v-5.363h-12.88z"/></g><g fill="#000" opacity=".05"><path d="M38.756 48.586v-2.737c-10.94.716-20.462 7.126-25.735 16.402v12.056c0-14.003 11.766-25.53 25.735-25.721" opacity=".5"/><path d="M25.88 74.307c-5.871 0-10.817 3.93-12.365 9.297 2.894-2.912 6.838-4.703 11.192-4.703H38.76v-4.594z"/></g><g fill="#000" opacity=".05"><path d="M38.756 48.586v-2.264c-11.106.622-20.737 7.29-25.735 16.865v11.12c0-14.003 11.766-25.53 25.735-25.721" opacity=".5"/><path d="M25.88 74.307c-5.673 0-10.487 3.672-12.202 8.768 2.828-3.043 6.81-4.939 11.22-4.939h13.858v-3.83h-12.88z"/></g><g fill="#000" opacity=".05"><path d="M38.756 48.586v-1.788c-11.311.522-21.07 7.502-25.735 17.429v10.08c0-14.003 11.766-25.53 25.735-25.721" opacity=".5"/><path d="M25.88 74.307c-5.478 0-10.153 3.426-12.014 8.25 2.751-3.18 6.758-5.186 11.231-5.186h13.662v-3.064z"/></g><g fill="#000" opacity=".05"><path d="M38.756 48.586v-1.301c-11.572.414-21.499 7.788-25.735 18.149v8.873c0-14.003 11.766-25.53 25.735-25.721" opacity=".5"/><path d="M25.88 74.307c-5.28 0-9.816 3.182-11.798 7.731 2.654-3.314 6.688-5.432 11.213-5.432H38.76v-2.3z"/></g></svg>