<svg xmlns="http://www.w3.org/2000/svg" fill="none" viewBox="0 0 100 100"><path fill="#2D4552" d="M35.445 54.525c-3.222.915-5.335 2.518-6.727 4.12 1.333-1.168 3.12-2.239 5.529-2.922 2.464-.698 4.567-.693 6.304-.358v-1.358c-1.482-.136-3.18-.028-5.106.518m-6.875-11.42-11.964 3.152s.218.308.622.72l10.144-2.674s-.144 1.853-1.392 3.51c2.361-1.787 2.59-4.708 2.59-4.708m10.015 28.118c-16.837 4.535-25.744-14.977-28.441-25.105-1.246-4.674-1.79-8.215-1.935-10.5a4 4 0 0 1 .008-.62c-.873.053-1.291.507-1.206 1.819.145 2.283.689 5.823 1.935 10.5C11.64 57.443 20.55 76.955 37.387 72.42c3.665-.987 6.418-2.786 8.485-5.081-1.905 1.72-4.29 3.075-7.287 3.884m3.164-40.06v1.2h6.604c-.135-.425-.272-.807-.407-1.2z"/><path fill="#2D4552" d="M49.83 41.032c2.97.844 4.54 2.926 5.37 4.769l3.312.94s-.452-6.449-6.286-8.106c-5.457-1.55-8.815 3.032-9.224 3.625 1.588-1.13 3.906-2.057 6.827-1.228m26.36 4.799c-5.463-1.558-8.82 3.034-9.222 3.62 1.588-1.13 3.905-2.057 6.825-1.224 2.965.845 4.535 2.924 5.368 4.768l3.316.944s-.46-6.45-6.288-8.108M72.9 62.835l-27.548-7.701s.298 1.512 1.442 3.47l23.194 6.484c1.91-1.105 2.911-2.253 2.911-2.253M53.8 79.412c-21.812-5.848-19.175-33.64-15.645-46.81 1.453-5.427 2.947-9.46 4.186-12.165-.74-.152-1.351.238-1.956 1.468-1.316 2.668-2.998 7.012-4.626 13.094-3.529 13.17-6.166 40.96 15.646 46.808 10.28 2.754 18.29-1.432 24.26-8.006-5.667 5.133-12.903 8.01-21.864 5.61"/><path fill="#E2574C" d="M41.75 64.71v-5.608l-15.583 4.419s1.151-6.69 9.278-8.996c2.464-.698 4.567-.693 6.304-.358V31.164h7.802c-.85-2.625-1.671-4.646-2.361-6.05-1.142-2.325-2.313-.784-4.97 1.439-1.871 1.563-6.601 4.899-13.72 6.817-7.117 1.919-12.871 1.41-15.272.994-3.404-.587-5.184-1.335-5.018 1.254.145 2.284.689 5.824 1.935 10.5 2.696 10.127 11.605 29.639 28.441 25.104 4.398-1.185 7.503-3.527 9.654-6.513zM16.604 46.257l11.965-3.152s-.348 4.603-4.834 5.786c-4.487 1.181-7.13-2.634-7.13-2.634"/><path fill="#2EAD33" d="M86.78 31.43c-3.11.545-10.572 1.224-19.793-1.247-9.224-2.47-15.344-6.791-17.769-8.822-3.437-2.879-4.95-4.88-6.437-1.853-1.316 2.67-2.998 7.013-4.626 13.095-3.528 13.17-6.165 40.96 15.646 46.808 21.806 5.843 33.415-19.545 36.944-32.715 1.628-6.08 2.342-10.685 2.539-13.653.224-3.363-2.086-2.387-6.504-1.613M42.958 42.325s3.437-5.346 9.267-3.689c5.834 1.657 6.285 8.107 6.285 8.107zm14.23 23.99C46.936 63.31 45.354 55.134 45.354 55.134L72.9 62.835s-5.56 6.446-15.71 3.48m9.74-16.805s3.433-5.342 9.261-3.68c5.829 1.66 6.288 8.108 6.288 8.108z"/><path fill="#D65348" d="M36.304 60.646 26.167 63.52s1.101-6.273 8.569-8.759l-5.74-21.541-.496.15c-7.118 1.92-12.873 1.41-15.273.995-3.404-.587-5.185-1.335-5.018 1.255.145 2.283.689 5.823 1.935 10.5 2.695 10.126 11.604 29.638 28.441 25.103l.496-.156zM16.605 46.258l11.965-3.153s-.348 4.603-4.834 5.786c-4.487 1.181-7.13-2.633-7.13-2.633"/><path fill="#1D8D22" d="m57.651 66.427-.463-.113c-10.255-3.003-11.836-11.18-11.836-11.18l14.204 3.97 7.52-28.897-.09-.024c-9.224-2.47-15.344-6.791-17.77-8.822-3.436-2.879-4.948-4.88-6.436-1.853-1.315 2.67-2.997 7.013-4.625 13.095-3.528 13.17-6.165 40.96 15.646 46.808l.447.1zM42.958 42.325s3.437-5.346 9.267-3.689c5.834 1.657 6.285 8.107 6.285 8.107z"/><path fill="#C04B41" d="m36.82 60.5-2.718.77c.642 3.621 1.774 7.096 3.55 10.165.31-.068.617-.127.932-.213a20 20 0 0 0 2.328-.8c-1.985-2.945-3.299-6.338-4.092-9.923M35.76 35c-1.397 5.213-2.647 12.718-2.303 20.245a16 16 0 0 1 1.989-.72l.503-.113c-.613-8.04.713-16.234 2.207-21.81.379-1.41.758-2.721 1.137-3.944-.61.388-1.266.785-2.014 1.195A103 103 0 0 0 35.758 35"/></svg>