<svg xmlns="http://www.w3.org/2000/svg" fill="none" viewBox="3.9 0.98 217.57 156.1" key="gta3hbp"><path fill="#F9AD00" d="M221.478 49.756h-48.78V.976h48.78zm-53.668 0h-48.781V.976h48.781zm-53.659 0h-48.78V.976h48.78zm107.327 53.659h-48.78V54.634h48.78z" key="me1dr7h"/><path fill="#4E4E4E" d="M167.81 103.415h-48.781V54.634h48.781zm0 53.658h-48.781v-48.78h48.781zm53.668 0h-48.78v-48.78h48.78zm-107.327 0h-48.78v-48.78h48.78zM13.041 68.35q2.459 0 4.549.655 2.13.615 3.646 1.926t2.377 3.319q.86 1.966.86 4.712 0 2.622-.737 4.59-.738 1.966-2.09 3.318-1.352 1.311-3.278 1.967-1.884.656-4.22.656-1.763 0-3.278-.533v6.802q-.41.123-1.312.246a10.3 10.3 0 0 1-1.844.164q-.9 0-1.639-.123a2.74 2.74 0 0 1-1.188-.492q-.492-.369-.737-1.024-.246-.615-.246-1.64V73.226q0-1.105.45-1.803a5.3 5.3 0 0 1 1.312-1.27q1.27-.819 3.155-1.311t4.22-.492m.082 15.652q4.22 0 4.22-5.04 0-2.623-1.065-3.893-1.025-1.27-2.99-1.27-.78 0-1.394.205a4.8 4.8 0 0 0-1.065.41v9.014q.49.245 1.065.41.573.165 1.23.164Zm27.37-7.745q0-1.27-.737-1.844-.698-.614-1.926-.614-.82 0-1.64.205a4.1 4.1 0 0 0-1.351.614v14.219q-.41.123-1.312.246-.86.123-1.803.123-.9 0-1.639-.123a2.74 2.74 0 0 1-1.188-.492 2.55 2.55 0 0 1-.778-.983q-.246-.656-.246-1.68V73.635q0-1.107.45-1.803a5.3 5.3 0 0 1 1.312-1.27q1.393-.984 3.483-1.598 2.13-.615 4.712-.615 4.63 0 7.13 2.049 2.5 2.008 2.5 5.614v12.825q-.41.123-1.312.246-.861.123-1.803.123-.901 0-1.639-.123a2.74 2.74 0 0 1-1.188-.492 2.55 2.55 0 0 1-.779-.983q-.246-.655-.246-1.68v-9.67ZM60.9 68.35q2.458 0 4.548.656 2.13.615 3.647 1.926 1.515 1.31 2.376 3.319.86 1.966.86 4.712 0 2.622-.737 4.59-.738 1.966-2.09 3.318-1.352 1.311-3.278 1.967-1.884.656-4.22.656-1.762 0-3.278-.533v6.802q-.41.123-1.312.246-.9.164-1.843.164-.902 0-1.64-.123a2.74 2.74 0 0 1-1.188-.492q-.492-.369-.737-1.024-.246-.615-.246-1.64V73.226q0-1.105.45-1.803a5.3 5.3 0 0 1 1.312-1.27q1.27-.819 3.155-1.311t4.22-.492Zm.081 15.653q4.22 0 4.22-5.04 0-2.623-1.064-3.893-1.024-1.27-2.992-1.27-.778 0-1.393.205a4.8 4.8 0 0 0-1.065.41v9.014q.492.245 1.065.41.574.165 1.23.164ZM85.278 68.35q1.68 0 3.278.492 1.639.45 2.828 1.393 1.23-.82 2.745-1.352 1.557-.533 3.729-.533 1.557 0 3.032.41a7.4 7.4 0 0 1 2.663 1.311q1.19.86 1.885 2.336.697 1.434.697 3.524v12.907q-.41.123-1.311.246-.861.123-1.803.123a10 10 0 0 1-1.639-.123 2.74 2.74 0 0 1-1.189-.492 2.55 2.55 0 0 1-.778-.983q-.246-.655-.246-1.68v-9.793q0-1.23-.697-1.762-.696-.574-1.884-.574-.575 0-1.23.287-.655.246-.983.532.04.165.04.328v13.891q-.45.123-1.351.246-.86.123-1.762.123c-.902 0-1.148-.041-1.64-.123a2.74 2.74 0 0 1-1.188-.492 2.55 2.55 0 0 1-.778-.983q-.246-.656-.246-1.68v-9.793q0-1.23-.779-1.762-.737-.574-1.802-.574-.738 0-1.27.246a7 7 0 0 0-.902.41v14.382q-.41.123-1.311.246a13 13 0 0 1-1.803.123q-.902 0-1.64-.123a2.74 2.74 0 0 1-1.188-.492 2.55 2.55 0 0 1-.778-.983q-.246-.656-.246-1.68V73.553q0-1.106.45-1.762.493-.655 1.312-1.23 1.393-.983 3.442-1.597a15.3 15.3 0 0 1 4.343-.615Z" key="0rnfsy6"/></svg>