<svg xmlns="http://www.w3.org/2000/svg" fill="none" viewBox="0 0 100 100"><path fill="#000" d="M98.472 59.903c-.582-1.766-2.105-2.996-4.074-3.29-.929-.14-1.992-.08-3.251.18-2.194.453-3.821.626-5.009.66 4.483-7.59 8.129-16.246 10.227-24.394 3.394-13.175 1.58-19.177-.539-21.891C90.218 3.982 82.036.12 72.166.003c-5.267-.064-9.89.978-12.3 1.728-2.246-.397-4.66-.619-7.193-.66-4.749-.076-8.944.962-12.529 3.095a57 57 0 0 0-8.848-2.227C22.644.515 15.672 1.625 10.57 5.238c-6.175 4.374-9.038 11.975-8.509 22.59.168 3.37 2.048 13.625 5.009 23.35 1.701 5.59 3.515 10.232 5.392 13.798 2.661 5.057 5.51 8.035 8.706 9.105 1.792.598 5.048 1.017 8.472-1.843.434.528 1.013 1.051 1.782 1.538.976.617 2.17 1.121 3.361 1.42 4.296 1.077 8.319.808 11.752-.701.02.612.037 1.197.05 1.702.023.819.046 1.622.076 2.373.203 5.08.548 9.03 1.57 11.793.055.152.13.383.21.63.51 1.563 1.361 4.181 3.529 6.232 2.244 2.124 4.958 2.775 7.444 2.775 1.247 0 2.437-.164 3.48-.388 3.72-.8 7.944-2.017 11-6.38 2.889-4.124 4.293-10.337 4.547-20.125l.093-.793.06-.518.68.06.176.012c3.788.173 8.42-.632 11.265-1.957 2.248-1.046 9.452-4.86 7.756-10.008"/><path fill="#336791" d="M91.994 60.904c-11.264 2.33-12.038-1.494-12.038-1.494C91.848 41.714 96.82 19.252 92.53 13.754 80.825-1.242 60.564 5.85 60.226 6.034l-.109.02c-2.225-.464-4.716-.74-7.515-.785-5.096-.084-8.963 1.34-11.896 3.57 0 0-36.145-14.931-34.463 18.78.357 7.17 10.25 54.262 22.05 40.038 4.313-5.201 8.48-9.599 8.48-9.599 2.07 1.379 4.547 2.082 7.145 1.83l.202-.172c-.063.645-.034 1.277.08 2.025-3.04 3.406-2.146 4.003-8.223 5.258-6.149 1.27-2.537 3.533-.178 4.125 2.859.716 9.474 1.732 13.943-4.542l-.178.716c1.19.956 2.027 6.222 1.887 10.996-.14 4.773-.234 8.05.704 10.61.94 2.56 1.874 8.32 9.863 6.603 6.674-1.434 10.134-5.151 10.615-11.352.341-4.408 1.114-3.756 1.163-7.697l.62-1.866c.715-5.975.113-7.903 4.225-7.006l1 .088c3.027.138 6.988-.489 9.313-1.572 5.007-2.33 7.976-6.22 3.04-5.198"/><path fill="#fff" d="M42.821 30.825c-1.015-.142-1.934-.01-2.4.343a.88.88 0 0 0-.364.587c-.058.42.235.884.416 1.123.51.677 1.254 1.143 1.991 1.246q.16.022.319.022c1.229 0 2.347-.96 2.445-1.669.123-.887-1.161-1.478-2.407-1.652m33.627.028c-.097-.695-1.33-.894-2.502-.73-1.17.163-2.303.693-2.209 1.39.076.541 1.052 1.467 2.207 1.467q.147 0 .296-.02c.77-.108 1.337-.599 1.606-.882.409-.431.646-.912.602-1.225"/><path fill="#fff" d="M95.743 60.64c-.43-1.303-1.812-1.722-4.11-1.247-6.818 1.412-9.26.434-10.062-.158 5.3-8.097 9.66-17.885 12.013-27.018 1.114-4.325 1.73-8.343 1.78-11.618.056-3.594-.555-6.235-1.814-7.848-5.076-6.504-12.526-9.993-21.544-10.089-6.2-.07-11.438 1.521-12.453 1.969a31 31 0 0 0-7.008-.903c-4.654-.075-8.677 1.042-12.008 3.32a53.5 53.5 0 0 0-9.758-2.566c-7.905-1.276-14.187-.31-18.67 2.875-5.35 3.8-7.819 10.594-7.34 20.19.16 3.229 1.995 13.162 4.89 22.674 3.811 12.52 7.954 19.607 12.313 21.065.51.17 1.098.29 1.747.29 1.59 0 3.54-.72 5.568-3.164a201 201 0 0 1 7.674-8.708 12.34 12.34 0 0 0 5.52 1.49l.014.15q-.498.596-.974 1.206c-1.334 1.698-1.611 2.052-5.905 2.938-1.222.253-4.466.924-4.513 3.204-.052 2.492 3.835 3.538 4.277 3.649 1.543.387 3.03.578 4.448.578 3.447 0 6.482-1.136 8.906-3.335-.074 8.882.295 17.634 1.358 20.3.872 2.184 3 7.519 9.72 7.519.987 0 2.073-.116 3.267-.372 7.015-1.508 10.06-4.617 11.24-11.471.63-3.663 1.712-12.41 2.22-17.103 1.075.336 2.458.49 3.953.49 3.118 0 6.715-.664 8.972-1.715 2.534-1.18 7.108-4.076 6.279-6.593M79.037 28.933c-.023 1.385-.213 2.642-.414 3.955-.217 1.412-.442 2.871-.498 4.643-.056 1.724.159 3.517.367 5.25.42 3.502.85 7.107-.817 10.665q-.415-.738-.739-1.523c-.207-.504-.657-1.313-1.28-2.432-2.423-4.359-8.099-14.565-5.193-18.73.865-1.24 3.061-2.515 8.574-1.828M72.355 5.467c8.08.179 14.472 3.21 18.997 9.009 3.47 4.448-.351 24.686-11.416 42.146l-.335-.425-.14-.175c2.859-4.735 2.3-9.42 1.802-13.573-.204-1.705-.397-3.315-.348-4.827.05-1.603.262-2.978.466-4.307.252-1.638.507-3.333.437-5.331.052-.21.074-.458.046-.751-.18-1.916-2.362-7.651-6.808-12.841-2.432-2.84-5.98-6.016-10.822-8.16 2.083-.432 4.931-.836 8.12-.765M27.14 66.622c-2.234 2.694-3.777 2.178-4.285 2.008-3.306-1.105-7.143-8.113-10.526-19.226-2.927-9.616-4.637-19.285-4.773-21.997-.427-8.575 1.646-14.551 6.162-17.763 7.349-5.226 19.432-2.098 24.287-.511-.07.069-.142.134-.211.204-7.968 8.068-7.779 21.853-7.759 22.696 0 .325.026.786.064 1.419.137 2.318.392 6.634-.29 11.52-.633 4.542.763 8.987 3.83 12.195q.472.495.991.938a205 205 0 0 0-7.49 8.517m8.514-11.391c-2.472-2.587-3.594-6.184-3.08-9.871.72-5.162.454-9.658.311-12.074-.02-.338-.038-.634-.048-.868 1.164-1.035 6.558-3.933 10.404-3.049 1.755.403 2.825 1.602 3.27 3.663 2.301 10.674.304 15.123-1.3 18.698-.33.736-.643 1.432-.91 2.152l-.207.557c-.523 1.407-1.01 2.716-1.312 3.959-2.628-.008-5.184-1.133-7.128-3.168m.403 14.394c-.767-.192-1.457-.526-1.862-.803.338-.16.94-.377 1.984-.592 5.051-1.043 5.832-1.779 7.535-3.948a33 33 0 0 1 1.447-1.748c.914-1.026 1.331-.852 2.089-.537.614.255 1.212 1.026 1.454 1.876.115.4.244 1.162-.178 1.754-3.558 4.997-8.744 4.933-12.469 3.998m26.437 24.669c-6.18 1.328-8.368-1.834-9.81-5.449-.93-2.333-1.388-12.856-1.063-24.477a1.4 1.4 0 0 0-.06-.444 6 6 0 0 0-.173-.821c-.483-1.69-1.659-3.105-3.07-3.692-.56-.233-1.589-.66-2.825-.343.264-1.089.72-2.32 1.216-3.651l.208-.56c.234-.632.528-1.286.839-1.979 1.679-3.74 3.978-8.863 1.483-20.437-.935-4.335-4.057-6.452-8.789-5.96-2.837.294-5.432 1.442-6.727 2.1q-.416.212-.77.411c.36-4.367 1.726-12.53 6.832-17.695C43 8.047 47.282 6.44 52.5 6.527c10.28.169 16.871 5.459 20.591 9.867 3.206 3.798 4.942 7.625 5.635 9.689-5.21-.532-8.753.5-10.55 3.074-3.907 5.602 2.138 16.473 5.044 21.698.532.957.992 1.785 1.137 2.137.946 2.299 2.171 3.834 3.065 4.954.274.344.54.677.743.968-1.578.456-4.413 1.51-4.154 6.778-.209 2.643-1.69 15.02-2.442 19.392-.994 5.777-3.114 7.928-9.074 9.21m25.794-29.6c-1.613.75-4.313 1.314-6.878 1.435-2.833.133-4.275-.318-4.615-.596-.159-3.283 1.06-3.626 2.35-3.989.202-.057.4-.113.59-.18q.178.146.391.288c2.277 1.507 6.339 1.67 12.073.482l.062-.012c-.773.725-2.096 1.698-3.973 2.572"/></svg>