<svg xmlns="http://www.w3.org/2000/svg" fill="none" viewBox="0 0 100 100"><path fill="#E0EAF5" fill-rule="evenodd" d="M58.693 12.015c11.242-.004 22.484-.038 33.726.01 6.683.027 8.568 2.26 7.127 8.86A7501 7501 0 0 1 86.64 78.821c-1.383 6.099-4.56 8.597-10.975 8.616-22.484.067-44.969.075-67.452-.002-7.35-.026-9.283-2.516-7.7-9.48C4.812 59.04 9.13 40.13 13.485 21.229c1.659-7.203 4.151-9.18 11.482-9.202 11.242-.031 22.485-.008 33.727-.012" clip-rule="evenodd"/><path fill="#2671BE" fill-rule="evenodd" d="M41.704 85.19c-11.244-.004-22.487.047-33.73-.026-5.701-.037-6.738-1.383-5.455-6.959 4.351-18.911 8.842-37.791 13.097-56.724 1.14-5.078 3.601-7.323 9.042-7.272 22.484.208 44.973.067 67.459.09 5.64.005 6.586 1.211 5.32 6.93-4.11 18.569-8.246 37.131-12.455 55.677-1.575 6.941-3.39 8.266-10.691 8.282-10.863.023-21.725.006-32.587.002" clip-rule="evenodd"/><path fill="#FDFDFE" fill-rule="evenodd" d="M51.271 48.128c-.754-.885-1.581-1.903-2.458-2.876-4.97-5.52-9.896-11.082-14.954-16.52-2.315-2.488-3.053-4.905-.273-7.362 2.747-2.428 5.447-2.213 7.966.58 7.018 7.778 14.028 15.564 21.162 23.234 2.664 2.865 2.043 4.813-.89 6.935-11.26 8.15-22.458 16.39-33.642 24.644-2.515 1.856-4.911 2.32-6.942-.42-2.24-3.025-.168-4.823 2.156-6.516a3629 3629 0 0 0 24.867-18.254c1.15-.854 2.802-1.35 3.008-3.445" clip-rule="evenodd"/><path fill="#FCFDFD" fill-rule="evenodd" d="M54.831 77.376c-3.027 0-6.058.104-9.079-.033-2.41-.11-3.86-1.456-3.829-3.994.03-2.4 1.24-4.204 3.646-4.269 6.616-.177 13.242-.139 19.86-.01 2.103.042 3.656 1.412 3.643 3.604-.015 2.514-1.338 4.461-4.03 4.624-3.393.205-6.806.05-10.21.05z" clip-rule="evenodd"/></svg>