<svg xmlns="http://www.w3.org/2000/svg" fill="none" viewBox="0 0 100 100"><path fill="#5D88D6" d="M57.59 16.547a4.501 4.501 0 1 0-6.366-6.365 4.501 4.501 0 0 0 6.366 6.365m12.727 12.726a5 5 0 1 0-7.072-7.072 5 5 0 0 0 7.072 7.072m12.725 12.729a5.5 5.5 0 1 0-7.778-7.778 5.5 5.5 0 0 0 7.778 7.778m12.715 12.713a6 6 0 1 0-8.485-8.485 6 6 0 0 0 8.485 8.485"/><path fill="#32DBFC" d="M32.503 16.194a4.002 4.002 0 1 0-5.66-5.66 4.002 4.002 0 0 0 5.66 5.66M45.228 28.92a4.501 4.501 0 1 0-6.365-6.365 4.501 4.501 0 0 0 6.365 6.365m12.716 12.716a5 5 0 1 0-7.073-7.072 5 5 0 0 0 7.073 7.072m12.721 12.719a5.5 5.5 0 1 0-7.778-7.778 5.5 5.5 0 0 0 7.778 7.778m12.73 12.735a6 6 0 1 0-8.484-8.484 6 6 0 0 0 8.484 8.485"/><path fill="#000" d="M7.429 15.854A3.502 3.502 0 1 0 2.476 10.9a3.502 3.502 0 0 0 4.953 4.953m12.708 12.708a4.002 4.002 0 1 0-5.659-5.66 4.002 4.002 0 0 0 5.66 5.66m12.73 12.735a4.501 4.501 0 1 0-6.365-6.366 4.501 4.501 0 0 0 6.365 6.365m12.721 12.72a5 5 0 1 0-7.073-7.072 5 5 0 0 0 7.073 7.072m12.719 12.723a5.5 5.5 0 1 0-7.778-7.778 5.5 5.5 0 0 0 7.778 7.778M71.02 79.442a6 6 0 1 0-8.484-8.484 6 6 0 0 0 8.484 8.484"/><path fill="#5D88D6" d="M32.504 65.66a4.002 4.002 0 1 0-5.66-5.66 4.002 4.002 0 0 0 5.66 5.66M17.31 79.199a4.002 4.002 0 1 0 0-8.004 4.002 4.002 0 0 0 0 8.004M4.946 91.574a4.002 4.002 0 1 0 0-8.004 4.002 4.002 0 0 0 0 8.004m24.731-.007a4.002 4.002 0 1 0 0-8.003 4.002 4.002 0 0 0 0 8.003m27.566-1.163a4.002 4.002 0 1 0-5.66-5.66 4.002 4.002 0 0 0 5.66 5.66M44.871 78.025a4.002 4.002 0 1 0-5.66-5.66 4.002 4.002 0 0 0 5.66 5.66"/></svg>