<svg xmlns="http://www.w3.org/2000/svg" fill="none" viewBox="0 0 100 100"><path fill="#56B3B4" d="M73.81 19.048h4.761a2.36 2.36 0 0 1 2.381 2.381 2.36 2.36 0 0 1-2.38 2.381h-4.763a2.36 2.36 0 0 1-2.38-2.381 2.36 2.36 0 0 1 2.38-2.38"/><path fill="#EA5E5E" d="M2.381 95.239h23.81a2.36 2.36 0 0 1 2.38 2.38 2.36 2.36 0 0 1-2.38 2.382H2.38A2.36 2.36 0 0 1 0 97.62a2.36 2.36 0 0 1 2.381-2.381"/><path fill="#BF85BF" d="M59.524 57.144h14.285a2.36 2.36 0 0 1 2.381 2.38 2.36 2.36 0 0 1-2.38 2.381H59.524a2.36 2.36 0 0 1-2.381-2.38 2.36 2.36 0 0 1 2.38-2.381"/><path fill="#EA5E5E" d="M30.953 57.144H50a2.36 2.36 0 0 1 2.381 2.38 2.36 2.36 0 0 1-2.38 2.381H30.952a2.36 2.36 0 0 1-2.381-2.38 2.36 2.36 0 0 1 2.38-2.381"/><path fill="#56B3B4" d="M2.381 57.144h19.048a2.36 2.36 0 0 1 2.38 2.38 2.36 2.36 0 0 1-2.38 2.381H2.38A2.36 2.36 0 0 1 0 59.525a2.36 2.36 0 0 1 2.381-2.381"/><path fill="#BF85BF" d="M2.381 76.19h23.81a2.36 2.36 0 0 1 2.38 2.382 2.36 2.36 0 0 1-2.38 2.38H2.38A2.36 2.36 0 0 1 0 78.573a2.36 2.36 0 0 1 2.381-2.381m0-38.096h23.81a2.36 2.36 0 0 1 2.38 2.38 2.36 2.36 0 0 1-2.38 2.382H2.38A2.36 2.36 0 0 1 0 40.477a2.36 2.36 0 0 1 2.381-2.381"/><path fill="#F7BA3E" d="M26.19 9.524h47.62a2.36 2.36 0 0 1 2.38 2.381 2.36 2.36 0 0 1-2.38 2.381H26.19a2.36 2.36 0 0 1-2.38-2.38 2.36 2.36 0 0 1 2.38-2.382"/><path fill="#EA5E5E" d="M2.381 9.524h14.286a2.36 2.36 0 0 1 2.38 2.381 2.36 2.36 0 0 1-2.38 2.381H2.38A2.36 2.36 0 0 1 0 11.906a2.36 2.36 0 0 1 2.381-2.382"/><path fill="#F7BA3E" d="M21.429 85.715h4.762a2.36 2.36 0 0 1 2.38 2.38 2.36 2.36 0 0 1-2.38 2.382h-4.762a2.36 2.36 0 0 1-2.381-2.381 2.36 2.36 0 0 1 2.38-2.381"/><path fill="#56B3B4" d="M21.429 28.572h4.762a2.36 2.36 0 0 1 2.38 2.38 2.36 2.36 0 0 1-2.38 2.382h-4.762a2.36 2.36 0 0 1-2.381-2.381 2.36 2.36 0 0 1 2.38-2.381M2.381 85.715h9.524a2.36 2.36 0 0 1 2.38 2.38 2.36 2.36 0 0 1-2.38 2.382H2.38A2.36 2.36 0 0 1 0 88.096a2.36 2.36 0 0 1 2.381-2.381"/><path fill="#F7BA3E" d="M2.381 28.572h9.524a2.36 2.36 0 0 1 2.38 2.38 2.36 2.36 0 0 1-2.38 2.382H2.38A2.36 2.36 0 0 1 0 30.953a2.36 2.36 0 0 1 2.381-2.381"/><path fill="#D0D4D8" d="M64.286 85.715h4.762a2.36 2.36 0 0 1 2.38 2.38 2.36 2.36 0 0 1-2.38 2.382h-4.762a2.36 2.36 0 0 1-2.381-2.381 2.36 2.36 0 0 1 2.38-2.381m-28.571 0h19.048a2.36 2.36 0 0 1 2.38 2.38 2.36 2.36 0 0 1-2.38 2.382H35.714a2.36 2.36 0 0 1-2.38-2.381 2.36 2.36 0 0 1 2.38-2.381m42.857 0H97.62a2.36 2.36 0 0 1 2.381 2.38 2.36 2.36 0 0 1-2.38 2.382H78.57a2.36 2.36 0 0 1-2.38-2.381 2.36 2.36 0 0 1 2.38-2.381" opacity=".5"/><path fill="#56B3B4" d="M40.476 47.62h38.095A2.36 2.36 0 0 1 80.952 50a2.36 2.36 0 0 1-2.38 2.381H40.475a2.36 2.36 0 0 1-2.38-2.38 2.36 2.36 0 0 1 2.38-2.381"/><path fill="#F7BA3E" d="M16.667 47.62h14.285A2.36 2.36 0 0 1 33.333 50a2.36 2.36 0 0 1-2.38 2.381H16.666a2.36 2.36 0 0 1-2.381-2.38 2.36 2.36 0 0 1 2.38-2.381"/><path fill="#EA5E5E" d="M2.381 47.62h4.762A2.36 2.36 0 0 1 9.523 50a2.36 2.36 0 0 1-2.38 2.381H2.38A2.36 2.36 0 0 1 0 50.001a2.36 2.36 0 0 1 2.381-2.381"/><path fill="#BF85BF" d="M45.238 19.048h19.048a2.36 2.36 0 0 1 2.38 2.381 2.36 2.36 0 0 1-2.38 2.381H45.238a2.36 2.36 0 0 1-2.38-2.381 2.36 2.36 0 0 1 2.38-2.38"/><path fill="#56B3B4" d="M2.381 19.048h33.333a2.36 2.36 0 0 1 2.381 2.381 2.36 2.36 0 0 1-2.38 2.381H2.38A2.36 2.36 0 0 1 0 21.429a2.36 2.36 0 0 1 2.381-2.38"/><path fill="#F7BA3E" d="M16.667 66.667h42.857a2.36 2.36 0 0 1 2.38 2.381 2.36 2.36 0 0 1-2.38 2.38H16.667a2.36 2.36 0 0 1-2.381-2.38 2.36 2.36 0 0 1 2.38-2.381"/><path fill="#BF85BF" d="M2.381 66.667h4.762a2.36 2.36 0 0 1 2.38 2.381 2.36 2.36 0 0 1-2.38 2.38H2.38A2.36 2.36 0 0 1 0 69.049a2.36 2.36 0 0 1 2.381-2.381"/><path fill="#EA5E5E" d="M59.524 28.572h23.81a2.36 2.36 0 0 1 2.38 2.38 2.36 2.36 0 0 1-2.38 2.382h-23.81a2.36 2.36 0 0 1-2.381-2.381 2.36 2.36 0 0 1 2.38-2.381"/><path fill="#F7BA3E" d="M59.524 38.096h23.81a2.36 2.36 0 0 1 2.38 2.38 2.36 2.36 0 0 1-2.38 2.382h-23.81a2.36 2.36 0 0 1-2.381-2.381 2.36 2.36 0 0 1 2.38-2.381"/><path fill="#56B3B4" d="M2.381 0h57.143a2.36 2.36 0 0 1 2.38 2.381 2.36 2.36 0 0 1-2.38 2.381H2.38A2.36 2.36 0 0 1 0 2.382 2.36 2.36 0 0 1 2.381 0"/><path fill="#D0D4D8" d="M69.048 0h28.571A2.36 2.36 0 0 1 100 2.381a2.36 2.36 0 0 1-2.38 2.381H69.047a2.36 2.36 0 0 1-2.381-2.38A2.36 2.36 0 0 1 69.047 0m.001 66.667h9.523a2.36 2.36 0 0 1 2.381 2.381 2.36 2.36 0 0 1-2.38 2.38h-9.524a2.36 2.36 0 0 1-2.381-2.38 2.36 2.36 0 0 1 2.38-2.381m19.048 0h9.524A2.36 2.36 0 0 1 100 69.048a2.36 2.36 0 0 1-2.38 2.38h-9.525a2.36 2.36 0 0 1-2.38-2.38 2.36 2.36 0 0 1 2.38-2.381m-4.762-9.523H97.62a2.36 2.36 0 0 1 2.381 2.38 2.36 2.36 0 0 1-2.38 2.381H83.332a2.36 2.36 0 0 1-2.38-2.38 2.36 2.36 0 0 1 2.38-2.381m.001-47.62H97.62a2.36 2.36 0 0 1 2.38 2.381 2.36 2.36 0 0 1-2.38 2.381H83.332a2.36 2.36 0 0 1-2.38-2.38 2.36 2.36 0 0 1 2.38-2.382m4.763 38.096h9.524A2.36 2.36 0 0 1 100 50a2.36 2.36 0 0 1-2.38 2.381h-9.525a2.36 2.36 0 0 1-2.38-2.38 2.36 2.36 0 0 1 2.38-2.381m0-28.572h9.524A2.36 2.36 0 0 1 100 21.43a2.36 2.36 0 0 1-2.38 2.381h-9.525a2.36 2.36 0 0 1-2.38-2.381 2.36 2.36 0 0 1 2.38-2.38m4.762 9.522h4.762a2.36 2.36 0 0 1 2.381 2.38 2.36 2.36 0 0 1-2.38 2.382h-4.763a2.36 2.36 0 0 1-2.38-2.381 2.36 2.36 0 0 1 2.38-2.381m0 9.524h4.762a2.36 2.36 0 0 1 2.381 2.38 2.36 2.36 0 0 1-2.38 2.382h-4.763a2.36 2.36 0 0 1-2.38-2.381 2.36 2.36 0 0 1 2.38-2.381M54.762 76.19h42.857A2.36 2.36 0 0 1 100 78.573a2.36 2.36 0 0 1-2.38 2.38H54.761a2.36 2.36 0 0 1-2.38-2.38 2.36 2.36 0 0 1 2.38-2.381m-19.047-.002h9.524a2.36 2.36 0 0 1 2.381 2.382 2.36 2.36 0 0 1-2.381 2.38h-9.524a2.36 2.36 0 0 1-2.38-2.38 2.36 2.36 0 0 1 2.38-2.381M73.81 95.239h23.81a2.36 2.36 0 0 1 2.38 2.38 2.36 2.36 0 0 1-2.38 2.382H73.81a2.36 2.36 0 0 1-2.381-2.381 2.36 2.36 0 0 1 2.38-2.381m-38.095 0h28.572a2.36 2.36 0 0 1 2.38 2.38 2.36 2.36 0 0 1-2.38 2.382H35.714a2.36 2.36 0 0 1-2.38-2.381 2.36 2.36 0 0 1 2.38-2.381m0-66.667H50a2.36 2.36 0 0 1 2.381 2.38A2.36 2.36 0 0 1 50 33.335H35.714a2.36 2.36 0 0 1-2.38-2.381 2.36 2.36 0 0 1 2.38-2.381m0 9.523H50a2.36 2.36 0 0 1 2.381 2.38A2.36 2.36 0 0 1 50 42.859H35.714a2.36 2.36 0 0 1-2.38-2.381 2.36 2.36 0 0 1 2.38-2.381" opacity=".5"/></svg>