<svg xmlns="http://www.w3.org/2000/svg" fill="none" viewBox="0 0 100 100"><path fill="#EFCCA3" d="M83.678 38.2c-.156-3.434.312-6.478-1.249-9.053C78.683 22.747 69.317 19 50.585 19v.546h-.39.39V19c-18.732 0-28.566 3.747-32.312 10.225-1.483 2.654-1.327 5.62-1.561 9.054-.156 2.731-1.405 5.62-.859 8.741.625 4.059.859 8.117 1.483 11.864.469 3.044 4.683 5.62 5.074 8.507 1.092 7.961 9.365 11.63 28.097 11.63v.624h-.468.546v-.625c18.732 0 26.693-3.668 27.708-11.629.39-2.966 4.292-5.463 4.76-8.507.625-3.747.86-7.805 1.484-11.864.546-3.122-.703-6.088-.859-8.82"/><path fill="#CCAC8D" d="M50.273 41.01c3.356.078 5.698 2.186 7.883 4.137 2.576 2.263 6.946 3.824 8.741 5.776 1.796 1.95 4.137 3.902 4.996 6.946.858 3.044 1.092 6.946 1.092 7.96 0 1.016.547.781 2.108 0 3.668-1.794 7.727-6.633 7.727-6.633-.469 3.044-4.45 5.775-4.84 8.663-.936 7.961-8.663 11.786-27.785 11.786h-.078.468"/><path fill="#CCAC8D" d="M62.605 34.922c.702 2.42 3.2 10.615-1.64 7.883 0 0 2.03 1.171 3.279 5.62 1.327 4.449 4.527 4.995 4.527 4.995s5.229 1.015 9.132-2.34c3.278-2.81 3.824-7.805 2.419-11.63-1.405-3.746-3.902-4.917-7.57-5.697-3.67-.859-11.006-1.561-10.147 1.17"/><path fill="#000" d="M71.893 50.688a6.868 6.868 0 1 0 0-13.736 6.868 6.868 0 0 0 0 13.736"/><path fill="#fff" d="M70.098 42.571a1.795 1.795 0 1 0 0-3.59 1.795 1.795 0 0 0 0 3.59"/><path fill="#EFCCA3" d="M61.434 43.508s6.166 4.214 9.522 8.351 3.278 4.917 3.278 4.917l-2.42 1.093s-3.434-6.478-7.648-8.898c-4.293-2.42-4.761-4.448-4.761-4.448z"/><path fill="#CCAC8D" d="M50.507 41.01c-3.356.078-5.853 2.186-8.117 4.137-2.575 2.263-7.102 3.824-8.897 5.776-1.796 1.95-4.215 3.902-5.074 6.946-.858 3.044-1.17 6.946-1.17 7.96 0 1.016.156 1.094-2.108 0-3.668-1.716-7.727-6.633-7.727-6.633.469 3.044 4.45 5.775 4.84 8.663 1.092 7.961 8.819 11.786 27.941 11.786h.39"/><path fill="#56332B" d="M68.615 54.2c-3.747-4.604-9.756-8.897-18.108-8.897h-.078c-8.351 0-14.36 4.293-18.107 8.898-3.903 4.76-3.59 6.634-3.59 11.16 0 16.39 5.775 11.708 9.6 13.737 3.902 1.951 7.96 1.327 12.097 1.327h.078c4.215 0 8.196.546 12.098-1.405 3.824-1.951 9.6 2.888 9.6-13.502.078-4.527.312-6.556-3.59-11.317"/><path fill="#442823" d="M50.117 49.362s-.546 7.57-1.639 9.053l2.03-.468z"/><path fill="#442823" d="M50.663 49.362s.547 7.57 1.64 9.053l-2.03-.468z"/><path fill="#56332B" d="M44.107 47.566c-.78-1.795 2.03-4.683 6.478-4.76 4.45 0 7.259 2.887 6.478 4.76-.78 1.874-3.59 2.42-6.478 2.498-2.81-.078-5.697-.624-6.478-2.498"/><path fill="#000" d="M50.585 49.362c0-.313 2.654-.39 4.059-1.327 0 0-2.888.936-3.512.546-.625-.312-.781-1.249-.781-1.249s-.234.937-.702 1.25c-.547.311-3.825-.547-3.825-.547s4.37 1.092 4.37 1.327-.077 1.014-.077 1.56c0 1.952 0 6.79.312 7.181.468.703.312-5.23.312-7.18-.078-.625-.078-1.25-.156-1.561"/><path fill="#7F4A41" d="M50.741 59.82c1.327 0 3.669.937 5.776 2.42-2.03-2.264-4.449-3.825-5.776-3.825-1.404 0-4.37 1.717-6.478 4.215 2.186-1.717 4.995-2.81 6.478-2.81"/><path fill="#442823" d="M50.195 73.635c-2.966 0-5.854-.937-8.507-1.64-.547-.155-1.093.235-1.64.079-4.916-1.561-8.897-4.215-11.317-7.571v.78c0 16.39 5.776 11.786 9.6 13.737 3.903 1.952 7.961 1.327 12.098 1.327h.078c4.215 0 8.195.546 12.098-1.405 3.824-1.951 9.6 2.81 9.6-13.58 0-.625 0-1.25.078-1.796-2.264 3.669-6.4 6.557-11.551 8.274-.469.156-1.561-.234-2.03-.156-2.81.936-5.307 1.95-8.507 1.95"/><path fill="#442823" d="M42.78 64.815s-1.95 5.854-.624 8.43l-1.795-.78s1.327-5.933 2.42-7.65m15.454 0s1.951 5.854.624 8.43l1.796-.78s-1.405-5.933-2.42-7.65"/><path fill="#CCAC8D" d="M37.785 34.922c-.702 2.42-3.2 10.615 1.64 7.883 0 0-2.03 1.171-3.279 5.62S31.62 53.42 31.62 53.42s-5.229 1.015-9.131-2.341c-3.279-2.81-3.825-7.805-2.42-11.63 1.405-3.824 3.902-4.917 7.57-5.697 3.67-.859 10.928-1.561 10.147 1.17"/><path fill="#000" d="M50.507 58.415c2.108 0 8.664 4.527 8.742 10.069v-.313c0-5.775-5.308-10.38-8.742-10.38s-8.741 4.683-8.741 10.38v.313c.078-5.542 6.634-10.069 8.741-10.069"/><path fill="#331712" d="M52.211 47.609c.334-.086.474-.664.312-1.29s-.563-1.064-.897-.977c-.334.086-.473.663-.312 1.29.162.625.563 1.063.897.977m-4.011-.012c.329.102.751-.316.943-.933.191-.618.08-1.201-.25-1.303s-.752.315-.943.933c-.192.617-.08 1.2.25 1.303"/><path fill="#000" d="M28.888 50.688a6.868 6.868 0 1 0 0-13.736 6.868 6.868 0 0 0 0 13.736"/><path fill="#fff" d="M30.683 42.571a1.795 1.795 0 1 0 0-3.59 1.795 1.795 0 0 0 0 3.59"/><path fill="#7F4A41" d="M52.537 43.898c0-.078-1.796.78-2.264.859-.468-.078-2.263-.937-2.263-.859z"/><path fill="#EFCCA3" d="M38.878 43.508s-6.166 4.214-9.522 8.351-3.278 4.917-3.278 4.917l2.42 1.093s3.433-6.478 7.648-8.898 4.761-4.448 4.761-4.448z"/><path fill="#CCAC8D" d="M25.375 31.02s-2.107 5.776-6.79 8.195c0 0 7.337-.858 6.79-8.195m49.25 0s2.107 5.776 6.79 8.195c0 0-7.337-.858-6.79-8.195M61.277 41.79s-4.605-4.838-10.77-4.994h.155c-6.244.156-10.77 4.995-10.77 4.995 5.385-3.746 9.99-3.668 10.77-3.668-.078 0 5.23-.078 10.615 3.668m-5.385-10.146s-2.342-3.278-5.464-3.356h.156c-2.341.078-5.385 3.356-5.385 3.356 2.654-2.575 5.385-2.497 5.385-2.497s2.576-.078 5.308 2.497M28.888 55.606s-3.669 1.795-6.322.702h-.078c-2.342-1.327-3.513-5.307-3.513-5.307s2.342 7.024 9.913 4.605m42.77 0s3.669 1.795 6.323.702c3.122-1.327 3.59-5.307 3.59-5.307s-2.342 7.024-9.912 4.605"/><path fill="#CCAC8D" d="M33.102 30.63c2.03-.39 5.386-.469 8.04.39 3.355 1.17.624 5.463 1.326 5.698.703.234 1.64-2.966 7.883-2.654 6.322.312 7.025 3.122 7.883 2.654.859-.469-.858-7.806 8.586-6.088 0 0-9.913-2.654-9.444 4.527 0 0-5.698-4.371-13.66-.469.079 0 2.108-6.712-10.614-4.058m34.576 0c.156 0 .234.078.312.078s-.078-.078-.312-.078m-37.307-9.6s-8.43 10.614-9.679 14.673c-1.248 4.136-2.185 21.073-3.278 23.493l-3.902-16.703 7.18-17.405zm39.649 0s8.429 10.614 9.678 14.673c1.248 4.136 2.185 21.073 3.278 23.493l3.902-16.703-7.18-17.405z"/><path fill="#56332B" d="M69.63 21.03s9.053 7.57 11.707 16.312 1.56 19.356 3.59 20.683c2.888 1.873 6.166-9.288 7.259-10.458 1.717-1.874 7.414-6.635 7.805-7.493.39-.859-11.552-13.893-16.781-16.469-6.322-2.965-14.127-3.2-13.58-2.575"/><path fill="#442823" d="M77.356 25.713S88.05 39.37 87.893 56.386l4.293-8.742c-.079 0-3.825-11.16-14.83-21.931"/><path fill="#56332B" d="M30.37 21.03s-9.053 7.57-11.707 16.312-1.56 19.356-3.59 20.683c-2.888 1.873-6.166-9.288-7.259-10.458C6.097 45.692.4 40.932.01 40.073S11.562 26.18 16.79 23.604c6.323-2.965 14.128-3.2 13.581-2.575"/><path fill="#442823" d="M22.644 25.713S11.95 39.37 12.107 56.386l-4.215-8.742s3.747-11.16 14.752-21.931"/><path fill="#CCAC8D" d="M16.868 56.698s.78 4.215 2.03 5.542c1.248 1.326.39-1.015.39-1.015s-1.327-.703-1.093-6.088-1.327 1.561-1.327 1.561m66.576 0s-.78 4.215-2.03 5.542c-1.248 1.326-.39-1.015-.39-1.015s1.327-.703 1.093-6.088 1.327 1.561 1.327 1.561"/><path fill="#442823" d="M42.39 54.123a.624.624 0 1 0 0-1.25.624.624 0 0 0 0 1.25m-3.59 3.746a.624.624 0 1 0 0-1.249.624.624 0 0 0 0 1.249m-1.17-3.746a.624.624 0 1 0-.001-1.25.624.624 0 0 0 0 1.25m19.981 0a.625.625 0 1 0 0-1.25.625.625 0 0 0 0 1.25m3.59 3.746a.624.624 0 1 0 0-1.249.624.624 0 0 0 0 1.249m1.17-3.746a.624.624 0 1 0 0-1.25.624.624 0 0 0 0 1.25"/></svg>