<svg xmlns="http://www.w3.org/2000/svg" fill="none" viewBox="0 33.72 100 72.03" key="xlbqhup"><path fill="#F26E7E" fill-rule="evenodd" d="M17.072 58.87c3.912-2.258 3.918-9.57.015-16.33S6.849 32.13 2.937 34.39c-3.91 2.258-3.917 9.569-.014 16.329s10.238 10.41 14.15 8.152m.024 14.475c3.903 6.76 3.896 14.072-.015 16.33s-10.247-1.393-14.15-8.153-3.897-14.071.015-16.33c3.91-2.258 10.246 1.392 14.149 8.152m26.653 15.41c3.904 6.76 3.897 14.071-.014 16.33s-10.246-1.392-14.15-8.152c-3.902-6.76-3.896-14.071.015-16.33s10.246 1.392 14.15 8.152m-.008-30.805c3.903 6.76 3.897 14.072-.015 16.33-3.91 2.258-10.246-1.392-14.149-8.152s-3.897-14.071.015-16.33c3.91-2.258 10.246 1.392 14.149 8.152" clip-rule="evenodd" key="zeilrri"/><path fill="#8A3391" fill-rule="evenodd" d="M97.061 50.735c3.903-6.76 3.897-14.071-.014-16.33-3.912-2.258-10.246 1.392-14.15 8.152s-3.896 14.072.015 16.33 10.246-1.392 14.15-8.152m.001 14.468c3.911 2.258 3.918 9.57.015 16.33s-10.239 10.41-14.15 8.151c-3.91-2.258-3.917-9.569-.014-16.329s10.238-10.41 14.149-8.152M70.414 80.588c3.91 2.258 3.917 9.569.014 16.33-3.903 6.759-10.238 10.409-14.15 8.151-3.91-2.258-3.917-9.57-.014-16.33s10.238-10.41 14.15-8.151m-.015-30.798c3.91 2.258 3.917 9.569.014 16.33s-10.238 10.41-14.15 8.151c-3.91-2.258-3.917-9.57-.014-16.33s10.238-10.41 14.15-8.151" clip-rule="evenodd" key="o8w2vhb"/></svg>