<svg xmlns="http://www.w3.org/2000/svg" fill="none" viewBox="0 0 425 105.75" key="m56d7fv"><path fill="#F26E7E" fill-rule="evenodd" d="M17.072 58.87c3.912-2.258 3.918-9.57.015-16.33S6.849 32.13 2.937 34.388c-3.91 2.259-3.917 9.57-.014 16.33s10.238 10.41 14.15 8.152m.024 14.475c3.903 6.76 3.896 14.072-.015 16.33s-10.247-1.392-14.15-8.152-3.897-14.071.015-16.33c3.91-2.258 10.246 1.392 14.149 8.152m26.653 15.41c3.904 6.76 3.897 14.071-.014 16.33s-10.246-1.392-14.15-8.152c-3.902-6.76-3.896-14.071.015-16.33s10.246 1.392 14.15 8.152m-.008-30.805c3.903 6.76 3.897 14.072-.015 16.33-3.91 2.258-10.246-1.392-14.149-8.152s-3.897-14.071.015-16.33c3.91-2.258 10.246 1.392 14.149 8.152" clip-rule="evenodd" key="wk2izlz"/><path fill="#8A3391" fill-rule="evenodd" d="M97.061 50.735c3.903-6.76 3.897-14.071-.014-16.33-3.912-2.258-10.246 1.392-14.15 8.152s-3.896 14.072.015 16.33 10.246-1.392 14.15-8.152m.001 14.468c3.911 2.258 3.918 9.57.015 16.33s-10.239 10.41-14.15 8.151c-3.91-2.258-3.917-9.569-.014-16.329s10.238-10.41 14.149-8.152M70.414 80.588c3.91 2.258 3.917 9.569.014 16.33-3.903 6.759-10.238 10.409-14.15 8.151-3.91-2.258-3.917-9.57-.014-16.33s10.238-10.41 14.15-8.151m-.015-30.798c3.91 2.258 3.917 9.569.014 16.33s-10.238 10.41-14.15 8.151c-3.91-2.258-3.917-9.57-.014-16.33s10.238-10.41 14.15-8.151" clip-rule="evenodd" key="in6goih"/><path fill="#F7BF2A" fill-rule="evenodd" d="M64.122 8.178c0 4.516-6.328 8.177-14.135 8.177s-14.134-3.66-14.134-8.177S42.18 0 49.987 0s14.135 3.661 14.135 8.178M37.474 23.546c0 4.517-6.328 8.178-14.135 8.178S9.205 28.063 9.205 23.546c0-4.516 6.328-8.177 14.134-8.177 7.807 0 14.135 3.661 14.135 8.177m39.197 8.178c7.806 0 14.134-3.661 14.134-8.178 0-4.516-6.328-8.177-14.135-8.177s-14.134 3.661-14.134 8.177c0 4.517 6.328 8.178 14.135 8.178M64.122 38.95c0 4.516-6.328 8.177-14.135 8.177s-14.134-3.661-14.134-8.177c0-4.517 6.328-8.178 14.134-8.178 7.807 0 14.135 3.661 14.135 8.178" clip-rule="evenodd" key="z53gy54"/><path fill="#000" fill-rule="evenodd" d="M254.218 19h5.255c1.631 0 2.537.906 2.537 2.537v61.02c0 1.63-.906 2.536-2.537 2.536h-5.255c-1.631 0-2.537-.906-2.537-2.537v-61.02c0-1.63.906-2.536 2.537-2.536M153.154 85.093c1.631 0 2.537-.906 2.537-2.537v-20.43h10.645c13.5 0 21.971-8.064 21.971-20.204 0-12.095-8.471-20.204-21.971-20.204h-18.799c-1.631 0-2.537.906-2.537 2.537v58.3c0 1.632.906 2.538 2.537 2.538zm2.537-54.36h9.966c7.61 0 11.914 4.394 11.914 11.189 0 6.84-4.304 11.234-11.914 11.234h-9.966zm40.227 10.011v26.365c0 11.551 7.475 19.026 18.755 19.026 5.979 0 11.098-2.945 14.269-7.248v3.67c0 1.63.906 2.536 2.537 2.536h5.3c1.631 0 2.537-.906 2.537-2.537V40.744c0-1.63-.906-2.537-2.537-2.537h-5.3c-1.631 0-2.537.906-2.537 2.537v23.013c0 7.791-5.617 13.272-12.14 13.272-6.252 0-10.555-4.439-10.555-10.781V40.744c0-1.63-.906-2.537-2.537-2.537h-5.255c-1.631 0-2.537.906-2.537 2.537m77.599 0v26.365c0 11.551 7.474 19.026 18.754 19.026 5.98 0 11.099-2.945 14.27-7.248v3.67c0 1.63.906 2.536 2.537 2.536h5.3c1.631 0 2.537-.906 2.537-2.537V40.744c0-1.63-.906-2.537-2.537-2.537h-5.3c-1.631 0-2.537.906-2.537 2.537v23.013c0 7.791-5.617 13.272-12.141 13.272-6.251 0-10.555-4.439-10.555-10.781V40.744c0-1.63-.906-2.537-2.536-2.537h-5.255c-1.631 0-2.537.906-2.537 2.537m128.38 15.447v26.41c0 1.631-.906 2.537-2.536 2.537h-5.3c-1.631 0-2.537-.906-2.537-2.537V57.098c0-6.342-3.941-10.78-9.74-10.78-5.844 0-11.37 5.888-11.37 13v23.285c0 1.63-.906 2.536-2.537 2.536h-5.3c-1.631 0-2.537-.906-2.537-2.537V57.098c0-6.342-3.941-10.78-9.739-10.78-5.572 0-11.371 5.344-11.371 13v23.285c0 1.63-.906 2.536-2.537 2.536h-5.3c-1.63 0-2.536-.906-2.536-2.537V40.745c0-1.63.906-2.537 2.536-2.537h5.3c1.631 0 2.537.906 2.537 2.537v3.579c3.307-4.349 8.064-7.203 13.545-7.203 7.067 0 13.001 3.67 15.946 9.74 3.08-5.89 8.788-9.74 15.492-9.74 10.193 0 17.984 7.52 17.984 19.072M425 25.434c0-3.579-2.809-6.342-6.433-6.342s-6.387 2.763-6.387 6.342c0 3.533 2.763 6.297 6.387 6.297S425 28.966 425 25.433m-1.268 15.311c0-1.63-.906-2.537-2.537-2.537h-5.255c-1.631 0-2.537.906-2.537 2.537v41.812c0 1.631.906 2.537 2.537 2.537h5.255c1.631 0 2.537-.906 2.537-2.537z" clip-rule="evenodd" key="ukksh1s"/></svg>