<svg xmlns="http://www.w3.org/2000/svg" fill="none" viewBox="0 0 100 100"><path fill="#3D3D3D" d="m73.597 61.908 2.89-7.306h8.34L80.87 43.521 85.819 31 100 68.65H89.542l-2.423-6.743z"/><path fill="#5A0FC8" d="m64.676 68.651 15.18-37.65H69.792l-10.384 24.33-7.384-24.33h-7.736l-7.928 24.33-5.592-11.087-5.06 15.59 5.137 8.817h9.904l7.165-21.819 6.831 21.82z"/><path fill="#3D3D3D" d="M9.553 55.726h6.199q2.817 0 5.016-.629l1.604-4.938 4.48-13.804a11 11 0 0 0-1.17-1.535Q22.233 31 15.586 31H0v37.65h9.553zm8.205-16.063q1.348 1.356 1.348 3.63 0 2.292-1.185 3.635-1.3 1.492-4.786 1.492H9.553V38.307h3.608q3.25 0 4.597 1.357"/></svg>