<svg xmlns="http://www.w3.org/2000/svg" fill="none" viewBox="0 0 100 100"><path fill="#18B6F6" d="M85.786 100 67.83 82.145l-.275.04v-.196L29.37 44.283l9.409-9.083L33.25 3.485 7.023 35.983C2.553 40.486 1.73 47.807 4.945 53.21l16.388 27.173c2.509 4.189 7.057 6.695 11.957 6.656l8.116-.079z"/><path fill="#AC7EF4" d="M95.585 35.356 91.978 28.7l-1.881-3.406-.745-1.332-.079.079-9.88-17.11A13.82 13.82 0 0 0 67.28 0l-8.664.234L32.78.312c-4.9.04-9.37 2.624-11.84 6.813L5.218 38.293l28.11-34.887L70.18 43.892l-6.547 6.617 3.92 31.675.04-.078v.078h-.079l.079.079 3.058 2.975L85.51 99.764c.627.588 1.646-.117 1.215-.86l-9.174-18.05 15.996-29.562.51-.587c.195-.236.391-.47.548-.705 3.137-4.268 3.568-9.984.98-14.644"/><path fill="#fff" d="m70.298 43.735-36.97-40.29 5.253 31.559-9.41 9.123 38.304 38.018-3.45-31.558z"/></svg>