<svg xmlns="http://www.w3.org/2000/svg" fill="none" viewBox="0 0 100 100"><g fill="#000" clip-path="url(#a)"><path d="M.464 42.79A51 51 0 0 0 0 47.825h75.957c-.265-.518-.622-.985-.981-1.442-12.985-16.777-19.97-15.322-29.963-15.748-3.331-.137-5.59-.192-18.851-.192-7.097 0-14.813.018-22.327.038-.973 2.625-1.91 5.17-2.368 7.24H40.39v5.07zM76.556 52.9H.039c.08 1.352.206 2.687.388 4.003h70.644c3.15 0 4.912-1.786 5.485-4.003M4.396 70.733S16.108 99.489 49.947 100c20.226 0 37.605-12.013 45.499-29.267z"/><path d="M49.947 0C31.245 0 14.972 10.27 6.377 25.45c6.717-.014 19.796-.022 19.796-.022h.003v-.005c15.46 0 16.035.069 19.055.195l1.87.069c6.514.217 14.52.916 20.82 5.683 3.419 2.585 8.356 8.29 11.299 12.355 2.72 3.76 3.503 8.082 1.653 12.223-1.702 3.805-5.366 6.075-9.803 6.075H1.63s.413 1.753 1.033 3.687h94.788A49.8 49.8 0 0 0 100 50.02C100.001 22.399 77.591 0 49.947 0"/></g><defs><clipPath id="a"><path fill="#fff" d="M0 0h100v100H0z"/></clipPath></defs></svg>