<svg xmlns="http://www.w3.org/2000/svg" fill="none" viewBox="0 0 100 100"><path fill="#C00" d="M87.042 62.589v4.572h8.26c1.692 0 4.597-1.238 4.698-4.698v-1.768c0-2.956-2.425-4.699-4.698-4.699h-4.117v-2.121h8.158v-4.597h-7.83c-2.02 0-4.723 1.667-4.723 4.773v1.592c0 3.107 2.677 4.698 4.723 4.698 5.683.025-1.364 0 3.89 0v2.223zM42.79 61.478s4.42-.38 4.42-6.088-5.355-6.239-5.355-6.239h-9.649v18.01h4.85v-4.345l4.193 4.345h7.173zm-1.87-3.688h-3.864v-4.117h3.89s1.086.404 1.086 2.046-1.112 2.07-1.112 2.07m18.263-8.512h-4.926c-3.51 0-4.698 3.182-4.698 4.698V67.16h4.925v-3.157h4.623v3.157h4.774V53.976c0-3.84-3.486-4.698-4.698-4.698m-.076 9.623h-4.648v-4.37s0-.985 1.541-.985h1.692c1.364 0 1.39.985 1.39.985v4.37zm7.022-9.623h5.127V67.16h-5.127zm12.326 13.26v-13.26h-5.102V67.16H85.35v-4.623z"/><path fill="#C00" d="M1.768 67.16h19.955s-3.814-17.402 8.815-24.45c2.753-1.338 11.518-6.34 25.865 4.269.455-.379.884-.682.884-.682s-13.134-13.11-27.76-11.644c-7.35.656-16.392 7.35-21.697 16.19S1.768 67.162 1.768 67.162"/><path fill="#C00" d="M1.768 67.16h19.955s-3.814-17.402 8.815-24.45c2.753-1.338 11.518-6.34 25.865 4.269.455-.379.884-.682.884-.682s-13.134-13.11-27.76-11.644c-7.35.656-16.392 7.35-21.697 16.19S1.768 67.162 1.768 67.162"/><path fill="#C00" d="M1.768 67.16h19.955s-3.814-17.402 8.815-24.45c2.753-1.339 11.518-6.34 25.865 4.269.455-.379.884-.682.884-.682s-13.134-13.11-27.76-11.644c-7.375.656-16.418 7.35-21.722 16.19S1.768 67.162 1.768 67.162m41.576-31.093.101-1.692c-.227-.127-.858-.43-2.45-.884l-.1 1.667c.833.278 1.64.58 2.45.91"/><path fill="#C00" d="m40.945 41.422-.101 1.591q1.25.039 2.5.303l.101-1.566a18 18 0 0 0-2.5-.328m-9.346-7.88h.253L31.346 32q-1.174 0-2.425.151l.48 1.49a21 21 0 0 1 2.198-.1m1.212 9.295.581 1.742a16 16 0 0 1 2.198-.884l-.556-1.667a18 18 0 0 0-2.223.809m-11.467-6.644-1.137-1.742c-.631.328-1.288.682-1.97 1.086l1.162 1.768a25 25 0 0 1 1.945-1.111m5.178 11.367 1.212 1.819c.43-.632.935-1.213 1.49-1.794l-1.136-1.717a14 14 0 0 0-1.566 1.692m-3.663 8.133 2.046 1.617q.152-1.478.53-2.955l-1.818-1.44c-.328.934-.556 1.869-.758 2.778M11.796 43.695l-1.793-1.566a44 44 0 0 0-1.87 1.895l1.945 1.667a26 26 0 0 1 1.718-1.996M4.168 54.986l-2.905-1.06C.783 55.01.253 56.273 0 56.955l2.905 1.061c.328-.859.859-2.096 1.263-3.03M22.48 62.11c.05 1.339.177 2.425.303 3.183l3.032 1.086a33 33 0 0 1-.607-3.284z"/></svg>