<svg xmlns="http://www.w3.org/2000/svg" fill="none" viewBox="0 0 100 100"><path fill="#000" d="M30.636 59.34c-4.968 0-9.017-4.082-9.017-9.085s4.05-9.085 9.017-9.085c4.968 0 9.017 4.081 9.017 9.085 0 5-4.053 9.085-9.017 9.085M8.985 77.377c-4.96-.01-9-4.11-8.985-9.113a9.067 9.067 0 0 1 9.05-9.057c4.964.011 9.002 4.11 8.984 9.118a9.07 9.07 0 0 1-9.049 9.052m82.066 0a9.07 9.07 0 0 1-9.089-9.017c-.025-5.01 3.996-9.124 8.953-9.149A9.07 9.07 0 0 1 100 68.225c.028 5.007-3.996 9.124-8.95 9.153"/><path fill="#F44250" d="M74.15 41.698c-2.452-.764-5.072-1.083-7.642-1.361-3.974-.43-5.557-1.98-6.23-5.962-.378-2.223-.907-4.503-1.868-6.522-1.834-3.842-6.13-5.565-10.444-4.582-3.645.833-6.672 4.46-6.84 8.184-.193 4.246 2.237 7.874 6.412 9.125 1.983.597 4.092.893 6.161 1.047 3.8.275 5.068 1.408 6.094 3.138.65 1.094 1.276 2.17 1.276 5.422 0 3.256-.633 4.331-1.276 5.421-1.026 1.73-2.295 2.86-6.094 3.142-2.073.15-4.181.45-6.161 1.047-4.175 1.255-6.605 4.875-6.412 9.128.168 3.72 3.199 7.348 6.84 8.18 4.314.987 8.61-.739 10.444-4.581.965-2.016 1.49-4.3 1.869-6.523.675-3.98 2.258-5.529 6.23-5.96 2.572-.28 5.189-.601 7.64-1.366 3.72-1.162 5.958-4.632 5.958-8.488 0-3.853-2.237-7.32-5.958-8.489"/></svg>