<svg xmlns="http://www.w3.org/2000/svg" fill="none" viewBox="0 0 100 100"><path fill="#61DAFB" d="M50.307 58.817a8.816 8.816 0 1 0 0-17.632 8.816 8.816 0 0 0 0 17.632"/><path stroke="#61DAFB" stroke-width="5" d="M50.307 68.063c26.126 0 47.306-8.087 47.306-18.062s-21.18-18.063-47.306-18.063C24.18 31.938 3 40.025 3 50.001s21.18 18.062 47.307 18.062Z"/><path stroke="#61DAFB" stroke-width="5" d="M34.664 59.032C47.727 81.658 65.321 95.957 73.96 90.969c8.64-4.988 5.053-27.373-8.01-50C52.885 18.343 35.291 4.044 26.652 9.032s-5.052 27.373 8.011 50Z"/><path stroke="#61DAFB" stroke-width="5" d="M34.664 40.97c-13.063 22.626-16.65 45.011-8.01 50 8.638 4.987 26.232-9.312 39.295-31.938 13.064-22.627 16.65-45.012 8.01-50-8.638-4.988-26.232 9.31-39.295 31.937Z"/></svg>