<svg xmlns="http://www.w3.org/2000/svg" fill="none" viewBox="0 0 100 100"><path fill="#00435B" fill-rule="evenodd" d="m61.71 60.659-1.917 3.33a3.24 3.24 0 0 1-2.806 1.622H42.293a3.24 3.24 0 0 1-2.805-1.622l-1.919-3.33zm5.37-9.325-3.38 5.873H35.582L32.2 51.334zm-3.257-9.118 3.263 5.667H32.194l3.264-5.667zm-6.836-8.62a3.24 3.24 0 0 1 2.806 1.623l2.042 3.546h-24.39l2.043-3.547a3.24 3.24 0 0 1 2.805-1.621z" clip-rule="evenodd"/><path fill="#002B3B" d="M20.907 32.051c-1.627-7.893-1.977-13.947-.925-18.342.626-2.615 1.77-4.748 3.51-6.287 1.836-1.624 4.159-2.421 6.768-2.421 4.304 0 8.829 1.962 13.664 5.691q2.958 2.281 6.145 5.5a4.6 4.6 0 0 1 .574-.612c6.01-5.356 11.07-8.684 15.398-9.967 2.574-.763 4.99-.836 7.19-.095 2.323.781 4.173 2.397 5.479 4.66 2.154 3.735 2.723 8.642 1.92 14.702q-.492 3.704-1.679 8.075.45.053.894.2c7.626 2.527 13.025 5.245 16.295 8.35 1.945 1.848 3.215 3.906 3.674 6.183.485 2.403.012 4.814-1.292 7.075-2.15 3.73-6.105 6.671-11.74 9q-3.39 1.403-7.68 2.545.196.443.3.936c1.627 7.893 1.976 13.947.924 18.343-.626 2.614-1.77 4.747-3.51 6.286-1.836 1.624-4.158 2.422-6.767 2.422-4.304 0-8.83-1.963-13.665-5.692q-2.988-2.305-6.213-5.569a4.6 4.6 0 0 1-.814.954c-6.01 5.356-11.07 8.684-15.398 9.967-2.574.763-4.99.835-7.19.095-2.322-.781-4.173-2.397-5.479-4.66-2.154-3.735-2.723-8.642-1.92-14.702q.51-3.838 1.766-8.392a4.6 4.6 0 0 1-.98-.21C12.53 63.558 7.13 60.84 3.86 57.735 1.915 55.887.645 53.83.186 51.552c-.485-2.403-.012-4.814 1.292-7.075 2.15-3.73 6.105-6.671 11.74-9q3.492-1.445 7.937-2.613a4.6 4.6 0 0 1-.248-.814"/><path fill="#FF4154" fill-rule="evenodd" d="M40.492 29.537q5.93-.473 12.223-.417a1.439 1.439 0 0 0 1.13-2.346Q39.52 9.136 30.252 9.136q-9.565 0-5.458 21.09c.15.77.89 1.279 1.664 1.142q7.313-1.297 14.033-1.831m22.191 1.935a140 140 0 0 1 6.573 10.45 1.439 1.439 0 0 0 2.594-.2q8.103-21.254 3.406-29.315-4.847-8.319-21.123 5.753a1.44 1.44 0 0 0-.157 2.017q4.836 5.717 8.707 11.295m9.581 19.795q-2.562 5.387-5.761 10.827a1.439 1.439 0 0 0 1.474 2.149q22.33-3.672 26.969-11.72 4.791-8.314-15.408-15.238a1.44 1.44 0 0 0-1.819.869q-2.548 7.004-5.455 13.113M60.048 69.851q-5.93.472-12.223.417a1.439 1.439 0 0 0-1.13 2.346Q61.02 90.25 70.286 90.25q9.567 0 5.458-21.09a1.44 1.44 0 0 0-1.663-1.14q-7.314 1.295-14.033 1.83m-22.73-1.754a140 140 0 0 1-6.573-10.451 1.439 1.439 0 0 0-2.594.2Q20.048 79.1 24.745 87.162q4.847 8.319 21.123-5.753a1.44 1.44 0 0 0 .157-2.018q-4.836-5.715-8.707-11.294M27.737 47.76q2.563-5.385 5.761-10.826a1.439 1.439 0 0 0-1.474-2.149q-22.33 3.672-26.969 11.72-4.791 8.313 15.408 15.238a1.44 1.44 0 0 0 1.819-.869q2.548-7.004 5.455-13.113" clip-rule="evenodd"/><path fill="#FFD94C" fill-rule="evenodd" d="M43.475 33.777h12.334c1.804 0 3.47.964 4.368 2.529l6.193 10.791a5.04 5.04 0 0 1 0 5.014l-6.193 10.791a5.04 5.04 0 0 1-4.368 2.53H43.475a5.04 5.04 0 0 1-4.368-2.53l-6.193-10.791a5.04 5.04 0 0 1 0-5.014l6.193-10.791a5.04 5.04 0 0 1 4.368-2.53m10.454 3.257c1.805 0 3.471.965 4.369 2.531l4.319 7.535a5.04 5.04 0 0 1 0 5.008l-4.319 7.535a5.04 5.04 0 0 1-4.37 2.531h-8.574a5.04 5.04 0 0 1-4.369-2.531l-4.318-7.535a5.04 5.04 0 0 1 0-5.008l4.318-7.535a5.04 5.04 0 0 1 4.37-2.531zm-2.026 3.562H47.38a5.04 5.04 0 0 0-4.366 2.527l-2.282 3.972a5.04 5.04 0 0 0 0 5.018l2.282 3.972a5.04 5.04 0 0 0 4.366 2.527h4.523a5.04 5.04 0 0 0 4.366-2.527l2.282-3.972a5.04 5.04 0 0 0 0-5.018l-2.282-3.972a5.04 5.04 0 0 0-4.366-2.527m-1.951 3.41c1.801 0 3.466.962 4.364 2.524l.324.562a5.04 5.04 0 0 1 0 5.024l-.324.562a5.04 5.04 0 0 1-4.364 2.524h-.62a5.04 5.04 0 0 1-4.365-2.524l-.324-.562a5.04 5.04 0 0 1 0-5.024l.324-.562a5.04 5.04 0 0 1 4.365-2.524zm-.31 3.359a2.24 2.24 0 0 0-1.941 3.359 2.24 2.24 0 0 0 3.882-2.24 2.24 2.24 0 0 0-1.94-1.12m-18.167 2.239h4.031Z" clip-rule="evenodd"/></svg>