<svg xmlns="http://www.w3.org/2000/svg" fill="none" viewBox="0 0 100 100"><path fill="#E00" d="M66.703 55.598c6.572 0 16.081-1.355 16.081-9.172a7.4 7.4 0 0 0-.163-1.797l-3.913-17c-.904-3.74-1.697-5.438-8.264-8.721C65.348 16.302 54.247 12 50.964 12c-3.057 0-3.945 3.94-7.591 3.94-3.51 0-6.115-2.942-9.399-2.942-3.152 0-5.206 2.149-6.792 6.567 0 0-4.419 12.46-4.986 14.268-.09.332-.13.676-.116 1.02 0 4.843 19.07 20.724 44.623 20.724m17.09-5.978c.909 4.302.909 4.754.909 5.322 0 7.354-8.27 11.436-19.139 11.436-24.565.016-46.083-14.378-46.083-23.892a9.7 9.7 0 0 1 .793-3.851C11.437 39.055 0 40.63 0 50.728 0 67.266 39.186 87.65 70.213 87.65 94 87.65 100 76.89 100 68.396c0-6.683-5.779-14.269-16.196-18.797"/><path fill="#000" d="M83.793 49.599c.909 4.302.909 4.754.909 5.322 0 7.355-8.27 11.436-19.138 11.436-24.566.016-46.084-14.378-46.084-23.892a9.7 9.7 0 0 1 .793-3.851l1.923-4.76a3.4 3.4 0 0 0-.116.998c0 4.844 19.07 20.725 44.624 20.725 6.572 0 16.08-1.355 16.08-9.172a7.4 7.4 0 0 0-.163-1.797z"/></svg>