<svg xmlns="http://www.w3.org/2000/svg" fill="none" viewBox="0 0 100 100"><path fill="#912626" d="M96.082 72.766C90.745 75.547 63.1 86.914 57.215 89.982c-5.886 3.07-9.156 3.04-13.805.817-4.65-2.223-34.07-14.106-39.37-16.64C1.393 72.895 0 71.825 0 70.816V60.708s38.3-8.338 44.484-10.556c6.183-2.219 8.328-2.299 13.59-.371S94.8 57.385 100 59.29l-.002 9.965c0 .999-1.2 2.095-3.916 3.51"/><path fill="#C6302B" d="M96.08 62.718c-5.336 2.78-32.98 14.147-38.866 17.215-5.885 3.07-9.155 3.04-13.804.817-4.65-2.221-34.068-14.107-39.367-16.64-5.3-2.533-5.41-4.276-.205-6.314S38.3 44.279 44.484 42.06s8.328-2.299 13.59-.37c5.262 1.927 32.742 12.865 37.941 14.769 5.202 1.907 5.401 3.476.065 6.258"/><path fill="#912626" d="M96.082 56.41C90.745 59.194 63.1 70.56 57.215 73.63c-5.886 3.067-9.156 3.037-13.805.815-4.65-2.223-34.07-14.107-39.37-16.641C1.393 56.54 0 55.472 0 54.462v-10.11s38.3-8.337 44.484-10.555c6.183-2.218 8.328-2.299 13.59-.371S94.8 41.029 100 42.934l-.002 9.966c0 .999-1.2 2.095-3.916 3.51"/><path fill="#C6302B" d="M96.08 46.363c-5.336 2.78-32.98 14.147-38.866 17.216-5.885 3.068-9.155 3.038-13.804.816S9.342 50.288 4.043 47.756c-5.3-2.532-5.41-4.276-.205-6.315C9.043 39.403 38.3 27.924 44.484 25.706s8.328-2.299 13.59-.37c5.262 1.927 32.742 12.864 37.941 14.769 5.202 1.906 5.401 3.476.065 6.258"/><path fill="#912626" d="M96.082 39.45C90.745 42.23 63.1 53.597 57.215 56.666c-5.886 3.068-9.156 3.038-13.805.816C38.76 55.26 9.34 43.376 4.04 40.843 1.393 39.578 0 38.51 0 37.502V27.39s38.3-8.337 44.484-10.555c6.183-2.218 8.328-2.298 13.59-.37S94.8 24.067 100 25.973l-.002 9.965c0 .998-1.2 2.094-3.916 3.51"/><path fill="#C6302B" d="M96.08 29.401C90.744 32.182 63.1 43.55 57.214 46.618c-5.885 3.068-9.155 3.038-13.804.816S9.342 33.327 4.043 30.794c-5.3-2.531-5.41-4.276-.205-6.314S38.3 10.964 44.484 8.745s8.328-2.298 13.59-.37 32.742 12.865 37.941 14.77c5.202 1.904 5.401 3.475.065 6.256"/><path fill="#fff" d="m62.22 19.568-8.598.893-1.924 4.63-3.109-5.167-9.928-.892 7.408-2.672-2.223-4.1 6.936 2.712 6.538-2.14-1.767 4.24zM51.184 42.036 35.14 35.38l22.992-3.53zM28.938 22.142c6.787 0 12.29 2.133 12.29 4.764 0 2.63-5.503 4.763-12.29 4.763S16.65 29.536 16.65 26.905c0-2.63 5.502-4.763 12.29-4.763"/><path fill="#621B1C" d="m72.38 20.834 13.609 5.377-13.596 5.373z"/><path fill="#9A2928" d="m57.326 26.79 15.055-5.956.012 10.75-1.477.577z"/></svg>