<svg xmlns="http://www.w3.org/2000/svg" fill="none" viewBox="0 0 100 100"><g clip-path="url(#a)"><path fill="#999" d="M50.784 56.589a4.064 4.064 0 0 1-3.518 4.026c-2.354 5.487-7.149 10.841-13.718 14.634-5.514 3.184-11.357 4.737-16.598 4.737-6.666 0-12.358-2.511-15.167-7.376-4.56-7.9-.117-18.924 10.417-26.373 0 1.702.134 3.262.432 4.647-.85.716-1.623 1.33-2.376 2.12-1.94 2.034-3.491 4.14-4.552 6.39-1.979 4.197-2.113 8.163-.377 11.17 1.956 3.387 6.192 5.33 11.623 5.33 4.706 0 9.873-1.488 14.552-4.189 2.723-1.572 5.146-3.461 7.199-5.614 1.94-2.033 3.461-4.205 4.522-6.455q.139-.294.264-.586a4.064 4.064 0 1 1 7.297-2.462m-18.136-37.59c9.073 0 16.593 9.588 17.95 22.118a25.3 25.3 0 0 0-4.45-2.12 30 30 0 0 0-.687-2.85c-.79-2.697-1.911-5.1-3.329-7.144-2.644-3.812-6.012-5.911-9.484-5.911s-6.84 2.099-9.485 5.91c-1.418 2.045-2.538 4.448-3.329 7.145-.837 2.854-1.262 5.896-1.262 9.042s.425 6.187 1.262 9.041c.791 2.697 1.911 5.1 3.33 7.145q.219.316.447.618.363-.069.747-.07a4.064 4.064 0 1 1-3.846 2.752c-3.703-4.794-6.032-11.748-6.032-19.486 0-14.464 8.134-26.19 18.168-26.19m15.659 56.894c4.983 0 8.96-1.636 11.093-4.522 1.24.655 2.618 1.053 4.073 1.255-2.825 4.811-8.539 7.36-15.166 7.36-4.098 0-8.563-.95-12.952-2.886 1.708-.943 3.22-1.854 4.341-2.702 2.901.978 5.836 1.495 8.61 1.495m6.723-22.954c-2.053-2.153-4.475-4.042-7.2-5.614-4.677-2.701-9.845-4.189-14.55-4.189-1.028 0-2.014.07-2.949.206l-.07.011a4.065 4.065 0 1 1-1.217-3.946l.016-.003a24 24 0 0 1 4.22-.36c5.24 0 11.082 1.553 16.597 4.737 9.072 5.238 14.767 13.453 15.311 20.887-1.647-.186-3.042-.733-4.324-1.44-.257-1.24-.695-2.526-1.311-3.834-1.062-2.25-2.583-4.422-4.523-6.455"/><path fill="#89D96D" d="M96.488 46.766c1.8 2.711-1.865 4.832-3.507 2.106-1-1.709-2.536-3.306-4.548-4.702-2.044-1.418-4.448-2.538-7.144-3.33-2.855-.837-5.897-1.262-9.042-1.262s-6.187.425-9.042 1.263q-.735.216-1.442.466a4.063 4.063 0 1 1-2.014-3.62c3.715-1.402 7.971-2.2 12.498-2.2 10.95 0 20.33 4.66 24.241 11.279m3.417 9.823c0 2.037-1.5 3.724-3.456 4.018-3.934 6.584-13.288 11.215-24.202 11.215-8.522 0-16.094-2.824-20.877-7.197-2.313-2.325.472-5.027 2.63-3.14q.926.867 2.061 1.654c2.044 1.418 4.448 2.538 7.144 3.329 2.855.837 5.897 1.262 9.042 1.262s6.188-.425 9.042-1.262c2.697-.791 5.1-1.911 7.144-3.33 1.773-1.23 3.174-2.616 4.167-4.098a4.064 4.064 0 1 1 7.304-2.452"/></g><defs><clipPath id="a"><path fill="#fff" d="M0 19h100v61.328H0z"/></clipPath></defs></svg>