<svg xmlns="http://www.w3.org/2000/svg" fill="none" viewBox="0 0 100 100"><path fill="#764ABC" d="M69.29 69.302c3.69-.382 6.49-3.563 6.362-7.38-.127-3.818-3.309-6.873-7.126-6.873h-.254c-3.946.128-7 3.436-6.872 7.381.127 1.91.89 3.563 2.036 4.709-4.327 8.526-10.944 14.762-20.87 19.98-6.745 3.563-13.743 4.835-20.742 3.945-5.727-.764-10.18-3.309-12.98-7.509C4.77 77.32 4.39 70.575 7.825 63.83c2.418-4.836 6.235-8.399 8.653-10.18-.51-1.655-1.273-4.455-1.654-6.49C-3.627 60.522-1.718 78.592 3.88 87.118c4.2 6.364 12.725 10.309 22.142 10.309 2.545 0 5.09-.255 7.635-.891 16.289-3.182 28.633-12.853 35.632-27.234m22.396-15.78c-9.671-11.326-23.923-17.561-40.212-17.561h-2.036c-1.145-2.291-3.563-3.818-6.236-3.818h-.254c-3.945.127-6.999 3.436-6.872 7.38.127 3.819 3.309 6.873 7.126 6.873h.255c2.8-.127 5.217-1.91 6.235-4.327h2.29c9.672 0 18.835 2.8 27.106 8.272 6.363 4.2 10.944 9.672 13.489 16.289 2.163 5.345 2.036 10.562-.255 15.017C88.76 88.39 82.78 92.082 74.89 92.082c-5.09 0-9.926-1.528-12.471-2.673-1.4 1.273-3.945 3.309-5.727 4.582 5.472 2.545 11.072 3.945 16.416 3.945 12.216 0 21.252-6.745 24.688-13.49 3.69-7.381 3.435-20.107-6.109-30.924M27.041 71.465c.127 3.818 3.309 6.872 7.126 6.872h.255c3.945-.127 6.999-3.436 6.871-7.38-.127-3.819-3.308-6.872-7.126-6.872h-.254c-.255 0-.637 0-.89.126-5.218-8.653-7.382-18.07-6.618-28.25.509-7.636 3.054-14.254 7.508-19.726 3.69-4.709 10.816-7 15.652-7.126 13.489-.255 19.215 16.543 19.597 23.288 1.654.382 4.454 1.273 6.363 1.909C73.998 13.69 61.272 3 49.056 3c-11.453 0-22.015 8.272-26.215 20.49-5.853 16.288-2.036 31.941 5.09 44.285-.635.89-1.017 2.29-.89 3.69"/></svg>