<svg xmlns="http://www.w3.org/2000/svg" fill="none" viewBox="0 0 419 481" key="lnrbmw8"><g stroke="#121212" stroke-width="4" clip-path="url(#a)" key="ftxa7rc"><path d="m398.94 368.613-.001-.018-.002-.018c-2.662-27.764-11.246-48.9-25.534-64.343-12.347-13.346-28.818-22.294-49.031-27.668C378.234 265.272 417 220.587 417 154.42c0-46.717-15.404-84.928-46.495-111.423C339.461 16.543 293.047 2 231.456 2H2v100.41h206.889c26.834 0 46.64 5.764 59.697 15.991 12.982 10.169 19.544 24.946 19.544 43.61 0 21.361-6.599 35.679-19.465 44.774-13.023 9.206-32.816 13.324-59.776 13.324H2v102.525h200.871c21.345 0 37.272 3.018 48.362 12.318 11.045 9.262 17.734 25.143 19.6 52.005l.001.008v.007c2.839 36.892 2.483 55.139 2.141 72.661v.021c-.11 5.646-.219 11.235-.219 17.346v2h130.445v-2c0-27.995 0-53.669-4.261-108.387Z" key="hgssg9x"/><path d="M4 401.553H2V479h164.878v-49.006c0-5.207-1.269-12.288-5.612-18.119-4.419-5.934-11.838-10.322-23.569-10.322z" key="hf638sf"/></g><defs key="0wbs96o"><clipPath id="a" key="6ove5j2"><path fill="#fff" d="M0 0h419v481H0z" key="xlbl97h"/></clipPath></defs></svg>