<svg xmlns="http://www.w3.org/2000/svg" fill="none" viewBox="0 0 745 186" key="oxujwlq"><g stroke="#121212" stroke-width="2" clip-path="url(#a)" key="nd2nle6"><path d="M62.128 122.216H1v-36.34h78.122c10.518 0 18.622-1.604 24.109-5.514 5.565-3.964 8.263-10.163 8.263-18.873 0-7.717-2.716-14.021-8.223-18.368-5.47-4.318-13.567-6.604-24.15-6.604H1V1h86.836c23.531 0 40.986 5.6 52.545 15.526 11.536 9.907 17.335 24.238 17.335 42.009 0 26.448-16.21 43.563-38.056 46.421l-.067 1.972c9.299 1.874 16.564 5.456 21.755 11.111 5.189 5.651 8.397 13.471 9.399 23.994 1.59 20.574 1.638 30.545 1.64 41.032H105.56c.01-1.978.045-3.833.082-5.718.132-6.854.27-14.015-.831-28.449-.734-10.638-3.388-17.408-8.196-21.471-4.787-4.045-11.49-5.211-19.817-5.211zM61.126 183.065H1v-26.582h50.63c4.026 0 6.338 1.486 7.678 3.298 1.378 1.864 1.818 4.202 1.818 5.991zM595.173 184.745l49.483-64.671.455-.593-.441-.604-45.497-62.353h49.382l21.146 30.52.811 1.17.826-1.16 21.725-30.53h45.866L693.2 116.82l-.455.599.45.603 49.811 66.724h-49.371l-25.492-34.919-.807-1.106-.808 1.106-25.492 34.919zM435.17 77.446l.815 2.247 1.028-2.158c6.784-14.238 21.784-25.124 43.146-25.124 17.563 0 28.757 6.097 35.6 15.396 6.884 9.354 9.477 22.1 9.477 35.576v80.752H480.29v-68.197c0-8.906-.785-15.935-3.498-20.747-1.375-2.439-3.245-4.311-5.733-5.562-2.475-1.244-5.502-1.845-9.157-1.845-4.051 0-7.486.832-10.351 2.441-2.868 1.61-5.109 3.966-6.816 6.929-3.394 5.888-4.698 14.206-4.698 24.039v62.942h-44.946v-68.197c0-8.914-.859-15.945-3.649-20.758-1.413-2.437-3.319-4.305-5.831-5.553-2.5-1.242-5.543-1.843-9.198-1.843-8.023 0-13.574 3.39-17.056 9.365-3.43 5.887-4.809 14.204-4.809 24.044v62.942h-44.946V55.915h44.946v18.562l1.899.438c6.769-13.924 20.304-22.504 39.382-22.504 11.293 0 19.775 2.591 26.091 6.975 6.315 4.383 10.552 10.619 13.25 18.06ZM296.156 138.992c-3.407 14.136-10.778 25.143-21.336 32.676-10.843 7.737-25.116 11.858-42.055 11.858-20.521 0-38.015-6.215-50.366-17.476-12.341-11.252-19.633-27.615-19.633-48.094 0-40.612 29.687-69.658 69.419-69.658 21.347 0 37.589 7.354 48.499 18.991 10.921 11.648 16.574 27.668 16.574 45.119v12.139h-90.78l.078 1.072c.597 8.274 3.897 14.454 8.952 18.552 5.037 4.083 11.726 6.026 18.996 6.026 6.482 0 11.887-1.112 16.252-3.598 4.195-2.389 7.353-6.003 9.586-10.938zm-89.014-36.359-.161 1.14h47.7l-.052-1.049c-.3-6.034-2.399-11.674-6.283-15.817-3.897-4.158-9.529-6.74-16.74-6.74-7.757 0-13.466 2.413-17.452 6.507-3.965 4.071-6.124 9.7-7.012 15.959ZM587.538 185h-44.946V56.78h44.946zm.29-181.944v39.46h-45.526V3.057z" key="d672sze"/></g><defs key="qp8q4ou"><clipPath id="a" key="nun9kcm"><path fill="#fff" d="M0 0h745v186H0z" key="hfyrzwm"/></clipPath></defs></svg>