<svg xmlns="http://www.w3.org/2000/svg" fill="none" viewBox="0 0 745 186" key="0s7xzsd"><g stroke="#fff" stroke-width="2" clip-path="url(#a)" key="4yka8o6"><path d="M61.979 120.971H1V85.018h77.931c10.493 0 18.576-1.588 24.051-5.457 5.553-3.926 8.247-10.066 8.247-18.693 0-7.645-2.713-13.89-8.208-18.193-5.458-4.275-13.534-6.537-24.09-6.537H1V1h86.625c23.476 0 40.889 5.545 52.419 15.37 11.507 9.804 17.29 23.987 17.29 41.573 0 26.17-16.163 43.113-37.961 45.943l-.067 1.972c9.278 1.855 16.525 5.401 21.703 10.997 5.174 5.593 8.373 13.331 9.374 23.745 1.584 20.358 1.633 30.228 1.635 40.604h-46.709c.009-1.953.045-3.786.081-5.649.132-6.785.27-13.874-.829-28.163-.732-10.534-3.381-17.239-8.18-21.262-4.776-4.006-11.462-5.159-19.768-5.159zM60.977 181.204H1v-26.292h50.506c4.019 0 6.325 1.471 7.66 3.263 1.372 1.843 1.81 4.154 1.81 5.922zM595.182 181.523l49.472-64.156.46-.596-.446-.607-45.486-61.856h49.375l21.146 30.283.809 1.158.824-1.148 21.725-30.293h45.859l-45.718 59.813-.461.603.456.606 49.799 66.193h-49.363l-25.492-34.649-.806-1.095-.805 1.095-25.492 34.649zM296.154 140.825c-3.407 14.018-10.776 24.935-21.331 32.408C263.98 180.91 249.706 185 232.765 185c-20.523 0-38.017-6.168-50.369-17.342-12.339-11.163-19.63-27.398-19.63-47.714 0-40.287 29.68-69.112 69.42-69.112 21.349 0 37.592 7.298 48.502 18.844 10.919 11.557 16.571 27.45 16.571 44.763v12.038h-90.781l.078 1.072c.598 8.215 3.9 14.349 8.956 18.416 5.037 4.051 11.724 5.979 18.992 5.979 6.481 0 11.885-1.103 16.25-3.57 4.194-2.37 7.353-5.956 9.586-10.854zm-89.011-36.088-.163 1.141h47.702l-.053-1.049c-.299-5.99-2.4-11.59-6.285-15.703-3.898-4.126-9.53-6.687-16.738-6.687-7.754 0-13.462 2.394-17.449 6.456-3.966 4.041-6.126 9.629-7.014 15.842ZM435.171 75.67l.814 2.228 1.027-2.138c6.781-14.125 21.78-24.928 43.147-24.928 17.566 0 28.76 6.05 35.602 15.277 6.882 9.279 9.475 21.923 9.475 35.293v80.121H480.29V113.86c0-8.838-.785-15.816-3.5-20.594-1.375-2.421-3.246-4.28-5.734-5.52-2.474-1.234-5.5-1.83-9.154-1.83-4.05 0-7.484.826-10.349 2.421-2.867 1.598-5.109 3.936-6.816 6.877-3.396 5.846-4.7 14.102-4.7 23.861v62.448h-44.946V113.86c0-8.846-.859-15.825-3.651-20.604-1.413-2.42-3.32-4.274-5.832-5.512-2.499-1.232-5.541-1.828-9.195-1.828-8.019 0-13.571 3.362-17.054 9.294-3.432 5.844-4.811 14.099-4.811 23.865v62.448h-44.946V54.308h44.946V72.72l1.898.44c6.767-13.813 20.301-22.328 39.383-22.328 11.294 0 19.777 2.57 26.094 6.921 6.315 4.35 10.551 10.536 13.248 17.917ZM587.538 181.524h-44.947V54.309h44.947zM587.827 1v39.14h-45.526V1z" key="3hj756r"/></g><defs key="64vagok"><clipPath id="a" key="3bs9isk"><path fill="#fff" d="M0 0h745v186H0z" key="opb78vp"/></clipPath></defs></svg>