<svg xmlns="http://www.w3.org/2000/svg" fill="none" viewBox="0 0 745 186" key="ji72om6"><g clip-path="url(#a)" key="i98p5pn"><path fill="url(#b)" fill-rule="evenodd" d="M151.379 140.512c1.639 21.052 1.639 30.921 1.639 41.692h-48.712c0-2.346.042-4.492.084-6.669.132-6.766.27-13.821-.826-28.069-1.449-20.86-10.433-25.495-26.95-25.495H0V84.018h78.931c20.865 0 31.298-6.347 31.298-23.15 0-14.776-10.433-23.73-31.298-23.73H0V0h87.625c47.236 0 70.709 22.308 70.709 57.943 0 26.654-16.518 44.037-38.832 46.934 18.836 3.767 29.848 14.486 31.877 35.635" clip-rule="evenodd" key="65uq455"/><path fill="#fff" fill-rule="evenodd" d="M151.379 140.512c1.639 21.052 1.639 30.921 1.639 41.692h-48.712c0-2.346.042-4.492.084-6.669.132-6.766.27-13.821-.826-28.069-1.449-20.86-10.433-25.495-26.95-25.495H0V84.018h78.931c20.865 0 31.298-6.347 31.298-23.15 0-14.776-10.433-23.73-31.298-23.73H0V0h87.625c47.236 0 70.709 22.308 70.709 57.943 0 26.654-16.518 44.037-38.832 46.934 18.836 3.767 29.848 14.486 31.877 35.635" clip-rule="evenodd" key="ydkbgg0"/><path fill="url(#c)" d="M0 182.204v-28.292h51.506c8.603 0 10.47 6.38 10.47 10.185v18.107z" key="xtvvnkk"/><path fill="#fff" d="M0 182.204v-28.292h51.506c8.603 0 10.47 6.38 10.47 10.185v18.107z" key="28p3rl2"/><path fill="#fff" d="M0 182.207v-28.293h51.506c8.603 0 10.471 6.38 10.471 10.185v18.108zM740.943 53.308h-48.395l-22.025 30.71-21.444-30.71h-51.873l46.656 63.449-50.714 65.766h48.396l25.791-35.056 25.792 35.056H745l-51.004-67.795zm-481.227 83.15c-4.347 10.14-12.461 14.486-25.212 14.486-14.2 0-25.791-7.533-26.951-23.467h90.706v-13.038c0-35.056-22.894-64.607-66.073-64.607-40.281 0-70.42 29.261-70.42 70.112 0 41.14 29.559 66.056 70.999 66.056 34.196 0 57.959-16.514 64.624-46.065zm-51.583-31.58c1.739-12.168 8.404-21.439 23.473-21.439 13.91 0 21.445 9.85 22.025 21.439zm227.978-29.551c-5.507-15.065-17.388-25.495-40.282-25.495-19.416 0-33.326 8.691-40.281 22.888V53.308h-46.946v129.215h46.946v-63.448c0-19.412 5.506-32.16 20.865-32.16 14.2 0 17.678 9.272 17.678 26.945v68.663h46.946v-63.448c0-19.412 5.216-32.16 20.865-32.16 14.2 0 17.388 9.272 17.388 26.945v68.663h46.946v-81.121c0-26.944-10.432-51.57-46.077-51.57-21.734 0-37.093 11.009-44.048 25.495m105.48-22.018v129.215h46.947V53.309zm-.29-12.169h47.526V0h-47.526z" key="qkyr2pk"/></g><defs key="uqsnilf"><linearGradient id="b" x1="79.167" x2="79.167" y1="0" y2="182.204" gradientUnits="userSpaceOnUse" key="4wlnzxh"><stop stop-color="#fff" key="j6ll5n5"/><stop offset="1" stop-color="#fff" stop-opacity="0" key="ontxdf5"/></linearGradient><linearGradient id="c" x1="30.988" x2="30.988" y1="153.912" y2="182.204" gradientUnits="userSpaceOnUse" key="cnqoo1d"><stop stop-color="#fff" key="r0kshhm"/><stop offset="1" stop-color="#fff" stop-opacity="0" key="d9shcrb"/></linearGradient><clipPath id="a" key="rko8hm2"><path fill="#fff" d="M0 0h745v186H0z" key="8wyuaok"/></clipPath></defs></svg>