<svg xmlns="http://www.w3.org/2000/svg" fill="none" viewBox="0 0 100 100"><path fill="#000" d="M0 60.62h4.42v-6.922h3.71l3.477 6.923h4.89l-4.065-7.954c2.15-1.031 3.535-3.152 3.535-5.803 0-4.183-3.034-6.864-7.571-6.864H0zm8.043-16.938c2.091 0 3.417 1.237 3.417 3.182 0 1.914-1.326 3.152-3.417 3.152H4.419v-6.334zm17.24 17.115c4.035 0 6.657-2.356 7.129-5.302h-4.095c-.354 1.414-1.532 2.15-3.211 2.15-2.092 0-3.476-1.296-3.565-3.446v-.206H32.53a8 8 0 0 0 .118-1.415c-.059-4.448-3.122-7.276-7.659-7.276-4.684 0-7.777 3.064-7.777 7.777 0 4.684 3.034 7.718 8.072 7.718m-3.653-9.515c.236-1.797 1.59-2.887 3.388-2.887 1.885 0 3.152 1.031 3.446 2.887zm12.465 4.301c.177 3.24 3.034 5.214 7.247 5.214 4.065 0 6.893-1.914 6.893-4.92 0-3.416-2.887-4.212-6.363-4.565-2.18-.265-3.476-.383-3.476-1.532 0-.972 1.06-1.561 2.68-1.561 1.68 0 2.829.736 2.947 1.944H48c-.206-3.093-3.004-4.89-7.07-4.89-3.888-.03-6.51 1.944-6.51 4.949 0 3.122 2.74 3.918 6.275 4.33 2.445.324 3.476.413 3.476 1.65 0 1.06-1.06 1.62-2.799 1.62-2.032 0-3.181-.913-3.328-2.239zm23.81 5.214c4.036 0 6.658-2.356 7.13-5.302H60.94c-.354 1.414-1.532 2.15-3.211 2.15-2.092 0-3.476-1.296-3.565-3.446v-.206h10.989c.088-.472.117-.973.117-1.415-.059-4.448-3.122-7.276-7.659-7.276-4.684 0-7.777 3.064-7.777 7.777 0 4.684 3.034 7.718 8.072 7.718m-3.652-9.515c.236-1.797 1.59-2.887 3.388-2.887 1.885 0 3.152 1.031 3.446 2.887zm21.977-5.98c-2.326 0-3.711.884-4.683 2.062l-.383-1.885H67.54v15.142h4.154v-7.748c0-2.622 1.237-4.154 3.387-4.154 2.092 0 3.064 1.355 3.064 3.918v7.984H82.3v-8.396c0-5.185-2.799-6.923-6.069-6.923m19.617 2.062c-.973-1.237-2.475-2.062-4.566-2.062-4.036 0-7.011 3.035-7.011 7.718 0 4.802 2.975 7.777 7.04 7.777 2.18 0 3.653-.972 4.654-2.268l.413 2.092H100V40h-4.153zM92.223 57.41c-2.268 0-3.712-1.768-3.712-4.36s1.444-4.36 3.712-4.36 3.682 1.797 3.682 4.39c0 2.562-1.413 4.33-3.682 4.33"/></svg>