<svg xmlns="http://www.w3.org/2000/svg" fill="none" viewBox="0 0 100 100"><g clip-path="url(#a)"><path fill="url(#b)" d="M88.26 32.922a32.67 32.67 0 0 0-4.258-16.19c-7.202-7.411-22.866-9.128-26.756-.035-3.995 9.322 6.71 19.695 11.39 18.871 5.957-1.051-1.052-14.718-1.052-14.718 9.111 17.171 7.008 11.915-9.462 27.684S24.831 97.578 22.378 98.98c-.105.07-.21.123-.333.175h64.602c1.14 0 1.875-1.209 1.367-2.225l-16.89-33.431a1.53 1.53 0 0 1 .595-2.015c9.882-5.677 16.54-16.33 16.54-28.56"/><path fill="url(#c)" d="M88.26 32.922a32.67 32.67 0 0 0-4.258-16.19c-7.202-7.411-22.866-9.128-26.756-.035-3.995 9.322 6.71 19.695 11.39 18.871 5.957-1.051-1.052-14.718-1.052-14.718 9.111 17.171 7.008 11.915-9.462 27.684S24.831 97.578 22.378 98.98c-.105.07-.21.123-.333.175h64.602c1.14 0 1.875-1.209 1.367-2.225l-16.89-33.431a1.53 1.53 0 0 1 .595-2.015c9.882-5.677 16.54-16.33 16.54-28.56"/><path fill="url(#d)" d="M22.378 98.98c2.453-1.402 19.274-34.693 35.744-50.463s18.573-10.513 9.462-27.684c0 0-34.868 48.885-47.484 73.065"/><path fill="url(#e)" d="M27.284 55.175C50.834 11.879 53.917 7.516 66.182 7.516c6.448 0 12.949 2.909 17.154 8.078C77.606 6.36 67.46.174 55.844-.002H15.842c-.84 0-1.524.683-1.524 1.525v80.635c2.383-6.15 6.43-14.946 12.966-26.984"/><path fill="url(#f)" d="M58.122 48.517c-16.47 15.77-33.291 49.06-35.744 50.463-2.453 1.401-6.57 1.576-8.761-.877-2.33-2.61-5.957-6.833 13.667-42.928C50.833 11.88 53.917 7.516 66.182 7.516c6.448 0 12.949 2.909 17.154 8.078.228.368.455.753.683 1.139-7.201-7.412-22.866-9.13-26.756-.035-3.994 9.321 6.711 19.694 11.39 18.87C74.61 34.518 67.6 20.85 67.6 20.85c9.094 17.154 6.992 11.897-9.479 27.667"/><path fill="url(#g)" d="M29.211 57.103c23.55-43.297 26.633-47.66 38.899-47.66 5.308 0 10.653 1.98 14.718 5.555-4.206-4.801-10.443-7.482-16.646-7.482-12.265 0-15.349 4.363-38.898 47.66C7.66 91.27 11.287 95.492 13.617 98.102c.333.368.718.684 1.121.947-2.05-2.98-2.96-9.9 14.473-41.947" opacity=".3"/></g><defs><linearGradient id="b" x1="39.806" x2="66.79" y1="53.257" y2="59.564" gradientUnits="userSpaceOnUse"><stop stop-color="#FF6533"/><stop offset=".157" stop-color="#FF5633"/><stop offset=".434" stop-color="#FF4333"/><stop offset=".714" stop-color="#FF3733"/><stop offset="1" stop-color="#F33"/></linearGradient><linearGradient id="c" x1="35.586" x2="83.946" y1="44.312" y2="81.808" gradientUnits="userSpaceOnUse"><stop stop-color="#BF3338"/><stop offset="1" stop-color="#F33"/></linearGradient><linearGradient id="d" x1="37.164" x2="44.172" y1="51.698" y2="59.057" gradientUnits="userSpaceOnUse"><stop stop-color="#FF6533"/><stop offset=".157" stop-color="#FF5633"/><stop offset=".434" stop-color="#FF4333"/><stop offset=".714" stop-color="#FF3733"/><stop offset="1" stop-color="#F33"/></linearGradient><linearGradient id="e" x1="49.906" x2="47.804" y1="64.366" y2="34.229" gradientUnits="userSpaceOnUse"><stop stop-color="#FF6533"/><stop offset=".157" stop-color="#FF5633"/><stop offset=".434" stop-color="#FF4333"/><stop offset=".714" stop-color="#FF3733"/><stop offset="1" stop-color="#F33"/></linearGradient><linearGradient id="f" x1="40.797" x2="50.753" y1="51.182" y2="57.952" gradientUnits="userSpaceOnUse"><stop stop-color="#FBB040"/><stop offset="1" stop-color="#FB8840"/></linearGradient><linearGradient id="g" x1="50.996" x2="40.834" y1="12.905" y2="124.694" gradientUnits="userSpaceOnUse"><stop stop-color="#fff"/><stop offset="1" stop-color="#fff" stop-opacity="0"/></linearGradient><clipPath id="a"><path fill="#fff" d="M0 0h100v100H0z"/></clipPath></defs></svg>