<svg xmlns="http://www.w3.org/2000/svg" fill="none" viewBox="0 0 100 100.03"><path fill="#000" d="m99.317 48.775-4.198-2.599a57 57 0 0 0-.12-1.222l3.608-3.366a1.44 1.44 0 0 0 .432-1.338 1.44 1.44 0 0 0-.91-1.072l-4.613-1.725a54 54 0 0 0-.36-1.19l2.876-3.996a1.444 1.444 0 0 0-.94-2.271l-4.864-.791q-.284-.553-.584-1.092l2.043-4.486a1.44 1.44 0 0 0-.112-1.402 1.44 1.44 0 0 0-1.252-.642l-4.935.172a39 39 0 0 0-.78-.946l1.134-4.807a1.444 1.444 0 0 0-1.738-1.74l-4.807 1.134a42 42 0 0 0-.947-.78l.172-4.935a1.44 1.44 0 0 0-1.327-1.492 1.44 1.44 0 0 0-.716.126l-4.484 2.045q-.543-.3-1.092-.586L70.01 4.91a1.446 1.446 0 0 0-2.27-.94l-4 2.877q-.59-.188-1.188-.36l-1.725-4.614a1.442 1.442 0 0 0-2.41-.48l-3.365 3.61a43 43 0 0 0-1.222-.119l-2.6-4.2a1.445 1.445 0 0 0-2.456 0l-2.599 4.2a43 43 0 0 0-1.224.12l-3.366-3.611a1.443 1.443 0 0 0-2.41.48l-1.724 4.613q-.599.173-1.19.36L32.266 3.97a1.44 1.44 0 0 0-1.977.275 1.45 1.45 0 0 0-.294.665l-.793 4.864q-.55.285-1.092.586l-4.485-2.045a1.44 1.44 0 0 0-1.401.114 1.44 1.44 0 0 0-.642 1.252l.172 4.935q-.48.384-.948.78L16 14.263a1.45 1.45 0 0 0-1.723 1.011 1.44 1.44 0 0 0-.016.728l1.132 4.807q-.394.468-.777.946l-4.936-.172a1.45 1.45 0 0 0-1.491 1.328c-.02.245.023.492.125.716l2.045 4.486q-.3.54-.586 1.092l-4.863.79a1.445 1.445 0 0 0-.94 2.272l2.877 3.996q-.189.591-.362 1.19l-4.612 1.725a1.446 1.446 0 0 0-.479 2.41l3.609 3.365q-.068.61-.12 1.223l-4.198 2.6a1.443 1.443 0 0 0 0 2.455l4.198 2.6q.053.613.12 1.222l-3.61 3.367a1.445 1.445 0 0 0 .479 2.41l4.612 1.725q.174.598.362 1.19L3.969 67.74a1.444 1.444 0 0 0 .941 2.27l4.862.792q.285.552.586 1.093L8.313 76.38a1.44 1.44 0 0 0 .656 1.886c.22.112.463.166.71.157l4.933-.172q.386.48.78.947l-1.132 4.809a1.44 1.44 0 0 0 .385 1.35 1.44 1.44 0 0 0 1.354.385l4.806-1.132q.47.397.948.777l-.171 4.937a1.444 1.444 0 0 0 2.042 1.364l4.485-2.043q.542.3 1.092.586l.793 4.86a1.44 1.44 0 0 0 1.593 1.205c.245-.028.478-.118.678-.262l3.996-2.879q.591.189 1.19.362l1.725 4.611a1.44 1.44 0 0 0 1.072.91 1.44 1.44 0 0 0 1.338-.431l3.366-3.609q.61.07 1.223.122l2.6 4.199a1.445 1.445 0 0 0 2.456 0l2.598-4.199q.615-.053 1.223-.122l3.366 3.609a1.44 1.44 0 0 0 1.337.432 1.44 1.44 0 0 0 1.072-.91l1.725-4.612q.599-.173 1.19-.362l3.997 2.88a1.445 1.445 0 0 0 2.27-.943l.793-4.861q.55-.287 1.092-.586l4.484 2.043a1.443 1.443 0 0 0 2.043-1.364l-.171-4.936q.48-.382.946-.778l4.807 1.132c.488.115 1-.028 1.353-.384a1.44 1.44 0 0 0 .385-1.351l-1.132-4.809q.396-.468.777-.947l4.936.172a1.44 1.44 0 0 0 1.252-.64 1.44 1.44 0 0 0 .113-1.404l-2.044-4.483q.3-.543.585-1.094l4.863-.791a1.44 1.44 0 0 0 1.102-.874 1.44 1.44 0 0 0-.162-1.397l-2.877-3.996q.187-.592.362-1.19l4.611-1.725a1.44 1.44 0 0 0 .91-1.072 1.44 1.44 0 0 0-.431-1.338l-3.608-3.366q.066-.61.12-1.222l4.198-2.6a1.44 1.44 0 0 0 .684-1.227c0-.5-.258-.966-.683-1.229M71.218 83.602a2.975 2.975 0 0 1-2.278-3.534 2.966 2.966 0 0 1 3.524-2.283 2.974 2.974 0 0 1 2.28 3.531 2.973 2.973 0 0 1-3.526 2.286m-1.426-9.648a2.71 2.71 0 0 0-3.215 2.082l-1.49 6.956A36.4 36.4 0 0 1 50 86.24a36.4 36.4 0 0 1-15.402-3.394l-1.49-6.956a2.706 2.706 0 0 0-3.214-2.082l-6.14 1.319a36 36 0 0 1-3.176-3.742h29.879c.338 0 .563-.062.563-.37V60.448c0-.308-.225-.37-.563-.37h-8.738V53.38h9.45c.863 0 4.614.246 5.813 5.04.375 1.474 1.2 6.269 1.764 7.804.561 1.722 2.848 5.162 5.286 5.162h14.889q.254-.001.54-.054a37 37 0 0 1-3.387 3.973zm-41.324 9.502a2.97 2.97 0 0 1-3.527-2.282 2.976 2.976 0 0 1 2.28-3.534 2.975 2.975 0 0 1 1.247 5.816m-11.335-45.96a2.975 2.975 0 0 1-1.51 3.923 2.967 2.967 0 0 1-3.919-1.513 2.975 2.975 0 0 1 2.642-4.178 2.97 2.97 0 0 1 2.787 1.767m-3.484 8.257 6.397-2.842a2.71 2.71 0 0 0 1.377-3.578l-1.317-2.979h5.18V59.71H14.834a36.6 36.6 0 0 1-1.393-10.028c0-1.327.072-2.64.21-3.928m28.071-2.268V36.6H54.06c.637 0 4.5.737 4.5 3.625 0 2.398-2.963 3.258-5.4 3.258H41.72m44.84 6.196q0 1.369-.1 2.714h-3.75c-.376 0-.527.247-.527.614v1.723c0 4.055-2.287 4.937-4.29 5.161-1.908.215-4.023-.798-4.284-1.966-1.126-6.33-3.001-7.682-5.963-10.019 3.676-2.334 7.5-5.777 7.5-10.386 0-4.977-3.412-8.112-5.737-9.649-3.263-2.15-6.875-2.582-7.85-2.582H22.765c5.26-5.871 12.39-10.03 20.454-11.543l4.573 4.797a2.703 2.703 0 0 0 3.828.088l5.116-4.894c10.72 1.996 19.798 8.67 25.028 17.825l-3.502 7.912a2.715 2.715 0 0 0 1.377 3.577l6.744 2.995q.177 1.795.178 3.633M47.795 9.667a2.97 2.97 0 0 1 4.198.096 2.977 2.977 0 0 1-.098 4.205 2.965 2.965 0 0 1-4.199-.097 2.977 2.977 0 0 1 .099-4.204m34.759 27.972a2.967 2.967 0 0 1 3.917-1.512 2.975 2.975 0 0 1-1.277 5.692 3 3 0 0 1-1.13-.255 2.98 2.98 0 0 1-1.51-3.925"/></svg>