<svg xmlns="http://www.w3.org/2000/svg" fill="none" viewBox="0 0 100 100"><g clip-path="url(#a)"><g filter="url(#b)" opacity=".53"><path fill="#000" d="M95.61 51.307a42.5 42.5 0 0 1-3.472 16.807A43.85 43.85 0 0 1 82.25 82.36a45.8 45.8 0 0 1-14.796 9.52 47.1 47.1 0 0 1-17.453 3.343 47.1 47.1 0 0 1-17.453-3.343 45.8 45.8 0 0 1-14.796-9.52 43.85 43.85 0 0 1-9.886-14.248 42.5 42.5 0 0 1-3.472-16.806c0-11.647 4.805-22.818 13.358-31.054S37.907 7.39 50.003 7.39c5.989 0 11.92 1.136 17.452 3.343a45.8 45.8 0 0 1 14.796 9.52 43.85 43.85 0 0 1 9.887 14.248 42.5 42.5 0 0 1 3.471 16.806"/></g><path fill="url(#c)" stroke="#CDCDCD" stroke-linecap="round" stroke-linejoin="round" stroke-width=".141" d="M97.344 47.43a47.344 47.344 0 1 1-94.688 0 47.344 47.344 0 0 1 94.688 0"/><path fill="url(#d)" d="M93.634 47.43a43.634 43.634 0 1 1-87.268 0 43.634 43.634 0 0 1 87.268 0"/><path fill="#F4F2F3" d="M50 6.071a.635.635 0 0 0-.636.636v7.338c0 .353.284.636.636.636a.635.635 0 0 0 .636-.636V6.707A.635.635 0 0 0 50 6.071m-4.162.263a.635.635 0 0 0-.696.7l.32 3.07c.037.35.35.603.7.566a.635.635 0 0 0 .566-.699l-.32-3.07a.635.635 0 0 0-.57-.567m8.353.003a.635.635 0 0 0-.57.567l-.323 3.07a.635.635 0 1 0 1.265.133l.323-3.07a.635.635 0 0 0-.695-.7m-12.628.617a.635.635 0 0 0-.62.768l1.52 7.179c.074.344.41.563.755.49a.635.635 0 0 0 .49-.754l-1.52-7.179a.634.634 0 0 0-.625-.504m16.903.006a.634.634 0 0 0-.626.504l-1.525 7.178a.635.635 0 0 0 .49.755.635.635 0 0 0 .754-.49l1.525-7.178a.635.635 0 0 0-.618-.769M37.483 8.105a.635.635 0 0 0-.66.83l.954 2.936a.635.635 0 1 0 1.21-.393l-.954-2.936a.64.64 0 0 0-.55-.437m25.04.001a.64.64 0 0 0-.55.438l-.955 2.935a.635.635 0 0 0 .408.802.635.635 0 0 0 .802-.409l.954-2.935a.635.635 0 0 0-.66-.83M33.448 9.581a.635.635 0 0 0-.57.895l2.981 6.705a.635.635 0 0 0 .84.323.635.635 0 0 0 .323-.84l-2.98-6.705a.64.64 0 0 0-.594-.378m33.155.023a.64.64 0 0 0-.593.377l-2.99 6.701a.635.635 0 0 0 .322.84c.322.144.697 0 .84-.321l2.99-6.702a.635.635 0 0 0-.57-.895m-36.9 1.959a.635.635 0 0 0-.595.953l1.543 2.673a.636.636 0 0 0 .87.233.635.635 0 0 0 .232-.87L30.21 11.88a.64.64 0 0 0-.507-.318m40.593 0a.63.63 0 0 0-.506.317l-1.543 2.673a.635.635 0 0 0 .233.869.635.635 0 0 0 .869-.233l1.543-2.673a.635.635 0 0 0-.596-.953m-44.23 2.268a.639.639 0 0 0-.492 1.01l4.308 5.939a.635.635 0 1 0 1.03-.747l-4.309-5.94a.64.64 0 0 0-.536-.262m47.913.032a.63.63 0 0 0-.537.262l-4.317 5.934a.635.635 0 0 0 .14.889.635.635 0 0 0 .889-.14l4.317-5.934a.635.635 0 0 0-.492-1.011m-51.163 2.694a.635.635 0 0 0-.506 1.061l2.065 2.294a.635.635 0 0 0 .899.047.635.635 0 0 0 .047-.898l-2.065-2.294a.63.63 0 0 0-.44-.21m54.372.004a.64.64 0 0 0-.44.21l-2.065 2.294a.635.635 0 0 0 .047.899.635.635 0 0 0 .899-.047l2.065-2.294a.635.635 0 0 0-.506-1.062m-57.488 2.99a.636.636 0 0 0-.392 1.109l5.453 4.91a.635.635 0 0 0 .899-.048.635.635 0 0 0-.047-.898l-5.454-4.91a.64.64 0 0 0-.46-.163m60.618.022a.63.63 0 0 0-.46.162l-5.456 4.906a.635.635 0 1 0 .85.946l5.457-4.905a.635.635 0 0 0-.391-1.11M17.11 22.88a.635.635 0 0 0-.396 1.151l2.497 1.814a.635.635 0 0 0 .889-.14.635.635 0 0 0-.14-.89l-2.498-1.814a.64.64 0 0 0-.352-.121m65.797.023a.64.64 0 0 0-.352.121l-2.498 1.813a.635.635 0 1 0 .747 1.03l2.498-1.813a.635.635 0 0 0 .142-.889.63.63 0 0 0-.537-.262m-68.218 3.53a.635.635 0 0 0-.273 1.186l6.354 3.669a.635.635 0 0 0 .87-.233.635.635 0 0 0-.233-.869l-6.355-3.669a.64.64 0 0 0-.363-.084m70.622 0a.63.63 0 0 0-.363.084l-6.355 3.67a.635.635 0 0 0-.232.868c.176.305.563.41.869.233l6.355-3.669a.635.635 0 0 0-.274-1.186M12.859 30.22a.63.63 0 0 0-.594.378.635.635 0 0 0 .322.84l2.82 1.257a.635.635 0 1 0 .518-1.162l-2.82-1.257a.6.6 0 0 0-.246-.056m74.295.027a.6.6 0 0 0-.247.055l-2.82 1.255a.635.635 0 1 0 .518 1.163l2.82-1.256a.635.635 0 0 0 .322-.84.64.64 0 0 0-.593-.377M11.227 34.18a.63.63 0 0 0-.55.437.635.635 0 0 0 .407.802l6.977 2.274a.635.635 0 1 0 .395-1.21l-6.977-2.273a.6.6 0 0 0-.252-.03m77.555.027a.6.6 0 0 0-.251.03l-6.979 2.268a.635.635 0 0 0-.408.802.635.635 0 0 0 .802.408l6.978-2.268a.635.635 0 0 0-.142-1.24m-78.571 4.129a.634.634 0 0 0-.626.504.635.635 0 0 0 .49.754l3.019.642a.635.635 0 0 0 .754-.49.635.635 0 0 0-.49-.754l-3.019-.642a.6.6 0 0 0-.128-.014m79.58.006a1 1 0 0 0-.129.013l-3.019.642a.635.635 0 1 0 .264 1.245l3.02-.642a.635.635 0 0 0-.136-1.258M9.44 42.516a.634.634 0 0 0-.57.566.635.635 0 0 0 .566.7l7.297.771a.635.635 0 0 0 .7-.566.635.635 0 0 0-.566-.7l-7.297-.77a1 1 0 0 0-.13-.001m81.124.054a.6.6 0 0 0-.129.001l-7.298.762a.635.635 0 0 0-.567.698c.037.35.348.604.699.567l7.298-.762a.635.635 0 0 0 .567-.698.635.635 0 0 0-.57-.568M9.318 46.794a.635.635 0 0 0-.636.636c0 .353.283.637.636.637h3.087a.635.635 0 1 0 0-1.273zm78.277 0a.635.635 0 0 0-.636.636c0 .353.284.637.636.637h3.087a.635.635 0 0 0 .636-.637.635.635 0 0 0-.636-.636zM16.86 50.262a.6.6 0 0 0-.129 0l-7.298.762a.635.635 0 0 0-.567.7c.037.35.348.602.699.566l7.298-.762a.635.635 0 0 0 .567-.699.635.635 0 0 0-.57-.567m66.278.045a.634.634 0 0 0-.57.567.635.635 0 0 0 .565.7l7.297.77a.635.635 0 0 0 .7-.565.635.635 0 0 0-.566-.7l-7.297-.771a1 1 0 0 0-.13 0M13.22 54.605a.6.6 0 0 0-.128.014l-3.02.64a.635.635 0 0 0-.49.755c.074.345.41.564.755.49l3.02-.64a.635.635 0 0 0 .49-.755.634.634 0 0 0-.627-.504m73.557.006a.634.634 0 0 0-.626.504.635.635 0 0 0 .49.755l3.019.641a.635.635 0 1 0 .264-1.245l-3.019-.641a.6.6 0 0 0-.128-.014m-68.472 2.506a.6.6 0 0 0-.252.029l-6.978 2.268a.635.635 0 0 0-.408.802.635.635 0 0 0 .801.408l6.979-2.268a.635.635 0 0 0 .408-.802.64.64 0 0 0-.55-.437m63.382.022a.63.63 0 0 0-.551.437.635.635 0 0 0 .408.802l6.977 2.274a.635.635 0 1 0 .394-1.21l-6.977-2.273a.6.6 0 0 0-.251-.03m-66.045 4.946a.6.6 0 0 0-.247.055l-2.82 1.256a.635.635 0 0 0-.322.84.635.635 0 0 0 .84.322l2.82-1.255a.635.635 0 0 0 .322-.84.64.64 0 0 0-.593-.378m68.704.024a.63.63 0 0 0-.593.377.635.635 0 0 0 .322.84l2.819 1.258c.321.144.696 0 .84-.322a.635.635 0 0 0-.322-.84l-2.819-1.257a.6.6 0 0 0-.247-.056m-63.214 1.379a.63.63 0 0 0-.363.084l-6.354 3.67a.635.635 0 0 0-.233.868.635.635 0 0 0 .869.233l6.355-3.669a.635.635 0 0 0-.274-1.186m57.734 0a.635.635 0 0 0-.274 1.186l6.355 3.669a.635.635 0 1 0 .637-1.102l-6.355-3.669a.64.64 0 0 0-.363-.084m-59.319 5.384a.64.64 0 0 0-.352.122l-2.498 1.812a.635.635 0 0 0-.142.889.635.635 0 0 0 .889.141l2.498-1.813a.635.635 0 0 0-.395-1.151m60.889.021a.635.635 0 0 0-.396 1.151l2.497 1.815a.635.635 0 0 0 .889-.14.635.635 0 0 0-.141-.89l-2.497-1.814a.64.64 0 0 0-.352-.122m-55.23.22a.63.63 0 0 0-.46.163L19.29 74.18a.635.635 0 0 0-.048.899.635.635 0 0 0 .898.047l5.458-4.905a.635.635 0 0 0-.392-1.109m49.572.018a.636.636 0 0 0-.393 1.108l5.454 4.91a.635.635 0 0 0 .898-.047.635.635 0 0 0-.047-.899l-5.454-4.91a.63.63 0 0 0-.458-.162m-44.396 4.66a.63.63 0 0 0-.537.262l-4.316 5.934a.635.635 0 1 0 1.029.749l4.316-5.934a.635.635 0 0 0-.492-1.011m39.198.027a.636.636 0 0 0-.493 1.01l4.309 5.939a.635.635 0 0 0 .888.141.635.635 0 0 0 .141-.888l-4.308-5.94a.63.63 0 0 0-.537-.262m-44.77.916a.64.64 0 0 0-.44.21l-2.065 2.294a.635.635 0 1 0 .945.851l2.066-2.293a.635.635 0 0 0-.506-1.062m50.374.003a.635.635 0 0 0-.506 1.061l2.065 2.295a.635.635 0 1 0 .946-.851l-2.065-2.295a.63.63 0 0 0-.44-.21M36.41 77.281a.63.63 0 0 0-.593.377l-2.99 6.701a.635.635 0 0 0 .322.84c.322.144.697 0 .84-.322l2.99-6.7a.635.635 0 0 0-.569-.896m27.137.018a.635.635 0 0 0-.57.895l2.98 6.705a.635.635 0 1 0 1.163-.517l-2.98-6.705a.64.64 0 0 0-.593-.378m-32.39 2.053a.63.63 0 0 0-.507.318l-1.543 2.673a.635.635 0 0 0 .233.869.635.635 0 0 0 .869-.233l1.543-2.673a.635.635 0 0 0-.595-.954m37.684 0a.635.635 0 0 0-.595.953l1.543 2.674a.635.635 0 0 0 .87.233.635.635 0 0 0 .232-.87l-1.543-2.672a.64.64 0 0 0-.507-.318m-25.775.096a.634.634 0 0 0-.626.504l-1.525 7.178a.635.635 0 0 0 .49.755.635.635 0 0 0 .755-.49l1.524-7.178a.635.635 0 0 0-.618-.769m13.844.005a.635.635 0 0 0-.619.767l1.52 7.18a.635.635 0 0 0 .754.49.635.635 0 0 0 .49-.754l-1.52-7.179a.635.635 0 0 0-.625-.504m-6.91.725a.635.635 0 0 0-.636.636v7.338c0 .352.284.636.636.636a.635.635 0 0 0 .636-.636v-7.338a.635.635 0 0 0-.636-.636m-11.678 2.371a.64.64 0 0 0-.55.438l-.954 2.935a.635.635 0 1 0 1.21.393l.954-2.935a.635.635 0 0 0-.66-.831m23.35.001a.635.635 0 0 0-.66.83l.955 2.937a.635.635 0 0 0 .801.408.635.635 0 0 0 .409-.801l-.954-2.936a.64.64 0 0 0-.55-.437m-15.665 1.636a.635.635 0 0 0-.57.566l-.323 3.07a.635.635 0 0 0 .566.7.635.635 0 0 0 .7-.567l.322-3.07a.635.635 0 0 0-.695-.7m7.96.002a.635.635 0 0 0-.696.7l.321 3.07c.037.35.349.603.699.566a.635.635 0 0 0 .567-.698l-.32-3.07a.635.635 0 0 0-.57-.567"/><g filter="url(#e)" opacity=".409"><path fill="#000" d="M79.816 21.983 45.01 42.205 23.004 76.849l32.194-23.845z"/></g><path fill="#FF5150" d="m54.988 52.653-9.976-10.447 35.39-23.807z"/><path fill="#F1F1F1" d="m54.988 52.653-9.976-10.447L19.598 76.46z"/><path fill="#000" d="m19.598 76.46 35.39-23.807L80.402 18.4z" opacity=".243"/></g><defs><filter id="b" width="98.375" height="94.995" x=".815" y="3.81" color-interpolation-filters="sRGB" filterUnits="userSpaceOnUse"><feFlood flood-opacity="0" result="BackgroundImageFix"/><feBlend in="SourceGraphic" in2="BackgroundImageFix" result="shape"/><feGaussianBlur result="effect1_foregroundBlur_751_8191" stdDeviation="1.79"/></filter><filter id="e" width="58.847" height="56.902" x="21.986" y="20.965" color-interpolation-filters="sRGB" filterUnits="userSpaceOnUse"><feFlood flood-opacity="0" result="BackgroundImageFix"/><feBlend in="SourceGraphic" in2="BackgroundImageFix" result="shape"/><feGaussianBlur result="effect1_foregroundBlur_751_8191" stdDeviation=".509"/></filter><radialGradient id="d" cx="0" cy="0" r="1" gradientTransform="translate(50.197 41.067)scale(47.3433)" gradientUnits="userSpaceOnUse"><stop stop-color="#06C2E7"/><stop offset=".25" stop-color="#0DB8EC"/><stop offset=".5" stop-color="#12AEF1"/><stop offset=".75" stop-color="#1F86F9"/><stop offset="1" stop-color="#107DDD"/></radialGradient><linearGradient id="c" x1="49.998" x2="49.998" y1="94.772" y2=".086" gradientUnits="userSpaceOnUse"><stop stop-color="#BDBDBD"/><stop offset="1" stop-color="#fff"/></linearGradient><clipPath id="a"><path fill="#fff" d="M0 0h100v99.453H0z"/></clipPath></defs></svg>