<svg xmlns="http://www.w3.org/2000/svg" fill="none" viewBox="0 0 100 100"><path fill="#380D09" fill-rule="evenodd" d="M18.093 37.21c.872 1.203 8.228 3.47 19.2 5.833 10.971 2.103 22.382 10.406 31.255 7.845 6.002-1.735 12.514-17.195 12.514-19.491v-.236c0-1.603-1.203-2.89-3.244-3.96-8.37-4.277-9.953-5.852-13.056-4.998-16.106 4.446-44.542 2.173-46.669 15.007m0 31.393c.872 1.22 8.228 3.47 19.2 5.837 12.259 2.235 22.92 9.52 31.798 6.954C75.093 79.66 81.06 65.09 81.06 62.79v-.226c0-1.599-1.202-2.89-3.243-3.956-6.384-3.395-14.82-7.134-17.917-6.28-16.135 4.436-37.701 5.412-41.808 16.276" clip-rule="evenodd"/><path fill="#555" fill-rule="evenodd" d="M18.004 43.957v.227a2 2 0 0 1 0-.227" clip-rule="evenodd"/><path fill="#DE3423" fill-rule="evenodd" d="M69.067 6.068c-14.833 4.286-38.366 6.705-51.044 6.705v24.21a.38.38 0 0 0 .089.227c8.652 0 35.362-2.829 51.478-7.26a61 61 0 0 0 8.247-2.74c1.97-.887 3.244-1.82 3.244-2.791V-.002c-.02 2.302-6.012 4.338-12.014 6.069m0 31.398c-8.878 2.56-20.86 4.465-31.774 5.578-7.328.75-14.174 1.14-19.27 1.14v24.193a.38.38 0 0 0 .089.227c8.652 0 35.362-2.83 51.478-7.257a61.5 61.5 0 0 0 8.247-2.74c1.97-.89 3.244-1.82 3.244-2.79v-24.42c-.02 2.297-6.012 4.334-12.014 6.069m0 31.415c-8.878 2.561-20.86 4.461-31.774 5.579-7.337.75-14.192 1.14-19.29 1.14V100c8.563 0 35.41-2.805 51.568-7.256 5.955-1.64 11.49-3.508 11.49-5.535v-24.42c0 2.32-5.992 4.338-11.994 6.092" clip-rule="evenodd"/></svg>