<svg xmlns="http://www.w3.org/2000/svg" id="Layer_1" version="1.1" viewBox="22.4 0 979.2 1024" key="nb5a00i"><defs key="4a36vgx"><style key="so272wn">.st0{fill:#01a71c}</style></defs><path d="M668.42 647.83c-39.02-1.19-72.43 27.76-76.8 66.56a2.418 2.418 0 0 0 2.41 3.02h149.08c1.33.01 2.42-1.06 2.43-2.39 0-.11 0-.21-.02-.32-3.05-39.64-37.43-69.45-77.1-66.86Z" key="agprkwx"/><path d="M987.97 147.88 671.73 502.97c-3.61 3.91-9.71 4.15-13.62.54-.19-.17-.36-.35-.54-.54L496.14 336.42a9.64 9.64 0 0 1 0-12.05L549.45 256c3.1-4.32 9.12-5.32 13.45-2.21.85.61 1.6 1.36 2.21 2.21l90.35 99.99c3.42 4.08 9.5 4.6 13.58 1.18.43-.36.82-.75 1.18-1.18L922.01 10.84c2.17-3.15 1.36-7.47-1.79-9.63A6.85 6.85 0 0 0 916.59 0H29.93c-4.16 0-7.53 3.37-7.53 7.53v1008.94c0 4.16 3.37 7.53 7.53 7.53h963.76c4.16 0 7.53-3.37 7.53-7.53V152.4a6.99 6.99 0 0 0-4.37-8.88 6.99 6.99 0 0 0-8.88 4.37Zm-692.7 763.78a243.34 243.34 0 0 1-172.88-60.24 9.34 9.34 0 0 1 0-12.35l37.65-52.71c2.57-4.47 8.28-6 12.75-3.43.07.04.13.08.2.12a185.2 185.2 0 0 0 126.49 49.39c49.39 0 73.49-22.89 73.49-46.98 0-74.69-243.35-23.49-243.35-182.51 0-70.17 60.24-128.6 160.23-128.6a237.32 237.32 0 0 1 158.12 53.01c3.48 3.62 3.48 9.34 0 12.95l-37.04 51.5c-3.09 4.13-8.94 4.98-13.07 1.89a6 6 0 0 1-.49-.39 183.16 183.16 0 0 0-115.65-39.76c-38.55 0-60.24 17.17-60.24 42.47 0 67.16 242.75 22.29 242.75 180.71 0 76.5-55.12 134.93-169.26 134.93zm530.67-146.67a8.127 8.127 0 0 1-7.82 8.43H594.64a2.71 2.71 0 0 0-2.41 2.98v.03c7.49 43.17 46.69 73.48 90.35 69.87a139.14 139.14 0 0 0 77.1-25.3c3.44-2.89 8.57-2.43 11.46 1.01.21.25.41.52.59.8l27.11 39.45a8.424 8.424 0 0 1-1.81 11.14 200.9 200.9 0 0 1-123.48 38.55c-87.69 4.89-162.74-62.23-167.63-149.92-.28-5.04-.32-10.09-.12-15.13-2.51-88.29 67.03-161.89 155.32-164.4 2.44-.07 4.88-.08 7.32-.04 93.67 0 157.21 70.17 157.21 172.88l.3 9.64Z" key="kzw8j34"/></svg>