<svg xmlns="http://www.w3.org/2000/svg" fill="none" viewBox="0 0 100 100"><path fill="#34BDB2" d="M0 0h100v100H0z"/><path fill="#fff" d="M65.805 34c-5.28-3.062-9.966-5.471-16.098-5.365-3.507.06-6.52 1.967-7.152 5.457-.59 3.246 2.296 5.047 5.299 6.153 4.979 1.833 9.314 3.77 14.206 5.808 8.894 3.706 13.455 9.71 12.916 17.411-.686 9.8-6.584 16.828-15.957 19.145-12.247 3.029-24.14-1.584-34.19-8.023 2.537-3.864 5.48-6.501 8-10.341 5.806 2.47 10.367 5.81 16.44 6.33 4.283.368 9.135.163 10.097-4.867.867-4.536-3.08-6.967-6.93-8.325-4.585-1.617-9.16-3.595-13.655-5.431-8.31-3.394-11.691-10.033-11.122-17.853 0-4.586 3.804-13.854 13.133-16.737 14.333-4.43 22.23.106 32.623 6.785-2.76 3.651-4.883 6.247-7.61 9.854"/></svg>