<svg xmlns="http://www.w3.org/2000/svg" fill="none" viewBox="0 0 100 100"><path fill="#000" fill-rule="evenodd" d="M.497 36.633 20.818 9.047a2.54 2.54 0 0 1 1.762-1.014l27.142-3.017q.278-.03.558 0L77.422 8.03a2.54 2.54 0 0 1 1.762 1.014l20.325 27.589a2.54 2.54 0 0 1-.127 3.16L51.443 95.23a1.9 1.9 0 0 1-2.878 0L.617 39.793a2.536 2.536 0 0 1-.124-3.16zM56.992 13.17l19.165 18.103a1.267 1.267 0 0 0 2.136-1.014l-.919-12.848a.634.634 0 0 1 1.243-.222l4.202 14.712a3.17 3.17 0 0 0 2.044 2.136l8.97 2.989a.634.634 0 0 1-.197 1.236h-8.62a3.17 3.17 0 0 0-2.672 1.467L58.847 76.652a.95.95 0 0 1-1.658-.923L74.03 40.994a1.902 1.902 0 0 0-1.712-2.732H27.683a1.9 1.9 0 0 0-1.712 2.732l16.842 34.735a.95.95 0 0 1-1.657.926L17.658 39.732a3.17 3.17 0 0 0-2.675-1.47H6.1a.634.634 0 0 1-.197-1.236l9.217-2.995a3.17 3.17 0 0 0 2.066-2.146l4.2-14.696a.634.634 0 0 1 1.242.222l-.92 12.848a1.268 1.268 0 0 0 2.137 1.014L43.01 13.171a.634.634 0 0 1 .928.862L31.08 29.857a1.268 1.268 0 0 0 .983 2.066h35.876a1.268 1.268 0 0 0 .983-2.066L56.064 14.033a.634.634 0 0 1 .928-.862" clip-rule="evenodd"/></svg>