<svg xmlns="http://www.w3.org/2000/svg" fill="none" viewBox="0 0 100 100"><path fill="#36C5F0" fill-rule="evenodd" d="M36.591 0c-5.517.003-9.981 4.48-9.977 9.997-.004 5.517 4.465 9.994 9.981 9.998h9.982v-9.994C46.581 4.485 42.112.008 36.591 0q.006 0 0 0m0 26.666H9.981c-5.516.004-9.985 4.481-9.98 9.998-.009 5.517 4.46 9.994 9.977 10.002H36.59c5.517-.004 9.986-4.481 9.982-9.998.004-5.52-4.465-9.998-9.982-10.002" clip-rule="evenodd"/><path fill="#2EB67D" fill-rule="evenodd" d="M99.8 36.664c.004-5.517-4.465-9.994-9.981-9.998-5.517.004-9.986 4.481-9.982 9.998v10.002h9.982c5.516-.004 9.985-4.481 9.981-10.002m-26.613 0V9.997C73.19 4.485 68.726.007 63.209 0c-5.517.004-9.986 4.482-9.982 9.998v26.667c-.008 5.517 4.461 9.994 9.978 10.002 5.517-.004 9.986-4.481 9.982-10.002" clip-rule="evenodd"/><path fill="#ECB22E" fill-rule="evenodd" d="M63.205 100c5.517-.005 9.986-4.482 9.982-9.999.004-5.516-4.465-9.993-9.982-9.998h-9.982v9.998c-.004 5.513 4.465 9.99 9.982 9.998m0-26.671h26.614c5.516-.004 9.985-4.481 9.981-9.998.008-5.517-4.46-9.994-9.977-10.002H63.209c-5.517.004-9.986 4.48-9.982 9.998-.004 5.52 4.461 9.998 9.978 10.002" clip-rule="evenodd"/><path fill="#E01E5A" fill-rule="evenodd" d="M0 63.33c-.004 5.517 4.465 9.995 9.982 9.999 5.517-.004 9.986-4.481 9.981-9.998v-9.998H9.982C4.465 53.337-.004 57.813 0 63.33m26.614 0v26.667c-.008 5.517 4.46 9.994 9.977 10.002 5.517-.004 9.986-4.48 9.982-9.998V63.34c.008-5.517-4.46-9.994-9.978-10.002-5.52 0-9.985 4.477-9.981 9.994" clip-rule="evenodd"/></svg>