<svg xmlns="http://www.w3.org/2000/svg" fill="none" viewBox="0 0 100 100"><path fill="#76B3E1" d="M100 22.716S66.667-1.813 40.88 3.848l-1.886.629c-3.774 1.257-6.919 3.144-8.805 5.66l-1.258 1.887-9.434 16.352 16.352 3.145c6.918 4.402 15.723 6.289 23.9 4.402l28.93 5.66z"/><path fill="url(#a)" d="M100 22.716S66.667-1.813 40.88 3.848l-1.886.629c-3.774 1.257-6.919 3.144-8.805 5.66l-1.258 1.887-9.434 16.352 16.352 3.145c6.918 4.402 15.723 6.289 23.9 4.402l28.93 5.66z" opacity=".3"/><path fill="#518AC8" d="m30.189 22.716-2.516.628C16.98 26.49 13.836 36.553 19.497 45.358c6.29 8.176 19.497 12.579 30.188 9.434L88.68 41.584S55.346 17.055 30.19 22.716"/><path fill="url(#b)" d="m30.189 22.716-2.516.628C16.98 26.49 13.836 36.553 19.497 45.358c6.29 8.176 19.497 12.579 30.188 9.434L88.68 41.584S55.346 17.055 30.19 22.716" opacity=".3"/><path fill="url(#c)" d="M81.761 51.018a28.3 28.3 0 0 0-30.189-9.434L12.58 54.162 0 76.175l70.44 11.95 12.58-22.643c2.516-4.403 1.887-9.434-1.258-14.466"/><path fill="url(#d)" d="M69.182 73.03a28.3 28.3 0 0 0-30.188-9.434L0 76.175s33.333 25.157 59.12 18.868l1.886-.63c10.692-3.144 14.466-13.207 8.176-21.383"/><defs><linearGradient id="a" x1="14.78" x2="93.082" y1="2.59" y2="40.64" gradientUnits="userSpaceOnUse"><stop offset=".1" stop-color="#76B3E1"/><stop offset=".3" stop-color="#DCF2FD"/><stop offset="1" stop-color="#76B3E1"/></linearGradient><linearGradient id="b" x1="57.736" x2="44.025" y1="21.206" y2="66.867" gradientUnits="userSpaceOnUse"><stop stop-color="#76B3E1"/><stop offset=".5" stop-color="#4377BB"/><stop offset="1" stop-color="#1F3B77"/></linearGradient><linearGradient id="c" x1="9.057" x2="88.239" y1="41.08" y2="94.917" gradientUnits="userSpaceOnUse"><stop stop-color="#315AA9"/><stop offset=".5" stop-color="#518AC8"/><stop offset="1" stop-color="#315AA9"/></linearGradient><linearGradient id="d" x1="44.78" x2="12.83" y1="47.558" y2="164.728" gradientUnits="userSpaceOnUse"><stop stop-color="#4377BB"/><stop offset=".5" stop-color="#1A336B"/><stop offset="1" stop-color="#1A336B"/></linearGradient></defs></svg>