<svg xmlns="http://www.w3.org/2000/svg" fill="none" viewBox="0 0 100 100"><path fill="#6CB52D" d="M91.059 5.747c-1.437 3.492-3.295 6.589-5.35 9.363C76.641 5.87 63.958 0 49.963 0 22.468 0 0 22.343 0 49.938c0 14.417 6.168 27.397 15.953 36.563l1.858 1.66A49.68 49.68 0 0 0 49.939 99.9c26.257 0 47.882-20.485 49.74-46.346 1.486-12.56-2.328-28.636-8.62-47.808M23.186 86.922c-1.437 1.858-4.112 2.056-5.97.619s-2.056-4.112-.62-5.97c1.437-1.858 4.113-2.056 5.97-.62 1.76 1.438 2.057 4.113.62 5.97m67.576-14.937C78.5 88.358 52.143 82.81 35.349 83.627c0 0-2.998.198-5.97.62 0 0 1.14-.52 2.576-1.041 11.84-4.112 17.414-4.954 24.622-8.645 13.5-6.911 26.976-22.047 29.676-37.702-5.152 15.036-20.808 28.016-35.026 33.268-9.785 3.616-27.397 7.11-27.397 7.11l-.718-.422c-11.94-5.87-12.361-31.83 9.487-40.179 9.586-3.716 18.653-1.66 29.057-4.112C72.679 29.948 85.46 21.7 90.588 10.9c5.722 17.414 12.733 44.39.174 61.086"/><path fill="#6CB52D" d="M23.186 86.922c-1.437 1.858-4.112 2.056-5.97.619s-2.056-4.112-.62-5.97c1.437-1.858 4.113-2.056 5.97-.62 1.76 1.438 2.057 4.113.62 5.97"/></svg>