<svg xmlns="http://www.w3.org/2000/svg" fill="none" viewBox="0 0 100 100"><path fill="#FF4785" d="m13.103 92.15-3.1-82.55a5.03 5.03 0 0 1 4.72-5.2l70.2-4.39a5.025 5.025 0 0 1 5.345 5.02v89.945a5.03 5.03 0 0 1-5.255 5.02l-67.11-3.015a5.03 5.03 0 0 1-4.8-4.83"/><path fill="#fff" fill-rule="evenodd" d="m79.404.355-9.66.6-.47 11.335a.75.75 0 0 0 1.2.63l4.4-3.34 3.72 2.93a.75.75 0 0 0 1.215-.615zm-7.52 37.95c-1.765 1.375-14.945 2.31-14.945.355.28-7.465-3.06-7.79-4.92-7.79-1.76 0-4.73.53-4.73 4.53 0 4.075 4.34 6.375 9.435 9.075 7.235 3.835 16 8.48 16 20.16 0 11.2-9.1 17.38-20.7 17.38-11.975 0-22.44-4.845-21.26-21.64.465-1.97 15.69-1.5 15.69 0-.19 6.93 1.39 8.97 5.38 8.97 3.065 0 4.455-1.69 4.455-4.53 0-4.305-4.52-6.845-9.725-9.765-7.045-3.955-15.335-8.61-15.335-19.295 0-10.66 7.33-17.77 20.42-17.77s20.235 7 20.235 20.32" clip-rule="evenodd"/></svg>