<svg xmlns="http://www.w3.org/2000/svg" fill="none" viewBox="0 0 100 100"><path fill="#fff" fill-rule="evenodd" d="M20.121 12.12h60.606v60.607H20.121z" clip-rule="evenodd"/><path fill="#0AB3AF" d="M57.327 46.1h-19.59v9.218h19.12c1.13 0 2.167-.46 3.016-1.197.751-.74 1.224-1.846 1.224-3.227a5.45 5.45 0 0 0-1.036-3.319c-.755-.924-1.603-1.475-2.734-1.475m.66-11.158c.85-.551 1.225-1.751 1.225-3.318 0-1.382-.376-2.397-1.036-3.043a3.8 3.8 0 0 0-2.449-.92H37.733v8.296h17.619c.939 0 1.881-.46 2.636-1.015"/><path fill="#0AB3AF" d="M89.142 0H12.4C9.955 0 8 1.948 8 4.288v76.606c0 2.342 1.955 3.803 4.303 3.803h11.34V100L37.72 84.794h51.425c2.345 0 3.812-1.461 3.812-3.897V4.384c0-2.339-1.467-4.287-3.91-4.287L89.14 0zm-12.9 62.085a11.8 11.8 0 0 1-4.203 4.29c-1.857 1.167-3.909 2.243-6.257 2.728-2.346.585-4.888 1.072-7.527 1.072H23.642V15.594h39.304c1.954 0 3.615.39 5.181 1.266 1.464.782 2.834 1.852 3.91 3.122a14.6 14.6 0 0 1 3.324 9.454c0 2.533-.685 4.97-1.958 7.31a12.2 12.2 0 0 1-5.864 5.263c3.128.876 5.573 2.436 7.428 4.676 1.76 2.339 2.642 5.363 2.642 9.163 0 2.437-.49 4.485-1.467 6.236h.1"/></svg>