<svg xmlns="http://www.w3.org/2000/svg" fill="none" viewBox="0 0 100 100"><path fill="#E76057" d="M2.941 0A2.94 2.94 0 0 0 0 2.94v23.987c0 1.464 0 2.195.288 2.585a1.44 1.44 0 0 0 1.059.591c.483.041 1.123-.354 2.404-1.144C17.199 20.666 33.04 15.882 50 15.882s32.801 4.784 46.25 13.077c1.28.79 1.92 1.185 2.403 1.144.432-.037.8-.243 1.059-.59.288-.39.288-1.122.288-2.586V2.94A2.94 2.94 0 0 0 97.059 0zm7.647 100c.824 0 1.236 0 1.55-.161a1.47 1.47 0 0 0 .643-.643c.16-.314.16-.726.16-1.55V43.994c0-1.323 0-1.985-.295-2.378a1.5 1.5 0 0 0-1.079-.583c-.49-.032-1.027.319-2.099 1.02A74.4 74.4 0 0 0 .77 48.71c-.278.246-.416.37-.52.526a1.5 1.5 0 0 0-.203.45C0 49.867 0 50.06 0 50.441v46.617a2.94 2.94 0 0 0 2.941 2.941zm21.765 0c.823 0 1.235 0 1.55-.161a1.47 1.47 0 0 0 .642-.643c.16-.314.16-.726.16-1.55v-63.17c0-.987 0-1.48-.213-1.832a1.5 1.5 0 0 0-.824-.643c-.393-.121-.857-.005-1.786.229a74 74 0 0 0-8.655 2.753c-.516.2-.773.3-.973.478a1.5 1.5 0 0 0-.395.577c-.095.25-.095.535-.095 1.104v60.504c0 .824 0 1.236.16 1.55.142.277.367.502.643.643.315.16.727.16 1.55.16z"/><path fill="#E76057" d="M54.118 100c.823 0 1.235 0 1.55-.161a1.47 1.47 0 0 0 .642-.643c.16-.314.16-.726.16-1.55v-65.21c0-.76 0-1.14-.148-1.446a1.5 1.5 0 0 0-.602-.637c-.297-.167-.665-.188-1.402-.23a75 75 0 0 0-8.636 0c-.737.042-1.105.063-1.402.23a1.5 1.5 0 0 0-.602.637c-.149.305-.149.686-.149 1.446v65.21c0 .824 0 1.236.16 1.55.142.277.367.502.643.643.315.16.727.16 1.55.16zm21.764 0c.823 0 1.235 0 1.55-.161a1.47 1.47 0 0 0 .642-.643c.16-.314.16-.726.16-1.55V37.142c0-.569 0-.853-.094-1.104a1.5 1.5 0 0 0-.395-.577c-.2-.179-.457-.279-.973-.478a74 74 0 0 0-8.655-2.753c-.929-.234-1.393-.35-1.786-.23a1.5 1.5 0 0 0-.824.644c-.213.351-.213.845-.213 1.833v63.17c0 .823 0 1.235.16 1.55.14.276.366.501.643.642.314.16.726.16 1.55.16zM100 50.44c0-.381 0-.573-.047-.754a1.5 1.5 0 0 0-.202-.45c-.105-.156-.243-.28-.521-.526a74.4 74.4 0 0 0-8.698-6.657c-1.072-.701-1.608-1.052-2.099-1.02-.416.027-.828.25-1.079.583-.295.393-.295 1.055-.295 2.378v53.652c0 .824 0 1.236.16 1.55.141.277.366.502.643.643.314.16.726.16 1.55.16h7.647A2.94 2.94 0 0 0 100 97.058z"/></svg>