<svg xmlns="http://www.w3.org/2000/svg" fill="none" viewBox="0 0 100 100"><path fill="#006CFF" fill-rule="evenodd" d="m65.21 41.643 31.9-2.147c2.147 0 3.681 2.147 2.454 3.681L77.172 73.851c-.614.306-1.227.92-2.147.92H24.72a2.45 2.45 0 0 1-1.84-1.227L.486 43.177c-1.227-1.534 0-3.988 2.148-3.68l31.9 2.146L48.032 26.92c.92-1.227 3.067-1.227 3.68 0L65.21 41.337zm6.747 28.22L51.1 62.195v7.668zm-23.312 0v-7.668l-20.858 7.668h21.165zm-2.454-9.202-21.165 7.668L9.69 46.858l36.808 13.496zm7.362 0 21.472 7.668 15.337-21.471-36.809 13.496zm-4.908-1.84V33.36L31.468 52.38l17.177 6.135zm2.454 0V33.36l17.484 19.02L51.1 58.514zm-24.846-8.282 3.988-4.295-19.631-1.227zm47.238 0-3.988-4.295 19.325-1.227z" clip-rule="evenodd"/></svg>