<svg xmlns="http://www.w3.org/2000/svg" fill="none" viewBox="0 0 100 100"><path fill="#000" fill-rule="evenodd" d="M50.68 97.795c10.94-39.363 10.623-39.539 18.527-67.599l1.9 1.105c1.034.598 1.878.105 1.878-1.09V16.832c2.096-7.395 3.743-13.107 4.22-14.827h8.566L100 15.274 90.657 23.4l7.07 7.69-46.58 66.705c-.228.376-.545.291-.475 0z" clip-rule="evenodd"/><path fill="#000" fill-rule="evenodd" d="M55.77 12.964c.422 0 .763.232.763.528v6.86c0 .28-.317.52-.739.52H44.292c-.423 0-.774-.236-.774-.528v-6.859c0-.288.351-.52.774-.52h11.502zm14.197-7.598L57.31 12.718c.148.229.236.493.236.774v6.86c0 .351-.14.668-.387.932l12.77 7.422c.843.51 1.582.095 1.582-.915v-21.5c0-1.013-.739-1.428-1.583-.921zM42.484 20.351v-6.859c0-.281.087-.545.232-.774L30.059 5.366c-.869-.503-1.583-.088-1.583.922V27.78c0 1.02.71 1.407 1.583.914l12.787-7.422c-.229-.281-.366-.598-.366-.95z" clip-rule="evenodd"/><path fill="#000" fill-rule="evenodd" d="M48.846 97.795h.472c-10.94-39.363-10.624-39.539-18.524-67.599l-1.9 1.105c-1.034.598-1.882.105-1.882-1.09V16.832c-2.107-7.398-3.76-13.11-4.253-14.834h-8.548L.001 15.27l9.339 8.126-7.07 7.69L48.842 97.78z" clip-rule="evenodd"/><path fill="#000" d="M49.651 35.188c1.908 0 3.454-1.556 3.454-3.476s-1.546-3.475-3.454-3.475-3.454 1.556-3.454 3.475 1.546 3.476 3.454 3.476m0 20.672c1.908 0 3.454-1.555 3.454-3.475s-1.546-3.475-3.454-3.475-3.454 1.556-3.454 3.475 1.546 3.476 3.454 3.476m0 20.673c1.908 0 3.454-1.556 3.454-3.476s-1.546-3.475-3.454-3.475-3.454 1.556-3.454 3.475 1.546 3.476 3.454 3.476"/></svg>