<svg xmlns="http://www.w3.org/2000/svg" fill="none" viewBox="0 0 100 100"><path fill="#FF3E00" d="M85.95 13.231c-9.29-13.29-27.64-17.23-40.907-8.78l-23.3 14.845a26.7 26.7 0 0 0-7.922 7.66 27 27 0 0 0-2.61 4.885 26.8 26.8 0 0 0-1.546 5.32 28.1 28.1 0 0 0-.123 9.27 28 28 0 0 0 2.893 8.808 27 27 0 0 0-2.505 4.79 26.6 26.6 0 0 0-1.488 5.196 28.44 28.44 0 0 0 2.05 16.634 28.4 28.4 0 0 0 2.819 4.91C22.6 100.06 40.95 104 54.218 95.55l23.298-14.782a26.8 26.8 0 0 0 12.078-17.865 28.13 28.13 0 0 0-2.777-18.07c.496-.752.955-1.532 1.374-2.331a27 27 0 0 0 2.011-5.02 27 27 0 0 0 .618-2.634 28.6 28.6 0 0 0-.262-11.263 28.5 28.5 0 0 0-4.607-10.28"/><path fill="#fff" d="M42.766 88.055a18.51 18.51 0 0 1-16.005-3.292 18.5 18.5 0 0 1-3.864-4.076 17.1 17.1 0 0 1-3.185-9.56 17 17 0 0 1 .372-3.937q.058-.273.129-.54a15 15 0 0 1 .316-1.067l.438-1.34 1.197.892a30 30 0 0 0 4.352 2.644q1.141.57 2.327 1.038 1.185.47 2.407.838l.893.26-.08.892a5.24 5.24 0 0 0 .509 2.656q.198.412.464.783a5.6 5.6 0 0 0 2.645 2.048 5.57 5.57 0 0 0 3.714.052q.187-.064.364-.144a5 5 0 0 0 .691-.366L63.714 60.99a4.8 4.8 0 0 0 1.439-1.393 4.8 4.8 0 0 0 .75-1.856q.089-.51.076-1.025a5.1 5.1 0 0 0-.456-1.992 5 5 0 0 0-.514-.888 5.6 5.6 0 0 0-2.644-2.046 5.6 5.6 0 0 0-3.342-.169 5 5 0 0 0-1.09.43q-.173.09-.338.196L48.66 57.92q-.547.346-1.118.651-.573.303-1.165.564a17 17 0 0 1-1.206.474q-.611.215-1.236.383a18.5 18.5 0 0 1-11.072-.568 18.5 18.5 0 0 1-8.762-6.792 17 17 0 0 1-1.687-2.954 17.07 17.07 0 0 1-1.216-9.997 16.07 16.07 0 0 1 7.263-10.773l23.335-14.844q.544-.346 1.112-.651.57-.304 1.159-.565t1.198-.474q.607-.215 1.23-.384a18.5 18.5 0 0 1 5.587-.57 18.53 18.53 0 0 1 10.41 3.862 18.6 18.6 0 0 1 3.863 4.078 17.1 17.1 0 0 1 2.775 6.18c.25 1.11.39 2.241.415 3.378a17 17 0 0 1-.26 3.393q-.052.276-.114.55-.06.272-.13.544-.068.273-.147.54-.076.271-.163.536l-.446 1.34-1.189-.892a30 30 0 0 0-4.363-2.666 30.5 30.5 0 0 0-4.749-1.89l-.894-.258.082-.893a5.25 5.25 0 0 0-.949-3.467 5.5 5.5 0 0 0-1.166-1.202 5.55 5.55 0 0 0-5.156-.836 6 6 0 0 0-.366.143q-.179.079-.352.17a5 5 0 0 0-.34.197l-23.306 14.82q-.428.269-.79.62-.361.353-.646.77a4.9 4.9 0 0 0-.753 1.851 5.3 5.3 0 0 0-.075 1.027c.02.688.175 1.366.456 1.994q.213.47.513.892c.322.46.712.871 1.158 1.215s.94.621 1.467.818a5.6 5.6 0 0 0 3.315.182 6 6 0 0 0 .374-.117q.184-.066.364-.144t.352-.17a5 5 0 0 0 .339-.195l8.934-5.662q.547-.352 1.12-.658a16.4 16.4 0 0 1 3.615-1.424 18.5 18.5 0 0 1 5.587-.574 18.47 18.47 0 0 1 10.41 3.86 18.5 18.5 0 0 1 3.863 4.074 17.2 17.2 0 0 1 2.773 6.181 17.1 17.1 0 0 1 .157 6.77 16.1 16.1 0 0 1-4.637 8.712 16 16 0 0 1-2.626 2.061L47.499 85.973q-.549.35-1.12.655t-1.168.566q-.594.263-1.207.477-.611.216-1.238.384"/></svg>