<svg xmlns="http://www.w3.org/2000/svg" fill="none" viewBox="0 0 101 101"><path fill="#85EA2D" d="M50.617 98.231C24.36 98.231 3 76.872 3 50.616 3 24.358 24.361 3 50.617 3s47.617 21.36 47.617 47.616-21.362 47.615-47.617 47.615"/><path fill="#173647" d="M50 5.766c24.982 0 45.233 20.25 45.233 45.233 0 24.981-20.251 45.233-45.234 45.233C25.02 96.232 4.767 75.98 4.767 51S25.018 5.766 50 5.766M50 1C22.43 1 0 23.43 0 51c0 27.569 22.43 49.999 50 49.999s50-22.43 50-50S77.57 1 50 1"/><path fill="#173647" d="M31.92 34.388c-.155 1.711.056 3.48-.058 5.21a42 42 0 0 1-.692 5.154c-.48 2.441-2 4.287-4.095 5.825 4.077 2.654 4.538 6.768 4.807 10.94.134 2.25.076 4.519.307 6.749.173 1.73.846 2.172 2.635 2.23.73.018 1.479 0 2.327 0v5.344c-5.288.904-9.652-.595-10.73-5.075a31 31 0 0 1-.653-4.999c-.116-1.788.076-3.576-.058-5.364-.385-4.903-1.02-6.556-5.71-6.787V47.52a9 9 0 0 1 1.018-.173c2.577-.135 3.672-.923 4.23-3.461.27-1.422.424-2.864.48-4.326.194-2.787.117-5.632.596-8.401.673-3.98 3.135-5.903 7.23-6.134 1.154-.058 2.327 0 3.654 0v5.461c-.558.04-1.039.115-1.539.115-3.326-.116-3.5 1.019-3.75 3.787m6.402 12.651h-.077a3.517 3.517 0 0 0-3.673 3.326c-.096 1.942 1.403 3.596 3.326 3.691h.231c1.904.116 3.537-1.346 3.653-3.249v-.192c.039-1.942-1.518-3.537-3.46-3.576m12.055 0c-1.865-.058-3.423 1.404-3.48 3.25 0 .115 0 .211.02.326 0 2.096 1.422 3.442 3.576 3.442 2.115 0 3.442-1.384 3.442-3.557-.02-2.096-1.424-3.48-3.558-3.46m12.344 0a3.59 3.59 0 0 0-3.652 3.48 3.53 3.53 0 0 0 3.537 3.537h.038c1.77.308 3.558-1.403 3.673-3.46.096-1.904-1.635-3.557-3.595-3.557m16.94.288c-2.232-.096-3.347-.845-3.904-2.961a21.4 21.4 0 0 1-.634-4.134c-.154-2.577-.135-5.172-.308-7.749-.404-6.113-4.825-8.247-11.248-7.19V30.6c1.018 0 1.807 0 2.596.02 1.365.018 2.403.538 2.537 2.057.135 1.384.135 2.788.27 4.192.27 2.788.423 5.614.904 8.363.423 2.269 1.98 3.961 3.921 5.345-3.402 2.288-4.402 5.556-4.575 9.23-.096 2.518-.154 5.056-.288 7.594-.116 2.307-.922 3.056-3.25 3.114-.653.02-1.287.077-2.018.116v5.441c1.365 0 2.614.077 3.864 0 3.884-.23 6.23-2.114 6.999-5.883.327-2.077.519-4.172.577-6.268.134-1.923.116-3.865.308-5.768.287-2.98 1.653-4.21 4.633-4.402.289-.04.558-.096.828-.192v-6.096c-.501-.058-.848-.115-1.213-.135"/></svg>