<svg xmlns="http://www.w3.org/2000/svg" fill="none" viewBox="0 0 100 100"><path fill="url(#a)" d="M22.218 0h55.369c2.694 0 5.31.43 7.848 1.329a22.06 22.06 0 0 1 9.489 6.718 21.9 21.9 0 0 1 4.803 10.703c.234 1.446.273 2.891.273 4.336V77.11c0 1.719-.078 3.476-.43 5.156a22.1 22.1 0 0 1-5.27 10.43c-2.617 2.93-6.053 5.117-9.763 6.289-2.264.703-4.607 1.015-6.99 1.015-1.053 0-55.485 0-56.305-.039a22.3 22.3 0 0 1-11.246-3.71 22.6 22.6 0 0 1-7.614-8.75C.898 84.493.156 81.133.156 77.774V22.227a20.74 20.74 0 0 1 2.07-9.57C3.905 9.14 6.52 6.055 9.762 3.867 13.08 1.603 16.986.275 20.968.08c.39-.079.82-.079 1.25-.079"/><path fill="url(#b)" d="M84.342 81.797a15 15 0 0 0-1.171-1.601 16.6 16.6 0 0 0-3.359-3.047c-1.561-1.055-3.397-1.719-5.27-1.797-1.329-.078-2.656.156-3.906.625-1.25.43-2.46 1.055-3.631 1.68-1.367.703-2.733 1.406-4.178 1.992a31.4 31.4 0 0 1-5.35 1.64c-2.303.43-4.646.587-6.95.547a47 47 0 0 1-12.339-1.875 46.7 46.7 0 0 1-10.035-4.335 52 52 0 0 1-7.77-5.508 57 57 0 0 1-5.545-5.508 60 60 0 0 1-3.358-4.297c-.43-.586-.82-1.211-1.171-1.836L0 47.344V22.15C0 9.922 9.879 0 22.1 0h19.72l14.603 14.844C89.38 37.266 78.72 61.993 78.72 61.993s9.372 10.547 5.623 19.804"/><path fill="#fff" d="M56.501 14.844c32.956 22.422 22.296 47.149 22.296 47.149s9.371 10.586 5.584 19.843c0 0-3.866-6.484-10.348-6.484-6.247 0-9.918 6.484-22.49 6.484-27.997 0-41.234-23.398-41.234-23.398 25.224 16.602 42.444 4.844 42.444 4.844C41.39 56.68 17.22 25.118 17.22 25.118c21.046 17.93 30.144 22.656 30.144 22.656-5.427-4.492-20.656-26.445-20.656-26.445C38.891 33.672 63.1 50.899 63.1 50.899c6.872-19.063-6.599-36.055-6.599-36.055"/><defs><linearGradient id="a" x1="59.465" x2="40.565" y1="-3.568" y2="103.578" gradientUnits="userSpaceOnUse"><stop stop-color="#FAAE42"/><stop offset="1" stop-color="#EF3E31"/></linearGradient><linearGradient id="b" x1="51" x2="37.167" y1="1.616" y2="80.035" gradientUnits="userSpaceOnUse"><stop stop-color="#E39F3A"/><stop offset="1" stop-color="#D33929"/></linearGradient></defs></svg>