<svg xmlns="http://www.w3.org/2000/svg" fill="none" viewBox="0 0 100 100"><path fill="#06B6D4" d="M50 20q-20 .001-25 19.994 7.5-9.996 17.5-7.498c3.804.95 6.522 3.71 9.532 6.764 4.902 4.974 10.576 10.732 22.969 10.732q20 0 24.999-19.995-7.5 9.997-17.5 7.499c-3.803-.95-6.521-3.71-9.531-6.764C68.067 25.758 62.392 20.001 50 20.001M25 49.993q-20 0-25 19.995 7.5-9.998 17.5-7.498c3.803.952 6.522 3.71 9.532 6.762C31.933 74.226 37.608 79.984 50 79.984q20 0 25-19.995-7.5 9.998-17.5 7.498c-3.803-.95-6.522-3.71-9.532-6.763C43.066 55.75 37.393 49.992 25 49.992"/></svg>