<svg xmlns="http://www.w3.org/2000/svg" fill="none" viewBox="0 0 100 100"><g clip-path="url(#a)"><path fill="url(#b)" fill-rule="evenodd" d="M8.443 52.988h3.975l2.447-14.475h-3.976zm4.79-16.31c1.224 0 2.345-.917 2.447-2.038.102-1.122-.713-2.04-1.937-2.04-1.223 0-2.242.918-2.446 2.04-.102 1.12.815 2.038 1.937 2.038m-3.261 1.835H7.219l.612-3.466H3.754l-.51 3.466H1.307l-.51 3.058h1.937l-1.223 7.544c-.51 2.752 1.121 4.179 4.077 4.077 1.02 0 1.835-.204 2.243-.408l-.102-2.956h-.102l-.917.102c-.816 0-1.325-.306-1.122-1.427l1.122-6.932h2.752zm12.64 3.16c-1.631 0-2.956 1.121-3.262 2.956l-1.427 8.36h-3.976l2.447-14.476h3.771l-.407 2.549h.204c.917-1.631 2.65-2.753 4.79-2.753 2.957 0 4.69 2.141 4.078 5.505l-1.53 9.174h-3.975l1.428-8.46c.203-1.835-.51-2.855-2.141-2.855m13.15 12.844c-.51 1.122-1.224 2.039-2.039 2.65h39.551l3.058-18.654h3.976L79.9 40.96h.204c.714-1.224 2.14-2.65 4.587-2.65 3.16 0 5.403 2.548 4.587 7.44-.815 4.894-3.771 7.442-7.135 7.442-2.345 0-3.262-1.325-3.67-2.548h-.102l-1.121 6.524h16.718l-4.384-4.384 2.549-2.548 8.46 8.46-.101.205.101.101-8.46 8.461-2.549-2.548 4.18-4.18H.899v-3.567h26.81l1.019-2.243c1.325.51 2.243.408 3.058-.917l.408-.612-2.752-14.883h4.077l1.223 10.704h.102l4.791-10.704h4.486zm14.883-12.844c-1.632 0-2.957 1.121-3.263 2.956l-1.325 8.36H41.98l3.262-19.267h3.873l-1.223 7.34h.204c.918-1.733 2.549-2.753 4.791-2.753 2.956 0 4.587 2.039 4.078 5.505l-1.53 9.174h-4.077l1.427-8.46c.306-1.835-.51-2.855-2.14-2.855m16.106-3.16h-2.549l.51-3.466h-3.976l-.611 3.466h-1.937l-.51 3.058h2.039l-1.325 7.544c-.51 2.752 1.223 4.179 4.18 4.077 1.018 0 1.834-.204 2.242-.408l-.102-2.956h-.102l-.918.102c-.815 0-1.325-.306-1.223-1.427l1.223-6.932h4.587l-1.223 7.544c-.51 2.752 1.122 4.179 4.078 4.077 1.02 0 1.835-.204 2.242-.408l-.102-2.956h-.102l-.917.102c-.815 0-1.325-.306-1.121-1.427l1.121-6.932h2.752l.51-3.058h-2.752l.611-3.466H69.3l-.51 3.466zm12.334 7.238c.408-2.549 1.835-4.18 3.772-4.18s2.752 1.733 2.344 4.18c-.51 2.548-1.835 4.281-3.772 4.281s-2.752-1.733-2.344-4.281" clip-rule="evenodd"/></g><defs><linearGradient id="b" x1="50.685" x2="50.685" y1="32.591" y2="67.484" gradientUnits="userSpaceOnUse"><stop stop-color="#C75975"/><stop offset="1" stop-color="#9A84CD"/></linearGradient><clipPath id="a"><path fill="#fff" d="M.695 32.499h100v35.066h-100z"/></clipPath></defs></svg>