<svg xmlns="http://www.w3.org/2000/svg" fill="none" viewBox="0 0 100 100"><path fill="#398CCB" d="M70.703 0H29.297C13.117 0 0 13.116 0 29.297v41.406C0 86.883 13.117 100 29.297 100h41.406C86.883 100 100 86.883 100 70.703V29.297C100 13.117 86.884 0 70.703 0"/><path fill="#fff" fill-rule="evenodd" d="m49.892 14.648 13.882 8.01v4.403l16.802 9.704v16.599l4.508 2.602v16.027l-13.873 8.01-6.16-3.562-14.974 8.646-14.886-8.596-6.073 3.512-13.873-8.023V55.966l4.331-2.5V36.764l16.443-9.492h.009v-4.616zm13.882 16.578v7.45L49.9 46.686l-13.873-8.01v-7.244h-.01l-12.836 7.415v12.536l5.936-3.427 13.873 8.01V71.98l-4.197 2.427 11.283 6.515 11.372-6.565-4.111-2.377V55.966l13.873-8.01 5.76 3.326V38.847zm-2.83 38.69v-9.777l8.464 4.886v9.776zm20.534-9.79-8.464 4.886v9.79l8.464-4.9zm-62.627 9.776v-9.776l8.464 4.886v9.776zm20.535-9.776-8.465 4.886v9.776l8.465-4.886zm23.36-3.11 8.465-4.886 8.464 4.886-8.464 4.89zm-33.628-4.9-8.464 4.9 8.464 4.877 8.465-4.877zm10.515-15.522v-9.776l8.456 4.89v9.772zm20.526-9.776-8.455 4.89v9.767l8.455-4.881zm-18.723-3.12 8.456-4.885 8.464 4.886-8.464 4.885z" clip-rule="evenodd"/></svg>