<svg xmlns="http://www.w3.org/2000/svg" fill="none" viewBox="0 0 100 100"><path fill="#017ACB" d="M0 0h100v100H0z"/><path fill="#fff" d="M48.016 37.032h4.797v8.281h-12.97v36.844l-.343.094c-.469.124-6.64.124-7.969-.016l-1.062-.094V45.313H17.5v-8.281l4.11-.047c2.25-.031 8.03-.031 12.843 0s10.906.047 13.563.047m36.61 41.219c-1.907 2.015-3.954 3.14-7.36 4.062-1.485.406-1.735.422-5.078.406s-3.61-.015-5.235-.437c-4.203-1.078-7.594-3.188-9.906-6.172-.656-.844-1.734-2.594-1.734-2.813 0-.062.156-.203.359-.296.203-.094.625-.36.969-.563s.968-.578 1.39-.797 1.64-.937 2.703-1.578c1.063-.64 2.032-1.156 2.141-1.156.11 0 .313.219.469.484.937 1.578 3.125 3.594 4.672 4.281.953.407 3.062.86 4.078.86.937 0 2.656-.406 3.578-.828.984-.453 1.484-.907 2.078-1.813.406-.64.453-.812.438-2.031 0-1.125-.063-1.438-.375-1.953-.875-1.438-2.063-2.188-6.875-4.313-4.97-2.203-7.204-3.515-9.016-5.281-1.344-1.312-1.61-1.672-2.453-3.312-1.094-2.11-1.235-2.797-1.25-5.938-.016-2.203.031-2.922.265-3.672.329-1.125 1.391-3.297 1.875-3.844 1-1.171 1.36-1.53 2.063-2.109 2.125-1.75 5.438-2.906 8.61-3.016.359 0 1.546.063 2.656.141 3.187.266 5.359 1.047 7.453 2.719 1.578 1.25 3.968 4.187 3.734 4.578-.156.234-6.39 4.39-6.797 4.516-.25.078-.422-.016-.765-.422-2.125-2.547-2.985-3.094-5.047-3.22-1.469-.093-2.25.079-3.235.735-1.03.688-1.53 1.735-1.53 3.188.015 2.125.827 3.125 3.827 4.61 1.938.952 3.594 1.733 3.719 1.733.188 0 4.203 2 5.25 2.626 4.875 2.859 6.86 5.796 7.375 10.859.375 3.812-.703 7.297-3.047 9.766"/></svg>