<svg xmlns="http://www.w3.org/2000/svg" fill="none" viewBox="0 0 100 100"><path fill="#FF6309" d="M11.728 59.736c5.373 0 9.728-4.355 9.728-9.728s-4.355-9.728-9.728-9.728S2 44.635 2 50.008s4.355 9.728 9.728 9.728"/><path fill="#FFB515" d="M81.485 100c5.373 0 9.728-4.355 9.728-9.728s-4.355-9.73-9.728-9.73-9.73 4.357-9.73 9.73S76.113 100 81.486 100"/><path fill="#C90016" d="M81.476 19.457c5.373 0 9.728-4.356 9.728-9.728C91.204 4.356 86.85 0 81.476 0s-9.728 4.356-9.728 9.729 4.356 9.728 9.728 9.728"/><path fill="#FF6309" d="M58.23 25.936c12.115 0 22.165 8.995 23.83 20.656h16.666c-.758-9.163-4.556-17.704-10.908-24.439-4.068 2.071-9.07 2.111-13.319-.341-4.252-2.456-6.719-6.81-6.956-11.374A41 41 0 0 0 58.23 9.37c-6.082 0-11.959 1.327-17.304 3.845l8.346 14.452a23.9 23.9 0 0 1 8.959-1.731"/><path fill="#FFB515" d="M34.16 50.008c0-7.67 3.605-14.51 9.208-18.922l-8.343-14.45a41 41 0 0 0-5.532 4.636c-4.828 4.828-8.29 10.658-10.195 17.02 3.839 2.486 6.38 6.802 6.38 11.716s-2.541 9.23-6.38 11.715c1.905 6.362 5.367 12.191 10.195 17.02a41.3 41.3 0 0 0 5.528 4.636l8.344-14.453c-5.602-4.41-9.205-11.251-9.205-18.918"/><path fill="#C90016" d="M82.06 53.414C80.4 65.078 70.348 74.078 58.231 74.078c-3.166 0-6.192-.616-8.962-1.733L40.924 86.8c5.343 2.519 11.224 3.847 17.307 3.847 3.177 0 6.3-.367 9.32-1.07.233-4.57 2.7-8.931 6.955-11.388 4.25-2.454 9.254-2.416 13.322-.34 6.346-6.736 10.141-15.275 10.896-24.434z"/></svg>