<svg xmlns="http://www.w3.org/2000/svg" fill="none" viewBox="0 0 100 100"><path fill="#000" d="M99.936 0H0v99.935h99.936z"/><path fill="#fff" d="M99.936 0H0v99.935h99.936z"/><path fill="#ECDC5A" d="M99.668 100.005H.077q-.006-.014-.008-.027V.073H100v99.932zM82.485 65.378c-.16-.183-.31-.373-.48-.545-1.876-1.908-4.24-2.306-6.755-2.079-2.182.198-4.05 1.158-5.666 2.623-.088.08-.183.15-.309.252 0-.204.009-.353 0-.5-.048-.726-.389-1.276-1.033-1.606-.632-.324-1.279-.293-1.875.088-.663.424-.889 1.075-.888 1.84.005 5.732.002 11.463.002 17.195 0 .357-.007.715.002 1.072.022.92.51 1.65 1.25 1.883 1.3.409 2.54-.492 2.542-1.863q.007-5.899 0-11.798c0-1.108.28-2.123.986-2.988 1.646-2.014 3.778-2.865 6.356-2.572 1.256.144 2.27.726 2.967 1.803.653 1.01.876 2.15.885 3.324.025 3.24.016 6.48.019 9.721.001.888-.014 1.777.004 2.664.027 1.389 1.52 2.248 2.741 1.589.778-.42 1.054-1.106 1.053-1.953-.005-3.68.006-7.358-.008-11.037a23 23 0 0 0-.135-2.62c-.188-1.607-.634-3.134-1.658-4.493m-23.923-2.055c-.228.017-.466-.002-.683.055-.905.241-1.404.96-1.405 2.006-.002 3.748.006 7.497-.007 11.245-.002.62-.035 1.249-.144 1.857-.289 1.606-1.15 2.808-2.694 3.418-1.506.593-3.055.614-4.614.191-1.182-.32-2.088-1-2.68-2.077a5.3 5.3 0 0 1-.646-2.486c-.031-1.764-.02-3.528-.023-5.293-.002-2.284.003-4.567-.002-6.85-.003-1.125-.75-2.009-1.727-2.066-1.21-.07-2.064.754-2.065 2.016-.004 3.852-.01 7.704.002 11.556.005 1.377.153 2.736.677 4.032.995 2.46 2.85 3.944 5.341 4.666 1.567.455 3.182.483 4.8.292 1.25-.147 2.444-.488 3.533-1.12 2.57-1.494 3.878-3.817 3.96-6.717.122-4.252.073-8.51.077-12.765.002-1.068-.626-1.777-1.7-1.96"/><path fill="#111827" d="M82.498 65.398c1.011 1.339 1.457 2.866 1.646 4.474.101.866.13 1.745.134 2.62.014 3.678.003 7.357.008 11.036 0 .847-.275 1.533-1.053 1.953-1.222.659-2.714-.2-2.741-1.589-.018-.888-.003-1.776-.004-2.664-.003-3.24.006-6.481-.019-9.721-.008-1.174-.232-2.314-.885-3.325-.696-1.076-1.711-1.659-2.967-1.802-2.578-.293-4.71.557-6.356 2.572-.706.865-.987 1.88-.986 2.988q.007 5.899 0 11.798c-.002 1.37-1.241 2.272-2.541 1.863-.741-.234-1.229-.963-1.251-1.883-.009-.357-.001-.715-.001-1.072 0-5.732.002-11.464-.003-17.195 0-.765.226-1.416.888-1.84.597-.38 1.243-.411 1.875-.088.645.33.985.88 1.032 1.605.01.148.001.297.001.501.126-.102.221-.173.309-.252 1.615-1.465 3.484-2.425 5.666-2.623 2.516-.227 4.879.17 6.755 2.079.17.172.32.362.493.565m-23.905-2.073c1.043.181 1.67.89 1.67 1.958-.005 4.255.044 8.513-.077 12.765-.083 2.9-1.39 5.223-3.961 6.717-1.089.632-2.284.973-3.533 1.12-1.618.19-3.233.163-4.8-.292-2.49-.722-4.346-2.207-5.34-4.666-.525-1.296-.673-2.655-.678-4.032-.011-3.852-.006-7.704-.002-11.556.001-1.262.855-2.087 2.065-2.016.977.057 1.724.94 1.727 2.065.005 2.284 0 4.567.002 6.851.002 1.764-.008 3.53.023 5.293.015.871.222 1.714.646 2.486.592 1.078 1.498 1.756 2.68 2.077 1.559.423 3.108.403 4.614-.191 1.544-.61 2.405-1.812 2.694-3.418.11-.608.142-1.237.144-1.857.013-3.748.005-7.497.007-11.245 0-1.045.5-1.765 1.405-2.005.217-.058.455-.04.714-.054"/></svg>