<svg xmlns="http://www.w3.org/2000/svg" xml:space="preserve" viewBox="4.1 3.7 49.6 49.6"><path fill="#14a800" d="M38.8 24.6c-2.8 0-3.7 2.7-3.9 4.3v.1l-.4 1.5c1.2 1 2.7 1.7 4.2 1.7 2 0 3.8-1.7 3.9-3.9 0-2-1.7-3.7-3.8-3.7"/><path fill="#14a800" d="M28.9 3.7C15.2 3.7 4.1 14.8 4.1 28.5s11.1 24.8 24.8 24.8 24.8-11.1 24.8-24.8S42.6 3.7 28.9 3.7m9.9 32.4c-2 0-3.7-.6-5.2-1.5l-1.7 8H28l2.4-11c-1-1.4-2-3-2.7-4.5v1.7c0 4.1-3.3 7.4-7.3 7.4s-7.3-3.3-7.3-7.4v-10h3.8v10c0 2 1.6 3.6 3.6 3.6s3.6-1.6 3.6-3.6v-10h3.8c.8 2.5 2.1 5.5 3.8 8.2 1-3.8 3.8-6.1 7.3-6.1 4.1 0 7.5 3.4 7.5 7.5-.2 4.3-3.6 7.7-7.7 7.7"/></svg>