<svg xmlns="http://www.w3.org/2000/svg" xml:space="preserve" viewBox="4.3 14.6 49.2 35.3"><path fill="#14a800" d="M42.4 17.7c-5.3 0-9.3 3.5-10.9 9-2.5-3.9-4.5-8.3-5.6-12.1h-5.6v14.7c0 2.9-2.4 5.3-5.3 5.3s-5.3-2.4-5.3-5.3V14.7H4.3v14.7c0 6.1 4.9 11 10.9 11s10.9-4.9 10.9-11v-2.5c1.1 2.2 2.5 4.6 4 6.7l-3.5 16.3h5.7L34.7 38c2.2 1.4 4.7 2.2 7.7 2.2 6.1 0 11.1-5 11.1-11.4 0-6.1-5-11.1-11.1-11.1m0 16.9c-2.2 0-4.5-1-6.3-2.5l.6-2.2v-.1c.4-2.4 1.7-6.4 5.8-6.4 3.1 0 5.6 2.5 5.6 5.6-.1 3.1-2.8 5.6-5.7 5.6"/></svg>