<svg xmlns="http://www.w3.org/2000/svg" fill="none" viewBox="0 0 100 100"><path fill="url(#a)" d="M7.059 48.082c-.04.703-.059 2.363-.059 3.086 0 24.394 19.16 44.16 42.793 44.16s42.793-19.766 42.793-44.16c0-.723-.02-1.426-.059-2.149z"/><path fill="#007AFF" d="M53.797 90.015c21.444 0 38.828-17.384 38.828-38.828S75.241 12.36 53.797 12.36 14.969 29.743 14.969 51.187s17.384 38.828 38.828 38.828"/><path fill="url(#b)" d="M76.453 12.613C69.343 7.437 60.047 4 50.672 4 26.55 4 7.02 24.175 7.02 49.039h8.027c.723-17.97 15.586-32.735 33.945-32.735 7.637 0 14.688 2.52 20.371 6.758a6.33 6.33 0 0 0 8.692-1.66c1.972-2.89 1.27-6.816-1.602-8.79"/><path fill="url(#c)" d="m92.117 57.398-17.93-17.93-11.464-.976H52.234L51.18 52.125 36.316 37.26l-3.613 5.196 1.348 22.363 24.824 24.824c17.012-2.207 30.527-15.43 33.242-32.246" opacity=".5"/><path fill="#fff" d="M50.164 35.836v19.843h-.02a6.585 6.585 0 0 1-6.581 6.582 6.585 6.585 0 0 1-6.583-6.582V39.215a3.31 3.31 0 0 0-3.3-3.301 3.297 3.297 0 0 0-3.301 3.3v16.504c0 7.266 5.898 13.164 13.183 13.164s13.184-5.898 13.184-13.164V42.515h9.883a3.267 3.267 0 0 1 3.262 3.262 3.267 3.267 0 0 1-3.262 3.262h-3.145c-1.836 0-3.34 1.484-3.34 3.32a3.323 3.323 0 0 0 3.223 3.32l7.012 11.602a3.34 3.34 0 0 0 2.871 1.64c1.836 0 3.34-1.484 3.34-3.32 0-.742-.254-1.445-.664-1.992l-5.293-8.75a9.91 9.91 0 0 0 5.898-9.062c0-5.489-4.453-9.922-9.941-9.922zM72.84 21.07a3.516 3.516 0 1 0 0-7.031 3.516 3.516 0 0 0 0 7.03"/><path fill="#fff" d="M70.867 20.484s-12.129-10.703-27.48-8.652c-5.82.937-10.489 2.695-15.02 5.41s2.031-1.895 3.985-2.95c1.972-1.054 11.152-6.757 26.406-4.453 15.254 2.305 16.933 5.704 16.933 5.704z"/><defs><linearGradient id="a" x1="7" x2="92.586" y1="71.705" y2="71.705" gradientUnits="userSpaceOnUse"><stop stop-color="#FF3B30"/><stop offset="1" stop-color="#F7951E"/></linearGradient><linearGradient id="b" x1="7.02" x2="79.172" y1="26.519" y2="26.519" gradientUnits="userSpaceOnUse"><stop stop-color="#FF3B30"/><stop offset="1" stop-color="#F7951E"/></linearGradient><linearGradient id="c" x1="42.355" x2="81.279" y1="40.38" y2="79.304" gradientUnits="userSpaceOnUse"><stop/><stop offset="1" stop-opacity="0"/></linearGradient></defs></svg>