<svg xmlns="http://www.w3.org/2000/svg" viewBox="0 0 100 22"><path d="M49.887 5.5c-3.887 0-6.692 2.438-6.692 6.094 0 3.652 3.157 6.09 7.043 6.09 2.352 0 4.422-.891 5.703-2.399l-2.695-1.496c-.71.746-1.793 1.184-3.008 1.184-1.683 0-3.117-.844-3.648-2.2h9.863c.078-.378.125-.773.125-1.183 0-3.652-2.805-6.09-6.691-6.09m-3.332 4.906c.441-1.347 1.644-2.199 3.328-2.199 1.687 0 2.89.852 3.328 2.2ZM87.805 5.5c-3.89 0-6.692 2.438-6.692 6.094 0 3.652 3.157 6.09 7.043 6.09 2.348 0 4.418-.891 5.7-2.399L91.16 13.79c-.71.746-1.789 1.184-3.004 1.184-1.687 0-3.12-.844-3.652-2.2h9.867a6 6 0 0 0 .121-1.183c0-3.652-2.8-6.09-6.687-6.09m-3.328 4.906c.437-1.347 1.644-2.199 3.328-2.199s2.89.852 3.324 2.2ZM70.73 11.594c0 2.031 1.383 3.383 3.524 3.383 1.45 0 2.539-.633 3.098-1.665l2.703 1.5c-1.118 1.793-3.215 2.872-5.801 2.872-3.89 0-6.692-2.438-6.692-6.09 0-3.656 2.805-6.094 6.692-6.094 2.586 0 4.68 1.078 5.8 2.875l-2.702 1.496c-.559-1.031-1.649-1.664-3.098-1.664-2.137 0-3.524 1.355-3.524 3.387m29.043-9.817v15.57h-3.168V1.778ZM13.234.086l13.012 21.66H.226Zm32.532 1.691-9.758 16.246L26.25 1.777h3.66l6.098 10.153 6.097-10.153ZM66.508 5.84v3.277a4.2 4.2 0 0 0-1.13-.164c-2.042 0-3.519 1.352-3.519 3.383v5.012h-3.168V5.84h3.168v3.113c0-1.719 2.082-3.113 4.649-3.113m0 0" stroke="none" fill-rule="nonzero" fill="#fff" fill-opacity="1"/></svg>