<svg xmlns="http://www.w3.org/2000/svg" fill="none" viewBox="0 0 100 100"><path fill="#019833" stroke="#000" stroke-width=".267" d="M52.318 6.191 6.52 52.051l45.607 45.668 45.798-45.86z"/><path fill="#66FE98" stroke="#000" stroke-width=".267" d="M52.127 6.382V2.37L2.322 52.242H6.52z"/><path fill="#45FE02" stroke="#000" stroke-width=".267" d="M52.013 6.382V2.37l49.805 49.872H97.62z"/><path fill="#017D17" stroke="#000" stroke-width=".267" d="M52.127 97.987V102L2.322 52.127H6.52z"/><path stroke="#000" stroke-width="5.347" d="M11.562 7.434h32.114l1.956 1.96v6.012l-1.551 1.892h-3.509v29.86l30.225-29.86h-4.992l-1.754-1.892v-6.35L65.67 7.57h32.519l1.62 1.62v5.946l-73.54 75.53h-8.366l-2.421-1.4V17.027h-4.055L9.942 15.54V9.19z"/><path fill="#005D04" stroke="#000" stroke-width=".267" d="M52.013 97.987V102l49.805-49.873H97.62z"/><path stroke="#000" stroke-width="1.604" d="M51.993 2 2 52.06l49.785 49.851 49.992-50.06z"/><path fill="#FEFEFE" stroke="#000" stroke-width=".267" d="m44.017 10.49 1.813-.955-1.86-1.863H11.576L9.93 9.32v6.234l1.825 1.827.87-1.827-1.145-1.146v-4.395l.86-.765h30.913z"/><path stroke="#000" stroke-width=".267" d="m66.919 9.056-1.144 1.145v4.205l1.002 1.003h5.293v4.063L37.056 55.01V15.46h5.819l1.193-1.196V10.01l-1.102-.853H12.344l-1.002 1.003v4.348l1.018 1.02h5.327v72.83l1.002 1.004h6.052l73.376-75.816v-3.344l-1.144-1.145z"/><path fill="#FEFEFE" stroke="#000" stroke-width=".267" d="M17.634 15.406v72.962l.944 1.081-.74 1.414-2.094-2.09V17.299z"/><path fill="gray" stroke="#000" stroke-width=".267" d="m12.4 15.406-.54 1.757h3.914l2.159-1.757z"/><path fill="#FEFEFE" d="m66.153 17.379.859-1.768-1.24-1.146v-3.917l1.43-1.433h29.865l1.145 1.528 1.622-1.146-1.67-1.672H66.058l-1.599 1.6v6.282l1.658 1.564M40.171 47.436l-3.119 7.578 35.207-35.35V15.46z"/><path stroke="#000" stroke-width=".267" d="m66.153 17.379.859-1.768-1.24-1.146v-3.917l1.43-1.433h29.865l1.145 1.528 1.622-1.146-1.67-1.672H66.058l-1.599 1.6v6.282l1.658 1.564M40.171 47.436l-3.119 7.578 35.207-35.35V15.46z"/><path fill="gray" stroke="#000" stroke-width=".267" d="m43.946 10.272 1.551-1.014v6.148l-1.788 1.79h-3.474v30.3l-3.171 7.499V15.406h5.802l1.08-.878z"/><path fill="#CCC" stroke="#000" stroke-width=".267" d="m66.919 9.056-1.144 1.145v4.205l1.002 1.003h5.293v4.063L37.056 55.01V15.46h5.819l1.193-1.196V10.01l-1.102-.853H12.344l-1.002 1.003v4.348l1.018 1.02h5.327v72.83l1.002 1.004h6.052l73.376-75.816v-3.344l-1.144-1.145z"/><path fill="gray" stroke="#000" stroke-width=".267" d="m98.212 10.3 1.63-.943v5.91L25.925 90.9h-7.848l.75-1.492h6.011l73.277-75.764zm-26.099 5.208L70.46 17.23h-4.318l1.012-1.722z"/><path fill="#CCC" stroke="#000" stroke-miterlimit="10" stroke-width="2.139" d="M54.487 58.149a.33.33 0 0 0-.15.075l-1.42 1.22a.33.33 0 0 0-.091.143l-1.42 3.979a.33.33 0 0 0 .076.343l1.085 1.086a.33.33 0 0 0 .234.092h4.383a.33.33 0 0 0 .234-.092l1.144-1.153a.33.33 0 0 0 .083-.142l1.219-4.189a.33.33 0 0 0-.084-.326l-.943-.944a.33.33 0 0 0-.234-.092h-4.049a.3.3 0 0 0-.067 0Zm-8.031 11.219a.33.33 0 0 0-.25.242l-.543 2.157a.33.33 0 0 0 .317.41h2.58l-6.395 18.282a.33.33 0 0 0 .309.435h9.308a.33.33 0 0 0 .318-.226l.61-1.964a.33.33 0 0 0-.318-.426h-2.104l6.328-18.476a.33.33 0 0 0-.309-.434h-9.784a.3.3 0 0 0-.067 0Zm29.62.066a.33.33 0 0 0-.183.11l-1.937 2.19h-3.08l-2.054-2.132a.33.33 0 0 0-.234-.1h-7.355a.33.33 0 0 0-.309.217l-.676 2.023a.33.33 0 0 0 .309.434h1.97L56.4 90.26a.33.33 0 0 0 .31.434h7.83a.33.33 0 0 0 .309-.217l.601-1.764a.33.33 0 0 0-.309-.434h-1.369l3.907-12.315h7.071l-4.458 14.304a.33.33 0 0 0 .318.427h7.555a.33.33 0 0 0 .3-.201l.677-1.622a.33.33 0 0 0-.3-.451h-1.37l3.974-12.523h6.729l-4.525 14.37a.33.33 0 0 0 .317.427h8.299a.33.33 0 0 0 .309-.21l.676-1.763a.33.33 0 0 0-.157-.406.3.3 0 0 0-.152-.037h-1.645l5.001-16.26a.33.33 0 0 0-.05-.301l-1.553-2.09a.33.33 0 0 0-.267-.126h-5.936a.33.33 0 0 0-.242.1l-1.87 2.057h-3.273l-1.936-2.123a.33.33 0 0 0-.243-.1h-4.783a.3.3 0 0 0-.067 0Z"/><path fill="#CCC" stroke="#000" stroke-miterlimit="10" stroke-width=".267" d="m54.554 58.475-1.42 1.22-1.419 3.98 1.086 1.086h4.383l1.144-1.153 1.218-4.189-.943-.944zm-8.031 11.219-.543 2.156h3.039l-6.545 18.718h9.308l.61-1.964h-2.563l6.478-18.91zm29.62.066-2.028 2.3h-3.373l-2.154-2.233h-7.355l-.676 2.023h2.43l-6.279 18.518h7.831l.601-1.764h-1.82l4.116-12.966H75.2l-4.592 14.73h7.556l.676-1.622h-1.82l4.183-13.175h7.422l-4.659 14.797h8.299l.676-1.764h-2.096l5.135-16.687-1.553-2.09h-5.936l-1.962 2.157h-3.573l-2.029-2.224z"/></svg>