<svg xmlns="http://www.w3.org/2000/svg" fill="none" viewBox="0 0 102 102"><path fill="#004E8C" d="M51.392 100c27.614 0 50-22.386 50-50s-22.386-50-50-50-50 22.385-50 50 22.386 50 50 50"/><path fill="#fff" d="M16.736 14.062a50 50 0 1 0 70.593 70.594z" opacity=".1"/><path fill="#fff" d="M53.407 30.312 38.892 69.687h-5.14L19.47 30.312h5.14l10.938 31.25c.377 1.133.644 2.3.797 3.484h.11a17 17 0 0 1 .874-3.562l11.125-31.25zm5.673 39.375V30.312h11.202a12.25 12.25 0 0 1 8.094 2.5 8.08 8.08 0 0 1 3 6.516 9.58 9.58 0 0 1-1.86 5.812 9.8 9.8 0 0 1-5 3.516v.11a10.02 10.02 0 0 1 6.376 3 9.25 9.25 0 0 1 2.39 6.609 10.3 10.3 0 0 1-3.625 8.187 13.5 13.5 0 0 1-9.14 3.125zm4.687-35.219v12.72h4.687a8.97 8.97 0 0 0 5.922-1.876 6.36 6.36 0 0 0 2.172-5.156q0-5.734-7.547-5.734zm0 16.86V65.5h6.25a9.38 9.38 0 0 0 6.25-1.922 6.58 6.58 0 0 0 2.234-5.266q0-6.969-9.5-6.969z"/></svg>