<svg xmlns="http://www.w3.org/2000/svg" fill="none" viewBox="0 0 100 100"><path fill="#FCC72B" d="M75.045 31.66 51.138 66.224a2.058 2.058 0 0 1-3.389-.006 2.04 2.04 0 0 1-.352-1.25l.957-19.084-15.447-3.276a2.05 2.05 0 0 1-1.478-1.242 2.04 2.04 0 0 1 .218-1.915L55.554 4.886a2.06 2.06 0 0 1 2.35-.78c.423.143.788.419 1.039.786s.375.807.352 1.251l-.956 19.084 15.446 3.276a2.036 2.036 0 0 1 1.26 3.156"/><path fill="#729B1B" d="M50.01 95.225a4.83 4.83 0 0 1-3.423-1.418L23.997 71.22a4.84 4.84 0 0 1 3.426-8.254 4.84 4.84 0 0 1 3.42 1.408L50.01 83.54l41.755-41.753a4.84 4.84 0 0 1 6.844 6.845L53.432 93.807a4.82 4.82 0 0 1-3.422 1.418"/><path fill="#729B1B" fill-opacity=".5" d="M49.99 95.225a4.83 4.83 0 0 0 3.423-1.418l22.59-22.587a4.837 4.837 0 0 0-.01-6.836 4.84 4.84 0 0 0-6.836-.01L49.99 83.54 8.235 41.786a4.84 4.84 0 0 0-6.845 6.845l45.178 45.176a4.82 4.82 0 0 0 3.422 1.418"/></svg>