<svg xmlns="http://www.w3.org/2000/svg" fill="none" viewBox="0 0 100 100"><path fill="#2489CA" d="M.951 35.499s-2.435-1.756.488-4.1l6.81-6.09s1.948-2.05 4.008-.263l62.839 47.576v22.814s-.03 3.582-4.628 3.186z"/><path fill="#1070B3" d="M17.148 50.204.951 64.93s-1.664 1.238 0 3.45l7.52 6.84s1.787 1.918 4.425-.264l17.171-13.02z"/><path fill="#0877B9" d="M45.584 50.326 75.29 27.644l-.193-22.692S73.827 0 69.596 2.577L30.067 38.554z"/><path fill="#3C99D4" d="M70.468 98.653c1.726 1.766 3.816 1.187 3.816 1.187l23.149-11.407c2.963-2.02 2.547-4.526 2.547-4.526V15.791c0-2.994-3.065-4.03-3.065-4.03l-20.063-9.67c-4.384-2.71-7.256.486-7.256.486s3.694-2.658 5.5 2.375V95.02c0 .619-.132 1.228-.396 1.776-.528 1.065-1.674 2.06-4.425 1.644z"/></svg>