<svg xmlns="http://www.w3.org/2000/svg" fill="none" viewBox="0 0 100 100"><path fill="#fff" d="M50.192 0 6 25v50l44.192 25.001 44.191-25V25z"/><path fill="#8ED6FB" d="m13.892 73.275 34.841 19.709v-15.35L27.025 65.692zm-2.384-2.158V29.9l12.75 7.359V63.75zm75.125 2.158L51.792 92.984v-15.35L73.5 65.692zm2.384-2.158V29.9l-12.75 7.359V63.75zm-1.492-43.883L51.792 7.017V21.86l22.891 12.59.175.1zm-74.525 0L48.733 7.017V21.86L25.842 34.45l-.175.1z"/><path fill="#1C78C0" d="m51.792 74.142 21.416-11.775V39.034L51.792 51.4zm-3.059 0L27.317 62.367V39.034L48.733 51.4zm23.025-37.808-21.5-11.825-21.5 11.825 21.5 12.417z"/></svg>