<svg xmlns="http://www.w3.org/2000/svg" fill="none" viewBox="0 0 100 100"><path fill="#3498DB" fill-rule="evenodd" d="M28.854 5c-2.7.005-5.344 1.543-6.704 3.888L1.004 45.72c-1.339 2.35-1.339 5.424 0 7.776L22.15 90.327c1.36 2.345 4.003 3.883 6.704 3.888h42.292c2.7-.005 5.344-1.543 6.704-3.888l21.146-36.831c1.339-2.352 1.339-5.425 0-7.777L77.85 8.888C76.49 6.543 73.847 5.005 71.146 5zm.384 21.547a1 1 0 0 1 .177 0h7.295a.96.96 0 0 1 .797.475l12.375 22.11c.062.11.102.232.117.357a1 1 0 0 1 .118-.356l12.345-22.111a.96.96 0 0 1 .827-.475h7.295c.646.005 1.13.821.827 1.395L59.33 49.608l12.08 21.636c.331.576-.165 1.43-.827 1.424h-7.295a.97.97 0 0 1-.827-.504L50.117 50.053a1 1 0 0 1-.117-.356 1 1 0 0 1-.118.356l-12.375 22.11a.96.96 0 0 1-.797.505h-7.295c-.663.006-1.158-.848-.827-1.424l12.08-21.636-12.08-21.666c-.29-.523.064-1.284.65-1.395" clip-rule="evenodd"/></svg>