<svg xmlns="http://www.w3.org/2000/svg" fill="none" viewBox="0 0 100 100"><path fill="#470137" d="M17.708 1h64.584C92.083 1 100 8.917 100 18.71v62.083c0 9.792-7.917 17.709-17.708 17.709H17.708C7.917 98.5 0 90.584 0 80.792V18.71C0 8.917 7.917 1 17.708 1"/><path fill="#FF61F6" d="m52.583 26.626-12.5 20.625 13.334 21.875c.083.166.125.333.083.5s-.208.041-.458.083H43.5c-.667 0-1.125-.042-1.417-.459-.875-1.75-1.791-3.458-2.666-5.208a168 168 0 0 0-2.834-5.25c-1-1.791-2-3.583-3-5.416H33.5c-.875 1.791-1.833 3.583-2.792 5.375s-1.916 3.583-2.833 5.333c-.958 1.75-1.917 3.541-2.875 5.25-.167.416-.5.458-.958.458h-9.167c-.167 0-.292.084-.292-.125a.58.58 0 0 1 .084-.458l12.958-21.25L15 26.584c-.125-.167-.167-.334-.083-.417.083-.125.25-.167.416-.167h9.459c.208 0 .416.042.583.084.167.083.292.208.417.375.791 1.791 1.708 3.583 2.666 5.375 1 1.792 1.959 3.542 3 5.292 1 1.75 1.917 3.5 2.792 5.291h.083a162 162 0 0 1 2.709-5.375c.916-1.75 1.875-3.5 2.833-5.25s1.875-3.542 2.792-5.25c.041-.167.125-.333.25-.417a.8.8 0 0 1 .541-.083h8.792a.384.384 0 0 1 .458.292c.042.041-.041.208-.125.291m19.25 43.959c-3.083.041-6.166-.584-8.958-1.875-2.625-1.209-4.792-3.209-6.292-5.667-1.541-2.541-2.291-5.708-2.291-9.5a17.1 17.1 0 0 1 2.291-8.791 17.3 17.3 0 0 1 6.625-6.459c2.917-1.625 6.417-2.416 10.542-2.416.208 0 .5 0 .875.041.375.042.792.042 1.292.084V22.834c0-.292.125-.459.416-.459h8.459c.208-.041.375.125.416.292v39.75c0 .75.042 1.584.084 2.5.083.875.125 1.709.166 2.417 0 .291-.125.541-.416.666a31.8 31.8 0 0 1-6.792 2c-2.125.376-4.25.584-6.417.584m4.084-8.333V43.917c-.375-.083-.75-.166-1.125-.208a15 15 0 0 0-1.375-.084c-1.625 0-3.25.334-4.709 1.084a9.34 9.34 0 0 0-3.541 3.083c-.917 1.334-1.375 3.125-1.375 5.292a11.6 11.6 0 0 0 .708 4.291 8.1 8.1 0 0 0 1.875 2.959A7.2 7.2 0 0 0 69.208 62c1.125.376 2.292.542 3.459.542.625 0 1.208-.041 1.75-.083.541.041 1-.042 1.5-.209"/></svg>