<svg xmlns="http://www.w3.org/2000/svg" fill="none" viewBox="0 0 100 100"><path fill="#303846" d="M50 100c27.614 0 50-22.387 50-50 0-27.615-22.386-50-50-50S0 22.384 0 50c0 27.613 22.386 50 50 50"/><path stroke="#97DCCF" stroke-miterlimit="10" stroke-width="3.378" d="M50.405 70.675c3.987-6.96 4.257-15.743 0-23.176S38.311 35.945 30.338 35.945c-3.987 6.96-4.257 15.743 0 23.176 4.256 7.365 12.027 11.554 20.067 11.554Z"/><path stroke="#97DCCF" stroke-miterlimit="10" stroke-width="3.378" d="M49.595 70.675c7.973 0 15.743-4.122 20.067-11.554 4.257-7.433 3.987-16.216 0-23.176-7.973 0-15.743 4.122-20.067 11.554-4.257 7.433-3.987 16.216 0 23.176Z"/><path stroke="#97DCCF" stroke-miterlimit="10" stroke-width="3.378" d="M50 69.864a23.17 23.17 0 0 0 11.554-20.068A23.17 23.17 0 0 0 50 29.73a23.17 23.17 0 0 0-11.554 20.067A23.17 23.17 0 0 0 50 69.864Z"/></svg>