<svg xmlns="http://www.w3.org/2000/svg" viewBox="409.289 277.787 512 114.301"><g><g><path fill="red" d="M569.154 295.637a20.45 20.45 0 0 0-14.436-14.436c-12.728-3.414-63.79-3.414-63.79-3.414s-51.061 0-63.79 3.414a20.45 20.45 0 0 0-14.435 14.436c-3.414 12.728-3.414 39.3-3.414 39.3s0 26.573 3.414 39.302a20.45 20.45 0 0 0 14.435 14.435c12.729 3.414 63.79 3.414 63.79 3.414s51.062 0 63.79-3.414a20.45 20.45 0 0 0 14.436-14.435c3.414-12.729 3.414-39.301 3.414-39.301s-.014-26.573-3.414-39.301"/><path fill="#fff" d="m474.585 359.429 42.42-24.49-42.42-24.488z"/></g><g><g fill="#282828"><path d="m607.04 352.105-18.327-66.214h15.99l6.424 30.015q2.458 11.087 3.618 18.917h.468q.812-5.606 3.618-18.808l6.652-30.118h15.997L622.917 352.1v31.758H607.03V352.1zm39.252 29.661q-4.84-3.269-6.898-10.16-2.035-6.893-2.04-18.335v-10.39q0-11.561 2.337-18.562 2.343-7.001 7.298-10.213 4.96-3.212 13.025-3.217 7.938 0 12.727 3.269t7 10.212q2.23 6.961 2.224 18.511v10.39q-.006 11.453-2.172 18.386-2.149 6.955-6.995 10.16t-13.133 3.213q-8.544.011-13.373-3.264m18.088-11.212q1.343-3.498 1.349-11.436v-22.3q0-7.71-1.35-11.259-1.342-3.572-4.731-3.566-3.27 0-4.607 3.56-1.348 3.572-1.343 11.265v22.3q0 7.944 1.286 11.436 1.28 3.509 4.664 3.509 3.389 0 4.732-3.51m69.609 13.322h-12.602l-1.394-8.76h-.349q-5.138 9.92-15.419 9.92-7.12 0-10.51-4.663-3.389-4.68-3.389-14.596v-53.482h16.117v52.539q0 4.795 1.051 6.83t3.503 2.04q2.098 0 4.035-1.292 1.926-1.286 2.858-3.263v-56.865h16.105z"/><path d="M777.772 298.864H761.77v85.011h-15.762v-85.01h-15.991v-12.963h47.755z"/><path d="M816.64 383.875h-12.613l-1.4-8.76h-.343q-5.144 9.92-15.425 9.92-7.115 0-10.51-4.663-3.383-4.68-3.383-14.596v-53.482h16.116v52.539q0 4.795 1.046 6.83t3.509 2.04q2.097 0 4.029-1.292c1.292-.857 2.229-1.943 2.863-3.263v-56.865h16.105zm53.333-60.145q-1.47-6.772-4.732-9.813-3.258-3.04-8.99-3.04-4.44 0-8.293 2.515-3.857 2.514-5.955 6.6h-.12v-37.719h-15.528v101.59h13.31l1.641-6.777h.343c1.257 2.423 3.12 4.315 5.606 5.726q3.738 2.098 8.293 2.098 8.172 0 12.03-7.527c2.572-5.03 3.858-12.859 3.858-23.535v-11.327q-.006-12.013-1.463-18.79m-14.774 29.203q0 7.83-.646 12.259-.64 4.446-2.16 6.304a4.97 4.97 0 0 1-4.086 1.868q-1.995 0-3.686-.943a7.03 7.03 0 0 1-2.743-2.794v-40.634q.817-2.915 2.811-4.784c1.315-1.246 2.772-1.869 4.315-1.869a4.34 4.34 0 0 1 3.79 1.926q1.348 1.932 1.868 6.476.526 4.554.526 12.961v9.23zm39.103 4.126q0 6.893.4 10.339.4 3.44 1.697 5.03 1.28 1.565 3.96 1.565 3.618 0 4.961-2.806 1.355-2.812 1.469-9.338l13.893.817q.12.931.126 2.572-.006 9.915-5.43 14.819-5.429 4.903-15.35 4.909-11.916 0-16.694-7.475-4.794-7.481-4.789-23.118v-12.499q0-16.116 4.96-23.534t16.992-7.424q8.286 0 12.727 3.04 4.435 3.035 6.252 9.465 1.812 6.429 1.812 17.75v12.26h-26.986zm2.04-33.736q-1.217 1.515-1.64 4.961-.4 3.44-.4 10.459v5.132h11.784v-5.132q0-6.898-.469-10.459-.463-3.56-1.691-5.03-1.235-1.456-3.795-1.462-2.572.017-3.79 1.531"/></g></g></g></svg>