<svg xmlns="http://www.w3.org/2000/svg" viewBox="409.289 277.787 512 114.301"><g class="style-scope yt-icon"><g class="style-scope yt-icon"><path fill="red" d="M569.154 295.637a20.45 20.45 0 0 0-14.436-14.436c-12.728-3.414-63.79-3.414-63.79-3.414s-51.061 0-63.79 3.414a20.45 20.45 0 0 0-14.435 14.436c-3.414 12.728-3.414 39.3-3.414 39.3s0 26.573 3.414 39.302a20.45 20.45 0 0 0 14.435 14.435c12.729 3.414 63.79 3.414 63.79 3.414s51.062 0 63.79-3.414a20.45 20.45 0 0 0 14.436-14.435c3.414-12.729 3.414-39.301 3.414-39.301s-.014-26.573-3.414-39.301" class="style-scope yt-icon"/><path fill="#fff" d="m474.585 359.429 42.42-24.49-42.42-24.488z" class="style-scope yt-icon"/></g><g class="style-scope yt-icon"><g class="style-scope yt-icon"><path d="M34.602 13.004 31.395 1.418h2.798l1.124 5.252q.43 1.94.633 3.31h.082q.142-.981.633-3.291l1.164-5.27h2.799L37.38 13.003v5.557H34.6v-5.557zM41.47 18.194q-.847-.572-1.207-1.778-.356-1.206-.357-3.208V11.39q0-2.023.409-3.248.41-1.225 1.277-1.787.868-.562 2.279-.563 1.389 0 2.227.572t1.225 1.787q.39 1.218.389 3.239v1.818q-.001 2.004-.38 3.217-.376 1.217-1.224 1.778t-2.298.562q-1.495.002-2.34-.571m3.165-1.962q.235-.612.236-2.001v-3.902q0-1.349-.236-1.97-.235-.625-.828-.624-.572 0-.806.623-.236.625-.235 1.971v3.902q0 1.39.225 2.001.224.614.816.614.593 0 .828-.614M56.815 18.563H54.61l-.244-1.533h-.061q-.899 1.736-2.698 1.736-1.246 0-1.839-.816-.593-.819-.593-2.554V6.038h2.82v9.193q0 .839.184 1.195t.613.357q.367 0 .706-.226.337-.225.5-.571v-9.95h2.818z" class="style-scope yt-icon" transform="matrix(5.71504 0 0 5.71504 409.289 277.787)" fill="#282828"/><path d="M64.476 3.688h-2.8v14.875h-2.758V3.688H56.12V1.42h8.356z" class="style-scope yt-icon" transform="matrix(5.71504 0 0 5.71504 409.289 277.787)" fill="#282828"/><path d="M71.277 18.563H69.07l-.245-1.533h-.06q-.9 1.736-2.699 1.736-1.245 0-1.839-.816-.592-.819-.592-2.554V6.038h2.82v9.193q0 .839.183 1.195t.614.357q.367 0 .705-.226c.226-.15.39-.34.501-.571v-9.95h2.818zM80.609 8.039q-.257-1.185-.828-1.717-.57-.532-1.573-.532-.777 0-1.451.44-.675.44-1.042 1.155h-.021v-6.6h-2.717v17.776h2.329l.287-1.186h.06c.22.424.546.755.981 1.002q.654.367 1.451.367 1.43 0 2.105-1.317c.45-.88.675-2.25.675-4.118v-1.982q-.001-2.102-.256-3.288m-2.585 5.11q0 1.37-.113 2.145-.112.778-.378 1.103a.87.87 0 0 1-.715.327q-.349 0-.645-.165a1.23 1.23 0 0 1-.48-.489V8.96q.143-.51.492-.837c.23-.218.485-.327.755-.327a.76.76 0 0 1 .663.337q.236.338.327 1.133.092.797.092 2.268v1.615zM84.866 13.871q0 1.206.07 1.809.07.602.297.88.224.274.693.274.633 0 .868-.491.237-.492.257-1.634l2.431.143q.021.163.022.45-.001 1.735-.95 2.593-.95.858-2.686.859-2.085 0-2.921-1.308-.839-1.309-.838-4.045v-2.187q0-2.82.868-4.118t2.973-1.299q1.45 0 2.227.532.776.531 1.094 1.656.317 1.125.317 3.106v2.145h-4.722zm.357-5.903q-.213.265-.287.868-.07.602-.07 1.83v.898h2.062v-.898q0-1.207-.082-1.83-.081-.623-.296-.88-.216-.255-.664-.256-.45.003-.663.268" class="style-scope yt-icon" transform="matrix(5.71504 0 0 5.71504 409.289 277.787)" fill="#282828"/></g></g></g></svg>