<svg xmlns="http://www.w3.org/2000/svg" viewBox="0 0 80 80"><defs><linearGradient id="e" x1="40" x2="40" y1="80" y2="0" gradientUnits="userSpaceOnUse"><stop offset=".1" stop-color="#fff" stop-opacity=".02"/><stop offset=".9" stop-color="#fff" stop-opacity=".1"/></linearGradient><style>.i{stroke-width:0;fill:#fef9fe}</style></defs><rect id="c" width="80" height="80" rx="18.25" ry="18.25" fill="#000" stroke-width="0"/><rect id="d" width="80" height="80" rx="18.25" ry="18.25" stroke-width="0" fill="url(#e)"/><g id="f"><path fill="#fef9fe" d="M63.435 57.677c-.053 3.213-2.741 5.759-5.954 5.759H35.404c-1.122 0-1.83-1.21-1.275-2.186 1.463-2.574 4.32-6.783 8.553-9.154a2.95 2.95 0 0 1 1.442-.378h13.453a5.86 5.86 0 0 1 5.858 5.959ZM45.87 18.75c-1.462 2.574-4.32 6.783-8.552 9.154a2.95 2.95 0 0 1-1.442.378H22.52c-3.214 0-5.902-2.546-5.955-5.759a5.86 5.86 0 0 1 5.858-5.959h22.173c1.122 0 1.83 1.21 1.275 2.186M22.42 63.438a5.859 5.859 0 0 1-5.41-8.103 38.2 38.2 0 0 1 8.114-12.251 38.1 38.1 0 0 1 12.634-8.497c6.569-2.721 11.685-7.837 14.406-14.406a5.86 5.86 0 0 1 10.826 4.484 38.2 38.2 0 0 1-8.114 12.251 38.1 38.1 0 0 1-12.634 8.497c-6.569 2.721-11.685 7.837-14.406 14.406a5.86 5.86 0 0 1-5.415 3.619"/></g></svg>