<svg xmlns="http://www.w3.org/2000/svg" fill="none" viewBox="0 0 100 100"><path fill="#142641" d="M93.22 31.493 77.406 14.984H23.34L6.746 31.493l41.709 50.222z"/><path fill="#274D82" fill-rule="evenodd" d="m56.14 12.837-2.932 1.693-.713-1.236-1.707.985-.834-1.442-2.592 1.496-.864-1.496-.307.177-.945-1.635-.437.253-.804-1.392-38.5 22.227 1.24 2.15.437-.253.805 1.392.307-.177.945 1.636.377-.219.6 1.04.145-.084.57.987 1.24 2.15 45.21-26.103zm16.336 43.652H55.658v1.664H34.403l54.313-31.358-6.04-10.462-1.212.7-.833-1.442-13.584 7.844.832 1.44L22.6 51.017l6.041 10.463.242-.14v3.221h4.41v5.311h31.43v-5.31h4.733v-6.269h3.02z" clip-rule="evenodd"/><path fill="#3068B7" fill-rule="evenodd" d="M79.533 10h-58.25L0 31.173l48.318 58.189 3.855-4.325L100 31.37zm-2.127 4.985L93.22 31.493 48.455 81.716 6.745 31.493 23.34 14.985z" clip-rule="evenodd"/></svg>