<svg xmlns="http://www.w3.org/2000/svg" fill="none" viewBox="0 0 100 100"><path fill="#F15A22" d="m92.05 32.26-3.09-8.34 2.126-4.784a1.69 1.69 0 0 0-.332-1.827l-5.814-5.88c-2.558-2.559-6.345-3.456-9.767-2.26l-1.628.565L64.64.1 49.591 0h-.1L34.343.133l-8.87 9.7-1.595-.564a9.33 9.33 0 0 0-9.834 2.293l-5.913 5.98a1.34 1.34 0 0 0-.3 1.461l2.226 4.984L7 32.326l1.993 7.541 9.037 34.319a17.42 17.42 0 0 0 6.777 9.8s10.964 7.742 21.761 14.751c.964.632 1.96 1.064 3.023 1.064s2.06-.432 3.024-1.064c12.16-7.973 21.76-14.783 21.76-14.783a17.53 17.53 0 0 0 6.745-9.801l8.97-34.32z"/><path fill="url(#a)" d="M18.462 75.648 7 33.056l3.355-8.338-2.325-6.18 5.548-5.648c1.827-1.628 5.415-2.192 7.076-1.229l8.672 4.984 11.295 2.624 8.804-3.654.731 75.647c-.133 10.897.565 9.735-7.442 4.585L22.947 82.591c-2.126-2.026-3.754-4.319-4.485-6.943" opacity=".15" style="mix-blend-mode:lighten"/><path fill="url(#b)" d="m74.176 83.803-16.81 11.495c-4.685 2.558-6.944 5.083-7.31 3.853-.299-.963-.066-3.787-.166-8.172l-.2-73.987c.034-.731.532-1.96 1.396-1.827l8.572 2.591 12.358-1.927 8.173-6.013a2.27 2.27 0 0 1 2.924.166l7.309 6.977c.664.697.698 2.06.299 2.923l-2.027 3.754 3.356 8.671-11.562 42.99c-1.794 5.35-4.319 6.745-6.312 8.505" opacity=".4" style="mix-blend-mode:darken"/><path fill="#fff" d="M51.518 61.396c-.398-.166-.83-.3-.963-.3h-1.063c-.133 0-.565.134-.964.3L44.21 63.19c-.399.166-1.063.465-1.462.664l-6.511 3.389c-.399.2-.432.565-.067.83l5.748 4.054c.365.266.93.697 1.262.996l2.558 2.193c.333.3.864.764 1.197 1.063l2.458 2.193a.91.91 0 0 0 1.196 0l2.525-2.193c.332-.299.864-.764 1.196-1.063l2.558-2.226c.332-.299.897-.73 1.263-.996l5.747-4.087c.365-.266.332-.631-.067-.83L57.3 63.854c-.399-.2-1.063-.498-1.462-.664z"/><path fill="#fff" d="M82.686 33.74c.132-.432.132-.598.132-.598 0-.432-.033-1.163-.1-1.595l-.331-.963c-.2-.399-.532-1.03-.798-1.396l-3.754-5.548c-.232-.365-.664-.93-.963-1.296l-4.85-6.08c-.267-.331-.532-.63-.566-.597h-.066s-.366.066-.797.133l-7.41 1.462c-.431.1-1.129.232-1.56.299l-.133.033c-.432.066-1.13.033-1.562-.1l-6.212-1.993a37 37 0 0 0-1.529-.432s-1.262-.3-2.292-.266c-1.03 0-2.293.266-2.293.266-.431.1-1.13.299-1.528.432l-6.212 1.993c-.432.133-1.13.166-1.562.1l-.133-.034c-.432-.066-1.13-.232-1.561-.298l-7.475-1.396a7 7 0 0 0-.798-.133h-.066c-.033 0-.299.266-.565.598l-4.85 6.08c-.266.332-.698.93-.964 1.296l-3.754 5.548c-.233.365-.598.997-.797 1.395l-.332.964c-.067.431-.133 1.162-.1 1.594 0 0 0 .133.133.598.232.798.797 1.529.797 1.529.266.332.764.897 1.063 1.196l10.997 11.694c.299.332.399.93.232 1.329l-2.292 5.415c-.166.399-.2 1.063-.033 1.495l.631 1.694a8.47 8.47 0 0 0 2.625 3.655l2.226 1.794c.332.266.93.365 1.328.166l7.044-3.355a7.2 7.2 0 0 0 1.329-.897l5.05-4.552c.73-.664.764-1.794.1-2.525l-10.599-7.143c-.365-.232-.498-.764-.299-1.163l4.651-8.77c.2-.399.233-1.03.067-1.429l-.565-1.295c-.166-.4-.665-.864-1.063-1.03l-13.655-5.117c-.398-.166-.398-.332.034-.365l8.804-.83c.431-.034 1.13.033 1.56.132l7.841 2.193a.91.91 0 0 1 .632.997L42.819 43.54c-.067.431-.067 1.03.033 1.362s.531.63.963.73l5.449 1.163c.431.1 1.13.1 1.561 0l5.083-1.162c.432-.1.864-.432.964-.731.1-.3.133-.93.033-1.362l-2.691-14.917c-.067-.432.2-.897.631-.997l7.84-2.193c.432-.133 1.13-.166 1.562-.133l8.804.83c.432.034.465.2.033.366L59.43 31.68c-.399.166-.897.598-1.063 1.03l-.565 1.296c-.166.398-.166 1.063.066 1.428l4.685 8.771a.94.94 0 0 1-.3 1.163l-10.597 7.176c-.698.698-.632 1.86.1 2.525l5.05 4.551c.331.3.93.698 1.328.864l7.076 3.355c.4.2.997.1 1.33-.166l2.225-1.827a8.14 8.14 0 0 0 2.592-3.654l.63-1.695c.167-.398.134-1.096-.032-1.495l-2.293-5.415c-.166-.399-.066-.997.233-1.329L80.89 36.564c.3-.332.765-.864 1.064-1.196-.067-.1.531-.83.73-1.628"/><defs><linearGradient id="a" x1="7" x2="4326.8" y1="4435.38" y2="4435.38" gradientUnits="userSpaceOnUse"><stop stop-color="#fff"/><stop offset=".141" stop-color="#fff" stop-opacity=".958"/><stop offset="1" stop-color="#fff" stop-opacity=".7"/></linearGradient><linearGradient id="b" x1="48.036" x2="4285.57" y1="4513.4" y2="4513.4" gradientUnits="userSpaceOnUse"><stop stop-color="#F1F1F2"/><stop offset=".092" stop-color="#E4E5E6"/><stop offset=".236" stop-color="#D9DADB"/><stop offset=".438" stop-color="#D2D4D5"/><stop offset="1" stop-color="#D0D2D3"/></linearGradient></defs></svg>