<svg xmlns="http://www.w3.org/2000/svg" fill="none" viewBox="0 0 100 100"><g clip-path="url(#a)"><path fill="#000" d="M98.762 67.03v3.461l-.048 2.937a42 42 0 0 1-.571 6.333A20.27 20.27 0 0 1 87.159 94.65a21.8 21.8 0 0 1-6.08 2c-2.127.365-4.285.492-6.412.555-4.127.048-5.286.048-6.46.048H30.555c-4.477 0-5.46-.016-6.445-.047-2.143-.064-4.302-.191-6.413-.556a21.8 21.8 0 0 1-6.11-2A20.48 20.48 0 0 1 .634 79.745a42 42 0 0 1-.572-6.349 129 129 0 0 1-.031-2.905L0 67.031V28.745l.048-2.92c.063-2.112.19-4.239.571-6.35A20.25 20.25 0 0 1 11.587 4.602a21.8 21.8 0 0 1 6.096-1.984c2.11-.365 4.27-.492 6.412-.555 4.127-.064 5.302-.064 6.46-.064h36.699-14.206 15.158c4.492 0 5.477.016 6.46.048 2.128.063 4.286.19 6.413.555 2.143.381 4.143 1.016 6.096 2a20.46 20.46 0 0 1 10.968 14.89c.38 2.094.508 4.221.571 6.348.032.953.032 1.937.048 2.905z"/><mask id="b" width="99" height="97" x="0" y="1" maskUnits="userSpaceOnUse" style="mask-type:luminance"><path fill="#fff" d="M98.762 67.03v3.461l-.048 2.937a42 42 0 0 1-.571 6.333A20.27 20.27 0 0 1 87.159 94.65a21.8 21.8 0 0 1-6.08 2c-2.127.365-4.285.492-6.412.555-4.127.048-5.286.048-6.46.048H30.555c-4.477 0-5.46-.016-6.445-.047-2.143-.064-4.302-.191-6.413-.556a21.8 21.8 0 0 1-6.11-2A20.48 20.48 0 0 1 .634 79.745a42 42 0 0 1-.572-6.349 129 129 0 0 1-.031-2.905L0 67.031V28.745l.048-2.92c.063-2.112.19-4.239.571-6.35A20.25 20.25 0 0 1 11.587 4.602a21.8 21.8 0 0 1 6.096-1.984c2.11-.365 4.27-.492 6.412-.555 4.127-.064 5.302-.064 6.46-.064h36.699-14.206 15.158c4.492 0 5.477.016 6.46.048 2.128.063 4.286.19 6.413.555 2.143.381 4.143 1.016 6.096 2a20.46 20.46 0 0 1 10.968 14.89c.38 2.094.508 4.221.571 6.348.032.953.032 1.937.048 2.905z"/></mask><g mask="url(#b)"><path fill="url(#c)" d="m96.143 85.793-4.937-2.54 4.921 2.54zm-3.778 5.127 3.905 3.968-3.889-4zM81.08 96.65l-.968-5.476.953 5.476zm-6.412.555.063 5.556h.08l-.16-5.555zm-44.111.032-.016 5.556h.016zm-24.16-6.333-3.904 3.968 3.905-3.984zM.065 73.396l5.555-.143-5.555.159zm-.032-44.65 5.555.047v-.016L0 28.745zm.603-9.27-5.476-.985 5.476 1zM6.413 8.331l3.905 3.953-3.905-3.968zM24.11 2.047l-.063-5.556h-.096zm43.143-.048v5.556-11.111zM53.048 2v-5.555 11.11zm15.158 0 .016-5.555V2zm12.873.603-.968 5.477.953-5.477zm11.286 5.73L88.46 12.27l3.921-3.92zm3.778 5.127L91.206 16l4.921-2.54zm2.571 12.381-5.555.143 5.555-.158zm-5.508 41.19v3.43l11.111.063v-3.492zm0 3.43c0 .952-.016 1.873-.047 2.793l11.111.318.047-3.048zm-.047 2.793c-.048 2.016-.159 3.826-.476 5.492l10.936 2c.46-2.508.587-4.984.635-7.19zm-.476 5.508a15.6 15.6 0 0 1-1.477 4.476l9.873 5.08c1.27-2.477 2.064-4.984 2.54-7.572zm-1.477 4.476a14.7 14.7 0 0 1-2.746 3.73l7.81 7.89a25.6 25.6 0 0 0 4.809-6.54zm-2.746 3.73a14.4 14.4 0 0 1-3.777 2.699l4.984 9.936a26 26 0 0 0 6.603-4.746zm-3.793 2.699c-1.397.73-2.873 1.19-4.556 1.492l1.937 10.952a27.3 27.3 0 0 0 7.619-2.508l-5-9.92zm-4.556 1.492c-1.714.317-3.555.428-5.603.476l.302 11.111c2.222-.063 4.714-.19 7.238-.635zm-5.524.476c-4.095.048-5.238.048-6.38.048v11.111c1.19 0 2.38 0 6.507-.048zm-6.38.048h-24.24v11.111h24.254V91.682zm-24.255 0H30.556v11.111h13.396zm-13.38 0c-4.508 0-5.413-.016-6.318-.048l-.302 11.111c1.064.032 2.127.032 6.588.048zm-6.318-.048c-2.048-.047-3.889-.159-5.587-.476l-1.953 10.952c2.54.445 5.016.572 7.238.635l.318-11.11zm-5.587-.476a16.2 16.2 0 0 1-4.572-1.476l-5 9.92a27.3 27.3 0 0 0 7.62 2.492zm-4.572-1.476a14.9 14.9 0 0 1-3.793-2.715l-7.81 7.89a26 26 0 0 0 6.603 4.761zm-3.793-2.715a14.8 14.8 0 0 1-2.746-3.73l-9.873 5.08a25.9 25.9 0 0 0 4.81 6.54zm-2.73-3.73a15.7 15.7 0 0 1-1.493-4.492l-10.936 2c.476 2.587 1.27 5.095 2.54 7.572zm-1.493-4.492c-.301-1.666-.412-3.46-.476-5.492l-11.11.318c.063 2.19.205 4.666.65 7.174l10.952-2zm-.476-5.492-.032-2.793-11.11.063c0 1 0 2.016.031 3.032l11.111-.318zm-.032-2.81-.015-3.412H-5.556v3.492l11.112-.08zm-.015-3.412V55.555H-5.556V67.03zm0-11.476V43.682H-5.556v11.873zm0-11.873V32.205H-5.556v11.477zm0-11.477v-3.412l-11.112-.095v3.508zm0-3.428c0-.952.031-1.873.047-2.794l-11.11-.317-.033 3.047 11.111.064zm.047-2.794c.064-2.032.175-3.825.476-5.508l-10.936-1.984a47 47 0 0 0-.635 7.19l11.111.302zm.476-5.492A15.7 15.7 0 0 1 7.571 16l-9.888-5.08c-1.27 2.477-2.064 4.985-2.54 7.572l10.952 2zM7.571 16a14.7 14.7 0 0 1 2.73-3.714l-7.809-7.92a25.8 25.8 0 0 0-4.81 6.555zm2.73-3.73c1.112-1.095 2.382-2 3.794-2.698l-5-9.953A26 26 0 0 0 2.492 4.38zm3.794-2.698c1.413-.73 2.873-1.19 4.572-1.492L16.714-2.874c-2.603.476-5.127 1.254-7.619 2.508l5 9.92zm4.572-1.492c1.698-.318 3.54-.43 5.587-.477l-.302-11.11c-2.222.063-4.714.19-7.238.634zm5.508-.477c4.095-.047 5.238-.047 6.38-.047V-3.556c-1.19 0-2.38 0-6.507.047zm6.38-.047h13.397V-3.556H30.556zm13.397 0h23.302V-3.556H43.968v11.11zM67.254-3.556H53.048v11.11h14.206zM53.048 7.554h15.158v-11.11H53.048zm15.142 0c4.508 0 5.413.017 6.318.048l.317-11.11c-1.079-.033-2.142-.033-6.603-.048zm6.318.048c2.063.048 3.889.16 5.603.477l1.937-10.953a49 49 0 0 0-7.239-.635zm5.603.477c1.683.301 3.159.761 4.556 1.476l5-9.92a27.3 27.3 0 0 0-7.62-2.493zm4.572 1.476a14.9 14.9 0 0 1 3.777 2.714l7.81-7.889a26 26 0 0 0-6.603-4.762zm3.777 2.73a14.6 14.6 0 0 1 2.746 3.714l9.873-5.08a25.8 25.8 0 0 0-4.81-6.555zm2.746 3.714c.715 1.381 1.175 2.826 1.477 4.476l10.936-1.984c-.476-2.587-1.27-5.095-2.54-7.571zm1.477 4.476c.317 1.683.428 3.492.476 5.508l11.111-.317c-.064-2.19-.191-4.667-.651-7.175zm.476 5.508c.031.92.031 1.842.047 2.794l11.111-.064-.047-3.031-11.111.317zm.047 2.794v3.428h11.111v-3.492zm0 3.428v11.477h11.111V32.205zm0 11.477v11.873h11.111V43.682zm0 11.873V67.03h11.111V55.555z"/></g><path fill="#fff" fill-rule="evenodd" d="M38.857 43c0-.429.35-.794.794-.794h14.603c.444 0 .794.365.794.794v1.587a.794.794 0 0 1-.794.794H39.651a.794.794 0 0 1-.794-.794zm-5.444-8.952a.477.477 0 0 0-.111-.778l-5.667-3.016a.477.477 0 0 1-.222-.603l3.904-9.715c.175-.46-.396-.857-.761-.523l-12.302 11.11a.477.477 0 0 0 .048.763l5.46 3.698a.476.476 0 0 1 .174.571l-3.555 9.064c-.19.476.38.857.762.524l12.27-11.111z" clip-rule="evenodd"/></g><defs><linearGradient id="c" x1="51.143" x2="51.143" y1="1.999" y2="102.523" gradientUnits="userSpaceOnUse"><stop stop-color="#F743B6"/><stop offset="1" stop-color="#FCC043"/></linearGradient><clipPath id="a"><path fill="#fff" d="M0 2h100v95.237H0z"/></clipPath></defs></svg>