<svg xmlns="http://www.w3.org/2000/svg" fill="none" viewBox="0 0 114 112"><g opacity=".783"><g filter="url(#a)"><path fill="#000" d="m48.087 9.212-36.708 37.6c-13.9 13.899 8.999 12.74 17.285 17.997 3.831 2.495-12.295 5.702-8.999 8.999 3.208 3.297 19.334 6.326 22.542 9.533 3.207 3.297-6.504 6.772-3.297 10.069 3.119 3.296 10.603.178 11.94 7.662.98 5.524 13.72 2.762 19.423-1.96 3.564-3.03-6.148-3.03-2.94-6.326 8.018-8.108 15.146-3.653 18.086-11.137 1.604-4.01-12.117-6.86-8.464-9.445 8.732-6.147 40.807-9.266 26.017-24.056L64.927 9.212c-4.722-4.455-12.474-4.455-16.84 0M90.231 81.65c0 1.87 14.523 2.94 13.721-.446-1.159-5.702-12.118-5.257-13.721.446m-61.923 9.89c3.296 2.85 8.286-.624 9.89-4.634-3.208-4.187-15.058.268-9.89 4.633m60.14-5.97c-4.098 3.742.714 7.662 4.723 5.078 1.07-.712-.09-4.187-4.722-5.078"/></g><g filter="url(#b)" opacity=".576"><path fill="#000" d="m48.087 10.082-36.708 37.6c-13.9 13.899 8.999 12.74 17.285 17.997 3.831 2.495-12.295 5.703-8.999 9 3.208 3.296 19.334 6.325 22.542 9.533 3.207 3.296-6.504 6.771-3.297 10.068 3.119 3.296 10.603.178 11.94 7.662.98 5.524 13.72 2.762 19.423-1.96 3.564-3.03-6.148-3.03-2.94-6.326 8.018-8.108 15.146-3.653 18.086-11.137 1.604-4.01-12.117-6.86-8.464-9.445 8.732-6.147 40.807-9.266 26.017-24.056L64.927 10.082c-4.722-4.455-12.474-4.455-16.84 0M90.231 82.52c0 1.87 14.523 2.94 13.721-.446-1.159-5.702-12.118-5.256-13.721.446m-61.923 9.89c3.296 2.85 8.286-.624 9.89-4.634-3.208-4.187-15.058.268-9.89 4.634m60.14-5.97c-4.098 3.742.714 7.663 4.723 5.079 1.07-.713-.09-4.188-4.722-5.079"/></g></g><path fill="#000" d="M48.087 8.34 11.38 45.94c-13.9 13.9 8.999 12.741 17.285 17.998 3.831 2.495-12.295 5.702-8.999 8.999C22.873 76.233 39 79.263 42.207 82.47c3.207 3.297-6.504 6.772-3.297 10.068 3.119 3.297 10.603.178 11.94 7.663.98 5.524 13.72 2.762 19.423-1.96 3.564-3.03-6.148-3.03-2.94-6.326 8.018-8.108 15.146-3.653 18.086-11.138 1.604-4.009-12.117-6.86-8.464-9.444 8.732-6.148 40.807-9.266 26.017-24.056L64.927 8.34c-4.722-4.455-12.474-4.455-16.84 0m42.144 72.437c0 1.871 14.523 2.94 13.721-.445-1.159-5.702-12.118-5.257-13.721.445m-61.923 9.89c3.296 2.851 8.286-.624 9.89-4.633-3.208-4.187-15.058.267-9.89 4.633m60.14-5.97c-4.098 3.743.714 7.663 4.723 5.08 1.07-.713-.09-4.188-4.722-5.08"/><mask id="c" width="100" height="98" x="7" y="5" maskUnits="userSpaceOnUse" style="mask-type:luminance"><path fill="#fff" d="M48.17 8.774 11.81 46.018c-13.768 13.768 8.913 12.62 17.121 17.828 3.795 2.47-12.18 5.648-8.914 8.913 3.178 3.266 19.152 6.266 22.329 9.444 3.177 3.265-6.443 6.707-3.265 9.972 3.088 3.266 10.502.177 11.826 7.59.97 5.472 13.591 2.736 19.24-1.941 3.53-3-6.09-3-2.913-6.266 7.943-8.032 15.003-3.619 17.916-11.032 1.588-3.972-12.003-6.796-8.385-9.355 8.65-6.09 40.421-9.179 25.771-23.83L64.851 8.775c-4.678-4.413-12.356-4.413-16.68 0m-8.736 57.101c.794 0 27.182 3.53 17.033 6.266-3.883 1.06-21.711-6.266-17.033-6.266m50.482 14.65c0 1.854 14.385 2.913 13.591-.44-1.147-5.649-12.003-5.208-13.591.44m-61.338 9.797c3.266 2.824 8.208-.618 9.796-4.59-3.177-4.147-14.915.266-9.796 4.59M88.15 84.41c-4.06 3.707.706 7.59 4.678 5.03 1.06-.705-.088-4.147-4.678-5.03"/></mask><g mask="url(#c)"><path fill="url(#d)" d="M48.17 8.774 11.81 46.018c-13.768 13.768 8.913 12.62 17.121 17.828 3.795 2.47-12.18 5.648-8.914 8.913 3.178 3.266 19.152 6.266 22.329 9.444 3.177 3.265-6.443 6.707-3.265 9.972 3.088 3.266 10.502.177 11.826 7.59.97 5.472 13.591 2.736 19.24-1.941 3.53-3-6.09-3-2.913-6.266 7.943-8.032 15.003-3.619 17.916-11.032 1.588-3.972-12.003-6.796-8.385-9.355 8.65-6.09 40.421-9.179 25.771-23.83L64.851 8.775c-4.678-4.413-12.356-4.413-16.68 0m-8.736 57.101c.794 0 27.182 3.53 17.033 6.266-3.883 1.06-21.711-6.266-17.033-6.266m50.482 14.65c0 1.854 14.385 2.913 13.591-.44-1.147-5.649-12.003-5.208-13.591.44m-61.338 9.797c3.266 2.824 8.208-.618 9.796-4.59-3.177-4.147-14.915.266-9.796 4.59M88.15 84.41c-4.06 3.707.706 7.59 4.678 5.03 1.06-.705-.088-4.147-4.678-5.03"/></g><path fill="url(#e)" d="M14.645 48.025c-9.981 9.89 7.553 7.103 21.04 12.408L63.56 11.43c-4.226-4.316-9.62-3.956-13.487 0z" opacity=".505"/><path fill="url(#f)" d="m62.7 11.014 14.522 14.79c1.337 1.337 1.337 4.099.535 4.9l-7.217-5.88-1.425 8.643-5.97-3.208-9.712 6.148-3.207-12.92-5.168 11.227-12.92-.09c-2.494 0-2.137-2.583.446-5.167 5.079-5.613 14.969-15.146 18.087-18.443 3.208-3.297 8.821-3.208 12.029 0"/><path fill="url(#g)" fill-rule="evenodd" d="M42.767 80.884s1.576 2.407 1.415 3.539c-.315 2.222-5.1 3.33-4.04 5.309 1.047 1.954 4.823.847 7.992 2.89 3.156 2.035 2.308 6.183 4.602 7.226 4.473 2.035 16.221-3.51 15.631-3.391s-11.594 2.404-14.072.399c-2.825-2.287-3.635-3.884-5.718-5.236-1.953-1.267-4.695-1.785-5.334-2.822s1.279-2.376 1.411-4.375c.08-1.2-1.888-3.54-1.888-3.54" clip-rule="evenodd" opacity=".217"/><g filter="url(#h)" opacity=".276"><path fill="url(#i)" fill-rule="evenodd" d="M42.767 80.884s1.576 2.407 1.415 3.539c-.315 2.222-5.1 3.33-4.04 5.309 1.047 1.954 4.823.847 7.992 2.89 3.156 2.035 2.308 6.183 4.602 7.226 4.473 2.035 16.221-3.51 15.631-3.391-19.508.074-15.867-4.953-23.389-8.259-1.086-.477-.456-1.776-.324-3.775.08-1.2-1.888-3.54-1.888-3.54" clip-rule="evenodd"/></g><path fill="url(#j)" fill-rule="evenodd" d="M75.918 70.62c17.51-6.444 23.134-7.329 28.904-13.095-6.683 5.64-20.81 8.667-32.326 13.685z" clip-rule="evenodd" opacity=".453"/><g filter="url(#k)" opacity=".512"><path fill="url(#l)" fill-rule="evenodd" d="M75.918 69.794c28.835-10.22 23.96-10.16 28.904-13.096-9.168 3.51-26.301 3.884-32.326 13.685z" clip-rule="evenodd"/></g><path fill="url(#m)" d="M101.106 77.963c0 .306-.395.598-1.097.814-.703.216-1.656.337-2.649.337s-1.946-.121-2.649-.337c-.702-.216-1.097-.508-1.097-.814s.395-.597 1.097-.813c.703-.216 1.656-.337 2.649-.337s1.946.121 2.649.337c.702.216 1.097.508 1.097.813" opacity=".286"/><g filter="url(#n)" opacity=".621"><path fill="url(#o)" d="M102.404 79.29c0 .658-.532 1.288-1.478 1.752-.945.465-2.228.726-3.566.726s-2.62-.26-3.566-.725-1.477-1.095-1.477-1.752.53-1.288 1.477-1.752c.946-.465 2.228-.726 3.566-.726s2.62.261 3.566.726 1.478 1.095 1.478 1.752"/></g><g filter="url(#p)"><path fill="url(#q)" fill-rule="evenodd" d="M90.488 80.668c1.779 1.644 11.682 2.488 13.302-.472-3.179 2.257-10.249 1.464-13.302.472" clip-rule="evenodd"/></g><path fill="url(#r)" d="M90.523 86.156c.087.17.142.355.162.542s.006.375-.043.552c-.049.176-.13.338-.242.476a1.23 1.23 0 0 1-.907.46 1.3 1.3 0 0 1-.527-.087 1.5 1.5 0 0 1-.47-.29 1.57 1.57 0 0 1-.46-1.546 1.3 1.3 0 0 1 .24-.476 1.23 1.23 0 0 1 .908-.46c.177-.008.356.022.527.087q.258.098.47.29.212.194.342.452" opacity=".286"/><g filter="url(#s)" opacity=".621"><path fill="url(#t)" d="M91.225 86.474c.13.255.213.53.246.81.032.279.013.558-.056.82-.069.26-.187.5-.347.705s-.36.368-.587.483a1.8 1.8 0 0 1-.737.188 1.9 1.9 0 0 1-.775-.137 2.2 2.2 0 0 1-.694-.44 2.4 2.4 0 0 1-.753-1.485 2.2 2.2 0 0 1 .055-.82c.07-.262.188-.501.348-.705s.36-.368.587-.484a1.8 1.8 0 0 1 .737-.187c.26-.01.522.037.774.136s.488.248.694.44c.207.191.38.421.508.676"/></g><g filter="url(#u)"><path fill="url(#v)" fill-rule="evenodd" d="M88.059 89.48c1.43 1.118 6.81 1.261 4.769-1.99.532 2.547-3.143 2.277-4.77 1.99" clip-rule="evenodd"/></g><path fill="url(#w)" fill-rule="evenodd" d="M21.649 72.625c0-.293 18.332 5.587 21.471 8.73-2.581-2.519-15.648-8.313-17.637-8.376s-3.598-.236-3.834-.354" clip-rule="evenodd"/><path fill="url(#x)" d="M35.42 85.219c.071.212-.207.492-.774.777s-1.376.554-2.25.746c-.873.192-1.739.291-2.407.277-.668-.015-1.083-.142-1.154-.355-.071-.212.207-.492.774-.777s1.376-.554 2.25-.746c.873-.192 1.738-.291 2.407-.277.667.015 1.083.142 1.154.355" opacity=".286"/><g filter="url(#y)" opacity=".621"><path fill="url(#z)" d="M36.871 85.892c.154.457-.166.998-.889 1.504-.722.506-1.79.935-2.965 1.193-1.176.258-2.364.324-3.304.184s-1.555-.477-1.709-.934c-.153-.458.167-.999.89-1.505.722-.506 1.789-.935 2.965-1.193s2.364-.324 3.304-.183c.94.14 1.554.477 1.708.934"/></g><g filter="url(#A)" opacity=".616"><path fill="url(#B)" fill-rule="evenodd" d="M27.518 88.199s.993 2.666 3.716 2.802c2.756.136 5.9-3.307 6.165-4.543-.472 1.062-3.11 4.263-6.519 4.218-1.934-.026-3.362-2.478-3.362-2.478" clip-rule="evenodd"/></g><g filter="url(#C)"><path stroke="url(#D)" stroke-width=".435" d="M56.38 6.308c-2.761 0-5.467 1-7.38 2.952L12.305 46.848c-3.356 3.355-4.162 5.551-3.954 6.794.103.62.408 1.16 1.058 1.726.65.565 1.632 1.12 2.812 1.615 2.36.99 5.54 1.789 8.66 2.645 3.118.856 6.173 1.76 8.491 3.23.354.23.686.513.92.918.233.406.315.941.222 1.393-.186.902-.742 1.378-1.309 1.81-1.134.862-2.693 1.58-4.26 2.338-1.566.76-3.14 1.536-3.926 2.172-.392.318-.534.604-.529.585s-.104-.244.084-.056c.491.505 2.026 1.37 3.981 2.144 1.956.773 4.349 1.555 6.766 2.339 2.418.783 4.863 1.559 6.933 2.366s3.758 1.559 4.873 2.673c.555.57.947 1.28 1.03 2.005s-.113 1.406-.39 1.977c-.553 1.142-1.444 2.02-2.255 2.868-.812.847-1.547 1.657-1.81 2.2-.131.27-.152.447-.14.556.013.11.032.22.28.474l.027.027c1.064 1.125 3.374 1.283 5.986 1.894 1.306.305 2.672.768 3.843 1.782s2.048 2.557 2.422 4.65c.157.886.626 1.317 1.754 1.67s2.846.415 4.733.139c3.775-.551 8.251-2.401 10.831-4.538.16-.136.116-.1.168-.167a9.6 9.6 0 0 0-1.253-.724c-.795-.396-1.733-.766-2.45-1.67a2.52 2.52 0 0 1-.502-1.866c.105-.7.487-1.28 1.003-1.81 4.228-4.275 8.394-5.296 11.527-6.126 1.566-.414 2.877-.794 3.87-1.42s1.768-1.482 2.422-3.146c.072-.18.07-.232-.028-.445-.097-.213-.36-.554-.78-.92-.838-.729-2.236-1.513-3.619-2.282s-2.727-1.487-3.703-2.395c-.488-.454-1-1.026-1.058-1.893s.51-1.65 1.17-2.116c2.446-1.723 6.144-3.034 10.162-4.427 4.018-1.394 8.34-2.835 11.861-4.483s6.11-3.545 6.933-5.457c.412-.956.487-1.923.056-3.174-.432-1.251-1.416-2.78-3.174-4.539L64.036 9.288l-.028-.028c-2.1-1.967-4.881-2.952-7.629-2.952Zm40.928 71.279c-2.348.084-4.508 1.16-5.429 2.84.262.098.497.209.919.306 1.225.282 2.936.464 4.622.501s3.371-.105 4.399-.39c.45-.125.688-.25.807-.334-.228-.972-.77-1.659-1.698-2.172-.961-.53-2.278-.8-3.62-.751ZM34.494 85.66c-1.862-.13-4.202.612-5.346 1.531-.571.46-.813.886-.835 1.17-.021.283.07.66.835 1.309v.027c1.206 1.043 2.569.934 4.121.084 1.302-.713 2.457-2.05 3.23-3.453a4.1 4.1 0 0 0-2.005-.668Zm54.35.557c-.398.507-.615.978-.64 1.308-.035.457.095.809.445 1.142.657.625 2.084.894 3.536.111a1.8 1.8 0 0 0-.306-.751c-.445-.654-1.487-1.36-3.035-1.81Z"/></g><g filter="url(#E)" opacity=".325"><path fill="url(#F)" fill-rule="evenodd" d="M36.258 65.171c-2.215.654-9.394 3.367-8.375 5.439.976 1.985 17.668 2.785 20.23 8.701 1.118 2.58-2.563 4.526-1.631 7.179.718 2.043 6.27 7.175 9.783 9.601 2.755 1.903 6.374-1.532 4.9-4.38-2.347-4.537 8.024-10.093 12.726-12.617 2.744-1.473-5.656-8.702-5.656-8.702z" clip-rule="evenodd"/></g><path fill="url(#G)" fill-rule="evenodd" d="M37.077 67.175c1.988 1.46 5.913.58 8.27 1.64 5.657 2.548 12.612 5.387 11.332.361l-1.44 1.196-.028-2.279-3.343.817s-2.589-2.079-3.776-2.764c-.248-.143-1.522 1.152-1.522 1.152l-.229-1.376a42 42 0 0 0-4.735-.242c-3.458.028-5.79.568-4.53 1.495" clip-rule="evenodd"/><g filter="url(#H)" opacity=".478"><path fill="url(#I)" fill-rule="evenodd" d="M74.218 71.806c-.766 2.818 9.41 6.648 8.647 8.593-1.68 4.281-10.867 1.365-17.892 10.332-1.007 1.285 1.413 5.874 1.087 5.33s-2.813-4.334-2.175-6.2c1.999-5.85 21.324-8.03 17.783-10.822-2.036-1.606-9.356-6.042-7.45-7.233" clip-rule="evenodd"/></g><path fill="#fff" d="M97.113 77.599c0 .122-.117.24-.326.326a2.1 2.1 0 0 1-.789.136 2.1 2.1 0 0 1-.788-.136c-.209-.086-.326-.204-.326-.326s.117-.24.326-.327a2.1 2.1 0 0 1 .788-.136c.296 0 .58.049.789.136.209.086.326.204.326.326m-7.45 8.539c0 .122-.075.24-.207.326a.93.93 0 0 1-.5.136.93.93 0 0 1-.5-.136c-.133-.086-.207-.204-.207-.326s.074-.24.207-.327a.93.93 0 0 1 .5-.136c.187 0 .367.049.5.136.132.086.207.204.207.326m-56.396-.408c0 .123-.132.24-.367.327a2.7 2.7 0 0 1-.884.136c-.332 0-.65-.05-.885-.136s-.366-.204-.366-.327c0-.122.132-.24.366-.327.235-.086.553-.135.885-.135s.65.049.884.135c.235.087.367.205.367.327" opacity=".586"/><path fill="url(#J)" d="M32.56 65.39c-6.374 3.941-16.282 5.376-5.439 7.994-1.291-2.877 2.797-2.56 5.439-7.995" opacity=".251"/><g filter="url(#K)" opacity=".363"><path fill="url(#L)" d="M55.183 101.283s9.83-.926 12.103-3.762c1.33-1.66-5.287-3.595-3.858-5.221 5.373-6.114 9.89-5.86 16.12-8.42 6.23-2.561 3.93-3.815 1.915-4.94-3.45-1.925-11.132-3.977-8.591-8.547 2.557-4.599 24.948-10.986 24.948-10.986 6.786-2.318 5.934-6.51 2.611-10.006L80.417 29.496s.994 18.877-3.045 26.974C72.38 66.477 45.81 77.642 56.924 78.877c3.915.435 5.795 1.77 7.396 4.785 3.296 6.208-9.137 17.621-9.137 17.621"/></g><defs><filter id="a" width="102.684" height="101.129" x="5.565" y="4.436" color-interpolation-filters="sRGB" filterUnits="userSpaceOnUse"><feFlood flood-opacity="0" result="BackgroundImageFix"/><feBlend in="SourceGraphic" in2="BackgroundImageFix" result="shape"/><feGaussianBlur result="effect1_foregroundBlur_751_7942" stdDeviation=".718"/></filter><filter id="b" width="112.253" height="110.698" x=".78" y=".521" color-interpolation-filters="sRGB" filterUnits="userSpaceOnUse"><feFlood flood-opacity="0" result="BackgroundImageFix"/><feBlend in="SourceGraphic" in2="BackgroundImageFix" result="shape"/><feGaussianBlur result="effect1_foregroundBlur_751_7942" stdDeviation="3.11"/></filter><filter id="h" width="32.096" height="23.11" x="38.141" y="79.036" color-interpolation-filters="sRGB" filterUnits="userSpaceOnUse"><feFlood flood-opacity="0" result="BackgroundImageFix"/><feBlend in="SourceGraphic" in2="BackgroundImageFix" result="shape"/><feGaussianBlur result="effect1_foregroundBlur_751_7942" stdDeviation=".924"/></filter><filter id="k" width="36.326" height="17.686" x="70.496" y="54.698" color-interpolation-filters="sRGB" filterUnits="userSpaceOnUse"><feFlood flood-opacity="0" result="BackgroundImageFix"/><feBlend in="SourceGraphic" in2="BackgroundImageFix" result="shape"/><feGaussianBlur result="effect1_foregroundBlur_751_7942" stdDeviation="1"/></filter><filter id="n" width="11.904" height="6.772" x="91.408" y="75.905" color-interpolation-filters="sRGB" filterUnits="userSpaceOnUse"><feFlood flood-opacity="0" result="BackgroundImageFix"/><feBlend in="SourceGraphic" in2="BackgroundImageFix" result="shape"/><feGaussianBlur result="effect1_foregroundBlur_751_7942" stdDeviation=".454"/></filter><filter id="p" width="14.851" height="3.514" x="89.713" y="79.421" color-interpolation-filters="sRGB" filterUnits="userSpaceOnUse"><feFlood flood-opacity="0" result="BackgroundImageFix"/><feBlend in="SourceGraphic" in2="BackgroundImageFix" result="shape"/><feGaussianBlur result="effect1_foregroundBlur_751_7942" stdDeviation=".387"/></filter><filter id="s" width="5.174" height="5.455" x="86.909" y="84.623" color-interpolation-filters="sRGB" filterUnits="userSpaceOnUse"><feFlood flood-opacity="0" result="BackgroundImageFix"/><feBlend in="SourceGraphic" in2="BackgroundImageFix" result="shape"/><feGaussianBlur result="effect1_foregroundBlur_751_7942" stdDeviation=".299"/></filter><filter id="u" width="6.244" height="3.728" x="87.55" y="86.981" color-interpolation-filters="sRGB" filterUnits="userSpaceOnUse"><feFlood flood-opacity="0" result="BackgroundImageFix"/><feBlend in="SourceGraphic" in2="BackgroundImageFix" result="shape"/><feGaussianBlur result="effect1_foregroundBlur_751_7942" stdDeviation=".255"/></filter><filter id="y" width="10.419" height="5.437" x="27.228" y="84.147" color-interpolation-filters="sRGB" filterUnits="userSpaceOnUse"><feFlood flood-opacity="0" result="BackgroundImageFix"/><feBlend in="SourceGraphic" in2="BackgroundImageFix" result="shape"/><feGaussianBlur result="effect1_foregroundBlur_751_7942" stdDeviation=".369"/></filter><filter id="A" width="11.135" height="5.801" x="26.891" y="85.831" color-interpolation-filters="sRGB" filterUnits="userSpaceOnUse"><feFlood flood-opacity="0" result="BackgroundImageFix"/><feBlend in="SourceGraphic" in2="BackgroundImageFix" result="shape"/><feGaussianBlur result="effect1_foregroundBlur_751_7942" stdDeviation=".314"/></filter><filter id="C" width="98.784" height="97.243" x="7.521" y="5.51" color-interpolation-filters="sRGB" filterUnits="userSpaceOnUse"><feFlood flood-opacity="0" result="BackgroundImageFix"/><feBlend in="SourceGraphic" in2="BackgroundImageFix" result="shape"/><feGaussianBlur result="effect1_foregroundBlur_751_7942" stdDeviation=".291"/></filter><filter id="E" width="53.074" height="37.884" x="24.576" y="61.963" color-interpolation-filters="sRGB" filterUnits="userSpaceOnUse"><feFlood flood-opacity="0" result="BackgroundImageFix"/><feBlend in="SourceGraphic" in2="BackgroundImageFix" result="shape"/><feGaussianBlur result="effect1_foregroundBlur_751_7942" stdDeviation="1.604"/></filter><filter id="H" width="21.284" height="26.459" x="62.701" y="70.726" color-interpolation-filters="sRGB" filterUnits="userSpaceOnUse"><feFlood flood-opacity="0" result="BackgroundImageFix"/><feBlend in="SourceGraphic" in2="BackgroundImageFix" result="shape"/><feGaussianBlur result="effect1_foregroundBlur_751_7942" stdDeviation=".54"/></filter><filter id="K" width="53.534" height="76.607" x="51.822" y="27.086" color-interpolation-filters="sRGB" filterUnits="userSpaceOnUse"><feFlood flood-opacity="0" result="BackgroundImageFix"/><feBlend in="SourceGraphic" in2="BackgroundImageFix" result="shape"/><feGaussianBlur result="effect1_foregroundBlur_751_7942" stdDeviation="1.205"/></filter><linearGradient id="d" x1="72.899" x2="53.378" y1="15.393" y2="33.044" gradientUnits="userSpaceOnUse"><stop stop-color="#C0CDF9"/><stop offset="1" stop-color="#07092D" stop-opacity=".288"/></linearGradient><linearGradient id="e" x1="29.211" x2="51.69" y1="28.333" y2="50.812" gradientUnits="userSpaceOnUse"><stop stop-color="#fff"/><stop offset="1" stop-color="#fff" stop-opacity="0"/></linearGradient><linearGradient id="f" x1="53.344" x2="80.074" y1="15.023" y2="41.753" gradientUnits="userSpaceOnUse"><stop stop-color="#fff"/><stop offset="1" stop-color="#fff" stop-opacity="0"/></linearGradient><linearGradient id="m" x1="98.156" x2="98.215" y1="76.135" y2="79.114" gradientUnits="userSpaceOnUse"><stop stop-color="#fff"/><stop offset="1" stop-color="#fff" stop-opacity="0"/></linearGradient><linearGradient id="o" x1="98.274" x2="98.274" y1="75.793" y2="80.316" gradientUnits="userSpaceOnUse"><stop stop-color="#fff"/><stop offset="1" stop-color="#fff" stop-opacity="0"/></linearGradient><linearGradient id="r" x1="88.819" x2="90.285" y1="84.97" y2="87.561" gradientUnits="userSpaceOnUse"><stop stop-color="#fff"/><stop offset="1" stop-color="#fff" stop-opacity="0"/></linearGradient><linearGradient id="t" x1="88.267" x2="90.313" y1="84.052" y2="88.087" gradientUnits="userSpaceOnUse"><stop stop-color="#fff"/><stop offset="1" stop-color="#fff" stop-opacity="0"/></linearGradient><linearGradient id="x" x1="32.4" x2="32.901" y1="84.515" y2="86.635" gradientUnits="userSpaceOnUse"><stop stop-color="#fff"/><stop offset="1" stop-color="#fff" stop-opacity="0"/></linearGradient><linearGradient id="z" x1="32.424" x2="33.132" y1="84.254" y2="87.479" gradientUnits="userSpaceOnUse"><stop stop-color="#fff"/><stop offset="1" stop-color="#fff" stop-opacity="0"/></linearGradient><linearGradient id="F" x1="36.258" x2="61.492" y1="80.906" y2="87.578" gradientUnits="userSpaceOnUse"><stop stop-color="#fff"/><stop offset="1" stop-color="#fff" stop-opacity="0"/></linearGradient><linearGradient id="G" x1="49.634" x2="46.8" y1="65.566" y2="72.06" gradientUnits="userSpaceOnUse"><stop stop-color="#EEEEEC"/><stop offset="1" stop-color="#EEEEEC" stop-opacity="0"/></linearGradient><linearGradient id="J" x1="26.904" x2="30.874" y1="67.782" y2="70.936" gradientUnits="userSpaceOnUse"><stop stop-color="#fff"/><stop offset="1" stop-color="#fff" stop-opacity="0"/></linearGradient><linearGradient id="L" x1="73.375" x2="61.579" y1="84.968" y2="53.207" gradientUnits="userSpaceOnUse"><stop stop-color="#729FCF"/><stop offset="1" stop-color="#729FCF" stop-opacity="0"/></linearGradient><radialGradient id="g" cx="0" cy="0" r="1" gradientTransform="matrix(22.6717 0 0 15.1755 39.989 98.854)" gradientUnits="userSpaceOnUse"><stop stop-color="#fff"/><stop offset="1" stop-color="#fff" stop-opacity="0"/></radialGradient><radialGradient id="i" cx="0" cy="0" r="1" gradientTransform="matrix(28.9272 0 0 19.3627 51.942 99.397)" gradientUnits="userSpaceOnUse"><stop stop-color="#fff"/><stop offset="1" stop-color="#fff" stop-opacity="0"/></radialGradient><radialGradient id="j" cx="0" cy="0" r="1" gradientTransform="matrix(16.1628 0 0 6.84263 88.66 64.367)" gradientUnits="userSpaceOnUse"><stop stop-color="#fff"/><stop offset="1" stop-color="#fff" stop-opacity="0"/></radialGradient><radialGradient id="l" cx="0" cy="0" r="1" gradientTransform="matrix(16.1628 0 0 6.84263 92.08 66.254)" gradientUnits="userSpaceOnUse"><stop stop-color="#fff"/><stop offset="1" stop-color="#fff" stop-opacity="0"/></radialGradient><radialGradient id="q" cx="0" cy="0" r="1" gradientTransform="matrix(6.65092 0 0 .98264 97.139 81.178)" gradientUnits="userSpaceOnUse"><stop stop-color="#fff"/><stop offset="1" stop-color="#fff" stop-opacity="0"/></radialGradient><radialGradient id="v" cx="0" cy="0" r="1" gradientTransform="matrix(2.56483 -1.30043 .44437 .87642 90.707 89.667)" gradientUnits="userSpaceOnUse"><stop stop-color="#fff"/><stop offset="1" stop-color="#fff" stop-opacity="0"/></radialGradient><radialGradient id="w" cx="0" cy="0" r="1" gradientTransform="matrix(10.7358 0 0 4.3704 31.854 75.57)" gradientUnits="userSpaceOnUse"><stop stop-color="#fff" stop-opacity=".33"/><stop offset="1" stop-color="#fff" stop-opacity="0"/></radialGradient><radialGradient id="B" cx="0" cy="0" r="1" gradientTransform="matrix(5.85458 -1.62219 .60694 2.1905 32.134 90.826)" gradientUnits="userSpaceOnUse"><stop stop-color="#fff"/><stop offset="1" stop-color="#fff" stop-opacity="0"/></radialGradient><radialGradient id="D" cx="0" cy="0" r="1" gradientTransform="matrix(84.0597 0 0 82.7332 60.828 16.715)" gradientUnits="userSpaceOnUse"><stop stop-color="#fff"/><stop offset="1" stop-color="#fff" stop-opacity="0"/></radialGradient><radialGradient id="I" cx="0" cy="0" r="1" gradientTransform="matrix(13.2104 0 0 16.7883 73.555 83.684)" gradientUnits="userSpaceOnUse"><stop stop-color="#fff"/><stop offset="1" stop-color="#fff" stop-opacity="0"/></radialGradient></defs></svg>