<svg xmlns="http://www.w3.org/2000/svg" fill="none" viewBox="0 0 100 100"><path fill="url(#a)" fill-rule="evenodd" d="M88.038 17.55C70.117-3.459 38.558-5.96 17.551 11.96c-21.007 17.922-23.51 49.48-5.588 70.487 17.921 21.008 49.48 23.51 70.487 5.589 21.008-17.922 23.51-49.48 5.588-70.488M63.13 43.791c1.927 0 3.157 2.088 2.19 3.754l-.278.48-18.87 31.045c-.35.577-.977.93-1.652.93h-1.8a1.888 1.888 0 0 1-1.828-2.36l5.12-19.796a2.5 2.5 0 0 0-2.42-3.126h-7.865a2.5 2.5 0 0 1-2.42-3.126l7.726-29.886a2.306 2.306 0 0 1 2.236-1.702c.126.002.241.004.336.007h7.92a2.5 2.5 0 0 1 2.479 2.837l-.049.357-3.02 17.666a2.5 2.5 0 0 0 2.464 2.92z" clip-rule="evenodd"/><mask id="d" width="100" height="100" x="0" y="0" maskUnits="userSpaceOnUse" style="mask-type:alpha"><path fill="url(#b)" d="M49.998 99.999c27.614 0 49.999-22.385 49.999-49.999 0-27.613-22.386-49.998-50-49.998C22.385.002 0 22.387 0 50c0 27.614 22.385 50 49.998 50"/></mask><g filter="url(#c)" mask="url(#d)"><path fill="#fff" d="M2.779 33.565a49.998 49.998 0 1 0 94.889 1.354l-14.538 4.6a34.753 34.753 0 0 1-33.627 45.228 34.75 34.75 0 0 1-32.324-46.17z"/></g><defs><radialGradient id="a" cx="0" cy="0" r="1" gradientTransform="matrix(97.4983 0 0 994.24 10.001 49.999)" gradientUnits="userSpaceOnUse"><stop stop-color="#31B2F3"/><stop offset=".474" stop-color="#F27CEC"/><stop offset="1" stop-color="#FD6641"/></radialGradient><radialGradient id="b" cx="0" cy="0" r="1" gradientTransform="matrix(97.4965 0 0 994.222 10 50)" gradientUnits="userSpaceOnUse"><stop stop-color="#F27CEC"/><stop offset=".484" stop-color="#31B2F3"/><stop offset="1" stop-color="#7D7573"/></radialGradient><filter id="c" width="149.995" height="116.432" x="-24.999" y="8.566" color-interpolation-filters="sRGB" filterUnits="userSpaceOnUse"><feFlood flood-opacity="0" result="BackgroundImageFix"/><feBlend in="SourceGraphic" in2="BackgroundImageFix" result="shape"/><feGaussianBlur result="effect1_foregroundBlur_751_7995" stdDeviation="12.5"/></filter></defs></svg>