<svg xmlns="http://www.w3.org/2000/svg" xmlns:xlink="http://www.w3.org/1999/xlink" width="500" zoomAndPan="magnify" viewBox="0 0 375 374.999991" height="500" preserveAspectRatio="xMidYMid meet" version="1.0"><defs><clipPath id="d11f4d8f26"><path d="M 26.25 0 L 348.75 0 C 355.710938 0 362.390625 2.765625 367.3125 7.6875 C 372.234375 12.609375 375 19.289062 375 26.25 L 375 348.75 C 375 355.710938 372.234375 362.390625 367.3125 367.3125 C 362.390625 372.234375 355.710938 375 348.75 375 L 26.25 375 C 19.289062 375 12.609375 372.234375 7.6875 367.3125 C 2.765625 362.390625 0 355.710938 0 348.75 L 0 26.25 C 0 11.753906 11.753906 0 26.25 0 Z M 26.25 0 " clip-rule="nonzero"/></clipPath><clipPath id="ff4cc4e41f"><path d="M 22.902344 25.136719 L 63 25.136719 L 63 64.886719 L 22.902344 64.886719 Z M 22.902344 25.136719 " clip-rule="nonzero"/></clipPath><clipPath id="1dcef6fef9"><path d="M 79 25.136719 L 120 25.136719 L 120 64.886719 L 79 64.886719 Z M 79 25.136719 " clip-rule="nonzero"/></clipPath><clipPath id="9caa893848"><path d="M 136 25.136719 L 176.652344 25.136719 L 176.652344 64.886719 L 136 64.886719 Z M 136 25.136719 " clip-rule="nonzero"/></clipPath><clipPath id="6fa3fcf6ce"><path d="M 99.675781 114.457031 L 275.175781 114.457031 L 275.175781 304 L 99.675781 304 Z M 99.675781 114.457031 " clip-rule="nonzero"/></clipPath></defs><g clip-path="url(#d11f4d8f26)"><rect x="-37.5" width="450" fill="#14151e" y="-37.499999" height="449.999989" fill-opacity="1"/></g><path fill="#ff1d25" d="M 59.351562 45 C 59.351562 45.542969 59.324219 46.085938 59.273438 46.628906 C 59.21875 47.171875 59.140625 47.707031 59.03125 48.242188 C 58.925781 48.773438 58.792969 49.300781 58.636719 49.824219 C 58.480469 50.34375 58.296875 50.855469 58.085938 51.355469 C 57.878906 51.859375 57.648438 52.351562 57.390625 52.832031 C 57.132812 53.3125 56.855469 53.777344 56.550781 54.230469 C 56.25 54.679688 55.925781 55.117188 55.582031 55.539062 C 55.238281 55.957031 54.871094 56.363281 54.488281 56.746094 C 54.101562 57.128906 53.699219 57.496094 53.277344 57.839844 C 52.859375 58.1875 52.421875 58.507812 51.96875 58.8125 C 51.515625 59.113281 51.050781 59.394531 50.570312 59.648438 C 50.089844 59.90625 49.601562 60.140625 49.097656 60.347656 C 48.59375 60.554688 48.082031 60.738281 47.5625 60.894531 C 47.042969 61.054688 46.515625 61.1875 45.980469 61.292969 C 45.449219 61.398438 44.910156 61.476562 44.371094 61.53125 C 43.828125 61.585938 43.285156 61.613281 42.742188 61.613281 C 42.195312 61.613281 41.65625 61.585938 41.113281 61.53125 C 40.570312 61.476562 40.035156 61.398438 39.5 61.292969 C 38.96875 61.1875 38.441406 61.054688 37.917969 60.894531 C 37.398438 60.738281 36.886719 60.554688 36.382812 60.347656 C 35.882812 60.140625 35.390625 59.90625 34.910156 59.648438 C 34.429688 59.394531 33.964844 59.113281 33.511719 58.8125 C 33.058594 58.507812 32.625 58.1875 32.203125 57.839844 C 31.78125 57.496094 31.378906 57.128906 30.996094 56.746094 C 30.609375 56.363281 30.246094 55.957031 29.902344 55.539062 C 29.554688 55.117188 29.230469 54.679688 28.929688 54.230469 C 28.628906 53.777344 28.347656 53.3125 28.089844 52.832031 C 27.835938 52.351562 27.601562 51.859375 27.394531 51.355469 C 27.1875 50.855469 27.003906 50.34375 26.84375 49.824219 C 26.6875 49.300781 26.554688 48.773438 26.449219 48.242188 C 26.34375 47.707031 26.261719 47.171875 26.210938 46.628906 C 26.15625 46.085938 26.128906 45.542969 26.128906 45 C 26.128906 44.457031 26.15625 43.914062 26.210938 43.371094 C 26.261719 42.832031 26.34375 42.292969 26.449219 41.761719 C 26.554688 41.226562 26.6875 40.699219 26.84375 40.179688 C 27.003906 39.65625 27.1875 39.144531 27.394531 38.644531 C 27.601562 38.140625 27.835938 37.648438 28.089844 37.171875 C 28.347656 36.691406 28.628906 36.222656 28.929688 35.773438 C 29.230469 35.320312 29.554688 34.882812 29.902344 34.460938 C 30.246094 34.042969 30.609375 33.640625 30.996094 33.253906 C 31.378906 32.871094 31.78125 32.503906 32.203125 32.160156 C 32.625 31.816406 33.058594 31.492188 33.511719 31.1875 C 33.964844 30.886719 34.429688 30.609375 34.910156 30.351562 C 35.390625 30.09375 35.882812 29.863281 36.382812 29.652344 C 36.886719 29.445312 37.398438 29.261719 37.917969 29.105469 C 38.441406 28.945312 38.96875 28.816406 39.5 28.707031 C 40.035156 28.601562 40.570312 28.523438 41.113281 28.46875 C 41.65625 28.417969 42.195312 28.390625 42.742188 28.390625 C 43.285156 28.390625 43.828125 28.417969 44.371094 28.46875 C 44.910156 28.523438 45.449219 28.601562 45.980469 28.707031 C 46.515625 28.816406 47.042969 28.945312 47.5625 29.105469 C 48.082031 29.261719 48.59375 29.445312 49.097656 29.652344 C 49.601562 29.863281 50.089844 30.09375 50.570312 30.351562 C 51.050781 30.609375 51.515625 30.886719 51.96875 31.1875 C 52.421875 31.492188 52.859375 31.816406 53.277344 32.160156 C 53.699219 32.503906 54.101562 32.871094 54.488281 33.253906 C 54.871094 33.640625 55.238281 34.042969 55.582031 34.460938 C 55.925781 34.882812 56.25 35.320312 56.550781 35.773438 C 56.855469 36.222656 57.132812 36.691406 57.390625 37.171875 C 57.648438 37.648438 57.878906 38.140625 58.085938 38.644531 C 58.296875 39.144531 58.480469 39.65625 58.636719 40.179688 C 58.792969 40.699219 58.925781 41.226562 59.03125 41.761719 C 59.140625 42.292969 59.21875 42.832031 59.273438 43.371094 C 59.324219 43.914062 59.351562 44.457031 59.351562 45 Z M 59.351562 45 " fill-opacity="1" fill-rule="nonzero"/><g clip-path="url(#ff4cc4e41f)"><path fill="#14151e" d="M 42.742188 25.164062 C 31.785156 25.164062 22.902344 34.042969 22.902344 45 C 22.902344 55.957031 31.785156 64.835938 42.742188 64.835938 C 53.695312 64.835938 62.578125 55.957031 62.578125 45 C 62.578125 34.042969 53.695312 25.164062 42.742188 25.164062 Z M 42.742188 61.613281 C 33.582031 61.613281 26.128906 54.160156 26.128906 45 C 26.128906 35.839844 33.582031 28.390625 42.742188 28.390625 C 51.902344 28.390625 59.351562 35.839844 59.351562 45 C 59.351562 54.160156 51.902344 61.613281 42.742188 61.613281 Z M 42.742188 61.613281 " fill-opacity="1" fill-rule="nonzero"/></g><path fill="#ff931e" d="M 116.285156 45 C 116.285156 45.542969 116.257812 46.085938 116.203125 46.628906 C 116.152344 47.171875 116.070312 47.707031 115.964844 48.242188 C 115.859375 48.773438 115.726562 49.300781 115.570312 49.824219 C 115.410156 50.34375 115.226562 50.855469 115.019531 51.355469 C 114.8125 51.859375 114.578125 52.351562 114.324219 52.832031 C 114.066406 53.3125 113.789062 53.777344 113.484375 54.230469 C 113.183594 54.679688 112.859375 55.117188 112.515625 55.539062 C 112.167969 55.957031 111.804688 56.363281 111.417969 56.746094 C 111.035156 57.128906 110.632812 57.496094 110.210938 57.839844 C 109.792969 58.1875 109.355469 58.507812 108.902344 58.8125 C 108.449219 59.113281 107.984375 59.394531 107.503906 59.648438 C 107.023438 59.90625 106.53125 60.140625 106.03125 60.347656 C 105.527344 60.554688 105.015625 60.738281 104.496094 60.894531 C 103.976562 61.054688 103.449219 61.1875 102.914062 61.292969 C 102.378906 61.398438 101.84375 61.476562 101.300781 61.53125 C 100.761719 61.585938 100.21875 61.613281 99.671875 61.613281 C 99.128906 61.613281 98.585938 61.585938 98.046875 61.53125 C 97.503906 61.476562 96.964844 61.398438 96.433594 61.292969 C 95.898438 61.1875 95.371094 61.054688 94.851562 60.894531 C 94.332031 60.738281 93.820312 60.554688 93.316406 60.347656 C 92.8125 60.140625 92.324219 59.90625 91.84375 59.648438 C 91.363281 59.394531 90.898438 59.113281 90.445312 58.8125 C 89.992188 58.507812 89.554688 58.1875 89.136719 57.839844 C 88.714844 57.496094 88.3125 57.128906 87.929688 56.746094 C 87.542969 56.363281 87.179688 55.957031 86.832031 55.539062 C 86.488281 55.117188 86.164062 54.679688 85.863281 54.230469 C 85.558594 53.777344 85.28125 53.3125 85.023438 52.832031 C 84.769531 52.351562 84.535156 51.859375 84.328125 51.355469 C 84.117188 50.855469 83.9375 50.34375 83.777344 49.824219 C 83.621094 49.300781 83.488281 48.773438 83.382812 48.242188 C 83.277344 47.707031 83.195312 47.171875 83.144531 46.628906 C 83.089844 46.085938 83.0625 45.542969 83.0625 45 C 83.0625 44.457031 83.089844 43.914062 83.144531 43.371094 C 83.195312 42.832031 83.277344 42.292969 83.382812 41.761719 C 83.488281 41.226562 83.621094 40.699219 83.777344 40.179688 C 83.9375 39.65625 84.117188 39.144531 84.328125 38.644531 C 84.535156 38.140625 84.769531 37.648438 85.023438 37.171875 C 85.28125 36.691406 85.558594 36.222656 85.863281 35.773438 C 86.164062 35.320312 86.488281 34.882812 86.832031 34.460938 C 87.179688 34.042969 87.542969 33.640625 87.929688 33.253906 C 88.3125 32.871094 88.714844 32.503906 89.136719 32.160156 C 89.554688 31.816406 89.992188 31.492188 90.445312 31.1875 C 90.898438 30.886719 91.363281 30.609375 91.84375 30.351562 C 92.324219 30.09375 92.8125 29.863281 93.316406 29.652344 C 93.820312 29.445312 94.332031 29.261719 94.851562 29.105469 C 95.371094 28.945312 95.898438 28.816406 96.433594 28.707031 C 96.964844 28.601562 97.503906 28.523438 98.046875 28.46875 C 98.585938 28.417969 99.128906 28.390625 99.671875 28.390625 C 100.21875 28.390625 100.761719 28.417969 101.300781 28.46875 C 101.84375 28.523438 102.378906 28.601562 102.914062 28.707031 C 103.449219 28.816406 103.976562 28.945312 104.496094 29.105469 C 105.015625 29.261719 105.527344 29.445312 106.03125 29.652344 C 106.53125 29.863281 107.023438 30.09375 107.503906 30.351562 C 107.984375 30.609375 108.449219 30.886719 108.902344 31.1875 C 109.355469 31.492188 109.792969 31.816406 110.210938 32.160156 C 110.632812 32.503906 111.035156 32.871094 111.417969 33.253906 C 111.804688 33.640625 112.167969 34.042969 112.515625 34.460938 C 112.859375 34.882812 113.183594 35.320312 113.484375 35.773438 C 113.789062 36.222656 114.066406 36.691406 114.324219 37.171875 C 114.578125 37.648438 114.8125 38.140625 115.019531 38.644531 C 115.226562 39.144531 115.410156 39.65625 115.570312 40.179688 C 115.726562 40.699219 115.859375 41.226562 115.964844 41.761719 C 116.070312 42.292969 116.152344 42.832031 116.203125 43.371094 C 116.257812 43.914062 116.285156 44.457031 116.285156 45 Z M 116.285156 45 " fill-opacity="1" fill-rule="nonzero"/><g clip-path="url(#1dcef6fef9)"><path fill="#14151e" d="M 99.671875 25.164062 C 88.71875 25.164062 79.835938 34.042969 79.835938 45 C 79.835938 55.957031 88.71875 64.835938 99.671875 64.835938 C 110.628906 64.835938 119.511719 55.957031 119.511719 45 C 119.511719 34.042969 110.628906 25.164062 99.671875 25.164062 Z M 99.671875 61.613281 C 90.515625 61.613281 83.0625 54.160156 83.0625 45 C 83.0625 35.839844 90.515625 28.390625 99.671875 28.390625 C 108.832031 28.390625 116.285156 35.839844 116.285156 45 C 116.285156 54.160156 108.832031 61.613281 99.671875 61.613281 Z M 99.671875 61.613281 " fill-opacity="1" fill-rule="nonzero"/></g><path fill="#8cc63f" d="M 173.21875 45 C 173.21875 45.542969 173.191406 46.085938 173.136719 46.628906 C 173.085938 47.171875 173.003906 47.707031 172.898438 48.242188 C 172.792969 48.773438 172.660156 49.300781 172.503906 49.824219 C 172.34375 50.34375 172.160156 50.855469 171.953125 51.355469 C 171.746094 51.859375 171.511719 52.351562 171.257812 52.832031 C 171 53.3125 170.722656 53.777344 170.417969 54.230469 C 170.117188 54.679688 169.792969 55.117188 169.449219 55.539062 C 169.101562 55.957031 168.738281 56.363281 168.351562 56.746094 C 167.96875 57.128906 167.566406 57.496094 167.144531 57.839844 C 166.722656 58.1875 166.289062 58.507812 165.835938 58.8125 C 165.382812 59.113281 164.917969 59.394531 164.4375 59.648438 C 163.957031 59.90625 163.464844 60.140625 162.964844 60.347656 C 162.460938 60.554688 161.949219 60.738281 161.429688 60.894531 C 160.910156 61.054688 160.382812 61.1875 159.847656 61.292969 C 159.3125 61.398438 158.777344 61.476562 158.234375 61.53125 C 157.695312 61.585938 157.152344 61.613281 156.605469 61.613281 C 156.0625 61.613281 155.519531 61.585938 154.980469 61.53125 C 154.4375 61.476562 153.898438 61.398438 153.367188 61.292969 C 152.832031 61.1875 152.304688 61.054688 151.785156 60.894531 C 151.265625 60.738281 150.753906 60.554688 150.25 60.347656 C 149.746094 60.140625 149.257812 59.90625 148.777344 59.648438 C 148.296875 59.394531 147.832031 59.113281 147.378906 58.8125 C 146.925781 58.507812 146.488281 58.1875 146.070312 57.839844 C 145.648438 57.496094 145.246094 57.128906 144.863281 56.746094 C 144.476562 56.363281 144.113281 55.957031 143.765625 55.539062 C 143.421875 55.117188 143.097656 54.679688 142.796875 54.230469 C 142.492188 53.777344 142.214844 53.3125 141.957031 52.832031 C 141.699219 52.351562 141.46875 51.859375 141.261719 51.355469 C 141.050781 50.855469 140.871094 50.34375 140.710938 49.824219 C 140.554688 49.300781 140.421875 48.773438 140.316406 48.242188 C 140.210938 47.707031 140.128906 47.171875 140.074219 46.628906 C 140.023438 46.085938 139.996094 45.542969 139.996094 45 C 139.996094 44.457031 140.023438 43.914062 140.074219 43.371094 C 140.128906 42.832031 140.210938 42.292969 140.316406 41.761719 C 140.421875 41.226562 140.554688 40.699219 140.710938 40.179688 C 140.871094 39.65625 141.050781 39.144531 141.261719 38.644531 C 141.46875 38.140625 141.699219 37.648438 141.957031 37.171875 C 142.214844 36.691406 142.492188 36.222656 142.796875 35.773438 C 143.097656 35.320312 143.421875 34.882812 143.765625 34.460938 C 144.113281 34.042969 144.476562 33.640625 144.863281 33.253906 C 145.246094 32.871094 145.648438 32.503906 146.070312 32.160156 C 146.488281 31.816406 146.925781 31.492188 147.378906 31.1875 C 147.832031 30.886719 148.296875 30.609375 148.777344 30.351562 C 149.257812 30.09375 149.746094 29.863281 150.25 29.652344 C 150.753906 29.445312 151.265625 29.261719 151.785156 29.105469 C 152.304688 28.945312 152.832031 28.816406 153.367188 28.707031 C 153.898438 28.601562 154.4375 28.523438 154.980469 28.46875 C 155.519531 28.417969 156.0625 28.390625 156.605469 28.390625 C 157.152344 28.390625 157.695312 28.417969 158.234375 28.46875 C 158.777344 28.523438 159.3125 28.601562 159.847656 28.707031 C 160.382812 28.816406 160.910156 28.945312 161.429688 29.105469 C 161.949219 29.261719 162.460938 29.445312 162.964844 29.652344 C 163.464844 29.863281 163.957031 30.09375 164.4375 30.351562 C 164.917969 30.609375 165.382812 30.886719 165.835938 31.1875 C 166.289062 31.492188 166.722656 31.816406 167.144531 32.160156 C 167.566406 32.503906 167.96875 32.871094 168.351562 33.253906 C 168.738281 33.640625 169.101562 34.042969 169.449219 34.460938 C 169.792969 34.882812 170.117188 35.320312 170.417969 35.773438 C 170.722656 36.222656 171 36.691406 171.257812 37.171875 C 171.511719 37.648438 171.746094 38.140625 171.953125 38.644531 C 172.160156 39.144531 172.34375 39.65625 172.503906 40.179688 C 172.660156 40.699219 172.792969 41.226562 172.898438 41.761719 C 173.003906 42.292969 173.085938 42.832031 173.136719 43.371094 C 173.191406 43.914062 173.21875 44.457031 173.21875 45 Z M 173.21875 45 " fill-opacity="1" fill-rule="nonzero"/><g clip-path="url(#9caa893848)"><path fill="#14151e" d="M 156.605469 25.164062 C 145.652344 25.164062 136.769531 34.042969 136.769531 45 C 136.769531 55.957031 145.652344 64.835938 156.605469 64.835938 C 167.5625 64.835938 176.445312 55.957031 176.445312 45 C 176.445312 34.042969 167.5625 25.164062 156.605469 25.164062 Z M 156.605469 61.613281 C 147.449219 61.613281 139.996094 54.160156 139.996094 45 C 139.996094 35.839844 147.449219 28.390625 156.605469 28.390625 C 165.765625 28.390625 173.21875 35.839844 173.21875 45 C 173.21875 54.160156 165.765625 61.613281 156.605469 61.613281 Z M 156.605469 61.613281 " fill-opacity="1" fill-rule="nonzero"/></g><g clip-path="url(#6fa3fcf6ce)"><path fill="#d9d9d9" d="M 275.316406 124.375 L 267.488281 124.375 L 267.488281 114.46875 L 196.722656 114.46875 L 196.722656 123.179688 L 187.734375 123.179688 L 187.734375 180.605469 L 179.019531 180.605469 L 179.019531 189.597656 L 165.992188 189.597656 L 165.992188 197.851562 L 152.691406 197.851562 L 152.691406 207.210938 L 143.519531 207.210938 L 143.519531 215.835938 L 125.996094 215.835938 L 125.996094 207.300781 L 117.191406 207.300781 L 117.191406 198.496094 L 108.386719 198.496094 L 108.386719 180.605469 L 99.675781 180.605469 L 99.675781 233.261719 L 108.117188 233.261719 L 108.117188 242.253906 L 117.289062 242.253906 L 117.289062 251.152344 L 126.003906 251.152344 L 126.003906 259.957031 L 134.804688 259.957031 L 134.804688 268.488281 L 143.519531 268.488281 L 143.519531 303.988281 L 161.410156 303.988281 L 161.410156 294.90625 L 152.511719 294.90625 L 152.511719 286.195312 L 161.316406 286.195312 L 161.316406 277.390625 L 170.117188 277.390625 L 170.117188 268.675781 L 179.019531 268.675781 L 179.019531 277.390625 L 187.492188 277.390625 L 187.492188 303.996094 L 205.167969 303.996094 L 205.167969 295.003906 L 196.632812 295.003906 L 196.632812 259.867188 L 205.167969 259.867188 L 205.167969 250.964844 L 214.246094 250.964844 L 214.246094 237.753906 L 222.871094 237.753906 L 222.871094 206.941406 L 231.863281 206.941406 L 231.863281 215.472656 L 240.394531 215.472656 L 240.394531 198.226562 L 222.96875 198.226562 L 222.96875 180.523438 L 258.007812 180.523438 L 258.007812 171.71875 L 231.863281 171.71875 L 231.769531 162.058594 L 275.316406 162.058594 Z M 214.140625 136.585938 L 205.335938 136.585938 L 205.335938 127.78125 L 214.140625 127.78125 Z M 214.140625 136.585938 " fill-opacity="1" fill-rule="nonzero"/></g></svg>